<?xml version="1.0" encoding="UTF-8"?>
<!DOCTYPE svg PUBLIC "-//W3C//DTD SVG 1.1//EN" "http://www.w3.org/Graphics/SVG/1.1/DTD/svg11.dtd">
<!-- Creator: CorelDRAW -->
<svg xmlns="http://www.w3.org/2000/svg" xml:space="preserve" width="135.485mm" height="135.485mm" version="1.1" style="shape-rendering:geometricPrecision; text-rendering:geometricPrecision; image-rendering:optimizeQuality; fill-rule:evenodd; clip-rule:evenodd"
viewBox="0 0 445 445"
 xmlns:xlink="http://www.w3.org/1999/xlink"
 xmlns:xodm="http://www.corel.com/coreldraw/odm/2003">
 <defs>
  <style type="text/css">
   <![CDATA[
    .fil0 {fill:#F5A001}
   ]]>
  </style>
 </defs>
 <g id="Camada_x0020_1">
  <metadata id="CorelCorpID_0Corel-Layer"/>
  <g id="_1828096864272">
   <path class="fil0" d="M181.65 327.66c0,-12.84 23.6,7.42 35.94,-17.08 1.45,-2.88 7.06,-19.11 13.92,-4.97 3.53,7.28 6.14,13.94 13.65,16.77 10.7,4.03 24.28,-4.11 24.28,5.27 0,7.65 -17.63,17.03 -5.39,34.94 12.74,18.64 1.83,14.6 -12.86,14.6 -17.96,0 -18.23,24.48 -26.07,23.47 -4.24,-2.24 -3.26,-2.02 -5.51,-6.66 -1.46,-3 -2.49,-5.35 -4.19,-7.98 -11.64,-18.01 -33.75,-0.79 -33.75,-13.18 0,-3.97 10.43,-13.7 10.43,-21.73 0,-10.8 -10.43,-18.47 -10.43,-23.47zm-119.94 -74.75c18.32,0 25.72,2.86 33.91,-13.02 4.44,-8.61 7.94,-16.49 15.63,-0.88 3.33,6.77 7.53,13.75 17.33,13.96 5.42,0.11 11.11,-0.05 16.56,-0.05 7.34,10.96 -7.82,11.2 -7.82,27.81 0,4.92 2.36,8.38 4.33,11.31 0.57,0.85 6.09,9.35 6.09,9.55 0,8.8 -9.12,5.21 -17.38,5.21 -20.72,0 -18.39,23.47 -26.94,23.47 -9.34,0 -5.14,-27.68 -33.55,-23.08 -3.52,0.57 -7.57,1.1 -9.76,-2.38 -0.98,-1.56 -0.9,-1.93 -0.47,-3.51 2.64,-9.68 18.27,-14.76 4.14,-35.69 -5.01,-7.43 -5.67,-7.33 -2.09,-12.69zm205.11 -67.79c0,-35.57 49.19,-49.87 66.65,-17.11 3.82,7.17 3.54,10.44 4.62,19.71 1.49,12.78 23.91,-0.85 47.55,27.19 29.79,35.34 7.03,95.36 -45.82,95.36 -38.03,0 -69.14,-39 -52.9,-80.71 3.55,-9.12 4.76,-9.4 -4.65,-15.58 -9.17,-6.02 -15.46,-17.98 -15.46,-28.87zm-36.5 -52.15c-3.86,-1.03 -14.3,-16.41 -18.48,4.99 -1.46,7.51 -8.47,39.62 -8.47,44.55 -6.72,-0.56 -3.87,-6.08 -11.3,-6.08 -7.57,0 -7.47,9.99 -9.34,19.34 -1.86,9.3 -2.21,20.64 -8.91,20.64 -5.18,0 -19.51,-16.46 -23.68,-20.64 -3.54,-3.54 -19.5,-21.08 -23.25,-21.08 -6.33,0 -9.77,6.52 -5.48,11.54l33.07 33.01c6.46,6.46 15.97,15.86 29.11,7.82 4.76,-2.91 7.71,-6.9 9.2,-12.53 1.09,-4.11 3.53,-14.88 3.63,-18.97 2.78,0.23 11.6,3.3 17.44,-5.16 3.59,-5.2 8.57,-36.63 10.37,-44.38 3.57,0.3 15.24,3.3 19.27,-9.41l12.01 -61.86c7.07,1.65 14.67,3.89 21.36,6.45 7.13,2.73 12.37,5.57 18.92,8.89 10.28,5.22 23.65,15.84 32.52,23.97 7.19,6.59 19.55,23.59 24.72,31.77 6.08,9.62 13.42,27.65 16.33,40.16 -3.6,-0.84 -6.16,-2.08 -9.91,-3.12 -5.32,-1.48 -7.33,0.19 -8.63,-4.41 -1.94,-6.85 -1.4,-10.85 -6.82,-19.25 -20.52,-31.81 -64.83,-30.33 -83.79,1.06 -8.99,14.88 -8.64,34.61 0.23,49.47 1.8,3.01 3.57,5.56 5.75,8.16 8.49,10.12 9.15,2.12 5.32,15.38 -0.76,2.63 -1.59,6.44 -1.86,8.57 -1.12,8.54 -0.9,10.62 -0.16,18.83 2.98,33.18 34.83,62.65 65.12,62.65 -4.85,7.24 -17.79,17.88 -24.5,22.43 -16.82,11.4 -14.49,9.11 -30.26,16.68 -1.32,-2.49 -6.95,-10.11 -6.95,-12.17 0,-4.62 10.43,-11.92 10.43,-22.6 0,-9.46 -8,-18.25 -17.38,-18.25 -21.62,0 -15.17,3.54 -22.88,-11.02 -6.44,-12.17 -17.74,-14.74 -28.4,-8.11 -5.55,3.45 -7.54,12.53 -10.74,17.07 -4.87,6.92 -20.52,-3.84 -30.75,7.49 -14.21,15.74 4.99,28.44 4.99,36.28 0,1.4 -6.72,11.39 -7.82,13.04 -14.2,-3.31 -33.02,-16.28 -44.83,-25.57 -2.42,-1.9 -3.24,-3.29 -5.58,-4.85 2.39,-4.51 4.17,-8.88 6.95,-13.04 7.63,0 18.1,1.27 23.75,-1.45 9.1,-4.38 10.15,-11 10.15,-19.4 0,-7.17 -9.56,-13.73 -9.56,-20.86 0,-4.18 19.24,-20.03 3.73,-35.02 -4.99,-4.82 -8.48,-4.96 -15.03,-4.96 -15.02,0 -11.35,3.71 -18.53,-9.28 -4.18,-7.57 -7.21,-13.31 -18.84,-13.31 -6.98,0 -12.38,4.54 -15.08,9.26 -6.85,11.98 -4.31,15.91 -15.34,13.34l-0.87 -18.25c0,-39.42 14.63,-59.7 16.51,-67.79 3.03,2.03 13.22,13.91 15.64,13.91 4.62,0 7.82,-2.24 7.82,-6.95 0,-4.62 -4.54,-7.59 -7.17,-10.21 -3.5,-3.5 -25.86,-24.44 -25.86,-27.16 0,-6.44 2.22,-7.25 8.16,-8.36l23.97 -4.71c3.74,-0.77 7.85,-2.58 7.85,-6.92 0,-6.74 -5.58,-5.18 -6.08,-11.3l44.98 -8.9c20.69,-3.97 6.27,-14.18 3.69,-18.04 2.2,-1.05 79.04,-16.51 83.44,-16.51 1.42,0 2.61,0.52 2.61,1.74 0,4.39 -15.46,81.24 -16.51,83.44zm-82.57 -68.66l0.87 6.08c-5.78,0.48 -40.45,7.48 -43.99,9.89 -7.09,4.83 -7.18,10.9 -5.55,17.92 -5.49,0 -19.92,3.33 -23.52,5.16 -15.44,7.87 -14.9,27.4 2.66,39.16 -9.35,17.67 -19.94,46.29 -19.99,67.79 -0.01,5.66 -1.34,8.14 -0.83,13.85 1.99,22.53 1.34,12.33 -6.8,21.1 -12.96,13.95 5.4,29.95 5.54,34.6 0.14,4.59 -21.87,24.67 -1.54,38.39 10.81,7.29 23.02,-3.74 28.59,7.04 6.22,12.04 9.17,21.32 27.2,17.13 7.44,11.12 38.46,28.39 53.65,34.13 7.76,2.94 4.33,3.22 8.76,8.63 6.25,7.63 16.54,5.91 29.72,5.91 7.39,11.04 7.15,22.6 24.34,22.6 10.87,0 14.82,-8.67 17.96,-15.07 0.7,-1.43 0.95,-2.17 1.68,-3.54 2.23,-4.21 4.32,-4.08 10.77,-4.01 2.9,0.03 6.76,0.22 9.57,0.01 7.17,-0.55 13.04,-5.46 15.22,-11.73 2.14,-6.17 3.05,-3.9 17.54,-11.14 8.79,-4.39 25.18,-15.39 32.21,-22.54 6.51,-6.62 10.21,-8.34 18.35,-19.02 7.73,-10.14 10.97,0.36 36.28,-19.35 11.04,-8.6 25.56,-30.17 25.56,-49.19 0,-17.98 -0.49,-28.04 -10.25,-43.64 -12.77,-20.4 -15.35,-11.67 -17.79,-24.79 -9.73,-52.27 -46.17,-95.43 -93.05,-117.28 -9.42,-4.39 -21.03,-8.19 -31.87,-10.71 0,-4.69 1.74,-7.78 1.74,-11.3 0,-8.27 -7.56,-16.51 -15.64,-16.51 -4.94,0 -8.98,1.08 -13.54,2.11l-66.49 13.47c-6.79,1.39 -17.32,3.02 -17.32,14.84z"/>
   <path class="fil0" d="M-0 213.81c0,35.55 3.74,66.53 17.67,96.18 9.21,19.61 13.52,28.56 26.78,46.23 1.85,2.46 3.25,4.51 5.31,6.86 0.89,1.02 2.06,2.64 2.73,3.35 5.11,5.4 17.87,0.25 8.09,-11.56 -2.1,-2.54 -3.3,-4.14 -5.33,-6.84 -3.58,-4.78 -6.52,-8.59 -9.69,-13.77 -20,-32.64 -32.52,-71.83 -32.52,-110.88 0,-12.18 1.24,-23.76 3.22,-35.89 9.51,-58.43 44.43,-109.79 93.42,-141.24 12.47,-8.01 25.4,-14.29 39.44,-19.66 57.15,-21.86 123.22,-15.89 175.34,13.13l39.83 28.83c4.82,3.92 1.8,4.47 9.43,4.47 2.62,0 10.02,-6.43 0.51,-13.55 -3.34,-2.51 -4.44,-4.25 -7.34,-6.57 -18.96,-15.18 -25.88,-20.14 -49.08,-31.75 -20.79,-10.4 -56.78,-21.14 -87.5,-21.14 -38.6,0 -70.69,4.9 -101.41,20.27 -6.21,3.11 -12.17,5.89 -17.71,9.23 -24.88,15 -39.06,26.83 -58.39,48.51 -29.4,32.98 -52.81,89.21 -52.81,135.79z"/>
   <path class="fil0" d="M385.89 89.52c0,2.71 13,20.36 17.11,27.22 17.79,29.66 28.96,69.62 28.96,104.89 0,51.52 -17.16,94.18 -48.29,134.23 -18.33,23.58 -44.29,41.96 -70.78,55.25 -52.92,26.54 -114.24,27.1 -173.09,3.61l-25.78 -13.34c-4.03,-2.61 -7.8,-4.72 -11.6,-7.52 -3.93,-2.9 -20,-16.65 -23.33,-16.65 -4.42,0 -11.91,5.12 -2.41,13.71 34.84,31.5 91.32,54.08 137.99,54.08l15.64 0c55.5,0 112.22,-27.48 149.71,-64.97 37.44,-37.44 64.97,-94.25 64.97,-149.71 0,-35.57 -3.08,-61.07 -16.01,-91.76 -4.63,-10.98 -9.62,-20.99 -15.44,-30.63 -3,-4.97 -15.04,-25.36 -20.7,-25.36 -4.2,0 -6.95,2.75 -6.95,6.95z"/>
   <path class="fil0" d="M213.81 73.88c0,4.39 4.31,6.95 6.95,6.95 8.53,0 8.53,-13.91 0,-13.91 -3.42,0 -6.95,2.83 -6.95,6.95z"/>
   <path class="fil0" d="M205.98 343.31c0,8.74 13.91,7.3 13.91,0.87 0,-11.34 -13.91,-9.29 -13.91,-0.87z"/>
   <path class="fil0" d="M137.32 110.38c0,2.26 0.66,3.84 1.94,5.01 6.57,5.98 14.68,-3.3 9.57,-9.57 -3.93,-4.82 -11.51,-1.92 -11.51,4.56z"/>
   <path class="fil0" d="M283.34 192.08c0,4.2 2.75,6.95 6.95,6.95 8.98,0 8.98,-13.04 0,-13.04 -3.72,0 -6.95,2.68 -6.95,6.08z"/>
   <path class="fil0" d="M108.64 271.17c0,4.2 2.75,6.95 6.95,6.95 8.98,0 8.98,-13.04 0,-13.04 -3.72,0 -6.95,2.68 -6.95,6.08z"/>
   <path class="fil0" d="M181.65 92.13c0,9.68 13.85,8.9 13.55,0.01 -0.28,-8.35 -13.55,-8.02 -13.55,-0.01z"/>
   <path class="fil0" d="M85.18 286.81c0,13.7 13.04,7.94 13.04,2.61 0,-11.76 -13.04,-8.04 -13.04,-2.61z"/>
   <path class="fil0" d="M308.54 178.17c0,9.15 13.04,9.36 13.04,0 0,-8.96 -13.04,-8.65 -13.04,0z"/>
   <path class="fil0" d="M127.76 141.67c0,10.68 13.04,9.93 13.04,0.87 0,-9.48 -13.04,-7.27 -13.04,-0.87z"/>
   <path class="fil0" d="M183.39 127.76c0,11.14 13.04,9.85 13.04,0.87 0,-9.27 -13.04,-6.88 -13.04,-0.87z"/>
   <path class="fil0" d="M347.65 274.65c0,11.14 13.04,9.85 13.04,0.87 0,-9.27 -13.04,-6.88 -13.04,-0.87z"/>
   <path class="fil0" d="M232.06 357.21c0,9.35 13.04,9.83 13.04,-0.87 0,-6.01 -13.04,-8.4 -13.04,0.87z"/>
   <path class="fil0" d="M160.79 155.57c0,12.38 13.04,8.43 13.04,1.74 0,-9.77 -13.04,-8.16 -13.04,-1.74z"/>
   <path class="fil0" d="M318.1 222.5c0,10.69 13.04,10.69 13.04,0 0,-6.93 -13.04,-6.93 -13.04,0z"/>
   <path class="fil0" d="M332.88 248.57c0,10.69 13.04,10.69 13.04,0 0,-6.93 -13.04,-6.93 -13.04,0z"/>
  </g>
 </g>
</svg>
