<?xml version="1.0" encoding="UTF-8"?>
<!DOCTYPE svg PUBLIC "-//W3C//DTD SVG 1.1//EN" "http://www.w3.org/Graphics/SVG/1.1/DTD/svg11.dtd">
<!-- Creator: CorelDRAW -->
<svg xmlns="http://www.w3.org/2000/svg" xml:space="preserve" width="124.868mm" height="135.45mm" version="1.1" style="shape-rendering:geometricPrecision; text-rendering:geometricPrecision; image-rendering:optimizeQuality; fill-rule:evenodd; clip-rule:evenodd"
viewBox="0 0 320.74 347.92"
 xmlns:xlink="http://www.w3.org/1999/xlink"
 xmlns:xodm="http://www.corel.com/coreldraw/odm/2003">
 <defs>
  <style type="text/css">
   <![CDATA[
    .fil0 {fill:#F5A001}
   ]]>
  </style>
 </defs>
 <g id="Camada_x0020_1">
  <metadata id="CorelCorpID_0Corel-Layer"/>
  <g id="_1784818465040">
   <path class="fil0" d="M147.46 285.4l0 -29.22 25.82 0 0 29.22c0,7.01 3.02,13.57 6.3,17.48 7.22,8.58 26.75,10.78 40.58,31.45l-119.6 0c13.69,-20.44 33.05,-22.93 40.27,-31.08 3.44,-3.89 6.62,-10.68 6.62,-17.84zm-133.19 -72.71l292.2 0c-3.44,7.17 0.18,8.4 -12.39,20.91 -5.25,5.22 -14.73,8.99 -24.99,8.99l-217.45 0c-11.57,0 -20.41,-4.2 -26.78,-10.6 -9.59,-9.63 -7.92,-13.73 -10.6,-19.3zm106.69 -31.26c0,-12.87 2.15,-21.55 11.04,-30.42 3.07,-3.06 6.22,-5.61 10.07,-7.6 19.03,-9.87 44.67,-2.18 53.74,17.54 8.34,18.16 1.6,38.14 -2.81,38.14l-65.23 0c-3.48,0 -6.8,-12.74 -6.8,-17.67zm167.16 17.67l-68.63 0c-16.9,-31.93 8.99,-59.8 30.58,-59.8 14.82,0 21.46,1.53 32.45,12.4 10.68,10.55 14.08,28.55 7.63,42.64 -0.83,1.82 -1.52,2.55 -2.03,4.76zm-260.94 -20.39c0,-10.72 5.18,-21.2 10.69,-26.68 3.61,-3.59 5.82,-5.9 10.58,-8.44 32.09,-17.13 73.42,16.53 52.79,55.51l-68.63 0c-0.69,-2.98 -2.52,-5.47 -3.65,-9.26 -0.71,-2.36 -1.78,-8.55 -1.78,-11.13zm125.03 -53c-13.51,0.3 -35.74,16.56 -38.05,26.5 -3.7,-2.71 -8.34,-17.81 -32.01,-25.07 -5.54,-1.7 -8.08,1.22 -8.08,-10.94 0,-29.84 31.25,-47.84 55.5,-36.48 4.27,2 5.49,2.56 8.9,5.37 12.17,10.05 17.51,24.46 13.74,40.62zm94.45 -11.55c0,19.11 -2.25,6.69 -21.62,19.15 -13.37,8.6 -15.42,16.67 -18.47,18.9 -0.7,-3.02 -4.18,-7.09 -6.28,-9.35 -2.79,-3.02 -5.26,-5.3 -8.56,-7.75 -4.48,-3.31 -16.05,-9.24 -23.21,-9.4 -0.7,-8.37 -2.39,-7.25 -0.09,-18.43 1.21,-5.88 3.62,-10.16 6.59,-14.47 12.85,-18.62 40.5,-21.7 57.85,-6.99 6.44,5.46 13.79,16.75 13.79,28.34zm-139.98 -61.84c0,18.25 4.58,5.75 -14.05,14.49 -3.3,1.55 -5.85,2.85 -8.79,4.8 -7.85,5.23 -15.06,13.2 -18.81,21.96 -4.37,10.21 -5.4,16.76 -4.47,28.1 0.58,7.09 0.48,1.63 -12.33,6.75 -12.17,4.86 -22.88,13.8 -28.76,25.61 -5.54,11.14 -7.56,23.78 -4.81,36.53 0.73,3.37 2.06,5.43 2.32,8.55 -15.26,0 -16.99,-1.04 -16.99,10.19 0,17.11 12.49,34.27 28.53,42.14 4.91,2.41 11.71,4.75 19.04,4.75l85.62 0 0 31.26c0,7.44 -8.84,10.22 -13.82,12.68 -10.61,5.25 -21.78,14.78 -28.8,24.2 -2.15,2.89 -9.71,13.05 -9.71,16.8 0,3.22 3.32,6.8 6.8,6.8l145.42 0c3.48,0 6.8,-3.57 6.8,-6.8 0,-6.67 -16.18,-24.95 -22.62,-30.38 -11.27,-9.5 -14.67,-9.38 -24.51,-14.91 -2.41,-1.35 -5.19,-5.16 -5.19,-8.4l0 -31.26 85.62 0c10.31,0 22.03,-4.96 29.37,-11.4 1.18,-1.04 2.35,-1.88 3.34,-2.78 9.28,-8.44 14.85,-23.06 14.85,-36.79 0,-7.77 -9.27,-6.12 -16.99,-6.12 0.25,-2.99 1.48,-4.94 2.2,-8 8.21,-34.89 -21.23,-65.39 -45.69,-65.39 0,-10.31 2.64,-16.8 -4.3,-31.72 -7.04,-15.13 -21.12,-27.31 -37.57,-30.38 -11.84,-2.21 1.38,-3 -7.54,-28.47 -2.61,-7.44 -14.58,-28.34 -24.37,-24.72 -1.79,0.66 -2.24,1.08 -3.02,2.47 -3.13,5.54 0.19,8.02 3.93,11.74 10.39,10.36 12.4,17.42 12.4,32.45 0,3.42 -0.61,3.04 -0.68,6.12 -9.85,0 -22.94,8.11 -29.5,14.67 -0.1,0.1 -0.24,0.24 -0.33,0.34 -4.46,4.66 -7.58,10.27 -9.58,10.8 -2.6,-9.73 -24.54,-25.82 -38.05,-25.82l-0.68 -12.23c0,-20.67 17.67,-27.8 17.67,-33.98 0,-2.4 -1.76,-5.43 -3.87,-6.37 -2.66,-1.2 -4.98,-1.03 -7.42,0.51 -6.83,4.32 -14.12,15.64 -17.27,23.52 -1.65,4.13 -3.38,11.88 -3.38,17.68z"/>
   <path class="fil0" d="M153.57 6.12c0,10.16 13.59,10.16 13.59,0 0,-3.78 -2.88,-5.81 -5.98,-6.12l-1.62 0c-3.11,0.3 -5.98,2.34 -5.98,6.12z"/>
  </g>
 </g>
</svg>
