<?xml version="1.0" encoding="UTF-8"?>
<!DOCTYPE svg PUBLIC "-//W3C//DTD SVG 1.1//EN" "http://www.w3.org/Graphics/SVG/1.1/DTD/svg11.dtd">
<!-- Creator: CorelDRAW -->
<svg xmlns="http://www.w3.org/2000/svg" xml:space="preserve" width="131.54mm" height="131.54mm" version="1.1" style="shape-rendering:geometricPrecision; text-rendering:geometricPrecision; image-rendering:optimizeQuality; fill-rule:evenodd; clip-rule:evenodd"
viewBox="0 0 329.66 329.66"
 xmlns:xlink="http://www.w3.org/1999/xlink"
 xmlns:xodm="http://www.corel.com/coreldraw/odm/2003">
 <defs>
  <style type="text/css">
   <![CDATA[
    .fil0 {fill:#F5A001}
   ]]>
  </style>
 </defs>
 <g id="Camada_x0020_1">
  <metadata id="CorelCorpID_0Corel-Layer"/>
  <path class="fil0" d="M10.95 116.54c7.37,8.48 11.19,14.43 22.16,20.98 7.69,4.6 20.81,10.57 32.57,10.57l0 169.98c-14.27,0 -34.34,-10.48 -42.51,-21.23 -12.34,-16.25 -12.22,-24.62 -12.22,-52.17 0,-42.71 0,-85.42 0,-128.13zm66.32 150.02l0 -20.6c1.61,-0.77 29.25,-10.06 32.19,-10.3l0 20.6 -32.19 10.3zm0 50.22l0 -37.99 35.41 -11.59c2.05,3.06 1.95,3.14 5.13,5.18 8.79,5.64 19.51,1.37 23.45,-6.86 2.69,-5.62 0,-7.15 3.46,-8.77 0.35,-0.17 2.85,-0.87 3.45,-1.06 2.26,-0.73 4.02,-1.34 6.28,-2.09l164.27 -53.36 0 39.92c-3.95,1.9 -9.88,3.17 -14.57,4.75 -22.12,7.44 -46.28,14.3 -67.93,21.56 -2.66,0.89 -5.25,1.8 -7.72,2.59l-30.32 9.6c-5.16,1.43 -9.8,3.05 -14.75,4.56l-75.65 24.15c-5.23,1.75 -10.27,3.19 -15.13,4.83l-15.37 4.59zm0 -83.06l0 -21.25c3.37,-0.28 29.02,-8.78 32.19,-10.3l0 21.25c-6.96,1.62 -16.19,5.64 -23.82,7.73 -2.96,0.81 -5.45,1.89 -8.37,2.58zm0 -32.84l0 -54.08c9.03,-2.1 24.58,-8.53 32.19,-10.3l0 54.08c-5.41,1.26 -11.18,3.4 -16.18,5.07 -5.04,1.68 -11,4.07 -16.01,5.23zm65.67 44.43l0 -21.25c4.42,-0.37 114.68,-37.29 131.43,-42.41 4.3,-1.32 41.34,-14 44.34,-14.25l0 20.6c-2.68,1.29 -7.27,2.56 -10.54,3.63l-165.24 53.68zm0 -32.84l0 -21.25 131.27 -42.58c7.1,-2.36 14.52,-4.62 21.89,-7.08 4.07,-1.36 18.87,-6.92 22.62,-7l0 20.6c-3.52,0.82 -7.07,2.25 -10.7,3.46l-21.89 7.08c-3.98,1.33 -7.25,2.42 -11.11,3.7l-87.89 28.65c-7.5,2.5 -14.33,4.56 -21.89,7.08l-22.29 7.33zm0 -32.84l0 -21.25c8.45,4.05 18.59,-2.1 21.37,-10.83 1.42,-4.47 0.52,-22.49 0.52,-29.09l153.88 -50.22 0 54.08 -164.75 53.52c-3.08,1.03 -8.21,2.43 -11.03,3.78zm5.79 -31.55c-7.22,0 -5.79,-8.26 -5.79,-15.45 0,-3.71 1.09,-11.64 -0.98,-14.47 -1.5,-2.06 -2.96,-2.27 -4.82,-2.27 -6.69,0 -5.15,7.52 -5.15,14.17l0 117.83c0,2.82 0.23,6.86 -0.13,9.53 -0.58,4.21 -2.17,5.92 -5.66,5.92 -6.41,0 -5.15,-7.15 -5.15,-13.52l-0.13 -122.21c-1.91,-9.39 -16.74,-1.48 -27.8,2.21l-22.94 7.33c-7.95,0 -16.92,-2.48 -22.72,-4.97 -13.32,-5.71 -21.62,-13.48 -29.32,-26.05 -3.07,-5.02 -6.55,-14.73 -6.55,-22.42 0,-18.09 26.38,-24.43 35.29,-7.6 4.93,9.3 3.27,4.19 5.26,7.62 1.4,2.42 1.34,3.52 4.51,8.36 12.49,19.05 39.05,24.68 60.55,8.37 4.89,-3.71 12.86,-14.82 13.51,-22.55 12.98,0 24.83,-1.82 37.37,-1.91l92.06 -5.8c5.66,0.02 13.08,-1.3 18.66,-1.3l-58.51 19.4c-6.44,2.15 -13.03,4.59 -19.91,6.49l-39.34 12.81c-9.3,3.06 -7.16,4.66 -7.16,19.24 0,7.34 2.16,21.25 -5.15,21.25zm-45.07 -106.24c30.22,15.99 15.65,56.66 -12.23,56.66 -16.9,0 -29.49,-11.7 -30.84,-29.09 -1.07,-13.82 11.55,-30.79 29.55,-30.79l1.93 0c0,24.29 12.23,16.42 12.23,10.95 0,-4.94 -0.57,-5.09 -0.64,-7.73zm-10.3 -14.17c-3.02,-1.45 -13.36,0.89 -16.19,1.84 -8.92,2.98 -12.71,7.4 -17.45,12.17 -4.27,4.29 -9.5,13.55 -9.5,20.12 -3.63,-0.97 -19.37,-15.96 -40.02,0.54 -4.43,3.54 -10.2,13.94 -10.2,18.13l0 188.01c0,4.06 1.53,10.52 2.49,13.61 1.31,4.24 2.91,7.51 4.8,11.29 4.74,9.51 14.68,19.41 23.89,25.05 13.57,8.3 25.11,11.22 42.22,11.22 2.93,0 12.93,-3.57 16.49,-4.76 2.85,-0.95 5.19,-1.5 7.9,-2.41 2.61,-0.88 5.25,-1.86 8.22,-2.73 11.14,-3.28 21.38,-6.66 32.35,-10.15l48.28 -15.46c2.6,-0.87 5.58,-1.63 8.38,-2.57 23.67,-7.96 48.63,-15.11 72.75,-23.18 5.19,-1.74 10.74,-3.36 16.09,-5.16 2.39,-0.8 5.51,-1.6 7.9,-2.4l32.68 -10.46c2.59,-0.95 5.23,-2.01 5.23,-5.72l0 -184.15c0,-8.27 -10.73,-5.26 -12.87,-5.15l-25.76 1.28c-2.87,0.15 -3.08,0.64 -6.41,0.67l-25.74 1.3c-3.17,0.26 -9.07,0.46 -12.54,0.98l-12.6 0.92c-17.21,0.89 -34.26,1.83 -50.9,3.18 -2.07,0.17 -4.31,-0.1 -6.37,0.07l-25.14 1.9c-2.37,0.12 -4.52,-0.15 -6.91,0.17 -3.58,0.49 -8.83,0.28 -12.41,1.11 -0.36,-15.97 -13.28,-33.49 -27.04,-36.7 0.1,-4.53 2.88,-9.01 5.29,-11.45 3.14,-3.17 6.27,-5.11 10.86,-6.53 7.78,-2.41 11.87,-0.17 14.66,-2.74 3.28,-3.02 1.72,-9.55 -3.76,-9.55 -19.98,0 -34.11,8.27 -38.63,27.69z"/>
 </g>
</svg>
