<?xml version="1.0" encoding="UTF-8"?>
<!DOCTYPE svg PUBLIC "-//W3C//DTD SVG 1.1//EN" "http://www.w3.org/Graphics/SVG/1.1/DTD/svg11.dtd">
<!-- Creator: CorelDRAW -->
<svg xmlns="http://www.w3.org/2000/svg" xml:space="preserve" width="123.325mm" height="123.325mm" version="1.1" style="shape-rendering:geometricPrecision; text-rendering:geometricPrecision; image-rendering:optimizeQuality; fill-rule:evenodd; clip-rule:evenodd"
viewBox="0 0 370.35 370.35"
 xmlns:xlink="http://www.w3.org/1999/xlink"
 xmlns:xodm="http://www.corel.com/coreldraw/odm/2003">
 <defs>
  <style type="text/css">
   <![CDATA[
    .fil0 {fill:#F5A001}
   ]]>
  </style>
 </defs>
 <g id="Camada_x0020_1">
  <metadata id="CorelCorpID_0Corel-Layer"/>
  <g id="_1823735896480">
   <path class="fil0" d="M278.49 359.5l-21.7 0 20.25 -167.09c4.14,1.1 12.53,14.61 31.1,2.17l-22.12 123.27c-1.31,7.28 -2.44,14.2 -3.74,20.86l-3.8 20.79zm-138.18 -359.5l3.15 0c3.22,0.3 6.36,1.53 8.96,3.82 4.43,3.91 1.94,3.93 9.09,2.91 15.31,-2.18 32,-2.29 47.24,0.12 6.6,1.04 5.29,-0.25 8.79,-3.43 2.16,-1.97 5.04,-3.11 8.1,-3.42l3.56 0c3.5,0.35 6.98,1.74 9.7,4.15 2.77,2.45 3.69,4.45 4.83,8.19 1.12,3.63 0.21,2.9 7.54,5.48 2.9,1.02 6.75,2.64 9.13,3.89 3.92,-5.86 13.01,-7.56 20.52,-3.16 2.26,1.33 20.4,18.77 22.18,23.39 0.66,1.71 0.74,2.31 1,4.8l0.43 3.39c0.98,2.06 8.78,8.28 10.85,11.37 2.26,-0.19 2.57,-0.72 5.06,-0.72 10.66,0 17.36,6.97 17.36,16.64 0,5.97 -2.75,6.53 -1.71,9.61l4.36 7.28c2.82,5.17 5.02,9.32 7.73,14.7 1.37,2.73 2.39,5.16 3.56,8.01 2.2,5.37 1.13,3.34 5.58,6 3.97,2.37 7.98,8.08 7.98,14.45 0,7.23 -4.66,7.2 -3.61,12.91 0.97,5.27 1.57,9.87 2.39,15.8 0.68,4.91 0.65,11.34 1.22,16.86 0.48,4.61 5.06,5.19 5.06,12.3 0,5.15 -6.99,26.54 -8.83,33.12 -2.95,10.53 -6.33,21.47 -9.5,32.45 -1.67,5.77 -3.16,10.89 -4.73,16.25l-9.46 32.5c-2.77,6.72 -10.88,4.49 -10.88,-1.48 0,-3.09 7.34,-26.37 8.37,-29.96l21.7 -74.5c1.41,-4.91 4.77,-11.27 -2.59,-11.27 -0.78,0 -6.96,7.23 -15.91,7.23 -12.89,0 -13.11,-5.91 -18.08,-7.23 -3.13,13.43 -5.14,28.65 -7.77,42.14l-20.86 114.41c-0.61,3.4 -1.69,7.56 -1.75,10.54 7.28,0 13.67,-2.37 18.66,-6.66l1.53 -1.36c10.36,-9.94 7.38,-24.53 13.81,-24.53 10.41,0 6.31,8.24 4.81,13.49 -3.37,11.78 -8,18.44 -18.4,25 -3.31,2.09 -10.91,4.91 -16.07,4.91l-218.45 0c-9.35,0 -18.24,-5.73 -23.42,-10.57l-2.82 -2.97c-7.35,-8.09 -11.72,-27.43 -14.99,-39.26 -2.26,-8.15 -4.59,-15.81 -6.98,-24.12l-24.59 -84.63c-1.23,-4.26 -2.89,-8.26 -3.15,-12.2l0 -1.95c0.15,-2.15 0.81,-4.29 2.29,-6.46 1.96,-2.86 2.6,-1.92 2.81,-5.87 0.3,-5.73 0.7,-11.64 1.28,-16.8 2.12,-18.75 4.37,-13.25 0.35,-21.78 -4.18,-8.89 0.62,-17.78 7.26,-21.24 5.47,-2.85 3.55,-4.34 8.43,-14 2.57,-5.09 4.76,-9.72 7.73,-14.69 8.34,-13.93 2.4,-5.85 2.4,-15.68 0,-10.34 7.26,-17.36 15.19,-17.36 5.47,0 4.05,0.46 7.23,0.72 2.46,-3.67 9.5,-8.15 10.65,-11.77 2.39,-7.51 -0.98,-6.99 7.25,-15.17 9.01,-8.95 15.72,-18.63 26.22,-18.63 2.49,0 8.48,2.24 10.85,5.79 2.35,-1.25 12.39,-5.55 15.19,-5.79 0,-9.25 7.34,-15.2 15.17,-15.91zm-35.42 193.86c7.34,4.92 6.86,5.79 16.64,5.79 7.69,0 12.19,-5.65 15.19,-7.23l4.76 83.49c0.92,6.09 0.7,14.32 1.03,20.67 0.32,6.16 1.5,14.58 1.45,20.97 -0.05,5.96 0.95,14.6 1.41,20.29 0.6,7.34 0.76,14.06 0.76,21.66 -21.29,0 -21.19,1.75 -21.78,-3.53l-16.96 -140.73c-0.55,-3.96 -0.74,-6.36 -1.26,-10.31 -0.39,-2.93 -1.23,-7.47 -1.23,-11.07zm-42.68 0.72c6.47,4.33 6.77,5.06 15.91,5.06 8.33,0 11.82,-6.33 15.19,-7.23l2.39 20.76c0.82,6.21 1.76,14.25 2.54,20.6l13.88 114.88c0.39,3.49 1.18,7.59 1.45,10.85l-21.7 0 -13.21 -72.86c-1.36,-8.4 -2.79,-8.15 -7.76,-8.15 -7.24,0 -2.5,14.78 -1.97,17.88l11.37 63.13c-8.4,0 -16.49,-3.79 -20.65,-8.29 -5.85,-6.32 -6.47,-10.8 -9.1,-19.84l-38.97 -134.63c0,-1.95 0.35,-1.99 0.72,-3.62 1.94,-0.46 1.36,-0.72 2.89,-0.72 1.59,0 15.41,14.57 30.8,2.59 2.14,-1.67 1.33,-1.9 3.92,-2.59 3.79,16.25 8.33,46.64 11.96,65.43 2.03,10.51 10.09,6.67 11.34,2.71 0.78,-2.47 -3.8,-24.09 -4.41,-27.74 -1.16,-7 -6.61,-33.77 -6.61,-38.24zm161.31 164.92l5.17 -83.08c0.64,-5.71 1.34,-14.06 1.32,-20.38 -0.02,-6.35 1.44,-14.66 1.49,-20.93 0.12,-14.47 2.14,-27.87 2.14,-42.7 6.41,3.39 5.1,7.23 18.81,7.23 6.04,0 9.51,-3.44 13.02,-5.79 0,2.9 -0.9,8.6 -1.23,11.07 -0.55,4.11 -1,8.18 -1.45,11.57l-14.02 116.18c-0.86,7.54 -1.97,15.62 -2.74,23.3 -0.31,3.05 0.2,3.27 -2.91,3.6 -1.38,0.15 -4.95,-0.07 -6.58,-0.07 -4.34,-0.01 -8.68,-0 -13.02,-0zm-75.95 -166.37c7.02,4.7 7.09,6.51 16.64,6.51 7.34,0 10.81,-3.58 15.19,-6.51l0 166.37 -21.7 0c0,-6.07 -0.54,-15.25 -1.25,-20.45l-3.11 -51.86c0.02,-4.86 -0.62,-6.92 -0.72,-10.85 -0.16,-6.06 -0.24,-14.77 -1.12,-20.58l-3.92 -62.63zm65.1 166.37l-21.7 0 0 -166.37c7.34,4.91 7.68,6.51 18.08,6.51 6.1,0 10.01,-4.01 13.74,-6.51l-2.9 41.23c-0.76,14.45 -1.42,27.55 -2.16,41.96l-3.82 62.01c-0.75,5.51 -1.25,14.72 -1.25,21.17zm-196.03 -221.34c0,-3.09 1.02,-6.51 5.06,-6.51 3.15,0 19.6,17.54 20.22,18.91 1.42,3.15 -0.69,7.13 -4.31,7.13 -4.44,0 -20.98,-18.01 -20.98,-19.53zm316.82 19.53c-3.83,0 -6.59,-3.3 -5.34,-6.74 0.43,-1.2 17.31,-19.3 20.53,-19.3 2.45,0 5.06,2.61 5.06,5.06 0,4.4 -17.76,20.98 -20.25,20.98zm-27.49 -60.04c-3.38,0 -5.06,-1.69 -5.06,-5.06 0,-3.98 7.35,-9.88 11.39,-13.92 1.39,-1.39 4.87,-5.23 6.32,-6.05 1.88,-1.05 7.6,-1.56 7.6,4.78 0,4 -16.25,20.25 -20.25,20.25zm-236.53 -5.06c0,3.38 -1.69,5.06 -5.06,5.06 -3.54,0 -5.11,-2.55 -7.05,-4.52 -6.49,-6.56 -17.29,-14.28 -11.99,-19.58 5.43,-5.43 12.06,4.5 19.23,11.62 2.02,2.01 4.88,3.82 4.88,7.42zm197.47 -60.04c0,-1.83 1.76,-5.06 5.06,-5.06 4.4,0 20.98,17.76 20.98,20.25 0,3.83 -3.3,6.59 -6.74,5.34 -1.2,-0.43 -19.3,-17.31 -19.3,-20.53zm-189.52 15.91c0,-4.4 17.76,-20.98 20.25,-20.98 4.61,0 7.13,4.59 4.54,8.1l-15.91 15.99c-3.7,3.39 -8.88,1.19 -8.88,-3.12zm135.99 -11.57c-5.26,0 -7.01,-3.54 -5.96,-6.63 0.85,-2.5 4.28,-5.07 6.14,-6.93 2.44,-2.44 11.16,-12.48 14.29,-12.48 3.18,0 5.06,2.83 5.06,6.51 0,1.93 -17.6,19.53 -19.53,19.53zm-47.02 -19.53c5.05,0 7.06,-0.72 12.3,-0.72l13.74 0c4.81,0 6.26,0.72 10.85,0.72 -3.59,5.36 -7.23,4.85 -7.23,14.47 0,10.17 8.36,16.64 16.64,16.64 7.24,0 11.91,-5.77 15.73,-9.58 3.3,-3.3 10.26,-9.52 12.48,-12.84 5.18,1.21 10.33,4.65 15.19,5.79 0,10.01 4.06,11.66 11.75,19.35 12.06,12.06 15.62,17.68 30.92,9.58l7.8 7.39c-4.71,7.1 -17.2,12.99 -17.2,24.44 0,8.97 7.67,16.64 16.64,16.64 10.86,0 15.19,-10.11 21.7,-14.47 4.05,7.66 11.9,19.59 13.74,27.49 -5.06,2.68 -9.77,8.68 -13.92,12.84 -7.18,7.18 -10.67,8.14 -10.67,18.99 0,11.66 16.02,20.07 26.57,11.38 3.07,-2.53 4.95,-5.63 8.15,-7.77 0.66,7.99 2.17,14.51 2.17,23.87 -8.6,0.19 -10.14,9.01 -18.84,6.6 -3.79,-1.05 -4.43,-3.22 -7.76,-5.32 -16.37,-10.33 -25.22,4.95 -32.23,5.68 -4.89,0.51 -7.35,-2.74 -10.38,-5.01 -7.02,-5.27 -16.25,-5.27 -23.54,-0.66 -3.78,2.38 -4.85,5.54 -10.04,5.72 -7.72,0.27 -16.88,-16.67 -33.8,-5.44 -3.14,2.09 -5.49,5.6 -10.25,5.53 -7.52,-0.1 -15.84,-16.65 -33.25,-5.63 -2.84,1.8 -5.35,5.22 -9.55,5.6 -7.29,0.66 -10.99,-9.23 -21.57,-9.23 -13.28,0 -14.35,8.34 -21.94,9.13 -8.37,0.87 -16.29,-16.8 -33.92,-5.68 -3.78,2.38 -4.85,5.54 -10.04,5.72 -7.85,0.28 -15.82,-15.78 -32.46,-6.27 -4.47,2.56 -9.44,10.37 -18.21,3.73 -3.05,-2.31 -4.03,-4.34 -9.28,-4.46 0,-10.73 1.49,-15.69 2.17,-23.87 4.46,2.99 9.55,12.38 19.36,11.42 9.25,-0.91 15.36,-7.41 15.36,-17.93 0,-7.54 -6.6,-12.03 -10.67,-16.09 -4.16,-4.16 -8.87,-10.16 -13.92,-12.84 1.89,-8.1 9.85,-20.13 13.74,-27.49 6.51,4.36 10.84,14.47 21.7,14.47 8.97,0 16.64,-7.67 16.64,-16.64 0,-11.45 -12.5,-17.33 -17.36,-24.59l7.8 -7.39c6.02,3.34 4.61,3.78 12.45,3.78 8.07,0 18.73,-13.13 26.24,-20.77 3.1,-3.15 4.14,-5.81 4.14,-11.78l14.47 -5.79c3.11,4.64 8.77,8.39 12.3,13.02 7.02,9.21 18.01,13.17 27.6,4.46 5.56,-5.05 6.16,-13.57 2.57,-20.16 -1.68,-3.09 -3.13,-3.41 -4.86,-5.99zm-4.34 14.47c0,3.38 -1.69,5.06 -5.06,5.06 -3.93,0 -8.86,-6.33 -12.84,-10.31 -3.18,-3.18 -11.03,-8.65 -6.21,-13.79 4.96,-5.3 10.52,2.91 13.45,5.84 3.96,3.96 10.67,9.27 10.67,13.2z"/>
   <path class="fil0" d="M180.11 99.1l0 -23.87c0,-5.47 10.13,-5.47 10.13,0l0 23.87c0,5.47 -10.13,5.47 -10.13,0zm-11.57 -23.15l0 22.42c0,20.36 33.27,22.58 33.27,-1.45 0,-11.12 1.75,-24.36 -3.81,-30.91 -6.8,-8 -17.98,-8.26 -24.96,-0.76 -2.27,2.44 -4.5,6.24 -4.5,10.69z"/>
   <path class="fil0" d="M114.29 97.65c-3.38,0 -5.06,-1.69 -5.06,-5.06 0,-3.93 6.33,-8.86 10.31,-12.84 3.18,-3.18 8.65,-11.03 13.79,-6.21 5.6,5.24 -4.65,12.21 -11.62,19.23 -2.01,2.02 -3.82,4.88 -7.41,4.88zm-16.64 -5.79c0,9.75 7.95,17.36 15.91,17.36 9.74,0 14.61,-7.01 19.71,-12.12 7.03,-7.03 12.84,-10.1 12.84,-21.16 0,-7.93 -7.02,-15.19 -17.36,-15.19 -7.94,0 -14.27,8.12 -18.63,12.48 -4.32,4.32 -12.48,10.8 -12.48,18.63z"/>
   <path class="fil0" d="M261.13 92.59c0,3.38 -1.69,5.06 -5.06,5.06 -3.93,0 -8.86,-6.33 -12.84,-10.31 -2.82,-2.82 -11.7,-8.87 -6.31,-13.92 5.06,-4.74 10.54,2.96 13.54,5.96 3.96,3.96 10.67,9.27 10.67,13.2zm-36.89 -16.64c0,10.62 4.2,12.52 12.84,21.16 5.84,5.84 17.88,19.83 30.61,7.1 6.28,-6.28 6.5,-15.55 0.8,-22.6 -2.15,-2.66 -5.36,-5.46 -7.9,-8.01 -6.94,-6.94 -10.47,-12.84 -21.16,-12.84 -7.79,0 -15.19,7.4 -15.19,15.19z"/>
   <path class="fil0" d="M212.66 157.69c-4.17,0 -6.3,-3.5 -5.24,-6.63 0.74,-2.18 17.51,-19.41 20.43,-19.41 3.18,0 5.06,2.83 5.06,6.51 0,1.91 -17.35,19.53 -20.25,19.53zm-16.64 -6.51c0,18.01 18.32,22.06 27.33,13.58 4.16,-3.91 7.83,-7.87 11.91,-11.96 3.73,-3.73 9.22,-8.27 9.22,-15.37 0,-9.72 -6.93,-16.64 -18.08,-16.64 -7.89,0 -13.55,8.12 -17.9,12.48 -4.36,4.36 -12.48,10.01 -12.48,17.9z"/>
   <path class="fil0" d="M137.43 138.16c0,-3.09 1.02,-6.51 5.06,-6.51 3.15,0 19.6,17.54 20.22,18.91 1.42,3.15 -0.69,7.13 -4.31,7.13 -4.44,0 -20.98,-18.01 -20.98,-19.53zm-11.57 -1.45c0,9.64 12.2,19.28 20.77,27.69 9.14,8.96 27.69,4.77 27.69,-13.22 0,-7.89 -8.12,-13.55 -12.48,-17.9 -7.71,-7.71 -9.37,-12.48 -20.8,-12.48 -7.94,0 -15.19,8.26 -15.19,15.91z"/>
   <path class="fil0" d="M292.95 151.9c0,2.74 -1.7,5.79 -5.06,5.79 -3.93,0 -8.86,-6.33 -12.84,-10.31 -2.81,-2.81 -10.96,-8.47 -6.86,-13.7 4.64,-5.91 11.36,3.02 13.73,5.38 2.3,2.3 11.03,9.76 11.03,12.84zm-36.89 -16.64c0,12.23 5.15,14.16 16.82,25.86 7.39,7.41 16.95,12.09 26.07,3.29 8.63,-8.33 6.18,-18.13 -1.84,-26.08 -12.22,-12.1 -13.67,-17.54 -27.31,-17.54 -5.32,0 -13.74,6.44 -13.74,14.47z"/>
   <path class="fil0" d="M82.46 157.69c-2.8,0 -5.06,-2.26 -5.06,-5.06 0,-3.93 6.33,-8.86 10.31,-12.84 2.7,-2.7 9.16,-11.65 14.01,-6.42 5.17,5.58 -4.97,12.51 -11.84,19.44 -2.01,2.02 -3.82,4.88 -7.41,4.88zm31.83 -18.08l0 -5.06c0,-5.77 -7.97,-13.74 -13.74,-13.74 -13.65,0 -14.88,5.18 -26.95,17.18 -18.26,18.16 0.87,33.02 11.33,30.92 6.19,-1.24 8.56,-3.77 12.18,-7.41 4.4,-4.43 17.18,-14.77 17.18,-21.88z"/>
  </g>
 </g>
</svg>
