<?xml version="1.0" encoding="UTF-8"?>
<!DOCTYPE svg PUBLIC "-//W3C//DTD SVG 1.1//EN" "http://www.w3.org/Graphics/SVG/1.1/DTD/svg11.dtd">
<!-- Creator: CorelDRAW -->
<svg xmlns="http://www.w3.org/2000/svg" xml:space="preserve" width="135.413mm" height="135.45mm" version="1.1" style="shape-rendering:geometricPrecision; text-rendering:geometricPrecision; image-rendering:optimizeQuality; fill-rule:evenodd; clip-rule:evenodd"
viewBox="0 0 404.97 405.08"
 xmlns:xlink="http://www.w3.org/1999/xlink"
 xmlns:xodm="http://www.corel.com/coreldraw/odm/2003">
 <defs>
  <style type="text/css">
   <![CDATA[
    .fil0 {fill:#F5A001}
   ]]>
  </style>
 </defs>
 <g id="Camada_x0020_1">
  <metadata id="CorelCorpID_0Corel-Layer"/>
  <g id="_1821853296400">
   <path class="fil0" d="M130.43 389.26zm17.41 -0.79l-17.41 0.79zm155.4 -389.26l11.57 0c0.88,0.11 1.78,0.25 2.71,0.42 8.06,1.46 15.96,5.54 20.79,10.06 13.2,12.36 19.6,6.9 34.74,11.94 14.38,4.79 26.42,17.85 28.56,33.15 0.6,4.32 0.51,9.7 1.46,13.57 2.34,9.52 7.23,12.27 11.98,18.87 4.31,5.98 6.74,13.11 7.32,20.42l0 7.06c-0.57,7.1 -2.84,14.09 -6.79,20.12 -12.04,18.4 -11.15,6.49 -13.89,32.79 -1.92,18.49 -20,35.71 -41.04,35.71 0,8.36 -3.76,12.92 -8.1,17.21l-176.64 176.22c-2.37,2.29 -3.94,4.17 -6.47,6.19 -1.08,0.86 -1.37,1.2 -1.77,1.33l-9.54 0c-25.62,-1.08 -53.25,-11.71 -73.93,-25.78l-7.34 -5.32c-16.2,-13.11 -31.06,-28.42 -40.63,-47.2 -4.46,-8.75 2.47,-15.24 9.15,-10.75 2.36,1.59 18.94,34.84 48.09,52.4 13.98,8.42 37,20.81 54.35,20.81 -1.64,-3.09 -3.88,-5.83 -6.01,-9.02 -15.03,-22.54 -23.26,-47.51 -23.26,-76.43 -30.88,0 -58.99,-10.4 -81.16,-26.44 -18.5,-13.38 -25.6,-18.47 -15.17,-28.75l169.71 -169.7c11.64,-11.64 23.63,-26.01 38.01,-9.93 1.42,1.58 2.75,3.58 4.12,4.59 2.59,-1.73 3.8,-4.24 6.11,-6.55 25.45,-25.45 69.32,-31.19 99.76,-11.5 10.37,6.71 18.11,13.7 24.99,24.06 26.44,39.8 7.22,85.62 -0.13,89.14 -4.51,2.16 -10.74,-0.69 -10.41,-6.47 0.12,-2.05 2.58,-6.16 3.63,-8.25 11.05,-21.88 8.07,-55.75 -10.6,-74.32 -9.02,-8.97 -17.54,-14.93 -29.96,-19.09 -12.68,-4.25 -30.73,-3.75 -42.49,0.86 -12.5,4.89 -21.18,10.64 -28.93,20.12 -2.89,3.53 -4.06,3.3 -1.75,7.82 4.24,8.27 8.49,16.1 11.45,25.01 1.88,5.65 4.46,13.4 5.16,19.41 0.99,8.48 -6.27,13.76 -11.65,7.64 -1.83,-2.08 -6.19,-29.74 -21.34,-52.24 -1.83,-2.72 -3.35,-4.61 -5.36,-7.3 -7.47,-9.97 -7.03,-6.81 -18.35,4.5 -4.02,4.02 -7.45,7.45 -11.47,11.47 -14.84,14.84 -155.05,153.59 -158.83,159.22 2.97,1.99 5.41,4.27 8.47,6.56 22.58,16.85 46.06,25.88 76.97,25.88 0,-26.54 15.79,-61.61 32.64,-79.71 9.9,-10.63 19.89,-20.84 32.48,-28.44 25.68,-15.51 58.31,-26.28 89.74,-22.18 5.78,0.75 12.13,1.76 17.69,2.88 5.17,1.04 10.52,3.6 15.75,4.03 0.6,-2.59 1.14,-2.78 1.92,-6 3.3,-13.73 -0.95,-27.53 -10.41,-36.94 -8.99,-8.96 -11.33,-6.51 -19,-10.27 -7.15,-3.51 -4.88,-15.44 6.32,-12.69 13.93,3.43 25.71,13.28 32,25.8 6.82,13.58 8.94,30.82 1.84,45.64 8.72,2.03 21.86,11.94 29.14,17.57 2.56,1.97 2.28,1.9 5.05,1.69 6.62,-0.49 13.64,-1.47 18.84,-4.21 6.76,-3.57 11.53,-9.56 13.72,-17.13 1.49,-5.15 0.72,-8.03 1.58,-13.45 2.98,-18.79 10.59,-18.85 16.59,-30.09 3.85,-7.22 4.14,-17.07 1.22,-24.71 -2.74,-7.16 -8.82,-11.62 -12.74,-18.11 -7.21,-11.94 -3.27,-25.57 -10.09,-35.8 -10.23,-15.33 -18.36,-11.11 -32.42,-14.26 -15.82,-3.55 -17.83,-11.99 -29.05,-16.83 -8.32,-3.59 -16.96,-3.39 -24.79,0.24 -4.43,2.05 -5.45,3.99 -9.02,6.8 -16.79,13.24 -19.79,8.14 -34.3,11.59 -3.93,0.94 -7.35,3.17 -10.75,5.09 -8.78,4.95 -20.88,-9.74 4.32,-17.85 7.98,-2.57 18.4,-1.67 25.52,-5.33 8.53,-4.39 15.54,-14.73 30.11,-16.9zm-137.99 388.47c-10.9,-16.28 -15.67,-16.52 -25.42,-43.41 -11.57,-31.9 -8.67,-67.79 4.86,-98.2l11.4 -19.46c9.27,-12.81 18.04,-21.59 30.86,-30.86 11.18,-8.09 29.23,-16.62 42.31,-19.4 30.1,-6.38 57.51,-5.85 86.05,7.46 11.15,5.2 18.11,9.5 27.37,16.94 3.97,3.2 5.47,4.37 1.22,8.74 -37.58,38.67 -80.1,80.03 -118.72,118.65 -10.08,10.08 -19.59,19.59 -29.67,29.67l-30.26 29.87z"/>
   <path class="fil0" d="M267.31 87.03c4.56,0 10.29,0.46 10.29,-7.12 0,-4.82 -3.97,-7.12 -8.7,-7.12 -10.9,0 -10.72,14.24 -1.58,14.24z"/>
   <path class="fil0" d="M301.33 95.73c0,2.82 -1.06,11.27 7.03,10.87 8.02,-0.4 9.96,-17.2 -0.7,-17.2 -3.83,0 -6.33,2.5 -6.33,6.33z"/>
   <path class="fil0" d="M317.15 130.54c0,4.51 4.38,7.91 9.49,7.91 6.88,0 9.39,-8.35 3.78,-12.48 -4.86,-3.58 -13.27,-2.69 -13.27,4.57z"/>
   <path class="fil0" d="M182.65 307.77c0,11.31 14.24,8.98 14.24,1.58 0,-10.82 -14.24,-7.7 -14.24,-1.58z"/>
   <path class="fil0" d="M162.08 293.52c0,-3.13 -3.59,-6.33 -7.12,-6.33 -6.37,0 -9.15,7.23 -4.62,11.75 4.41,4.41 11.75,1.68 11.75,-5.42z"/>
   <path class="fil0" d="M151 334.67c0,12.75 13.45,9.8 13.45,1.58 0,-9.7 -13.45,-8.21 -13.45,-1.58z"/>
  </g>
 </g>
</svg>
