<?xml version="1.0" encoding="UTF-8"?>
<!DOCTYPE svg PUBLIC "-//W3C//DTD SVG 1.1//EN" "http://www.w3.org/Graphics/SVG/1.1/DTD/svg11.dtd">
<!-- Creator: CorelDRAW -->
<svg xmlns="http://www.w3.org/2000/svg" xml:space="preserve" width="121.848mm" height="92.7514mm" version="1.1" style="shape-rendering:geometricPrecision; text-rendering:geometricPrecision; image-rendering:optimizeQuality; fill-rule:evenodd; clip-rule:evenodd"
viewBox="0 0 306.02 232.95"
 xmlns:xlink="http://www.w3.org/1999/xlink"
 xmlns:xodm="http://www.corel.com/coreldraw/odm/2003">
 <defs>
  <style type="text/css">
   <![CDATA[
    .fil0 {fill:#F5A001}
   ]]>
  </style>
 </defs>
 <g id="Camada_x0020_1">
  <metadata id="CorelCorpID_0Corel-Layer"/>
  <g id="_1822924060016">
   <path class="fil0" d="M130.03 222.66c-6.16,0 -19.35,0.73 -19.35,-9.68 0,-7.02 5.07,-14.03 8.83,-17.79 4.26,-4.26 10.18,-8.22 16.58,-8.22 7.32,0 28.42,17.22 28.42,23.59 0,7.77 -24.69,12.1 -34.47,12.1zm175.99 -115.58l0 3.41c-1.62,18.87 -30.93,19.74 -45.44,14.88 -12.61,-4.22 -7.97,-5.66 -15.81,-2.67 -3.77,1.44 -11.79,3.49 -15.59,3.76 -16.46,1.17 -16.12,-1.21 -22.94,-1.78 -10.81,20.44 -27.65,12.1 -35.08,12.1 -1.24,4.64 -7.52,9.95 -12.34,11.85 -1.54,0.61 -3.48,0.94 -4.6,1.44 -1.83,0.82 -1.27,0.91 -2.66,3.38 -1.73,3.07 -3.53,3.82 -5.19,6.3 5.84,11.03 7.55,11.27 7.26,24.19 2.76,1.85 10.8,7.84 13.17,10.42 4.3,4.7 8,10.01 8,16.8 0,14.7 -25.75,21.77 -41.73,21.77l-10.89 0c-5.45,0 -7.89,-2.21 -12.65,-1.81 -3.01,0.26 -10.49,1.16 -13.3,1.08 -8.59,-0.26 -18.49,-1.47 -25.54,-3.43 -19,-5.3 -28.73,-13.17 -37.21,-28.11 -1.31,-2.31 -7.21,-7.41 -10.41,-11.37 -14.91,-18.47 -23.07,-38.52 -23.07,-63.42 0,-25.01 10.29,-43.97 10.77,-46.73l-0.48 -7.7c0,-10.58 10.21,-19.59 15.88,-25.24 1.29,-1.29 1.38,-1.59 2.51,-2.94l18.42 -16.66c22.14,-17.53 48.92,-35.71 78.59,-21.58 3.73,1.77 11.22,6.89 13.41,10.17 12.91,-3.01 19.4,-3.68 32.69,-4.81 4.74,-0.4 7.21,0.59 11.45,0.58 17.44,-0.05 41.11,8.45 54.53,19.25 4.81,3.87 7.11,8.96 7.84,9.7 1.27,1.29 3.59,1.3 5.51,1.75 5.97,1.39 12.76,4.45 17.82,6.98 6.77,3.39 14.36,8.6 9.87,17.95 5.58,2.95 13.45,11.89 17.18,17.29 6.55,9.49 9.55,17.11 10.03,23.17zm-205.63 102.88c0,9.65 0.41,5.44 1.81,11.49 -21.64,0 -45.91,-2.81 -58.11,-22.94 -16.17,-26.68 2.79,-56.29 29.08,-56.29 12.54,0 14.59,0.11 27.14,4.31 14.39,4.81 41.03,14.21 42.41,30.77 -2.53,-0.21 -4.62,-1.21 -7.26,-1.21 -11.18,0 -24.77,10.69 -30.51,20.9 -1.55,2.76 -4.57,9.28 -4.57,12.97zm-50.2 -134.26c15.84,0 27.07,1.5 40.27,9.32 8.62,5.11 19.42,13.53 25.8,20.77 8.73,9.91 18.03,22.5 23.84,34.21 2.78,5.61 5.52,7.32 -2.22,12.5 -12.18,-8.15 -41.05,-21.17 -61.08,-21.17 -27.42,0 -48.99,19.3 -48.99,46.57 -0.76,-0.87 -1.37,-1.57 -2.17,-2.67l-5.7 -9.42c-9.7,-19.51 -12.32,-44.37 -5.52,-66 1.49,-4.73 3.16,-10.45 5.27,-14.69 1.25,-2.52 0.68,-1.83 5.77,-3.9 7.43,-3.02 16.09,-5.52 24.72,-5.52zm229.21 41.73c-16.1,0 -19.2,-4.6 -25.4,-6.05 0.66,-1.38 0.79,-3.75 1.2,-5.46 0.44,-1.86 0.86,-3.28 1.43,-5.23 1.86,-6.43 6.98,-18.32 11.43,-23.04 1.39,-1.48 2.38,-2.12 3.49,-3.77 9.9,6.63 35.65,35.71 18.55,41.53 -2.96,1.01 -7.03,2.01 -10.69,2.01zm-258.85 -45.36c2.04,-8.77 9.09,-14.84 15.27,-21.02 19.67,-19.67 61.55,-56.79 91.27,-32.91 3.66,2.94 7.13,6.2 9.83,10.13l14.47 25.44c8.77,18.12 20.38,58.24 10.9,77.85 -2.11,4.37 -5.45,7.06 -10.51,8.24 -6.29,-11.89 -9.53,-18.36 -17.79,-29.38 -18.23,-24.34 -46.55,-45.61 -78.37,-45.61 -11.53,0 -27.68,3.34 -35.08,7.26zm203.21 44.15c-6.37,0 -9.06,-1.21 -13.31,-1.21l3.63 -19.96c1.77,-10.54 3.17,-18.91 9.06,-27.22 2.54,-3.58 5.04,-7.03 8.47,-9.67 1.65,-1.27 8.59,-7.26 10.89,-7.26 6.81,0 24.58,7.29 27.22,10.89 -4.05,6.05 -9.76,2.84 -20.91,29.28l-4.23 13.91c-0.35,1.75 -0.49,4.41 -0.88,5.77 -0.67,2.35 -0.69,1.68 -3.5,2.54 -5.51,1.69 -10.06,2.92 -16.44,2.92zm-76.81 -91.93c5.61,-2.69 25.04,-3.02 33.26,-3.02 19.91,0 47.34,10.28 55.04,21.77 -7.65,2.04 -19.94,16.2 -24.4,25.2 -8.04,16.22 -5.53,21.9 -10.08,40.12 -3.63,14.56 -5.74,19.35 -18.15,19.35 -8.84,0 -7.57,-1.77 -7.2,-4.09 2.18,-13.85 0.89,-23.8 -2.01,-37.49 -4.66,-21.96 -14.53,-44.02 -26.46,-61.83z"/>
   <path class="fil0" d="M261.87 145.86c2.76,0 4.75,-0.19 6.78,2.29 2.29,2.81 2.27,6.92 -0.54,9.99 -3.92,4.29 -11.97,2.35 -12.67,-4.64 -0.35,-3.5 2.8,-7.65 6.43,-7.65zm-16.93 6.65c0,6.71 2.56,10.79 6.77,14.4 10.38,8.9 28.91,1.23 28.91,-11.98 0,-6.66 -0.29,-9.75 -5.57,-14.99 -11.16,-11.06 -30.11,-2.23 -30.11,12.57z"/>
   <path class="fil0" d="M53.83 49.09c0,3.49 2.44,6.05 5.44,6.05 2.64,0 14.19,-10.69 19.76,-14.11 7.66,-4.7 15.27,-10.08 25.6,-10.08 4.11,0 12.7,4.45 12.7,-4.23 0,-6.6 -10.47,-6.05 -15.72,-6.05 -9.33,0 -21.36,6.99 -27.22,10.88 -3.27,2.17 -20.56,14.29 -20.56,17.55z"/>
   <path class="fil0" d="M204.42 149.48c0,8.59 10.28,7.71 10.28,0.6 0,-7.19 -10.28,-5.56 -10.28,-0.6z"/>
   <path class="fil0" d="M229.21 150.69c1.49,0 3.22,-0.6 4.11,-1.33 2.23,-1.83 4.28,-8.95 -4.71,-8.95 -2.75,0 -5.79,5.22 -2.5,8.54 0.36,0.36 2.71,1.74 3.1,1.74z"/>
  </g>
 </g>
</svg>
