<?xml version="1.0" encoding="UTF-8" standalone="no"?>
<!-- Created with Inkscape (http://www.inkscape.org/) -->

<svg
   width="40.869144"
   height="22.060869"
   viewBox="0 0 40.869144 22.060869"
   version="1.1"
   id="svg1"
   xml:space="preserve"
   xmlns:inkscape="http://www.inkscape.org/namespaces/inkscape"
   xmlns:sodipodi="http://sodipodi.sourceforge.net/DTD/sodipodi-0.dtd"
   xmlns="http://www.w3.org/2000/svg"
   xmlns:svg="http://www.w3.org/2000/svg"><sodipodi:namedview
     id="namedview1"
     pagecolor="#ffffff"
     bordercolor="#000000"
     borderopacity="0.25"
     inkscape:showpageshadow="2"
     inkscape:pageopacity="0.0"
     inkscape:pagecheckerboard="0"
     inkscape:deskcolor="#d1d1d1"
     inkscape:document-units="px" /><defs
     id="defs1" /><g
     inkscape:label="Camada 1"
     inkscape:groupmode="layer"
     id="layer1"
     transform="translate(-35.422863,-31.402624)"><text
       xml:space="preserve"
       style="font-size:14.6114px;font-family:jumbo;-inkscape-font-specification:jumbo;fill:#002b00;stroke-width:1.21762"
       x="34.935902"
       y="41.732044"
       id="text1"
       transform="scale(0.98360079,1.0166726)"><tspan
         sodipodi:role="line"
         id="tspan1"
         x="34.935902"
         y="41.732044"
         style="fill:#002b00;stroke-width:1.21762">DOCE</tspan><tspan
         sodipodi:role="line"
         x="34.935902"
         y="59.996292"
         id="tspan2"
         style="fill:#002b00;stroke-width:1.21762" /></text><text
       xml:space="preserve"
       style="font-family:jumbo;-inkscape-font-specification:jumbo;fill:#002b00"
       x="34.749035"
       y="53.281853"
       id="text3"><tspan
         sodipodi:role="line"
         id="tspan3"
         x="34.749035"
         y="53.281853">CONTA</tspan></text><path
       style="fill:#002b00;fill-opacity:1;stroke-width:0.109206"
       d="m 38.144309,53.149193 c -1.608669,-0.521346 -2.501027,-1.828607 -2.623175,-3.842828 -0.129064,-2.128254 0.681374,-3.734832 2.247873,-4.456088 0.482885,-0.222332 0.836049,-0.293865 1.626734,-0.329491 1.057035,-0.04763 1.658899,0.05196 2.621145,0.433686 l 0.573329,0.227444 v 0.635166 0.635165 l -0.554417,-0.373095 c -1.547427,-1.041341 -3.702815,-0.931874 -4.671799,0.23727 -0.869201,1.048752 -1.039517,3.175705 -0.364146,4.547577 0.547133,1.111387 1.379547,1.60933 2.690321,1.60933 0.86691,0 1.647382,-0.234309 2.345624,-0.704191 l 0.554417,-0.373095 v 0.591026 c 0,0.578829 -0.0089,0.595591 -0.433492,0.812178 -1.082115,0.552054 -2.899661,0.710573 -4.012414,0.349946 z"
       id="path3" /><path
       style="fill:#002b00;fill-opacity:1;stroke-width:0.109206"
       d="m 35.819463,37.083249 v -5.377768 l 2.320621,0.04389 c 2.669664,0.0505 3.293635,0.18742 4.37154,0.95929 2.924864,2.094449 2.606902,7.264663 -0.552521,8.984237 -0.847338,0.461179 -1.746785,0.61609 -4.03743,0.695363 l -2.10221,0.07275 z m 5.002612,3.838441 c 1.633361,-0.638078 2.33818,-1.829861 2.333174,-3.945181 -0.0044,-1.845092 -0.597587,-2.968293 -1.905659,-3.60816 -0.861844,-0.421586 -1.56793,-0.552042 -2.987904,-0.552042 h -1.131755 v 4.218173 4.218174 l 1.556181,-0.05224 c 1.225773,-0.04114 1.67928,-0.100324 2.135963,-0.278729 z"
       id="path4" /><path
       style="fill:#ffd42a;fill-opacity:1;stroke-width:0.109206"
       d="m 50.343819,42.528377 c -2.569039,-0.383728 -4.036818,-2.386298 -4.036818,-5.507651 0,-2.447361 0.976482,-4.295075 2.701804,-5.112393 0.704127,-0.333559 0.790621,-0.347854 2.099453,-0.346993 1.250082,8.23e-4 1.417688,0.02549 1.989692,0.292841 1.810592,0.846258 2.743569,2.577403 2.755012,5.111942 0.0063,1.392804 -0.134544,2.121177 -0.601779,3.112362 -0.839324,1.780525 -2.808189,2.763436 -4.907364,2.449892 z m 1.759665,-1.195647 c 0.886521,-0.246253 1.711722,-1.050918 2.099002,-2.046767 0.275163,-0.707552 0.399169,-2.124683 0.278961,-3.187962 -0.264699,-2.341365 -1.630646,-3.622876 -3.703494,-3.474565 -1.519806,0.108742 -2.541086,1.042527 -2.95802,2.704602 -0.208345,0.830551 -0.184442,2.840819 0.04285,3.603787 0.354136,1.188755 1.06467,1.977437 2.120949,2.354221 0.493667,0.176095 1.568637,0.199769 2.119752,0.04668 z"
       id="path5" /><path
       style="fill:#002b00;fill-opacity:1;stroke-width:0.109206"
       d="m 61.07335,42.366874 c -1.673484,-0.45063 -2.768242,-1.626232 -3.245617,-3.485294 -0.196111,-0.763726 -0.221528,-2.624794 -0.04734,-3.466263 0.499257,-2.41179 2.363623,-3.909478 4.866632,-3.909478 0.993972,0 1.732464,0.153087 2.739874,0.567966 l 0.791741,0.326061 v 0.799155 0.799155 l -0.700837,-0.469964 c -0.983411,-0.659449 -1.661421,-0.866956 -2.848347,-0.871747 -0.800369,-0.0032 -1.08423,0.04269 -1.52888,0.24734 -1.418442,0.652831 -2.132616,2.04055 -2.126841,4.132684 0.0043,1.552099 0.365287,2.617777 1.16693,3.444768 1.26972,1.309871 4.022667,1.21898 5.694791,-0.188019 l 0.343184,-0.288771 v 0.813318 0.813318 l -0.85761,0.338896 c -0.471685,0.186393 -1.073681,0.388706 -1.337769,0.449585 -0.681874,0.157189 -2.234888,0.129059 -2.909913,-0.05271 z"
       id="path6" /><path
       style="fill:#002b00;fill-opacity:1;stroke-width:0.109206"
       d="M 68.25355,37.075329 V 31.72425 h 3.385376 3.385377 v 0.546029 0.546028 h -2.730142 -2.730143 v 1.52888 1.528879 h 2.730143 2.730142 v 0.600631 0.600632 h -2.730142 -2.730143 v 2.074907 2.074908 h 2.730143 2.730142 v 0.600632 0.600631 H 71.638926 68.25355 Z"
       id="path7" /><path
       style="fill:#002b00;fill-opacity:1;stroke-width:0.109206"
       d="m 68.860641,52.173014 c 0.21054,-0.585616 0.913407,-2.514461 1.561927,-4.286323 l 1.179127,-3.221568 h 0.742604 0.742603 l 1.349117,3.712993 c 0.742014,2.042147 1.447513,3.973536 1.567776,4.291977 l 0.218659,0.578982 -0.567959,-0.03295 -0.567959,-0.03296 -0.400436,-1.146659 -0.400435,-1.14666 -1.965734,-0.02972 -1.965734,-0.02972 -0.412019,1.203676 -0.412018,1.203676 h -0.526159 -0.52616 z m 4.808581,-3.003156 c -0.13928,-0.375395 -0.492541,-1.356609 -0.785025,-2.180476 -0.292485,-0.823867 -0.563121,-1.46272 -0.601414,-1.419673 -0.07242,0.08141 -1.517502,4.094865 -1.517502,4.214594 0,0.03745 0.710365,0.06809 1.578588,0.06809 h 1.578589 z"
       id="path8" /><path
       style="fill:#002b00;fill-opacity:1;stroke-width:0.109206"
       d="M 64.758969,49.360968 V 45.484166 H 63.175486 61.592004 V 45.047343 44.61052 h 3.65839 3.65839 v 0.436823 0.436823 H 67.325302 65.74182 v 3.876802 3.876801 h -0.491426 -0.491425 z"
       id="path9" /><path
       style="fill:#002b00;fill-opacity:1;stroke-width:0.109206"
       d="m 53.8384,48.919551 v -4.318218 l 0.846345,0.0319 0.846344,0.03189 1.856496,3.520065 c 1.021073,1.936036 1.893354,3.520884 1.938401,3.521884 0.04505,0.001 0.0819,-1.595315 0.0819,-3.547367 V 44.61052 h 0.491426 0.491425 v 4.313625 4.313624 H 59.70087 59.011 l -2.067573,-3.904103 -2.067573,-3.904103 -0.02868,3.904103 -0.02868,3.904103 H 54.328447 53.8384 Z"
       id="path10" /><path
       style="fill:#002b00;fill-opacity:1;stroke-width:0.109206"
       d="m 47.095989,53.334037 c -1.286974,-0.211775 -2.218638,-0.928693 -2.787988,-2.145367 -0.289099,-0.617791 -0.342574,-0.874897 -0.386258,-1.857131 -0.07862,-1.767637 0.27997,-2.94714 1.16505,-3.83222 1.369967,-1.369967 3.918257,-1.424165 5.405583,-0.114968 1.791686,1.577104 1.792812,5.501492 0.002,7.0778 -0.841832,0.74101 -2.151632,1.077047 -3.398419,0.871886 z m 2.011796,-1.088719 c 1.075977,-0.520872 1.609691,-1.62205 1.609691,-3.321173 0,-1.234049 -0.231896,-2.033787 -0.77305,-2.666004 -0.56053,-0.654853 -1.097821,-0.877819 -2.122463,-0.880782 -1.007054,-0.0029 -1.611123,0.269352 -2.143888,0.966288 -0.484303,0.633543 -0.685335,1.390489 -0.685335,2.580498 0,1.735122 0.501689,2.789149 1.56269,3.283143 0.754422,0.351253 1.870955,0.36789 2.552355,0.03803 z"
       id="path11" /><path
       style="fill:#ffd42a;fill-opacity:1;stroke-width:0.109206"
       d="m 49.79779,42.360539 c -1.642438,-0.439435 -2.73945,-1.625802 -3.22096,-3.483317 -0.222305,-0.857584 -0.224745,-2.849025 -0.0045,-3.686445 0.387224,-1.47242 1.2813,-2.646773 2.453281,-3.222345 0.541429,-0.2659 0.752717,-0.302708 1.919757,-0.334431 1.132345,-0.03078 1.397486,-0.0034 1.942178,0.200369 0.854747,0.319802 1.8259,1.226999 2.26011,2.111268 0.625265,1.273354 0.829065,3.225736 0.49918,4.782089 -0.588092,2.774537 -3.137858,4.358188 -5.849029,3.632812 z m 2.813041,-1.197341 c 1.048237,-0.522359 1.678593,-1.540541 1.891996,-3.056048 0.226691,-1.609873 -0.09994,-3.3468 -0.81011,-4.307992 -0.211382,-0.286097 -0.610422,-0.628311 -0.955047,-0.819042 -0.546961,-0.302714 -0.674968,-0.327618 -1.684014,-0.327618 -1.26727,0 -1.704434,0.169926 -2.390314,0.929113 -0.794822,0.879773 -1.121156,2.157174 -1.017717,3.983756 0.07526,1.32902 0.34582,2.127405 0.955761,2.820335 0.674806,0.76662 1.364964,1.057854 2.506872,1.057854 0.790296,0 1.029552,-0.04464 1.502573,-0.280358 z"
       id="path12" /><path
       style="fill:#002b00;fill-opacity:1;stroke-width:0.019305"
       d="m 39.092664,53.318176 c -0.394855,-0.036 -0.801641,-0.121834 -1.095135,-0.231068 -1.188737,-0.44243 -1.950202,-1.310992 -2.283339,-2.604482 -0.14626,-0.56789 -0.182666,-0.887514 -0.182508,-1.602317 1.37e-4,-0.617437 0.01691,-0.800172 0.115418,-1.257611 0.273237,-1.268802 1.001302,-2.225796 2.08456,-2.740022 0.592532,-0.281276 0.975178,-0.345973 2.046332,-0.345987 0.717697,-1e-5 0.860713,0.01351 1.314132,0.12423 0.304465,0.07435 0.565076,0.162389 1.074864,0.363117 l 0.419885,0.165328 v 0.624706 0.624705 l -0.342664,-0.229146 c -0.188466,-0.126031 -0.412163,-0.268236 -0.497105,-0.316011 -1.262081,-0.709847 -2.886209,-0.714831 -3.912476,-0.012 -0.691689,0.473693 -1.112165,1.330886 -1.233098,2.51382 -0.0302,0.29537 -0.01398,0.991546 0.02951,1.266729 0.188524,1.192932 0.756495,2.098636 1.573591,2.509294 0.842602,0.423477 2.136125,0.411536 3.167824,-0.02924 0.243988,-0.10424 0.449605,-0.221471 0.825723,-0.470778 0.187237,-0.124108 0.35235,-0.232864 0.366919,-0.24168 0.02228,-0.01348 0.02491,0.06193 0.01657,0.474019 -0.0057,0.281853 -0.01927,0.520332 -0.03192,0.56133 -0.03172,0.102804 -0.156819,0.202947 -0.409689,0.327959 -0.492035,0.243248 -1.02673,0.394145 -1.734656,0.48954 -0.213507,0.02877 -1.118415,0.05329 -1.312741,0.03557 z"
       id="path13" /><path
       style="fill:#002b00;fill-opacity:1;stroke-width:0.019305"
       d="m 39.208494,53.414613 c -0.225715,-0.02003 -0.649901,-0.08952 -0.859073,-0.140736 -0.697372,-0.170761 -1.225064,-0.464276 -1.72007,-0.956746 -0.216444,-0.215335 -0.304806,-0.320224 -0.431422,-0.512112 -0.306139,-0.463958 -0.512004,-0.96441 -0.635301,-1.544401 -0.156167,-0.734614 -0.168404,-1.73456 -0.03036,-2.480695 0.393618,-2.127511 1.925898,-3.367001 4.164226,-3.368519 0.921414,-6.26e-4 1.761322,0.201592 2.735785,0.65867 l 0.212508,0.09968 v 0.682498 c 0,0.601339 -0.0035,0.682498 -0.0297,0.682498 -0.01633,0 -0.118409,-0.06813 -0.226834,-0.151406 -0.256749,-0.197188 -0.50405,-0.361776 -0.714792,-0.475723 -0.09327,-0.05043 -0.165245,-0.09602 -0.159949,-0.101317 0.01934,-0.01934 0.387142,0.193244 0.725519,0.419335 0.190883,0.12754 0.351695,0.231891 0.357361,0.231891 0.0057,0 0.008,-0.288541 0.0052,-0.641203 l -0.0051,-0.641203 -0.405405,-0.161274 c -0.677337,-0.269451 -1.062242,-0.384862 -1.538667,-0.461361 -0.179206,-0.02877 -0.333395,-0.03503 -0.864808,-0.03507 -1.074584,-7.9e-5 -1.485598,0.07056 -2.082132,0.357827 -1.426025,0.686727 -2.20409,2.101048 -2.203317,4.00506 8.1e-4,1.996134 0.752767,3.427775 2.142592,4.079254 0.544816,0.255382 1.029106,0.362333 1.737451,0.3837 1.089156,0.03285 2.258288,-0.216452 2.954374,-0.629989 0.146567,-0.08707 0.200858,-0.145343 0.23227,-0.249292 0.03198,-0.105833 0.04905,-1.064368 0.01895,-1.064368 -0.01295,0 -0.153173,0.08827 -0.311597,0.196155 -0.158424,0.107885 -0.292339,0.19186 -0.297589,0.18661 -0.0053,-0.0052 0.0404,-0.04357 0.101443,-0.08515 0.06104,-0.04158 0.199868,-0.147276 0.308499,-0.234873 0.108631,-0.0876 0.210716,-0.159266 0.226855,-0.159266 0.02569,0 0.02934,0.08346 0.0293,0.670849 l -4.7e-5,0.67085 -0.42949,0.190804 c -0.645618,0.28682 -1.165342,0.445329 -1.78808,0.545338 -0.17904,0.02875 -1.01406,0.05183 -1.21863,0.03368 z"
       id="path14" /><path
       style="fill:#002b00;fill-opacity:1;stroke-width:0.00682535"
       d="m 36.905288,46.252018 -3.3e-4,-0.849756 0.09713,-0.077 c 0.288902,-0.229024 0.599208,-0.408184 0.957124,-0.552613 0.371045,-0.149726 0.722667,-0.212618 1.378722,-0.2466 0.08522,-0.0044 0.09571,-0.0059 0.04778,-0.0066 -0.07142,-0.0011 -0.293698,0.0092 -0.426584,0.01966 -0.507555,0.04002 -0.845739,0.132147 -1.288807,0.351092 -0.262701,0.129815 -0.503151,0.283074 -0.711264,0.453347 l -0.05095,0.04169 -0.0021,-0.03128 c -0.0012,-0.01826 0.0015,-0.03563 0.0066,-0.04173 0.01319,-0.01589 0.187217,-0.145531 0.266547,-0.198562 0.581465,-0.388705 1.259118,-0.612735 2.059842,-0.680977 0.175147,-0.01493 0.582055,-0.02053 0.76444,-0.01052 0.840522,0.04611 1.559627,0.243465 2.508318,0.6884 l 0.129682,0.06082 -0.0014,0.606848 c -0.0014,0.626297 -0.0039,0.723747 -0.01876,0.744067 -0.0081,0.01102 -0.01223,0.0097 -0.05571,-0.01763 -0.02585,-0.01625 -0.12378,-0.08662 -0.217629,-0.156381 -0.247503,-0.183977 -0.472211,-0.332454 -0.662059,-0.43746 -0.163528,-0.09045 -0.20631,-0.131784 -0.05286,-0.05107 0.164919,0.08674 0.358646,0.206856 0.768462,0.476456 0.100773,0.06629 0.18754,0.120535 0.192816,0.120535 0.0082,0 0.0095,-0.08525 0.0088,-0.575036 -4.4e-4,-0.31627 -0.0027,-0.605582 -0.0051,-0.642916 l -0.0043,-0.06788 -0.150158,-0.06027 c -0.393849,-0.158083 -0.688304,-0.269495 -0.897534,-0.339597 -0.475967,-0.159471 -0.977202,-0.257529 -1.285416,-0.251471 -0.03442,6.76e-4 -0.04723,0.0022 -0.02846,0.0034 0.40703,0.02562 0.794787,0.09741 1.177374,0.217969 0.242053,0.07627 0.426729,0.144664 0.914598,0.338698 l 0.262776,0.10451 0.0017,0.629482 c 9.58e-4,0.346216 8e-5,0.629482 -0.002,0.629482 -0.002,0 -0.147171,-0.09633 -0.322534,-0.214073 -0.175363,-0.117741 -0.357234,-0.237068 -0.404158,-0.265171 -1.067638,-0.639418 -2.411262,-0.782151 -3.474106,-0.369055 -0.103329,0.04016 -0.332244,0.15293 -0.426585,0.210146 -0.443054,0.268704 -0.769568,0.651275 -0.996105,1.167118 -0.02473,0.05631 -0.04778,0.108524 -0.05123,0.116031 -0.0038,0.0084 -0.0064,-0.314774 -0.0066,-0.836106 z"
       id="path15" /><path
       style="fill:#002b00;fill-opacity:1;stroke-width:0.00682535"
       d="m 36.905157,46.251979 -4.62e-4,-0.849796 0.07337,-0.05873 c 0.30197,-0.241714 0.620896,-0.427152 0.984558,-0.572466 0.368701,-0.147328 0.729014,-0.212342 1.348007,-0.243229 0.05256,-0.0026 0.09147,-0.0061 0.08647,-0.0078 -0.0108,-0.0036 -0.305675,0.0094 -0.441389,0.01957 -0.242137,0.01808 -0.501388,0.06124 -0.691191,0.115074 -0.40722,0.115497 -0.895179,0.367282 -1.243797,0.641794 -0.04317,0.03399 -0.08694,0.06809 -0.09726,0.07578 l -0.01877,0.01398 v -0.03396 c 0,-0.03863 6.8e-4,-0.03934 0.133094,-0.138663 0.425441,-0.319122 0.951886,-0.554075 1.525467,-0.680819 0.563337,-0.124481 1.224712,-0.15122 1.849671,-0.07478 0.659394,0.08065 1.265917,0.266604 2.040781,0.625686 l 0.187698,0.08698 -0.0013,0.607269 c -0.0014,0.624348 -0.0039,0.72402 -0.01876,0.744392 -0.008,0.01093 -0.01178,0.0099 -0.05049,-0.0136 -0.02301,-0.01398 -0.09675,-0.06631 -0.163859,-0.11629 -0.271252,-0.202016 -0.450962,-0.324408 -0.622154,-0.423719 -0.224372,-0.13016 -0.255334,-0.149087 -0.247934,-0.151553 0.01642,-0.0055 0.194013,0.0919 0.404917,0.222011 0.05819,0.0359 0.224042,0.142486 0.368569,0.236865 0.144527,0.09438 0.266959,0.17407 0.272071,0.177089 0.0056,0.0033 0.01163,0.0018 0.01525,-0.0039 0.0069,-0.01095 0.0083,-0.958121 0.0016,-1.148345 l -0.0045,-0.128787 -0.02449,-0.01034 c -0.06592,-0.02783 -0.619728,-0.24474 -0.727499,-0.284937 -0.591245,-0.220527 -1.112074,-0.343102 -1.504991,-0.354196 -0.130991,-0.0037 -0.124115,-0.0018 0.04778,0.01309 0.353985,0.0307 0.681075,0.09736 1.061343,0.216315 0.193628,0.06057 0.448092,0.15624 0.989676,0.372082 l 0.150158,0.05984 0.0017,0.629639 c 9.58e-4,0.346302 6.5e-5,0.629639 -0.002,0.629639 -0.002,0 -0.148139,-0.09679 -0.324644,-0.215095 -0.176506,-0.118303 -0.367576,-0.242759 -0.424601,-0.276569 -1.163831,-0.690038 -2.655378,-0.783187 -3.721307,-0.232401 -0.523486,0.270496 -0.887563,0.663948 -1.145037,1.237424 -0.02745,0.06114 -0.05338,0.11884 -0.05763,0.128225 -0.0058,0.01281 -0.0078,-0.194594 -0.0082,-0.832733 z"
       id="path16" /><path
       style="fill:#002b00;fill-opacity:1;stroke-width:0.00390625"
       d="m 42.531214,46.50735 c -0.02254,-0.01852 -0.0687,-0.05568 -0.102589,-0.0826 -0.03388,-0.02691 -0.06083,-0.04971 -0.05987,-0.05067 9.55e-4,-9.55e-4 0.02341,0.01463 0.04989,0.03464 0.05968,0.04509 0.15976,0.112301 0.181853,0.122137 0.02027,0.009 0.02565,0.0057 0.03204,-0.01965 0.0095,-0.03771 0.01206,-0.186941 0.01299,-0.755141 l 9.61e-4,-0.587677 -0.123047,-0.05773 c -0.539693,-0.253198 -0.913337,-0.39432 -1.357421,-0.512686 -0.510859,-0.136164 -1.066575,-0.200611 -1.60429,-0.186052 -0.08409,0.0023 -0.16754,0.0053 -0.185437,0.0066 -0.02203,0.0017 -0.03254,0.0012 -0.03254,-0.0017 0,-0.0058 0.03122,-0.0082 0.160156,-0.01268 0.608529,-0.02092 1.236878,0.05782 1.828125,0.229084 0.370954,0.107451 0.791035,0.273983 1.225586,0.485856 l 0.09863,0.04809 v 0.68688 0.68688 h -0.04203 -0.04203 z"
       id="path17" /><path
       style="fill:#002b00;fill-opacity:1;stroke-width:0.00390625"
       d="m 42.514368,46.491449 c -0.03359,-0.02726 -0.06047,-0.05016 -0.05975,-0.05089 7.26e-4,-7.26e-4 0.03101,0.01856 0.0673,0.04286 0.09069,0.06073 0.09791,0.06312 0.109218,0.03605 0.0086,-0.02049 0.01334,-0.127595 0.01264,-0.283151 l -6.06e-4,-0.134766 -0.0028,0.177735 c -0.0027,0.167105 -0.0059,0.21932 -0.01517,0.243676 -0.0021,0.0056 -0.0058,0.01023 -0.008,0.01023 -0.01693,0 -0.09889,-0.05545 -0.265567,-0.179685 -0.272023,-0.202748 -0.448488,-0.31955 -0.670745,-0.443964 -0.08904,-0.04984 -0.143368,-0.08264 -0.157761,-0.09524 l -0.0094,-0.0082 0.01172,0.0024 c 0.01649,0.0034 0.105531,0.04692 0.17326,0.08467 0.144737,0.08068 0.324828,0.192689 0.577379,0.359115 0.240227,0.158304 0.309684,0.202775 0.316701,0.202775 0.0022,0 0.0051,-0.009 0.0066,-0.01994 0.0015,-0.01097 0.0024,-0.247833 0.0021,-0.526367 -4.85e-4,-0.475331 -0.0032,-0.731992 -0.0077,-0.736068 -0.003,-0.0028 -0.512748,-0.204286 -0.633544,-0.2505 -0.414228,-0.158474 -0.745214,-0.260419 -1.052003,-0.324023 -0.244254,-0.05064 -0.401971,-0.07121 -0.570312,-0.0744 -0.09298,-0.0018 -0.09193,-0.0013 0.01953,0.0077 0.451869,0.03674 0.862175,0.131312 1.373047,0.316465 0.136759,0.04956 0.202105,0.07487 0.569336,0.220505 l 0.290039,0.115021 v 0.631892 c 0,0.34754 -7.78e-4,0.631892 -0.0017,0.631892 -9.49e-4,0 -0.06731,-0.04415 -0.14746,-0.09811 -0.261354,-0.175941 -0.480452,-0.321216 -0.542219,-0.359524 -0.489525,-0.303607 -1.061626,-0.507492 -1.652343,-0.58886 -0.286104,-0.03941 -0.624853,-0.04925 -0.87793,-0.02549 l -0.02441,0.0023 v -0.425856 -0.425857 l 0.01465,-0.0015 0.01465,-0.0015 -0.01465,-6.57e-4 -0.01465,-6.57e-4 v -0.04826 -0.04826 l 0.02542,-0.0024 c 0.01398,-0.0013 0.09529,-0.0044 0.180689,-0.0069 0.550101,-0.01614 1.101896,0.04849 1.636595,0.191694 0.419867,0.112447 0.794164,0.253693 1.306003,0.492835 l 0.152038,0.07104 0.001,0.416343 10e-4,0.416343 9.59e-4,-0.419176 c 6.36e-4,-0.278213 0.0023,-0.418364 0.0049,-0.416761 0.0026,0.0016 0.0039,0.235066 0.0039,0.68773 v 0.685317 h -0.04041 -0.04041 z"
       id="path18" /><path
       style="fill:#002b00;fill-opacity:1;stroke-width:0.00390625"
       d="m 42.51412,46.49162 c -0.03364,-0.02717 -0.06043,-0.05012 -0.05954,-0.05101 8.9e-4,-8.9e-4 0.03102,0.01805 0.06696,0.04208 0.07286,0.04873 0.09209,0.05834 0.101353,0.05065 0.0098,-0.0082 0.01394,-0.03081 0.01561,-0.08607 l 0.0016,-0.05273 -0.0031,0.04741 c -0.0035,0.05276 -0.0103,0.08697 -0.01787,0.08987 -0.0135,0.0052 -0.08599,-0.04292 -0.2597,-0.172328 -0.294885,-0.219682 -0.440004,-0.315017 -0.722656,-0.474744 -0.06928,-0.03915 -0.122969,-0.07362 -0.11972,-0.07687 0.0043,-0.0043 0.03466,0.0089 0.109954,0.04748 0.156626,0.0803 0.335976,0.190614 0.71875,0.442099 0.23117,0.15188 0.243704,0.159629 0.249242,0.154086 0.0036,-0.0036 0.0046,-0.147373 0.0045,-0.616774 -9.8e-5,-0.336658 -0.0015,-0.623543 -0.0031,-0.637524 l -0.003,-0.02542 -0.157017,-0.06231 c -0.731333,-0.290211 -0.986384,-0.379472 -1.332798,-0.466442 -0.290668,-0.07297 -0.551389,-0.113817 -0.761719,-0.119323 -0.07856,-0.0021 -0.0717,-9.03e-4 0.08008,0.01347 0.462575,0.0438 0.884317,0.148696 1.433705,0.356605 0.04828,0.01827 0.203795,0.07923 0.345592,0.135475 0.141797,0.05624 0.287256,0.113786 0.323242,0.127878 l 0.06543,0.02562 v 0.632237 c 0,0.34773 -8.59e-4,0.632237 -0.0019,0.632237 -10e-4,0 -0.119262,-0.07887 -0.262695,-0.175276 -0.291701,-0.196054 -0.38997,-0.260487 -0.475631,-0.311865 -0.709255,-0.4254 -1.571454,-0.638295 -2.392578,-0.590777 -0.03545,0.0021 -0.07544,0.0048 -0.08887,0.0061 l -0.02441,0.0024 V 44.951886 44.52591 l 0.01074,-0.0016 0.01074,-0.0016 -0.01074,-5.85e-4 -0.01074,-5.86e-4 v -0.04826 -0.04826 l 0.02542,-0.0024 c 0.01398,-0.0013 0.0954,-0.0044 0.180937,-0.007 0.313119,-0.0093 0.654248,0.0097 0.961612,0.05351 0.565336,0.08059 1.121899,0.246858 1.734375,0.518139 0.05049,0.02236 0.16078,0.07284 0.245094,0.112177 l 0.153297,0.07152 0.001,0.314916 10e-4,0.314916 9.53e-4,-0.317613 c 6.32e-4,-0.210507 0.0023,-0.316799 0.0049,-0.315199 0.0026,0.0016 0.0039,0.235066 0.0039,0.68773 v 0.685317 h -0.04048 -0.04048 z m 0.129425,-0.260175 c -6.68e-4,-0.02847 -0.0012,-0.0052 -0.0012,0.05176 0,0.05693 5.46e-4,0.08022 0.0012,0.05176 6.67e-4,-0.02847 6.67e-4,-0.07505 0,-0.103516 z"
       id="path19" /><path
       style="fill:#002b00;fill-opacity:1;stroke-width:0.00390625"
       d="m 42.59565,45.849609 c 0,-0.306152 4.63e-4,-0.431396 10e-4,-0.27832 5.66e-4,0.153076 5.66e-4,0.403565 0,0.556641 -5.66e-4,0.153076 -10e-4,0.02783 -10e-4,-0.278321 z"
       id="path20" /><path
       style="fill:#002b00;fill-opacity:1;stroke-width:0.00390625"
       d="m 42.595471,46.294922 c 0,-0.06123 5.4e-4,-0.08628 0.0012,-0.05566 6.6e-4,0.03061 6.6e-4,0.08071 0,0.111328 -6.6e-4,0.03061 -0.0012,0.0056 -0.0012,-0.05566 z"
       id="path21" /><path
       style="fill:#002b00;fill-opacity:1;stroke-width:0.00390625"
       d="m 42.189453,46.190984 c -0.03372,-0.02359 -0.234888,-0.150769 -0.314453,-0.1988 -0.204128,-0.123225 -0.350873,-0.199398 -0.362109,-0.187963 -0.0045,0.0046 0.01881,0.02317 0.06046,0.04817 0.01993,0.01196 0.03566,0.02233 0.03495,0.02304 -7.1e-4,7.09e-4 -0.04075,-0.01873 -0.08897,-0.04321 -0.509313,-0.258482 -1.011044,-0.394216 -1.613074,-0.436388 -0.0778,-0.0054 -0.412329,-0.0068 -0.50293,-0.0021 -0.0579,0.003 -0.05957,0.0029 -0.05957,-0.0046 0,-0.0094 0.0067,-0.01051 0.0957,-0.01618 0.171064,-0.01089 0.393416,-0.0086 0.572695,0.006 0.669398,0.05441 1.311747,0.263058 1.88043,0.610801 0.06174,0.03775 0.322266,0.210199 0.322266,0.213312 0,0.0042 -0.0065,0.0011 -0.02539,-0.01207 z"
       id="path22" /><path
       style="fill:#002b00;fill-opacity:1;stroke-width:0.00390625"
       d="m 39.464844,52.466426 c -0.893062,-0.04307 -1.543263,-0.338875 -2.029799,-0.923457 -0.02861,-0.03437 -0.06786,-0.08359 -0.08723,-0.109375 -0.03483,-0.04637 -0.03521,-0.04712 -0.03526,-0.06944 l -5.2e-5,-0.02257 0.03199,0.0421 c 0.158106,0.20809 0.363061,0.405407 0.576436,0.554953 0.277706,0.194633 0.567489,0.32288 0.924044,0.408947 0.241591,0.05832 0.46562,0.08592 0.735111,0.09056 0.749848,0.01293 1.455918,-0.15691 2.097656,-0.504568 0.148747,-0.08058 0.354135,-0.210329 0.487566,-0.308003 0.03183,-0.0233 0.05871,-0.04153 0.05974,-0.04051 0.0019,0.0019 -0.09457,0.07446 -0.169947,0.127923 -0.04747,0.03366 -0.08181,0.06421 -0.07732,0.06877 0.007,0.0071 0.07944,-0.03757 0.304448,-0.187846 0.08325,-0.0556 0.152251,-0.100196 0.15334,-0.09911 0.0011,0.0011 -0.02835,0.02229 -0.06542,0.04712 -0.03707,0.02483 -0.140351,0.09422 -0.229511,0.154211 -0.08916,0.05999 -0.194629,0.129323 -0.234375,0.15408 -0.56294,0.350641 -1.183055,0.554027 -1.849609,0.606636 -0.17231,0.0136 -0.423888,0.01767 -0.591797,0.0096 z"
       id="path23" /><path
       style="fill:#f5a001;fill-opacity:1;stroke-width:0.125"
       d="m 50.130663,42.425954 c -1.296822,-0.254209 -2.525987,-1.178192 -3.122316,-2.347092 -0.610463,-1.196607 -0.801103,-3.226666 -0.444892,-4.737507 0.374697,-1.589245 1.196834,-2.71003 2.463526,-3.358423 0.599287,-0.306762 0.787985,-0.338172 2.035519,-0.338819 1.61276,-8.37e-4 2.189546,0.194462 3.127373,1.05892 1.090332,1.005033 1.560127,2.353311 1.560127,4.477453 0,2.879184 -1.31547,4.730238 -3.724903,5.241467 -0.749969,0.159127 -1.099316,0.159865 -1.894434,0.004 z m 2.446925,-1.245758 c 1.125096,-0.54465 1.811718,-1.741694 1.973995,-3.441429 0.170588,-1.786789 -0.439348,-3.774962 -1.377646,-4.490638 -1.296058,-0.98855 -3.313991,-0.888791 -4.380321,0.216547 -0.284037,0.294428 -0.601467,0.704792 -0.705399,0.911921 -0.556069,1.108195 -0.613386,3.84328 -0.104603,4.991521 0.410217,0.925793 0.813434,1.383175 1.537434,1.743959 0.859556,0.428335 2.248489,0.45929 3.05654,0.06812 z"
       id="path24" /><path
       style="fill:#f5a001;fill-opacity:1;stroke-width:0.00390625"
       d="m 50.849609,42.646189 c -0.426336,-0.01716 -0.83286,-0.07876 -1.213867,-0.183934 l -0.05762,-0.0159 v -0.0439 -0.0439 l 0.05762,0.01724 c 0.142271,0.04257 0.353188,0.09235 0.525201,0.123939 1.291738,0.237255 2.576039,-0.01027 3.598823,-0.693592 0.253359,-0.16927 0.462375,-0.342148 0.677787,-0.560599 0.284618,-0.288631 0.512976,-0.596129 0.706634,-0.951524 0.10834,-0.198821 0.255782,-0.528419 0.352574,-0.788161 l 0.0095,-0.02539 0.03591,-0.0011 0.03591,-0.0011 -0.02294,0.06558 c -0.15241,0.435637 -0.33812,0.817041 -0.566258,1.162957 -0.284069,0.430722 -0.658295,0.820502 -1.074674,1.119338 -0.423793,0.304157 -0.921168,0.532596 -1.44674,0.664471 -0.359041,0.09009 -0.718061,0.139234 -1.139306,0.155953 -0.108648,0.0043 -0.367638,0.0041 -0.478516,-3.29e-4 z"
       id="path25" /><path
       style="fill:#f5a001;fill-opacity:1;stroke-width:0.00390625"
       d="m 50.947266,42.581665 c -0.198041,-0.0097 -0.275893,-0.01553 -0.416016,-0.03116 -0.302339,-0.03373 -0.635417,-0.100912 -0.914063,-0.184376 l -0.03711,-0.01112 -0.0011,-0.03786 c -6.15e-4,-0.02082 -4.51e-4,-0.03786 3.65e-4,-0.03786 8.16e-4,0 0.01187,0.0036 0.02456,0.008 0.02404,0.0083 0.151434,0.0478 0.198853,0.06165 0.2161,0.06312 0.623564,0.140473 0.908203,0.172422 0.427929,0.04803 0.783206,0.01957 1.369141,-0.109709 0.537504,-0.118589 1.037895,-0.313465 1.470703,-0.57276 0.564842,-0.338397 1.035186,-0.802155 1.387598,-1.368166 0.170169,-0.273311 0.320846,-0.585767 0.432313,-0.896484 0.01541,-0.04297 0.02968,-0.08208 0.03171,-0.08691 0.0035,-0.0084 0.0056,-0.0088 0.05064,-0.0088 0.02618,0 0.04696,0.0016 0.04696,0.0036 0,0.0086 -0.0781,0.205947 -0.123215,0.311374 -0.152998,0.35752 -0.275824,0.589777 -0.444957,0.841383 -0.375881,0.559169 -0.875184,1.015919 -1.482609,1.356253 -0.08238,0.04615 -0.252316,0.132057 -0.333985,0.168825 -0.537353,0.24192 -1.096279,0.377803 -1.71289,0.41643 -0.06339,0.004 -0.401608,0.0079 -0.455078,0.0053 z"
       id="path26" /><path
       style="fill:#f5a001;fill-opacity:1;stroke-width:0.00390625"
       d="m 50.794922,42.642256 c -0.425568,-0.0236 -0.808213,-0.08456 -1.181641,-0.188251 l -0.0332,-0.0092 -0.0011,-0.04203 c -10e-4,-0.03883 -5.79e-4,-0.04187 0.0059,-0.03986 0.03904,0.01218 0.172556,0.04904 0.22718,0.06273 0.326319,0.08175 0.626978,0.128801 0.988775,0.154726 0.09192,0.0066 0.435203,0.0092 0.539063,0.004 0.472893,-0.0233 0.893036,-0.09971 1.316406,-0.239414 0.70026,-0.231065 1.331307,-0.624459 1.815977,-1.13208 0.269336,-0.28209 0.466025,-0.547357 0.654777,-0.883073 0.03491,-0.06209 0.130118,-0.25228 0.166085,-0.331771 0.07469,-0.165079 0.132134,-0.300877 0.181759,-0.429688 l 0.03235,-0.08398 0.03253,-0.0021 c 0.01789,-0.0011 0.0331,-0.0017 0.0338,-0.0013 0.0015,8.85e-4 -0.04055,0.119839 -0.07161,0.202575 -0.200936,0.535166 -0.472384,1.011747 -0.799887,1.404361 -0.138003,0.165439 -0.313699,0.345201 -0.477423,0.488472 -0.574457,0.502697 -1.274152,0.833892 -2.070559,0.980085 -0.213605,0.03921 -0.402872,0.06163 -0.697019,0.08257 -0.0762,0.0054 -0.578373,0.0079 -0.662109,0.0032 z"
       id="path27" /><path
       style="fill:#f5a001;fill-opacity:1;stroke-width:0.00390625"
       d="m 50.974609,41.448846 c -0.01074,-7.6e-4 -0.05293,-0.0033 -0.09375,-0.0057 -0.123745,-0.0072 -0.420305,-0.04065 -0.405255,-0.04567 0.0026,-8.62e-4 0.03682,0.002 0.07607,0.0064 0.175598,0.01972 0.311513,0.02757 0.526448,0.0304 0.423741,0.0056 0.787775,-0.03124 1.046904,-0.105865 0.732149,-0.210851 1.432978,-0.807722 1.867113,-1.590154 0.03392,-0.06113 0.122124,-0.235732 0.126789,-0.250976 0.0022,-0.0072 0.01,-0.01282 0.01,-0.0072 0,0.01244 -0.124152,0.266224 -0.176524,0.360836 -0.327007,0.590757 -0.777089,1.035375 -1.331288,1.315128 -0.312863,0.157929 -0.670999,0.247937 -1.136719,0.285685 -0.07072,0.0057 -0.453639,0.01104 -0.509766,0.0071 z"
       id="path28" /><path
       style="fill:#f5a001;fill-opacity:1;stroke-width:0.00390625"
       d="m 50.908203,41.427646 c -0.359324,-0.01684 -0.664735,-0.06139 -0.873047,-0.127351 -0.107106,-0.03391 -0.267815,-0.09903 -0.391601,-0.158674 l -0.06543,-0.03153 v -0.0168 -0.0168 l 0.05371,0.02558 c 0.382477,0.182149 0.774456,0.278394 1.24707,0.306201 0.142894,0.0084 0.405449,0.0046 0.558594,-0.0081 0.667619,-0.05541 1.246043,-0.284636 1.71875,-0.681128 0.09628,-0.08076 0.233238,-0.213436 0.320846,-0.310823 0.227321,-0.252696 0.426637,-0.560699 0.573816,-0.886719 l 0.01852,-0.04102 0.02388,-0.0012 c 0.01313,-6.4e-4 0.02388,-2.8e-5 0.02388,0.0014 0,0.006 -0.07975,0.165557 -0.113112,0.226365 -0.217647,0.396698 -0.497519,0.74536 -0.824879,1.027628 -0.361126,0.311382 -0.779694,0.532134 -1.176959,0.620723 -0.135432,0.0302 -0.327487,0.05457 -0.5413,0.06867 -0.08253,0.0054 -0.460754,0.0079 -0.552734,0.0036 z"
       id="path29" /><path
       style="fill:#f5a001;fill-opacity:1;stroke-width:0.00390625"
       d="m 50.875,41.44109 c -0.08124,-0.0059 -0.273304,-0.02464 -0.279297,-0.02731 -0.0046,-0.002 0.03098,1.45e-4 0.130859,0.008 0.170424,0.01346 0.491111,0.01815 0.671875,0.0098 0.497662,-0.02293 0.80088,-0.09399 1.154297,-0.270503 0.613954,-0.306638 1.153742,-0.858303 1.498079,-1.531039 0.02782,-0.05436 0.05063,-0.09643 0.05067,-0.09349 1.17e-4,0.008 -0.119534,0.247576 -0.157299,0.314958 -0.235837,0.420788 -0.531104,0.764676 -0.883578,1.029073 -0.236086,0.177092 -0.488816,0.313379 -0.740295,0.399211 -0.267362,0.09125 -0.619814,0.15299 -0.933593,0.163533 -0.152947,0.0051 -0.425653,0.0039 -0.511719,-0.0023 z"
       id="path31" /><path
       style="fill:#f5a001;fill-opacity:1;stroke-width:0.00390625"
       d="m 50.896484,41.442847 c -0.0481,-0.0031 -0.160919,-0.01335 -0.259703,-0.02354 -0.07132,-0.0074 -0.04259,-0.0085 0.04002,-0.0016 0.139987,0.01171 0.199738,0.01418 0.399366,0.01649 0.465214,0.0054 0.805869,-0.03087 1.085152,-0.115513 0.396754,-0.120251 0.808546,-0.369527 1.149177,-0.695648 0.07231,-0.06923 0.07566,-0.07258 0.130881,-0.13086 0.244457,-0.258002 0.443736,-0.540639 0.612805,-0.86914 0.02598,-0.05049 0.04727,-0.08927 0.04731,-0.08619 1.19e-4,0.01017 -0.131372,0.270265 -0.174897,0.345955 -0.154775,0.269157 -0.320286,0.490176 -0.520264,0.69475 -0.310354,0.317486 -0.699397,0.569949 -1.078211,0.699686 -0.273729,0.09375 -0.616458,0.154627 -0.935547,0.166183 -0.11893,0.0043 -0.426314,0.0039 -0.496094,-5.84e-4 z"
       id="path32" /><path
       style="fill:#f5a001;fill-opacity:1;stroke-width:0.00390625"
       d="m 50.892578,41.442899 c -0.06815,-0.0044 -0.296373,-0.02707 -0.298828,-0.02975 -0.0011,-0.0012 0.01299,-9.9e-4 0.03125,4e-4 0.152632,0.01162 0.19982,0.01444 0.300781,0.01795 0.451499,0.0157 0.84893,-0.01393 1.13086,-0.08433 0.316622,-0.07906 0.653763,-0.245216 0.953125,-0.469747 0.131437,-0.09858 0.231511,-0.18636 0.365353,-0.320459 0.145233,-0.145513 0.224204,-0.23613 0.337318,-0.38706 0.132389,-0.176647 0.226794,-0.327405 0.33511,-0.535141 0.02969,-0.05693 0.05398,-0.100836 0.054,-0.09756 3.6e-5,0.01039 -0.130397,0.268307 -0.175065,0.346176 -0.31155,0.543125 -0.718753,0.95143 -1.226312,1.229628 -0.205909,0.112861 -0.440844,0.198857 -0.688843,0.252144 -0.197854,0.04251 -0.420983,0.07093 -0.614838,0.0783 -0.113228,0.0043 -0.43334,0.004 -0.503906,-5.55e-4 z"
       id="path33" /><path
       style="fill:#f5a001;fill-opacity:1;stroke-width:0.00390625"
       d="m 49.566406,42.443322 c -0.0054,-0.0018 -0.04492,-0.01423 -0.08789,-0.02756 -0.409986,-0.127153 -0.820819,-0.325983 -1.163343,-0.563018 -0.794407,-0.549751 -1.368367,-1.350564 -1.719859,-2.399622 l -0.03665,-0.109375 0.03575,-0.0011 c 0.01966,-6.23e-4 0.037,2.56e-4 0.03854,0.002 0.0015,0.0017 0.0129,0.03385 0.02525,0.07144 0.216403,0.658606 0.542309,1.23594 0.968033,1.714843 0.07038,0.07917 0.272412,0.27889 0.353461,0.349414 0.43846,0.381519 0.930773,0.659437 1.499786,0.846652 l 0.09863,0.03245 7e-6,0.04395 c 4e-6,0.02417 -4.32e-4,0.04381 -9.7e-4,0.04364 -5.37e-4,-1.69e-4 -0.0054,-0.0018 -0.01074,-0.0036 z"
       id="path34" /><path
       style="fill:#f5a001;fill-opacity:1;stroke-width:0.00390625"
       d="M 49.46875,42.318785 C 49.149452,42.212175 48.857914,42.079148 48.583984,41.915073 48.010062,41.571311 47.53294,41.097377 47.167261,40.507812 46.96614,40.183558 46.801039,39.827617 46.665819,39.426758 l -0.02866,-0.08496 0.03786,1.2e-5 0.03787,1.3e-5 0.02086,0.06542 c 0.105747,0.331567 0.241845,0.637031 0.405947,0.91112 0.335495,0.560358 0.825617,1.064068 1.41108,1.4502 0.301583,0.198904 0.622137,0.361434 0.949219,0.481282 l 0.07617,0.02791 0.0011,0.03788 c 6.15e-4,0.02083 -2.64e-4,0.03784 -0.002,0.0378 -0.0017,-4.6e-5 -0.04965,-0.01564 -0.106587,-0.03465 z"
       id="path35" /><path
       style="fill:#f5a001;fill-opacity:1;stroke-width:0.00390625"
       d="m 49.523437,41.081536 c -0.791532,-0.417722 -1.350467,-1.135709 -1.648613,-2.117748 -0.0836,-0.27537 -0.138161,-0.648138 -0.171649,-1.172772 -0.0095,-0.148391 -0.0095,-0.148438 -0.0022,-0.148438 0.0061,0 0.0081,0.01097 0.01204,0.06445 0.05886,0.801083 0.25062,1.513162 0.55858,2.074236 0.294899,0.537276 0.734192,0.984692 1.230398,1.253147 0.03008,0.01627 0.05952,0.03224 0.06543,0.03549 0.009,0.0049 0.01074,0.0085 0.01074,0.02171 0,0.0087 -0.0013,0.01578 -0.0029,0.01575 -0.0016,-3.2e-5 -0.0249,-0.01165 -0.05176,-0.02583 z"
       id="path36" /><path
       style="fill:#f5a001;fill-opacity:1;stroke-width:0.00390625"
       d="m 49.849609,41.246506 c -0.141069,-0.04931 -0.249027,-0.09544 -0.373047,-0.159413 -0.574078,-0.296107 -0.934954,-0.654504 -1.263743,-1.255062 -0.07617,-0.139134 -0.173094,-0.338522 -0.237,-0.487561 -0.05601,-0.130624 -0.103802,-0.276194 -0.147717,-0.449939 -0.08723,-0.345105 -0.142347,-0.728731 -0.174131,-1.211914 l -0.0026,-0.04004 h 0.02004 c 0.01889,0 0.02003,5.73e-4 0.02003,0.01 0,0.02037 0.01217,0.210025 0.01967,0.306417 0.029,0.372915 0.07724,0.703876 0.133237,0.914063 0.0066,0.02471 0.02403,0.08359 0.03876,0.130859 0.132978,0.426494 0.324242,0.818238 0.555941,1.138672 0.359293,0.496893 0.828644,0.860998 1.410593,1.094286 0.04727,0.01895 0.08242,0.0344 0.07813,0.03434 -0.0043,-6.4e-5 -0.03945,-0.01118 -0.07813,-0.02469 z"
       id="path37" /><path
       style="fill:#f5a001;fill-opacity:1;stroke-width:0.00390625"
       d="m 50.945312,42.537117 c -0.226978,-0.01168 -0.496338,-0.04943 -0.824218,-0.115499 -0.767365,-0.15463 -1.498738,-0.527826 -2.126953,-1.085317 -0.08537,-0.07576 -0.293658,-0.283213 -0.365107,-0.363645 -0.505738,-0.569319 -0.799915,-1.145438 -1.007626,-1.973347 -0.100429,-0.400295 -0.170766,-0.845062 -0.209464,-1.324504 l -0.0026,-0.03223 h 0.619547 c 0.587428,0 0.619549,3.55e-4 0.619581,0.0068 1.9e-5,0.0038 0.0027,0.04463 0.0059,0.09082 0.03779,0.542925 0.114459,0.999867 0.228981,1.364686 0.04808,0.153165 0.114161,0.309419 0.228201,0.539611 0.335464,0.677142 0.690656,1.071837 1.243348,1.381628 0.260173,0.145831 0.491637,0.236443 0.791603,0.309892 0.237904,0.05825 0.447894,0.08995 0.742188,0.112023 0.08914,0.0067 0.468848,0.0067 0.558594,4.4e-5 0.338212,-0.02515 0.620875,-0.07738 0.86728,-0.160279 l 0.06827,-0.02297 v 0.53376 0.53376 l -0.03223,0.0087 c -0.306434,0.08264 -0.692225,0.157226 -0.942383,0.182204 -0.146008,0.01458 -0.337301,0.02029 -0.462891,0.01383 z"
       id="path38" /><path
       style="fill:#f5a001;fill-opacity:1;stroke-width:0.00390625"
       d="m 46.553183,39.323242 c -0.02954,-0.09075 -0.08913,-0.317941 -0.121161,-0.461914 -0.131816,-0.59249 -0.191593,-1.215286 -0.184651,-1.923828 0.0032,-0.331645 0.0156,-0.563205 0.04599,-0.862305 l 0.0047,-0.0459 h 0.0319 0.0319 l -0.0051,0.04395 c -0.04916,0.4272 -0.0639,0.942315 -0.0404,1.411133 0.02908,0.580032 0.111409,1.122198 0.24468,1.611328 0.01572,0.0577 0.06557,0.227771 0.07061,0.240917 0.0016,0.0041 -0.0059,0.0052 -0.03523,0.0052 h -0.03721 z"
       id="path39" /><path
       style="fill:#f5a001;fill-opacity:1;stroke-width:0.00390625"
       d="m 47.68916,41.03933 c -0.0063,-0.0074 -0.03445,-0.0389 -0.0626,-0.07006 -0.315327,-0.349103 -0.564868,-0.740781 -0.744455,-1.16849 -0.389086,-0.926656 -0.567886,-2.256349 -0.467745,-3.478515 0.008,-0.09733 0.02547,-0.268205 0.0291,-0.28418 l 0.002,-0.0088 h 0.620148 0.620147 l -0.0048,0.04717 c -0.04913,0.486984 -0.06121,1.070073 -0.03244,1.56611 0.03935,0.678366 0.146219,1.262716 0.301481,1.648438 0.05405,0.13427 0.194107,0.424962 0.272904,0.566406 0.263724,0.473397 0.542413,0.787132 0.925494,1.04188 0.06767,0.045 0.158161,0.100158 0.215821,0.13155 0.0188,0.01023 0.03418,0.01934 0.03418,0.02025 0,9e-4 -0.382016,0.0016 -0.848926,0.0016 h -0.848926 z"
       id="path40" /><path
       style="fill:#f5a001;fill-opacity:1;stroke-width:0.00390625"
       d="m 46.621863,39.290039 c -0.09636,-0.30851 -0.177862,-0.677908 -0.229048,-1.038086 -0.09855,-0.693473 -0.110683,-1.465611 -0.03397,-2.162109 l 0.0065,-0.05859 0.03798,-0.0011 0.03798,-0.0011 -0.0019,0.01088 c -0.0034,0.01958 -0.02087,0.188939 -0.02705,0.262836 -0.02101,0.251253 -0.02727,0.412652 -0.02727,0.703125 5e-6,0.248501 0.0028,0.348379 0.01558,0.550782 0.03791,0.601874 0.137978,1.194988 0.28668,1.699218 0.01299,0.04404 0.02362,0.0814 0.02363,0.08301 6e-6,0.0016 -0.01639,0.0029 -0.03644,0.0029 h -0.03646 z"
       id="path41" /><path
       style="fill:#f5a001;fill-opacity:1;stroke-width:0.00390625"
       d="m 46.611824,38.963867 c -0.0011,-0.0038 -0.01083,-0.04551 -0.02163,-0.09277 -0.24619,-1.076767 -0.270462,-2.334328 -0.06459,-3.346442 0.107929,-0.530603 0.273982,-1.026368 0.498025,-1.486894 l 0.04402,-0.09049 h 0.653896 c 0.622825,0 0.653653,3.25e-4 0.648792,0.0069 -0.0028,0.0038 -0.02816,0.03761 -0.05634,0.0752 -0.173501,0.231417 -0.245785,0.359984 -0.332714,0.591777 -0.226677,0.604425 -0.358372,1.575704 -0.347183,2.560547 0.0026,0.231213 0.0064,0.331985 0.02037,0.54388 0.02334,0.35399 0.06205,0.658327 0.120859,0.95026 0.01701,0.08445 0.05615,0.253094 0.06685,0.288086 0.002,0.0065 -0.02901,0.0068 -0.613143,0.0068 -0.582577,0 -0.61534,-3.63e-4 -0.617218,-0.0068 z"
       id="path42" /><path
       style="fill:#f5a001;fill-opacity:1;stroke-width:0.00390625"
       d="m 47.650682,37.614258 c -0.01671,-0.203253 -0.01776,-0.738966 -0.0021,-1.049805 0.04269,-0.845129 0.178897,-1.579183 0.381603,-2.056641 0.07072,-0.166568 0.132366,-0.268807 0.289126,-0.479492 0.05822,-0.07825 0.06078,-0.08105 0.07384,-0.08105 0.0098,0 0.01271,0.0013 0.01055,0.0049 -0.0016,0.0027 -0.01549,0.02422 -0.0308,0.04785 -0.136793,0.211234 -0.26561,0.466816 -0.365214,0.724609 -0.09614,0.248831 -0.187404,0.560767 -0.226285,0.773438 -0.04908,0.268462 -0.07915,0.583868 -0.09868,1.035156 -0.0098,0.227348 -0.0053,0.921494 0.0071,1.079102 l 0.0024,0.03027 h -0.0196 -0.0196 z"
       id="path43" /><path
       style="fill:#f5a001;fill-opacity:1;stroke-width:0.00390625"
       d="m 47.826807,38.879883 c -0.05482,-0.221996 -0.09302,-0.433209 -0.123459,-0.682617 -0.02041,-0.167221 -0.04025,-0.386147 -0.04902,-0.541016 -9.73e-4,-0.01719 -0.004,-0.06641 -0.0068,-0.109375 -0.0069,-0.108601 -0.0068,-0.798094 1.4e-4,-0.935547 0.02084,-0.410685 0.0565,-0.756727 0.112505,-1.091797 0.09154,-0.547657 0.227856,-0.980177 0.393805,-1.249483 0.05901,-0.09577 0.207337,-0.300246 0.229379,-0.316222 0.02237,-0.01621 0.01779,-0.0013 -0.01574,0.05115 -0.193109,0.3023 -0.349823,0.645863 -0.467037,1.023879 -0.136867,0.441403 -0.177259,0.710191 -0.217845,1.449659 -0.01028,0.18729 -0.0045,1.108303 0.0072,1.155098 0.0017,0.0069 6.01e-4,0.009 -0.0048,0.009 -0.0063,0 -0.0064,5.09e-4 -8.86e-4,0.0049 0.0048,0.0039 0.0067,0.01683 0.0086,0.06152 0.01437,0.325247 0.06554,0.774481 0.116123,1.019532 0.01643,0.07958 0.0486,0.205132 0.06054,0.236242 0.0017,0.0045 -5.12e-4,0.0059 -0.0091,0.0059 h -0.01135 z"
       id="path44" /><path
       style="fill:#f5a001;fill-opacity:1;stroke-width:0.00390625"
       d="m 47.693843,37.614258 c -0.01247,-0.147931 -0.01716,-0.853869 -0.0072,-1.083008 0.02459,-0.565111 0.06715,-0.933585 0.141722,-1.226781 0.126446,-0.497191 0.307936,-0.927178 0.551811,-1.307357 l 0.03192,-0.04976 0.03033,-4.2e-5 0.03033,-4.1e-5 -0.04237,0.06348 c -0.327587,0.490705 -0.547556,1.100417 -0.658487,1.825195 -0.03104,0.202806 -0.05555,0.437132 -0.06865,0.65625 -0.02111,0.353192 -0.02026,0.779913 0.0022,1.112305 0.0022,0.03251 0.0017,0.03809 -0.0033,0.03809 -0.0045,0 -0.0065,-0.0067 -0.0083,-0.02832 z"
       id="path45" /><path
       style="fill:#f5a001;fill-opacity:1;stroke-width:0.00390625"
       d="m 46.36886,36.004883 c 0.01828,-0.166422 0.06352,-0.437741 0.106334,-0.637696 0.104618,-0.48859 0.25436,-0.932205 0.456322,-1.351871 l 0.03275,-0.06805 h 0.04912 c 0.02701,0 0.04912,8.99e-4 0.04912,0.002 0,0.0011 -0.01385,0.02966 -0.03077,0.06348 -0.2793,0.558001 -0.486376,1.24546 -0.57852,1.920593 -0.0067,0.04927 -0.01311,0.09102 -0.0142,0.09277 -0.0011,0.0018 -0.01792,0.0032 -0.0374,0.0032 h -0.03543 z"
       id="path46" /><path
       style="fill:#f5a001;fill-opacity:1;stroke-width:0.00390625"
       d="m 46.305424,35.967773 c 0.07561,-0.650365 0.231731,-1.25487 0.469115,-1.816406 l 0.03179,-0.0752 h 0.04612 0.04612 l -0.0093,0.01855 c -0.01823,0.03623 -0.08022,0.179993 -0.114968,0.266601 -0.181889,0.453381 -0.313282,0.957115 -0.389219,1.492188 -0.0075,0.05264 -0.0157,0.11372 -0.01828,0.135742 l -0.0047,0.04004 h -0.0319 -0.0319 z"
       id="path48" /><path
       style="fill:#f5a001;fill-opacity:1;stroke-width:0.00390625"
       d="m 46.808594,34.073785 c 0,-0.006 0.07948,-0.172739 0.121249,-0.254326 0.300467,-0.586901 0.681448,-1.066858 1.140469,-1.436754 0.312457,-0.251789 0.686497,-0.467456 1.083435,-0.624695 0.459712,-0.182106 0.958974,-0.295176 1.482972,-0.335857 0.167063,-0.01297 0.245433,-0.01563 0.458984,-0.01559 0.21502,4.6e-5 0.2988,0.0029 0.467774,0.01591 l 0.08496,0.0065 10e-7,0.06674 1e-6,0.06674 -0.524415,-0.0013 c -0.654649,-0.0016 -0.879294,0.0031 -1.100587,0.02298 -0.264986,0.02377 -0.449483,0.07083 -0.703125,0.179366 -0.265971,0.113806 -0.554517,0.260396 -0.742187,0.377051 -0.46252,0.287503 -0.873197,0.671508 -1.205216,1.126939 -0.152172,0.208736 -0.289741,0.436259 -0.415098,0.686524 l -0.06114,0.12207 h -0.04404 c -0.02422,0 -0.04404,-0.0011 -0.04404,-0.0024 z"
       id="path49" /><path
       style="fill:#f5a001;fill-opacity:1;stroke-width:0.00390625"
       d="m 46.973087,33.930664 c 0.16102,-0.318152 0.368917,-0.634831 0.59174,-0.901367 0.159907,-0.191278 0.364948,-0.395689 0.55236,-0.550665 0.27598,-0.228213 0.564047,-0.411381 0.894532,-0.568789 0.591959,-0.281948 0.764192,-0.324414 1.384765,-0.341435 0.153966,-0.0042 1.204613,-0.0055 1.23383,-0.0015 l 0.01812,0.0025 v 0.04289 0.04289 l -0.02051,-0.0023 c -0.09565,-0.01093 -1.002917,-0.01286 -1.270508,-0.0027 -0.589152,0.02235 -0.811905,0.07348 -1.236733,0.283873 -0.220275,0.109089 -0.379148,0.200182 -0.562095,0.322291 -0.614357,0.410054 -1.112197,0.966497 -1.466662,1.639308 l -0.02721,0.05165 h -0.05002 -0.05002 z"
       id="path51" /><path
       style="fill:#f5a001;fill-opacity:1;stroke-width:0.00390625"
       d="m 46.368821,36.017162 c 0.0012,-0.0073 0.0058,-0.04226 0.01021,-0.07771 0.03912,-0.314618 0.115765,-0.688463 0.205429,-1.001953 0.211673,-0.740065 0.539214,-1.375618 0.98342,-1.908203 0.148727,-0.178318 0.361261,-0.390709 0.54245,-0.542086 0.296578,-0.247781 0.597937,-0.434907 1.004739,-0.623882 0.490509,-0.22786 0.674209,-0.271815 1.216961,-0.29119 0.115827,-0.0041 1.299706,-0.0054 1.310116,-0.0015 0.0052,0.002 0.0063,0.0093 0.0063,0.04343 0,0.03658 -7e-4,0.04075 -0.0065,0.03853 -0.02787,-0.01069 -1.147657,-0.01281 -1.341184,-0.0025 -0.545833,0.02898 -0.73927,0.07245 -1.114658,0.250463 -0.423138,0.200658 -0.796774,0.445763 -1.115089,0.731499 -0.393079,0.352847 -0.708545,0.75661 -0.967354,1.23811 l -0.04038,0.07512 -0.02091,0.0023 -0.02091,0.0023 0.01855,6.37e-4 c 0.0102,3.5e-4 0.01855,0.0013 0.01855,0.002 0,7.54e-4 -0.02092,0.04426 -0.04648,0.09668 -0.204712,0.419782 -0.367564,0.898951 -0.474482,1.396091 -0.03414,0.158745 -0.05514,0.276543 -0.08237,0.462082 -0.0092,0.06293 -0.01747,0.115103 -0.0183,0.115932 -8.29e-4,8.28e-4 -0.01699,0.0028 -0.03592,0.0043 l -0.03442,0.0028 z"
       id="path52" /><path
       style="fill:#f5a001;fill-opacity:1;stroke-width:0.00390625"
       d="m 48.416547,33.942383 c 0.01,-0.01656 0.09246,-0.130107 0.122898,-0.169199 0.441874,-0.567586 1.022676,-0.927083 1.743758,-1.079327 0.06504,-0.01373 0.286205,-0.03294 0.359375,-0.03121 0.01869,4.42e-4 0.01835,6.15e-4 -0.0078,0.004 -0.255736,0.03306 -0.446085,0.07424 -0.649689,0.140577 -0.577964,0.188299 -1.065862,0.543503 -1.450579,1.056062 -0.02258,0.03008 -0.04529,0.06126 -0.05047,0.06929 l -0.0094,0.0146 -0.0305,4.8e-5 c -0.02338,3.7e-5 -0.02982,-0.0011 -0.02756,-0.0048 z"
       id="path53" /><path
       style="fill:#f5a001;fill-opacity:1;stroke-width:0.00390625"
       d="m 47.69688,36.352539 c 0.0012,-0.01128 0.0031,-0.03984 0.0044,-0.06348 0.0038,-0.07297 0.01333,-0.202874 0.02161,-0.294921 0.0321,-0.356897 0.07357,-0.586153 0.157927,-0.873047 0.12385,-0.421217 0.283517,-0.778874 0.500632,-1.121425 0.03242,-0.05115 0.03356,-0.05242 0.04758,-0.05299 0.01179,-4.8e-4 0.01244,-8.76e-4 0.0036,-0.0022 -0.0059,-8.95e-4 -0.01074,-0.0025 -0.01074,-0.0036 0,-0.0055 0.08582,-0.123362 0.136109,-0.186968 0.357173,-0.451798 0.808138,-0.771251 1.346313,-0.9537 0.168471,-0.05711 0.340213,-0.100777 0.451172,-0.114705 0.07088,-0.0089 0.20217,-0.01964 0.233809,-0.01913 0.01557,2.51e-4 -0.0032,0.0042 -0.06389,0.01356 -0.357538,0.05492 -0.656354,0.147064 -0.944039,0.291101 -0.365002,0.182748 -0.6981,0.454261 -0.970889,0.791386 -0.457356,0.565222 -0.745796,1.312322 -0.862377,2.23368 -0.01363,0.10772 -0.0307,0.270531 -0.03553,0.338867 -0.0024,0.03413 -0.0035,0.03809 -0.01025,0.03809 -0.0068,0 -0.0073,-0.0021 -0.0054,-0.02051 z"
       id="path54" /><path
       style="fill:#f5a001;fill-opacity:1;stroke-width:0.00390625"
       d="m 47.696863,36.352539 c 0.0012,-0.01128 0.0031,-0.04072 0.0044,-0.06543 0.0042,-0.08209 0.01747,-0.254555 0.02735,-0.355468 0.03008,-0.307208 0.07006,-0.525147 0.142933,-0.779297 0.124176,-0.43305 0.289842,-0.807546 0.510195,-1.153321 0.0305,-0.04785 0.03392,-0.0518 0.04534,-0.05229 0.0096,-4.12e-4 0.01032,-9.21e-4 0.0033,-0.0023 -0.005,-9.47e-4 -0.0084,-0.0035 -0.0077,-0.0056 0.0033,-0.0099 0.09656,-0.136505 0.146024,-0.198258 0.431729,-0.539044 0.9856,-0.880944 1.680093,-1.037109 0.07398,-0.01664 0.205057,-0.03162 0.309257,-0.03536 l 0.05324,-0.0019 -0.03516,0.0057 c -0.01934,0.0031 -0.06328,0.01023 -0.09766,0.01578 -0.824475,0.133162 -1.479825,0.53628 -1.97541,1.21511 -0.438043,0.600012 -0.708694,1.427235 -0.788716,2.410649 -0.0044,0.05414 -0.0055,0.05957 -0.01224,0.05957 -0.0066,0 -0.0072,-0.0022 -0.0053,-0.02051 z"
       id="path55" /><path
       style="fill:#f5a001;fill-opacity:1;stroke-width:0.00390625"
       d="m 53.915731,34.208371 c -0.01775,-0.03449 -0.09598,-0.161665 -0.141386,-0.229855 -0.386245,-0.579995 -0.914754,-0.986982 -1.555595,-1.197915 -0.174268,-0.05736 -0.404323,-0.111302 -0.505859,-0.118611 -0.107905,-0.0078 -0.438527,-0.01256 -0.710938,-0.01031 -0.276228,0.0023 -0.367889,0.0051 -0.53125,0.01638 -0.112325,0.0077 -0.140182,0.01131 -0.213782,0.02736 -0.439982,0.09595 -0.823145,0.267701 -1.158425,0.519242 -0.122905,0.09221 -0.18679,0.147939 -0.31041,0.270789 -0.04888,0.04857 -0.08887,0.08652 -0.08887,0.08433 0,-0.0062 0.169091,-0.178097 0.221103,-0.22479 0.233141,-0.209301 0.490546,-0.372761 0.791449,-0.502596 0.653636,-0.282034 1.436349,-0.349273 2.165491,-0.186028 0.472775,0.105848 0.911391,0.304768 1.274109,0.577832 0.203138,0.152927 0.385,0.35156 0.552717,0.603686 0.08617,0.129534 0.227514,0.374388 0.220291,0.38161 -0.0011,0.0011 -0.005,-0.0039 -0.0086,-0.01113 z"
       id="path56" /><path
       style="fill:#f5a001;fill-opacity:1;stroke-width:0.00390625"
       d="m 53.851445,34.096686 c -0.268732,-0.442019 -0.625504,-0.801525 -1.041095,-1.049071 -0.302901,-0.180422 -0.666563,-0.315166 -1.014067,-0.375732 -0.08722,-0.0152 -0.154949,-0.0177 -0.546283,-0.02014 -0.587685,-0.0037 -0.840082,0.0078 -1.008977,0.04583 -0.441547,0.09944 -0.813311,0.268131 -1.153132,0.523234 -0.08574,0.06436 -0.151872,0.119823 -0.213447,0.179 -0.02716,0.0261 -0.05085,0.04746 -0.05264,0.04746 -0.0054,0 0.05574,-0.06042 0.113746,-0.112342 0.254996,-0.228243 0.568939,-0.415879 0.912109,-0.545145 0.281129,-0.105897 0.583709,-0.174348 0.900391,-0.203692 0.224948,-0.02084 0.525131,-0.01769 0.746094,0.0078 0.610008,0.07048 1.18593,0.291652 1.639651,0.62967 0.213313,0.158916 0.401086,0.362721 0.571366,0.62015 0.06639,0.100363 0.18501,0.300587 0.18066,0.304937 -9.43e-4,9.43e-4 -0.01641,-0.02246 -0.03437,-0.052 z"
       id="path57" /><path
       style="fill:#f5a001;fill-opacity:1;stroke-width:0.00390625"
       d="m 54.308524,35.286133 c -0.189778,-0.736574 -0.503469,-1.314735 -0.962798,-1.774519 -0.229517,-0.229746 -0.46847,-0.402996 -0.750068,-0.54383 -0.318147,-0.159112 -0.652548,-0.255383 -1.054642,-0.303621 l -0.04687,-0.0056 0.08789,0.0021 c 0.1272,0.003 0.172305,0.0073 0.25866,0.02481 0.706753,0.143218 1.290927,0.491564 1.739456,1.037245 0.121892,0.148295 0.252136,0.342222 0.351548,0.523438 0.113685,0.207235 0.203323,0.41865 0.298948,0.705078 0.03557,0.106546 0.105294,0.337174 0.105294,0.348287 0,0.0018 -0.0052,0.0033 -0.01157,0.0033 -0.01033,0 -0.01202,-0.0018 -0.01584,-0.0166 z"
       id="path58" /><path
       style="fill:#f5a001;fill-opacity:1;stroke-width:0.00390625"
       d="m 55.307041,34.090479 c -0.03773,-0.08422 -0.127615,-0.264893 -0.171359,-0.344456 -0.418379,-0.760974 -1.012018,-1.349352 -1.780213,-1.764437 -0.226343,-0.122301 -0.501322,-0.245421 -0.667969,-0.299078 -0.237728,-0.07654 -0.478768,-0.107325 -0.913086,-0.116603 l -0.125977,-0.0027 v -0.06703 -0.06703 l 0.06934,0.0071 c 0.384923,0.03957 0.773253,0.125358 1.114258,0.246154 0.469021,0.166143 0.896316,0.397556 1.258901,0.68179 0.492535,0.386102 0.888962,0.881279 1.190724,1.487329 l 0.05057,0.101563 -0.0011,0.09439 -0.0011,0.09439 z"
       id="path59" /><path
       style="fill:#f5a001;fill-opacity:1;stroke-width:0.00390625"
       d="m 55.318771,34.354124 c -0.08049,-0.212882 -0.210454,-0.478701 -0.335279,-0.685765 -0.262493,-0.435432 -0.559489,-0.775356 -1.024508,-1.172591 -0.677231,-0.578515 -1.223396,-0.784529 -2.221679,-0.838021 l -0.08887,-0.0048 v -0.04231 -0.04231 l 0.06152,3.7e-5 c 0.244864,1.48e-4 0.539717,0.0219 0.71582,0.05282 0.224215,0.03936 0.450573,0.123477 0.791983,0.294306 0.451263,0.225795 0.828927,0.495883 1.169216,0.836172 0.290241,0.290242 0.525402,0.603247 0.733888,0.976824 0.0449,0.08046 0.150073,0.29088 0.185011,0.370161 l 0.02627,0.05962 -0.001,0.112868 -10e-4,0.112869 z"
       id="path60" /><path
       style="fill:#f5a001;fill-opacity:1;stroke-width:0.00390625"
       d="m 54.314661,35.208008 c -0.236567,-0.831684 -0.620227,-1.520033 -1.054309,-1.891604 -0.235884,-0.201915 -0.559567,-0.388628 -0.899024,-0.518594 -0.816198,-0.312492 -1.767687,-0.309659 -2.570224,0.0077 -0.403104,0.159381 -0.752063,0.394191 -1.034787,0.696293 -0.268774,0.287196 -0.543028,0.640604 -0.647659,0.834582 -0.0086,0.01589 -0.01631,0.0289 -0.0172,0.0289 -8.88e-4,0 -0.0016,-0.392577 -0.0016,-0.872393 v -0.872393 l 0.05762,-0.04891 c 0.281907,-0.239279 0.554608,-0.419845 0.904211,-0.598712 0.395663,-0.202433 0.609593,-0.267831 0.983484,-0.300649 0.195498,-0.01716 0.374241,-0.02234 0.876953,-0.02544 l 0.445313,-0.0027 -0.373047,-6.21e-4 c -0.368399,-6.13e-4 -0.614079,0.0029 -0.754243,0.01084 -0.47991,0.02712 -0.67976,0.07447 -1.046538,0.247948 -0.389081,0.184028 -0.745333,0.413011 -1.047852,0.673513 l -0.0459,0.03952 v -0.05597 -0.05597 l 0.05371,-0.04402 c 0.06944,-0.05691 0.201882,-0.156237 0.276367,-0.207268 0.214684,-0.147082 0.412545,-0.257564 0.703125,-0.392608 0.443512,-0.206119 0.638934,-0.258114 1.05664,-0.281136 0.160918,-0.0089 0.586908,-0.01155 1.466797,-0.0092 0.08006,2.11e-4 0.334128,0.0084 0.400391,0.01298 0.440587,0.03015 0.633378,0.08066 1.042998,0.273227 0.428925,0.201648 0.803645,0.446606 1.123018,0.734128 0.363293,0.327063 0.662111,0.702332 0.902445,1.133329 0.03988,0.07152 0.158396,0.308682 0.190325,0.38086 l 0.02506,0.05664 -0.0018,0.10488 -0.0018,0.104881 -0.0263,-0.06582 c -0.08133,-0.203545 -0.199076,-0.440796 -0.31378,-0.632224 -0.211014,-0.352158 -0.453306,-0.649906 -0.772277,-0.949039 -0.397925,-0.373175 -0.72153,-0.60771 -1.051796,-0.762299 -0.371302,-0.173798 -0.778884,-0.264046 -1.356407,-0.300343 -0.140842,-0.0089 -0.164501,-0.0097 -0.308594,-0.01147 l -0.132813,-0.0016 0.111328,0.0034 c 0.578835,0.01751 0.969477,0.06866 1.31185,0.171778 0.412245,0.124157 0.762309,0.328714 1.19013,0.695444 0.263992,0.226294 0.470794,0.433919 0.649622,0.652203 0.278615,0.340088 0.506244,0.730068 0.676901,1.159682 l 0.02697,0.06788 v 0.452622 0.452623 h -0.495213 -0.495213 z"
       id="path61" /><path
       style="fill:#f5a001;fill-opacity:1;stroke-width:0.00390625"
       d="m 55.850115,36.69043 c -0.0013,-0.02524 -0.0033,-0.07227 -0.0045,-0.104493 -0.01069,-0.282394 -0.04269,-0.620387 -0.08578,-0.905754 -0.07963,-0.52742 -0.215493,-1.027213 -0.396976,-1.460303 l -0.0308,-0.07351 v -0.09252 c 0,-0.05786 0.0014,-0.09113 0.0037,-0.08881 0.01023,0.01033 0.103265,0.227733 0.154535,0.361133 0.268645,0.698986 0.418657,1.478086 0.449587,2.334961 l 0.0027,0.0752 h -0.04506 -0.04506 z"
       id="path62" /><path
       style="fill:#f5a001;fill-opacity:1;stroke-width:0.00390625"
       d="m 55.744458,36.727539 c -9.82e-4,-0.0048 -0.0028,-0.04219 -0.0041,-0.08301 -0.0049,-0.156915 -0.02093,-0.392685 -0.0394,-0.580078 -0.06057,-0.61443 -0.177009,-1.155702 -0.349045,-1.622591 l -0.01998,-0.05423 10e-4,-0.113578 0.001,-0.113578 0.03259,0.07943 c 0.285112,0.694929 0.439637,1.468509 0.47721,2.389002 0.0021,0.05156 0.0038,0.09683 0.0038,0.100586 2.1e-5,0.0062 -0.005,0.0068 -0.05068,0.0068 -0.04945,0 -0.05075,-2.17e-4 -0.05249,-0.0088 z"
       id="path63" /><path
       style="fill:#f5a001;fill-opacity:1;stroke-width:0.00390625"
       d="m 54.296875,38.826918 c 0,-0.0017 0.0061,-0.02679 0.01356,-0.05566 0.09938,-0.384759 0.158471,-0.809802 0.186508,-1.341567 0.0067,-0.126127 0.0067,-0.670213 2.8e-5,-0.796875 -0.01876,-0.357743 -0.04621,-0.619587 -0.09466,-0.903105 -0.02473,-0.144707 -0.0689,-0.354748 -0.0884,-0.42041 -0.0018,-0.006 -1.31e-4,-0.0069 0.01082,-0.0059 l 0.01293,0.0012 0.01285,0.05273 c 0.08769,0.359911 0.140725,0.745649 0.165949,1.207031 0.008,0.14612 0.0066,0.717746 -0.0021,0.878906 -0.02777,0.513233 -0.08162,0.948813 -0.163218,1.320313 -0.01598,0.07274 -0.01264,0.06641 -0.03501,0.06641 -0.0106,0 -0.01927,-0.0014 -0.01927,-0.0032 z"
       id="path64" /><path
       style="fill:#f5a001;fill-opacity:1;stroke-width:0.00390625"
       d="m 55.700824,38.820309 c 0.0312,-0.124298 0.07992,-0.422857 0.101678,-0.623043 0.03797,-0.349382 0.05647,-0.796192 0.05187,-1.25293 l -0.0021,-0.208008 h 0.0442 0.0442 l 0.0028,0.03732 c 0.0039,0.05184 -5.45e-4,0.591936 -0.0056,0.687291 -0.018,0.33683 -0.04061,0.573865 -0.08087,0.847657 -0.02268,0.154255 -0.04718,0.287608 -0.09202,0.500976 l -0.0043,0.02051 h -0.03113 -0.03113 z"
       id="path66" /><path
       style="fill:#f5a001;fill-opacity:1;stroke-width:0.00390625"
       d="m 55.707577,38.79996 c 0.01811,-0.0749 0.05454,-0.284332 0.07528,-0.432773 0.05051,-0.361588 0.0726,-0.765402 0.07261,-1.327677 6e-6,-0.336298 -0.0081,-0.548934 -0.0315,-0.822713 -0.06452,-0.756053 -0.210512,-1.392211 -0.457266,-1.992543 -0.03899,-0.09486 -0.03695,-0.08246 -0.03209,-0.194638 l 0.0026,-0.05952 0.01339,0.02862 c 0.06684,0.142903 0.158227,0.37466 0.222022,0.563027 0.214415,0.633091 0.331619,1.302298 0.364836,2.083116 0.0049,0.114583 0.005,0.597815 1.43e-4,0.747714 -0.01413,0.439052 -0.06509,0.874846 -0.153715,1.314453 l -0.02441,0.121094 -0.02961,0.0011 -0.02961,0.0011 z"
       id="path67" /><path
       style="fill:#f5a001;fill-opacity:1;stroke-width:0.00390625"
       d="m 55.853104,37.058594 c 6e-6,-0.03008 6.19e-4,-0.04187 0.0014,-0.0262 7.44e-4,0.01567 7.39e-4,0.04028 -1.1e-5,0.05469 -7.49e-4,0.01441 -0.0014,0.0016 -0.0014,-0.02849 z"
       id="path68" /><path
       style="fill:#f5a001;fill-opacity:1;stroke-width:0.00390625"
       d="m 55.585937,38.828682 c 0,-7.68e-4 0.0069,-0.03461 0.01539,-0.0752 0.06237,-0.299176 0.107236,-0.63659 0.130824,-0.983956 0.0144,-0.212128 0.0159,-0.273534 0.0159,-0.65332 v -0.379883 h 0.04936 0.04936 l 0.003,0.104492 c 0.0034,0.120138 -1.94e-4,0.541671 -0.006,0.700196 -0.01845,0.505356 -0.06303,0.896483 -0.144593,1.268554 l -0.0045,0.02051 h -0.05436 c -0.0299,0 -0.05436,-6.28e-4 -0.05436,-0.0014 z"
       id="path70" /><path
       style="fill:#f5a001;fill-opacity:1;stroke-width:0.00390625"
       d="m 54.36086,38.824031 c 0.0061,-0.01587 0.05481,-0.217083 0.07238,-0.298922 0.131488,-0.612551 0.175642,-1.247347 0.131076,-1.884484 -0.07358,-1.051903 -0.383792,-2.080325 -0.836295,-2.772472 l -0.04023,-0.06153 0.686292,9.87e-4 0.686292,9.88e-4 0.01518,0.02734 c 0.03239,0.05835 0.120642,0.238351 0.15608,0.31836 0.326446,0.737034 0.492192,1.63053 0.514163,2.771736 l 0.0029,0.152092 6.38e-4,-0.170674 6.39e-4,-0.170674 0.0166,-0.0015 0.0166,-0.0015 -0.01819,-6.83e-4 -0.01819,-6.82e-4 -0.0022,-0.03613 c -0.0012,-0.01987 -0.0032,-0.06338 -0.0045,-0.09668 -0.0033,-0.09056 -0.01253,-0.236942 -0.02359,-0.375 -0.05372,-0.670881 -0.174904,-1.26804 -0.360472,-1.776253 l -0.02251,-0.06164 0.0022,-0.106608 0.0022,-0.106608 0.03791,0.09489 c 0.21156,0.529546 0.34274,1.063847 0.41507,1.690592 0.02498,0.216454 0.05288,0.605248 0.05288,0.7369 v 0.03609 l -0.0166,0.0015 -0.0166,0.0015 0.01607,6.83e-4 c 0.01603,6.8e-4 0.01608,7.31e-4 0.01855,0.01881 0.0039,0.0286 0.0028,0.566979 -0.0015,0.718205 -0.01145,0.403798 -0.04199,0.749311 -0.09391,1.0625 -0.01561,0.09414 -0.05315,0.285704 -0.05732,0.292444 -0.002,0.0033 -0.09819,4.14e-4 -0.101639,-0.003 -7.74e-4,-7.74e-4 0.0083,-0.05039 0.02007,-0.11025 0.02167,-0.109852 0.04992,-0.276041 0.06464,-0.380327 0.04647,-0.329266 0.07548,-0.725103 0.07373,-1.005859 -5.21e-4,-0.08337 -7.69e-4,-0.07985 -0.0034,0.04883 -0.008,0.384556 -0.04139,0.758936 -0.09926,1.111328 -0.01604,0.09772 -0.04528,0.253376 -0.05924,0.31543 l -0.0059,0.02637 h -0.611433 c -0.55032,0 -0.611201,-6.04e-4 -0.609112,-0.006 z"
       id="path71" /><path
       style="fill:#f5a001;fill-opacity:1;stroke-width:0.00390625"
       d="m 54.259255,39.134766 c 8.33e-4,-0.0054 0.01131,-0.04316 0.02329,-0.08398 0.129373,-0.440844 0.216345,-1.071253 0.240836,-1.745692 0.0051,-0.14065 0.0051,-0.522084 -2.3e-5,-0.652745 -0.01373,-0.350516 -0.0439,-0.646914 -0.09597,-0.94271 -0.0077,-0.04369 -0.01325,-0.08015 -0.01237,-0.08104 0.0021,-0.0021 0.0303,0.13531 0.04968,0.242501 0.107847,0.596736 0.139458,1.214386 0.09166,1.791015 -0.03439,0.414857 -0.106065,0.825482 -0.208655,1.195313 -0.03228,0.116384 -0.09303,0.306854 -0.08846,0.277344 z"
       id="path72" /><path
       style="fill:#f5a001;fill-opacity:1;stroke-width:0.00390625"
       d="m 55.407505,39.473066 c 0.0071,-0.01854 0.06797,-0.214944 0.08425,-0.271894 0.02543,-0.08899 0.06008,-0.223627 0.07841,-0.304688 l 0.01457,-0.06445 0.05495,-0.0011 c 0.05093,-10e-4 0.05484,-5.74e-4 0.05341,0.0059 -0.03493,0.157498 -0.09759,0.374755 -0.158037,0.547963 -0.01537,0.04404 -0.02887,0.08315 -0.03001,0.08691 -0.0018,0.006 -0.0078,0.0068 -0.05085,0.0068 -0.04013,0 -0.04842,-9.67e-4 -0.0467,-0.0054 z"
       id="path73" /><path
       style="fill:#f5a001;fill-opacity:1;stroke-width:0.00390625"
       d="m 55.507812,39.477249 c 0,-6.97e-4 0.0112,-0.03278 0.02489,-0.07129 0.05144,-0.144689 0.104298,-0.322045 0.141954,-0.476273 0.01206,-0.04941 0.02362,-0.09204 0.02568,-0.09473 0.0024,-0.0031 0.01372,-0.0049 0.03061,-0.0049 0.02298,0 0.02687,9.88e-4 0.02686,0.0068 -6e-6,0.01387 -0.05972,0.247088 -0.09157,0.357616 -0.03591,0.12461 -0.08271,0.271372 -0.089,0.279103 -0.0026,0.0032 -0.01524,0.0049 -0.0367,0.0049 -0.018,0 -0.03272,-5.7e-4 -0.03272,-0.0013 z"
       id="path74" /><path
       style="fill:#f5a001;fill-opacity:1;stroke-width:0.00390625"
       d="m 53.384597,40.606445 c 0.165985,-0.166605 0.283914,-0.310696 0.413214,-0.504883 0.360786,-0.541838 0.601611,-1.224733 0.715636,-2.029296 0.09595,-0.677028 0.09026,-1.337455 -0.01754,-2.035157 -0.01246,-0.08065 -0.04106,-0.241666 -0.05436,-0.306094 -0.0044,-0.02118 -0.008,-0.04096 -0.008,-0.04395 0,-0.0046 0.09169,-0.0054 0.6089,-0.0054 h 0.6089 l 0.0042,0.02832 c 0.04655,0.313791 0.07941,0.746211 0.09016,1.186523 l 0.003,0.123047 6.2e-4,-0.14133 6.21e-4,-0.14133 0.0088,-0.0017 c 0.0078,-0.0015 0.0076,-0.0018 -0.0016,-0.0022 -0.01027,-5.27e-4 -0.0104,-8.97e-4 -0.01263,-0.03666 -0.0012,-0.01987 -0.0032,-0.0625 -0.0045,-0.09473 -0.0046,-0.120919 -0.01974,-0.343867 -0.03339,-0.490234 -0.0121,-0.12971 -0.03989,-0.365959 -0.04906,-0.416992 l -0.0023,-0.0127 h 0.04884 c 0.04739,0 0.0489,2.6e-4 0.05103,0.0088 0.004,0.01601 0.02937,0.210442 0.03937,0.301757 0.02437,0.222438 0.04897,0.572229 0.04909,0.697971 3.6e-5,0.04017 -2.89e-4,0.04178 -0.0088,0.04341 -0.0084,0.0016 -0.0084,0.0017 -5.11e-4,0.0022 0.0064,4.11e-4 0.0088,0.0039 0.0107,0.01518 0.0039,0.02376 0.0028,0.585056 -0.0014,0.729492 -0.01488,0.504531 -0.06167,0.93911 -0.13982,1.298828 l -0.01061,0.04883 h -0.04944 c -0.02719,0 -0.0506,-0.0012 -0.05202,-0.0026 -0.0014,-0.0014 0.0063,-0.048 0.01712,-0.103515 0.03218,-0.164939 0.04632,-0.248583 0.06858,-0.405624 0.03492,-0.246313 0.06977,-0.661121 0.06777,-0.80664 -3.98e-4,-0.029 -0.0012,-0.04043 -0.0018,-0.02539 -0.01008,0.253418 -0.02424,0.445737 -0.04828,0.655328 -0.100199,0.873688 -0.342348,1.633933 -0.721926,2.266547 -0.0437,0.07283 -0.150802,0.2373 -0.183786,0.282227 l -0.01219,0.0166 H 54.031813 53.286332 Z M 55.749,37.352539 c -7.24e-4,-0.01772 -0.0013,-0.0032 -0.0013,0.03223 0,0.03545 5.92e-4,0.04995 0.0013,0.03223 7.24e-4,-0.01772 7.24e-4,-0.04673 0,-0.06445 z"
       id="path75" /><path
       style="fill:#f5a001;fill-opacity:1;stroke-width:0.00390625"
       d="m 54.076456,39.463867 c 0.07961,-0.18663 0.142729,-0.364414 0.193649,-0.545464 l 0.02482,-0.08824 0.02058,-4.4e-5 c 0.02044,-4.4e-5 0.02057,3.2e-5 0.01819,0.0107 -0.008,0.03593 -0.0468,0.183528 -0.05844,0.222379 -0.03713,0.123847 -0.06946,0.213061 -0.121673,0.335712 l -0.03388,0.07961 h -0.02474 -0.02474 z"
       id="path78" /></g></svg>
