<?xml version="1.0" encoding="UTF-8"?>
<!DOCTYPE svg PUBLIC "-//W3C//DTD SVG 1.1//EN" "http://www.w3.org/Graphics/SVG/1.1/DTD/svg11.dtd">
<!-- Creator: CorelDRAW -->
<svg xmlns="http://www.w3.org/2000/svg" xml:space="preserve" width="134.463mm" height="127.77mm" version="1.1" style="shape-rendering:geometricPrecision; text-rendering:geometricPrecision; image-rendering:optimizeQuality; fill-rule:evenodd; clip-rule:evenodd"
viewBox="0 0 345.4 328.21"
 xmlns:xlink="http://www.w3.org/1999/xlink"
 xmlns:xodm="http://www.corel.com/coreldraw/odm/2003">
 <defs>
  <style type="text/css">
   <![CDATA[
    .fil0 {fill:#F5A001}
   ]]>
  </style>
 </defs>
 <g id="Camada_x0020_1">
  <metadata id="CorelCorpID_0Corel-Layer"/>
  <g id="_1822053824608">
   <path class="fil0" d="M152.9 267.11c2.57,0.69 7.07,4.76 14.27,4.76 7.61,0 7.91,-5.21 12.71,3.6 3.58,6.59 7.84,12.26 14.9,15.68 16.31,7.91 26.46,-7.05 28.8,-7.05 4.27,0 11.98,10.38 26.24,-0.27 3.57,-2.66 2.08,-3.57 6.38,-5.85 1.98,-0.26 20.89,19.98 38.84,-4.65 9.74,-13.36 4.84,-1.46 20.28,-1.46 7.2,0 11.7,-4.07 14.27,-4.76 -8.11,15.32 -17.98,27.68 -32.34,37.65 -34.27,23.79 -77.31,22.92 -112,-0l-14.18 -11.64c-1.78,-1.87 -2.2,-2.91 -4.06,-4.78 -5.94,-5.97 -10.22,-13.9 -14.1,-21.23zm162.42 -1.36c-8.69,0 -10.06,-6.18 -16.85,-4 -7.94,2.54 -9.8,19.18 -25.53,17.78 -9.87,-0.88 -8.31,-6.98 -17.42,-6.98 -7.01,0 -7.81,10.19 -18.35,10.19 -6.01,0 -8.58,-4.76 -12.91,-4.76 -7.02,0 -9.81,9.51 -20.39,9.51 -6.66,0 -12.8,-5.51 -15.65,-9.49 -1.91,-2.67 -6.23,-13.61 -12.21,-13.61 -5.16,0 -16.85,7.02 -27.85,-12.24 -6.58,-11.52 -6.78,-37.68 -2.93,-50.48 1.33,-4.43 0.85,-1.26 7.14,-5.1 12.72,-7.75 23.66,-14.72 33.07,-27.41 7.3,-9.84 12.66,-18.38 17.17,-31.08 1.68,-4.74 0.86,-5.6 4.42,-7.13 27.64,-11.86 67.44,-5.25 91.42,12.37l13.21 11.26c7.88,9.43 14.16,16.05 19.4,28.85 8.27,20.17 13.06,47.01 3.3,68.06 -2.97,6.39 -9.67,14.27 -19.03,14.27zm-309.88 -161.06c0,-6.52 1.13,-15.64 2.45,-21.34 2.82,-12.19 7.31,-23.21 14.13,-33.44 9.67,-14.51 22.45,-25.91 38.24,-33.8 38.3,-19.12 83.84,-10.78 114.57,19.77 3.94,3.92 7.55,8.6 10.71,13.08 3.6,5.11 5.8,9.91 8.38,15.41 13.45,28.7 10.61,59.83 -3.63,87.21l-9.72 14.74c-2.03,2.39 -3.53,4.31 -5.74,6.5 -8.27,8.18 -17.14,14.89 -28.02,20.22 -25.69,12.6 -59.38,12.91 -84.96,-0.01 -20.63,-10.42 -38.73,-27.03 -47.66,-48.83 -2.21,-5.39 -4.67,-11.4 -5.97,-17.81 -1.27,-6.25 -2.77,-14.4 -2.77,-21.7zm-5.44 -5.44c0,20.54 1.27,32.5 10.19,50.29 7.25,14.45 15.24,25.23 27.77,35.43 23.1,18.82 53.75,27.67 84.65,21.94 7.23,-1.34 11.37,-3.13 16.7,-4.37 -1.13,2.35 -3.11,21.64 -2.54,25.63 0.57,4 0.7,8.4 1.58,12.71 4.33,21.29 11.93,38.43 26.27,53.92l11.39 10.36c5.43,4.24 11.21,8.34 17.67,11.55 27.29,13.57 59.89,15.83 88.58,2.95 8.86,-3.98 16.08,-7.99 23.39,-13.98 17.76,-14.54 28.56,-30.06 35.58,-52.76 9.39,-30.33 2.4,-66.05 -15.61,-90.58l-18.45 -19.61 -11.15 -7.87c-5.21,-3.42 -7.67,-4.35 -12.86,-6.84 -21.21,-10.19 -45.39,-11.21 -68.82,-5.4 -3.36,0.83 -5.48,1.76 -8.42,2.45 2.19,-4.56 2.04,-20.31 2.04,-26.5 0,-27.46 -17.41,-58.58 -38.34,-75.14 -6.63,-5.24 -15.85,-11.34 -23.58,-14.47 -29.08,-11.79 -54.68,-12.04 -83.6,-0.18 -21.96,9 -41.93,28.49 -52.1,49.83 -4.97,10.42 -10.32,25.56 -10.32,40.65z"/>
   <path class="fil0" d="M29.9 72.75c0,-18.67 17.97,-11.93 25.62,-27.39 2.74,-5.53 3.7,-15.42 17.88,-15.42 4.53,0 4.23,1.36 11.55,1.36 12.99,0 11.51,-9.51 25.82,-9.51 2.8,0 5.33,1.08 7.2,2.31 2.63,1.73 3.51,3.49 5.22,4.98 14.71,12.77 21.69,0.06 32.29,9.85 9,8.31 1,18.47 18.49,27.72 5.14,2.71 9.51,7.71 9.51,14.27 0,6.34 -5.05,11.15 -3.53,19.81 1.66,9.51 12.21,18.91 1.36,29.66 -3.97,3.93 -4.48,2.07 -8.91,8.08 -2.43,3.3 -3.99,7.05 -4.45,11.86 -0.68,7.12 -0.32,8.45 -4.04,12.95 -7.07,8.57 -17.44,1.96 -26.91,10.47 -0.98,0.88 -0.43,0.38 -1.03,1.01 -7.36,7.71 -5.61,11.5 -19.76,11.5 -5.59,0 -8.14,-6.12 -19.03,-6.12 -7.05,0 -20.81,10.29 -30.05,-4.61 -2.61,-4.21 -2.83,-7.06 -9.06,-11.33 -4.99,-3.42 -10.23,-2.51 -15,-5.39 -13.19,-7.95 -3.79,-18.3 -10.43,-31.03 -2.53,-4.85 -7.06,-6.48 -9.29,-11.78 -6.04,-14.39 7.9,-17.66 7.9,-30.33 0,-8.39 -1.36,-8.87 -1.36,-12.91zm54.37 -46.89c-4.23,0 -18.45,-7.35 -29.33,7.36 -5,6.77 -2.72,11.97 -11.21,16.65 -4.74,2.61 -10.86,2.79 -16.44,11.42 -5.88,9.09 -1.46,17.88 -1.46,22.33 0,12.75 -9.51,10.02 -9.51,27.18 0,4.31 1.24,6.75 2.69,9.54 3.05,5.85 7.83,6.16 10.11,14.36 1.56,5.6 -4.39,24.19 15.12,31.08 4.97,1.76 10.04,0.55 15.68,8.1 3.32,4.44 2.61,8.52 11.41,13.06 17.23,8.88 20.05,-8.16 36.58,2.16 8.73,5.45 19.76,3.36 26.5,-3 8.74,-8.25 3.18,-10.86 20.51,-12.11 7.8,-0.56 15.59,-7.11 17.96,-14.66 2.23,-7.11 -0.02,-11.56 4.37,-17.38 1.64,-2.18 3.48,-3.58 5.66,-5.21l2.88 -2.55c4.81,-5.21 7.38,-11.65 5.68,-19.8 -0.72,-3.44 -1.58,-4.99 -3.2,-7.69 -4.27,-7.11 -2.81,-10.97 -0.62,-16.87 3,-8.08 2.45,-14.18 -2.51,-21.45 -3.02,-4.43 -5.54,-5.55 -10.28,-8.07 -11.94,-6.33 -5.08,-25.47 -24.39,-30.66 -5.02,-1.35 -12.37,0.62 -17.23,-1.12 -5.1,-1.82 -6.27,-5.3 -10.22,-8.13 -19.17,-13.74 -27.45,5.46 -38.75,5.46z"/>
   <path class="fil0" d="M209.99 225.65c0,-10.09 2.24,-17.59 8.98,-24.32 17.48,-17.48 53.54,-9.48 53.54,23.64 0,15.91 -14.59,29.9 -29.22,29.9 -10.09,0 -17.59,-2.24 -24.32,-8.98 -4.04,-4.04 -8.98,-12.43 -8.98,-20.24zm-6.12 -2.04c0,32.29 39.96,50.14 63.72,26.35 23.36,-23.39 7.25,-63.72 -27.02,-63.72 -19.4,0 -36.7,17 -36.7,37.38z"/>
   <path class="fil0" d="M105.33 135.27c-19.41,0 -32.62,-14.32 -32.62,-28.54l0 -4.08c0,-15.74 14.16,-29.9 29.9,-29.9 9.89,0 17.38,2.72 23.64,8.98 19.42,19.42 5.38,53.54 -20.92,53.54zm-38.74 -30.58c0,31.13 39.54,49.85 63.72,25.67 14.92,-14.92 14.23,-38.78 0.01,-52.7 -23.87,-23.35 -63.73,-6.81 -63.73,27.03z"/>
   <path class="fil0" d="M238.53 151.58c0,5.63 5.38,2.89 10.7,1.87 4.25,-0.82 5.04,-0.23 7.65,-3.23 -1.12,-4.82 -2.73,-3.84 -11.62,-2.1 -2.57,0.5 -6.73,0.74 -6.73,3.46z"/>
   <path class="fil0" d="M168.53 197.11c0,3.67 4.21,3.71 8.6,4.99 4.49,1.31 6.53,2.87 9.07,-0.92 -0.86,-3.68 -2.56,-3.3 -6.36,-4.51 -3.75,-1.2 -11.31,-4.52 -11.31,0.43z"/>
   <path class="fil0" d="M197.07 269.15l2.72 2.04c3.37,-1.78 3.61,-2.99 5.4,-6.15 0.81,-1.42 4.11,-6.76 4.11,-8.12 0,-2.1 -3.02,-4.92 -5.95,-0.51 -1.79,2.69 -6.06,10.09 -6.29,12.74z"/>
   <path class="fil0" d="M108.05 167.89c2.21,0 2.72,-1.62 2.72,-3.4 0,-2.1 -3.61,-4.46 -4.92,-5.95 -2.26,-2.57 -3.36,-5.6 -6.63,-5.6 -2,0 -2.95,2.1 -2.4,3.72 0,0 8.46,11.23 11.24,11.23z"/>
   <path class="fil0" d="M44.17 126.44c-0.89,3.7 -2.43,3.25 6.66,8.97 2.58,1.62 6.85,5.24 8.58,1.45 1.46,-3.2 -3.86,-5.34 -6.01,-6.74 -2.91,-1.9 -5.81,-5.01 -9.23,-3.68z"/>
   <path class="fil0" d="M315.32 222.26c7.77,0 -0.01,-7.84 -2.21,-10.03 -1.71,-1.69 -4.45,-6.26 -7.29,-4.28 -3.52,2.45 0.81,6.01 2.53,7.68 3.78,3.68 4.74,6.62 6.97,6.62z"/>
   <path class="fil0" d="M154.26 106.73l0.54 9.65c0.3,3.08 -0.33,5.98 2.85,5.98 4.02,0 2.72,-6.49 2.72,-13.59 0,-6.01 -6.12,-5.88 -6.12,-2.04z"/>
   <path class="fil0" d="M146.11 65.96c8.1,0 15.63,1.46 15.63,-2.72 0,-4.18 -7.53,-2.72 -15.63,-2.72 -3.35,0 -3.35,5.44 0,5.44z"/>
   <path class="fil0" d="M76.11 57.12l2.57 2.87c3.07,-0.93 6.58,-4.59 9.69,-6.92 5.25,-3.94 3.49,-10.37 -5.25,-3.21 -1.47,1.2 -2.33,1.84 -3.78,3.01 -1.81,1.45 -2.64,1.73 -3.22,4.25z"/>
   <path class="fil0" d="M269.11 178.08c0,3.07 2.98,2.72 4.76,2.72l1.4 -2.7 -1.43 -2.72c-1.73,-0.03 -4.72,-0.38 -4.72,2.7z"/>
   <path class="fil0" d="M208.63 175.37c1.17,1.35 0.81,1.96 4.08,2.72l0.71 -0.65c3.04,-3.85 0.18,-5.46 -1.39,-5.46 -2.21,0 -2.62,1.93 -3.4,3.4z"/>
   <path class="fil0" d="M277.26 154.3c0,4.51 6.12,4.43 6.12,0 0,-2.66 -6.12,-2.66 -6.12,0z"/>
   <path class="fil0" d="M161.06 237.21c8.21,1.96 5.73,-4.76 2.72,-4.76 -3.31,0 -2.72,1.21 -2.72,4.76z"/>
   <path class="fil0" d="M295.61 240.6c0,4.98 5.44,3.98 5.44,0.68 0,-3.11 -5.44,-4.06 -5.44,-0.68z"/>
   <path class="fil0" d="M301.05 182.84c0,2.69 5.44,5.65 5.44,-2.04 -0.33,-0.08 -5.44,-2.27 -5.44,2.04z"/>
  </g>
 </g>
</svg>
