<?xml version="1.0" encoding="UTF-8"?>
<!DOCTYPE svg PUBLIC "-//W3C//DTD SVG 1.1//EN" "http://www.w3.org/Graphics/SVG/1.1/DTD/svg11.dtd">
<!-- Creator: CorelDRAW -->
<svg xmlns="http://www.w3.org/2000/svg" xml:space="preserve" width="121.821mm" height="121.423mm" version="1.1" style="shape-rendering:geometricPrecision; text-rendering:geometricPrecision; image-rendering:optimizeQuality; fill-rule:evenodd; clip-rule:evenodd"
viewBox="0 0 330.12 329.04"
 xmlns:xlink="http://www.w3.org/1999/xlink"
 xmlns:xodm="http://www.corel.com/coreldraw/odm/2003">
 <defs>
  <style type="text/css">
   <![CDATA[
    .fil0 {fill:#F5A001}
   ]]>
  </style>
 </defs>
 <g id="Camada_x0020_1">
  <metadata id="CorelCorpID_0Corel-Layer"/>
  <g id="_1821013758048">
   <path class="fil0" d="M274.07 295.61l0 -40.46 28.87 28.55c-14.24,9.72 -14.62,8.59 -28.87,11.91zm-274.07 -47.19l0 -9.51c0.57,-10.73 3.17,-20.98 8.35,-29.58 4.11,-6.81 13.89,-17.49 21.67,-18.14l-9.14 -7.17c-2.41,-1.88 -7.17,-5.2 -7.17,-9.14 0,-3.64 0.04,-7.08 4.31,-9.39 6.74,-3.64 26.97,-4.31 35.49,-4.31 15.26,0 25.23,11.64 28.06,12.4 1.24,-4.65 8.05,-6.04 8.53,-11.1l-3.9 -35.29c-0.71,-7.41 -0.09,-13.93 -3.65,-15.27 -6.91,-2.61 -6.16,-1.63 -14.03,-5.55 -4.22,-2.11 -8.11,-4.33 -11.85,-7.08 -2.12,-1.56 -3.34,-2.79 -5.4,-4.39 -7.56,-5.89 -8.64,-11.35 -11.47,-17.24 -2.75,0.64 -5,1.98 -8.33,2.76 -21.21,4.97 -24.55,-7.98 -17.41,-25.9 3.74,-9.4 13.6,-17.76 23.13,-17.98 -0.7,-2.64 -2.65,-3.47 -4.75,-5.04 -10.65,-7.93 -9.25,-4.96 -12.88,-6.7 -2.43,-1.17 -5.57,-5.78 -0.48,-9.66 6.89,-5.26 22.71,9.88 27.24,12.92 1.33,-5.7 2.92,-10.56 6.32,-15.21 8.75,-11.97 46.52,-24.67 38.07,8.71 -0.73,2.89 -2.04,5.28 -2.63,7.81 5.93,2.85 5.6,1.59 12.31,6.61 8.65,6.47 19.17,24.62 21.62,35.15l92.01 0c0.45,-1.93 1.56,-4.48 2.36,-6.78 1.8,-5.2 7.41,-22.74 10.66,-25.23l41.8 -29.33c3.49,-2.47 13.24,-9.79 16.31,-9.79 2.58,0 5.22,2.96 5.22,5.87 0,3.5 -4.81,6.23 -7.95,8.36l-38 26.6c-1.88,1.37 -3.27,2.13 -5.04,3.44l-4.42 3.41c-0.99,1.26 -8.35,21.16 -8.54,23.44 15.15,0 29.75,-3.07 37.71,5.36 7.55,8 3.4,20.13 2.04,34.39 -0.77,8.04 -1.67,16.79 -2.83,25.23 -3.38,24.65 -5.09,51.48 -8.48,75.7 -0.8,5.74 -1.41,6.19 0.7,8.29l65 64.91c7.6,7.6 15.95,14.62 2.17,25.34 -22.41,17.43 -49.96,22.74 -78.04,15.29 -1.18,-0.31 -4.09,-1.45 -4.89,-1.52 -2.49,-0.21 -4.86,4.78 -12.07,4.78l-105.06 0c-5.36,0 -8.5,-3.05 -11.75,-5.22 -0.81,0.7 -0.86,0.76 -1.95,1.31 -16.14,8.16 -30.38,1.14 -32.08,1.04 -1.65,-0.1 -3.97,1.18 -6.18,1.8 -21.89,6.12 -42.96,-12.03 -53.09,-26.34 -9.7,-13.71 -16.62,-33.61 -17.62,-53.06zm262.82 6.57l0.16 40.62c-15.26,-3.55 -16.25,-3.4 -28.71,-11.75l28.55 -28.87zm-251.72 -8.97c0,-29.43 16.13,-56.85 46.34,-41.12 2.3,1.2 3.64,2.35 6.31,3.47 2.4,1.01 5.45,1.48 7.38,2.41 0,5.44 -1.04,11.05 2.51,13.2 3.48,2.1 8.58,-0.11 8.58,-4.71l0 -9.14c6.35,0 8.88,-3.6 13.05,-4.57 0,8.94 1.88,18.04 2.63,26.74l9.12 80.93c-7.06,3.73 -14.33,5.68 -22.87,3.3 -3.38,-0.94 -3.97,-2.64 -7.8,-2.64 -3.42,0 -17.1,11.23 -36.4,-4.71 -17.12,-14.15 -28.86,-38.68 -28.86,-63.15zm214.85 29.53c-2.78,-4.07 -5.81,-8.02 -7.73,-12.82 -1.74,-4.36 -3.75,-10.86 -4.18,-16.05l40.46 0 -28.55 28.87zm-0.16 -68.68l28.87 28.55 -40.62 0.16c1.11,-13.34 5.6,-19.53 11.75,-28.71zm-23.49 33.28c0,56.96 64.1,84.98 104.7,54.45 0.94,-0.71 0.98,-0.71 1.85,-1.41 0.72,-0.57 1.22,-1.01 1.77,-1.49l7.99 7.67c-15.86,11.04 -28.97,18.43 -49.75,18.43 -14.32,0 -32.45,-5.15 -43.83,-13.6l-10.5 -9.08c-27.29,-27.29 -30.11,-67.16 -8.06,-99.09 1.39,-2.01 2.56,-3.19 3.66,-4.83l7.69 7.32c-4.96,7.6 -6.25,7 -10.58,17.84 -2.56,6.41 -4.93,15.18 -4.93,23.78zm-119.42 -41.76c0.78,-1.64 0.97,-5.47 3.34,-11.02 1,-2.35 3.79,-7.21 5.8,-8.56 0,4.9 1.31,9.27 1.31,15.01 -4.38,1.02 -6.27,4.22 -10.44,4.57zm-54.81 -24.14c8.6,-0.19 22.63,-5.36 36.34,1.51 23.01,11.53 1.65,20.82 -16.11,12.84 -5.44,-2.44 -13.71,-7.64 -18.41,-11.6 -2.16,-1.81 -0.98,-1.14 -1.82,-2.74zm223.17 -35.24l-3.45 34.39c-0.67,5.27 -1.23,11.15 -1.88,17.04 -0.58,5.17 -1.84,12.15 -1.84,17.74 -19.74,-13.22 -31.49,-51.93 -53.3,-8.27 -4.27,8.55 -6.8,14.89 -8.87,25.71 -1.72,8.97 -1.61,22.39 0.23,31.46 1.07,5.28 2,8.44 3.62,13.35 1.74,5.29 5.43,13.02 8.46,17.64l11.52 14.58c5.1,5.06 10.66,9.54 16.79,13.23l2.63 1.94c-5.35,0 -100.02,0.96 -103.7,-0.7 -2.77,-1.25 -3.02,-2.73 -3.39,-6.4l-15.31 -137.39c-0.83,-6.05 -1.04,-11.01 -1.86,-17.06 -0.79,-5.77 -1.68,-11.96 -1.68,-17.9 12.61,6.67 24.94,12.71 44.34,8.45 8.23,-1.81 21.67,-9.9 32.55,-9.03l12.51 1.88 -14.93 40.53c-4.93,13.59 -10.02,27.16 -14.99,40.48l-22.36 60.51c-3.45,9.52 -7.9,16.7 -1.9,19.7 7.04,3.53 9.43,-6.72 12.01,-14.16l14.95 -40.52c1.36,-3.44 2.49,-6.86 3.65,-10.06l7.63 -20.43c4.32,-11.2 23.67,-65.85 26.38,-71.51 13.91,6.68 32.3,4.35 46.34,-2.6 1.96,-0.97 3.51,-2.07 5.86,-2.62zm0 0zm-168.36 -39.15l168.36 39.15zm-168.36 -39.15zm170.32 25.45l-170.32 -25.45zm170.32 25.45c-4.64,1.08 -13.63,7.54 -22.6,10.03 -6.73,1.87 -14.48,1.85 -21.09,0.38 -2.47,-0.55 -4.12,-1.36 -6.56,-1.93l16.5 -44.84c0.78,-1.98 2,-4.92 2.42,-6.72 4.39,0 29.45,-0.95 32.83,1.1 4.84,2.94 1.54,11.51 0.51,22.45 -0.58,6.14 -2.02,13.66 -2.02,19.52zm-60.69 3.92c-5.5,-0.46 -5.57,-2.61 -19.58,-2.61 -24.3,0 -30.08,21.18 -67.21,2.61 -2.32,-1.16 -5.93,-3.32 -8.48,-3.92 0,-5.92 -1.36,-12.71 -1.9,-18.33 -0.32,-3.32 -0.47,-5.45 -0.9,-8.88 -1.81,-14.25 -3.34,-15.86 12.59,-15.85l102.45 0 -16.97 46.98zm-109.63 -29.36c-3.97,-0.33 -13,-5.38 -16.06,-7.43 -8.23,-5.53 -13.75,-9.27 -16.31,-18.96 -1.37,-5.16 -0.23,-4.2 1.92,-7.97 4.13,-7.26 3.63,-12.58 5,-18.49 5.74,-1.34 10.73,-0.77 18,-4.84 3.79,-2.12 5.27,-5.36 16.16,1.34 9.58,5.89 14.61,19.93 18.69,27.64 -10.85,0 -18.23,-0.86 -23.67,5.04 -6.31,6.85 -3.74,12.91 -3.74,23.67zm-60.69 -29.36c0,-14.6 8.7,-23.81 23.49,-24.14 0,14.55 -8.72,23.82 -23.49,24.14zm34.59 -35.24c0.33,-14.79 9.54,-23.49 24.14,-23.49 -0.32,14.32 -8.83,23.49 -24.14,23.49z"/>
   <path class="fil0" d="M133.12 170.32c12.28,0 12.28,15.66 0,15.66 -9,0 -9,-15.66 0,-15.66zm-18.27 6.53c0,4.19 0.13,5.94 1.94,9.8 4.94,10.58 20.22,15.24 30.54,5.71 8.11,-7.48 8.18,-20.87 0,-28.42 -1.49,-1.38 -3.46,-2.75 -5.51,-3.63 -14.05,-6.04 -26.98,5.84 -26.98,16.54z"/>
   <path class="fil0" d="M21.53 244.71c0,4.63 0.88,10.3 1.68,14.63 0.9,4.87 1.36,10.16 6.8,10.16 2.91,0 5.87,-2.64 5.87,-5.22 0,-2.04 -4.96,-13.96 -2.24,-27.04 0.6,-2.89 2.58,-9.93 3.8,-11.86 2.44,-3.86 7.58,-3.35 7.58,-8.73 0,-11.96 -23.49,-5.27 -23.49,28.06z"/>
   <path class="fil0" d="M131.82 219.26c0,-5.26 -7.96,-8.58 -10.98,-2.44 -2.08,4.21 1.94,9.47 7.02,7.67 1.97,-0.7 3.96,-2.89 3.96,-5.23z"/>
   <path class="fil0" d="M69.82 82.22c2.47,0 3.69,0.35 5.53,-1.65 6.51,-7.06 -7.8,-14.73 -9.74,-4.52 -0.48,2.54 1.86,6.16 4.2,6.16z"/>
   <path class="fil0" d="M125.94 245.36c0,10.06 11.09,8.06 11.09,1.31 0,-8.2 -11.09,-6.45 -11.09,-1.31z"/>
   <path class="fil0" d="M82.22 60.03c0,8.57 11.09,7.05 11.09,0.65 0,-7.51 -11.09,-8.03 -11.09,-0.65z"/>
  </g>
 </g>
</svg>
