<?xml version="1.0" encoding="UTF-8"?>
<!DOCTYPE svg PUBLIC "-//W3C//DTD SVG 1.1//EN" "http://www.w3.org/Graphics/SVG/1.1/DTD/svg11.dtd">
<!-- Creator: CorelDRAW -->
<svg xmlns="http://www.w3.org/2000/svg" xml:space="preserve" width="120.059mm" height="135.45mm" version="1.1" style="shape-rendering:geometricPrecision; text-rendering:geometricPrecision; image-rendering:optimizeQuality; fill-rule:evenodd; clip-rule:evenodd"
viewBox="0 0 345.06 389.29"
 xmlns:xlink="http://www.w3.org/1999/xlink"
 xmlns:xodm="http://www.corel.com/coreldraw/odm/2003">
 <defs>
  <style type="text/css">
   <![CDATA[
    .fil0 {fill:#F5A001}
   ]]>
  </style>
 </defs>
 <g id="Camada_x0020_1">
  <metadata id="CorelCorpID_0Corel-Layer"/>
  <g id="_1821013773360">
   <path class="fil0" d="M208.2 204.53c-11.79,0 -13.21,-4.47 -21.1,-12.36 -3.92,-3.92 -12.8,-11.89 -15.4,-15.78 11.63,0 60.47,-18.82 73.75,-25.85 6.71,10.02 4.5,17.98 -3.61,26.04l-20.53 20.53c-3.26,3.28 -6.91,7.41 -13.12,7.41zm106.87 -204.53l1.44 0c3.9,0.41 9.03,3.92 15.88,7.35 4.98,2.49 12.67,5.01 12.67,10.14 0,2.7 -19.92,39.84 -23.57,47.14 -1.82,3.65 -6.76,12.37 -7.6,15.97 15.15,0 26.61,-2.84 26.61,8.36l0 247.11c0,8.4 -1.25,15.11 -3.5,21.59 -5.77,16.61 -24.72,31.63 -42.88,31.63l-168.04 0c-22.26,0 -45.62,-22.6 -45.62,-45.62l0 -171.08c-16.25,0 -34.27,-8.22 -46.06,-17.05 -29.74,-22.28 -43.23,-62.98 -28.25,-100.59 13.52,-33.91 21.84,-19.47 21.84,-16.18 0,3.05 -34.74,44.47 -2.59,90.79 2.76,3.97 4.43,5.71 7.72,9 11.82,11.8 28.82,21.86 47.33,21.86 0,-13.24 0.84,-10.88 -4.97,-11.76 -13.01,-1.98 -24.76,-8.51 -34,-17.7 -24.41,-24.27 -23.98,-64.29 0.16,-88.43 13.12,-13.12 27.19,-18.21 47.94,-18.21 29.6,0 58.55,29.25 58.55,56.27l12.17 0c-1.35,-2.8 -1.62,-24.73 -18.44,-42.39 -4.29,-4.5 0.07,-1.06 -6.42,-6.5 -1.05,-0.88 -1.34,-1.34 -2.33,-2.23 -1.35,-1.22 -3.34,-2.65 -4.74,-3.63 -14.69,-10.33 -28.14,-12.92 -46.39,-12.92 -23.86,0 -40.53,15.97 -44.1,15.97 -2.6,0 -5.47,-2.81 -5.76,-5.53 -0.66,-6 13.52,-12.58 18.18,-14.75 25.52,-11.89 60.47,-10.06 83.83,6.91 7.5,5.45 5.91,4.86 11.2,9.33 1.92,1.62 1.2,0.68 2.8,2.53l6.97 8.24c8.32,11.35 16.61,29.42 16.61,44.98l98.08 0c2.34,0 2.93,-2.69 3.81,-4.55l8.03 -15.54c6.97,-11.65 19.79,-40.4 28.94,-56.97 1.25,-2.27 2.73,-3.32 4.49,-3.53zm-163.13 160.43l0 6.84c-7.09,0 -13.26,-0.55 -19.15,-1.38 -6.83,-0.96 -11.39,-2.55 -17.35,-3.94 0,-25.76 33.87,-19.77 44.1,-19.77 -1.07,1.6 -1.6,1.72 -2.72,3.36 -2.47,3.6 -4.88,10 -4.88,14.89zm12.17 5.32c-0.31,-14.02 1.48,-12.5 16.54,-27.56 3.99,-3.99 7.42,-7.42 11.41,-11.41 1.54,-1.54 4.15,-4.52 5.81,-5.6 11.59,-7.5 20.13,2.26 25.37,7.5 3.47,3.47 10.78,10.01 13.12,13.5 -2.46,0.2 -6.17,2.11 -8.34,3.06 -12.95,5.69 -30.2,12.57 -43.68,16.39 -4.83,1.37 -15.05,4.12 -20.21,4.12zm-83.82 -64.82l0.19 36.68c-13.04,-3.04 -13.4,-2.31 -25.85,-10.64l25.66 -26.04zm178.11 32.12c1.74,-7.47 18.27,-33.85 19.77,-40.3l15.97 0 -15.95 31.19c-1.57,3.31 -0.84,3.85 -4.97,4.92 -4.83,1.24 -11.08,2.4 -14.81,4.19zm-13.69 0c-11.38,-7.62 -19.2,-25.85 -36.5,-25.85 -7.04,0 -13.31,1.02 -18.81,5.52l-14.84 14.82c-1.8,1.83 -2.63,3.84 -5.88,4.02 -1.22,0.07 -6.85,-0.84 -8.81,-1.13 -3.58,-0.52 -6.62,-0.14 -10.12,-0.54 -21.48,-2.5 -46.48,7.45 -46.48,32.06l0 180.2c0,12.38 12.35,24.33 23.57,24.33l165.75 0c14.39,0 25.09,-12.98 25.09,-29.65l0 -135.34c0,-6.54 -2.77,-7.6 -7.6,-7.6 -6.04,0 -4.56,11.85 -4.56,18.25l0 114.05c0,11.55 2.91,28.89 -16.73,28.89l-157.39 0c-20.1,0 -16.73,-19.21 -16.73,-32.69l0 -148.27c7.94,0.66 8.38,4.8 37.3,4.52 7.27,-0.07 5.33,0.46 14.98,10.11 12.84,12.84 23.83,27.94 39.73,27.94 15.63,0 24.67,-12.89 32.88,-21.1 14.18,-14.18 30.03,-25.56 17.3,-49.61 14.39,-3.35 17,-7.6 36.5,-7.6 5.34,0 7.8,1.16 12.17,1.52 0,8.11 0,16.22 0,24.33 -0,8.21 -2.06,18.25 6.08,18.25 3.92,0 6.08,-3.17 6.08,-6.84l0 -37.26c0,-7.37 -4.56,-8.12 -9.96,-9.81 -4.77,-1.49 -11.25,-2.36 -17.41,-2.36 2.91,-5.5 5.24,-11.21 8.51,-16.58 1.77,-2.91 7.51,-13.85 8.22,-16.87l21.29 0 0 247.87c0,21.09 -17.1,37.26 -41.06,37.26l-154.35 0c-23.68,0 -41.06,-15.32 -41.06,-38.78l0 -246.35 173.36 0c-7.06,13.34 -13.47,26.96 -20.53,40.3zm-198.26 -15.02c-4.6,-3.14 -10.66,-17.67 -10.83,-25.28l35.74 0 -24.9 25.28zm79.46 -62.72c3.84,5.65 3.25,3.54 6.79,11.08 2.18,4.64 2.82,8.96 4.05,14.2l-35.74 0 24.9 -25.28zm-80.41 0.19c3.06,0.82 4.56,3.41 6.65,5.51l19.2 19.58 -35.74 0c0.1,-4.38 2.42,-10.66 3.68,-13.81 2.5,-6.25 5.48,-8.58 6.21,-11.28zm46.57 16.91l-0.19 -35.92c12.36,0 22.79,9.07 25.85,9.88l-25.66 26.04zm-37.63 -25.85c4.18,-2.3 6.71,-4.54 11.36,-6.5 3.66,-1.55 9.91,-3.57 14.68,-3.57l0 35.74 -26.04 -25.66zm245.78 34.03l-15.21 0 33.45 -66.91 12.16 6.1c-0.82,3.55 -5.44,11.63 -7.34,15.45l-23.06 45.37z"/>
   <path class="fil0" d="M205.16 281.33c0,-16.22 19.15,-17.28 35.26,-22.52 11.05,-3.6 22.41,-8.12 30.38,2.5 2.87,3.83 14.01,42.41 14.01,45.11 0,14.51 -12.48,16.45 -20.44,18.91 -5.13,1.59 -10.2,3.11 -15.2,4.57 -10.33,3.01 -22.1,8.32 -30.47,-2.81 -2.61,-3.47 -8.22,-24.25 -9.74,-29.8 -1.24,-4.53 -3.8,-10.58 -3.8,-15.97zm-6.08 25.85c0,1.95 -3.87,5.74 -5.42,6.74 -9.53,6.15 -16,1.86 -24.27,-2.9 -4.63,-2.67 -8.86,-5.01 -13.5,-7.79 -13.38,-8.02 -28.16,-13.25 -16.92,-32.58 0.73,-1.26 1.03,-1.99 1.88,-3.44l11.41 -19.77c6.46,-10.93 12.81,-20.54 29.3,-10.94 3.49,2.03 7.03,4.01 10.64,6.09l15.4 8.93c2.62,1.51 3.69,1.28 4.4,3.96 -3.96,0.33 -9.36,4.88 -11.6,7.41 -15.04,16.98 -1.33,35.84 -1.33,44.29zm-18.25 21.29c18.95,0 15.99,-5.02 22.81,-6.84 1.43,2.97 1.87,6.26 3.54,9.39 4.7,8.81 14.33,14.94 26.12,14.94 5.79,0 14.74,-3.46 20.09,-5 11.36,-3.26 28.55,-6.58 35.62,-14.56 15.15,-17.12 3.2,-36.8 -3.4,-60.87 -3.62,-13.2 -14.25,-22.97 -27.97,-22.97 -7.22,0 -24.28,6.4 -32.69,8.36 -3.88,-7.33 -27.9,-18.99 -36.17,-23.89 -10.23,-6.07 -11.1,-5.76 -21.61,-5.76 -6.54,0 -13.87,5.02 -17.32,8.53 -4.08,4.16 -15.68,25.4 -19.62,32.09 -7.48,12.72 -10.8,25.54 -0.11,38.25 4.92,5.85 43.37,28.34 50.73,28.34z"/>
   <path class="fil0" d="M271.31 201.49c0,-7.76 13.69,-8.82 13.69,0.76 0,8.94 -13.69,9 -13.69,-0.76zm5.32 19.01c28.58,0 24.58,-37.26 1.52,-37.26 -10.13,0 -17.74,8.04 -18.57,17.86 -0.8,9.49 7.48,19.4 17.05,19.4z"/>
   <path class="fil0" d="M137.49 205.29c0,-5.67 9.88,-6.63 9.88,0 0,7.96 -9.88,6.13 -9.88,0zm-11.4 -1.52c0,5.98 -0.18,9.36 5.88,14.65 10.81,9.44 27.58,0.68 27.58,-12.37 0,-23.04 -33.45,-21.96 -33.45,-2.28z"/>
  </g>
 </g>
</svg>
