<?xml version="1.0" encoding="UTF-8"?>
<!DOCTYPE svg PUBLIC "-//W3C//DTD SVG 1.1//EN" "http://www.w3.org/Graphics/SVG/1.1/DTD/svg11.dtd">
<!-- Creator: CorelDRAW -->
<svg xmlns="http://www.w3.org/2000/svg" xml:space="preserve" width="126.802mm" height="133.368mm" version="1.1" style="shape-rendering:geometricPrecision; text-rendering:geometricPrecision; image-rendering:optimizeQuality; fill-rule:evenodd; clip-rule:evenodd"
viewBox="0 0 332.58 349.8"
 xmlns:xlink="http://www.w3.org/1999/xlink"
 xmlns:xodm="http://www.corel.com/coreldraw/odm/2003">
 <defs>
  <style type="text/css">
   <![CDATA[
    .fil0 {fill:#F5A001}
   ]]>
  </style>
 </defs>
 <g id="Camada_x0020_1">
  <metadata id="CorelCorpID_0Corel-Layer"/>
  <g id="_1822069214576">
   <path class="fil0" d="M278.21 338l-153.38 0c-13.07,0 -26.96,-11.17 -31.66,-23.17 -1.99,-5.1 -2.35,-9.47 -2.35,-16.39 2.48,0.66 3.24,2.26 5.24,3.78 10.37,7.89 23.5,9.65 35.43,4.27 4.04,-1.82 7.31,-5.09 10.69,-7.36 3.04,2.04 6.72,6.37 9.54,9.2 8.77,8.77 11.71,12.94 18.44,0.74 1.09,-1.97 1.55,-3.09 2.69,-4.95 1.16,-1.9 2.1,-3.36 2.64,-5.69 2.84,0.76 23.41,22.92 48.3,3.19 8.22,-6.52 9.58,-10.13 21.8,-10.13 16.16,0 18.63,18.05 40.95,18.05 6.29,0 11.48,-1.4 15.75,-3.69 4.65,-2.5 7.35,-5.45 11.32,-8.11 0,23.19 -15.98,40.25 -35.4,40.25zm-266.51 -43.73c0,-5.25 0.44,-3.88 0.69,-6.94l52.75 -0c13.73,-0.02 5.9,-0.06 13.88,4.16 0,16.57 1.02,29.74 12.66,42.17 1.6,1.71 2.73,2.44 4,4.33 -10.31,0 -57.72,1.21 -63.1,-0.75 -8.77,-3.18 -11.28,-8.43 -14.38,-17.55 -2.06,-6.07 -6.5,-18.44 -6.5,-25.43zm84.67 -34.01c9.82,0 6.56,-0.73 14.4,7.11 3.63,3.63 22.24,21 23.08,24.12 -5.72,1.53 -2.97,6.25 -19.43,6.25 -9.31,0 -15.03,-9.33 -23.13,-13.66 -3.24,-1.73 -5.83,-2.27 -8.8,-3.69 0.9,-3.85 2.8,-8.98 4.06,-12.59 1.58,-4.52 4.16,-7.53 9.82,-7.53zm108.27 37.48c-15.46,0 -14.88,-4.35 -22.9,-9.72l15.27 -27.76 13.88 0c1.8,7.75 0.97,9.17 7.07,14.44 6.86,5.92 16.37,4.15 22.27,-1.75 4.62,-4.62 3.76,-5.86 5.36,-12.69 15.96,0 31.93,0 47.89,0 7.63,0 16.91,-1.18 21.04,2.56 2.72,2.46 6.52,15.18 6.72,17.57 -9.33,4.48 -5.37,0.56 -15.86,9.12 -7.91,6.46 -9.38,8.23 -20.23,8.23 -16.19,0 -24.38,-26.25 -52.67,-15.88 -11.26,4.13 -17.52,15.88 -27.84,15.88zm-120.76 -58.99c0,-7.61 2.85,-13.88 11.8,-13.88l115.21 0 0 23.6c-26.72,0 -19.86,0.92 -40.98,37.45l-8.3 15.3c-3.18,-2.13 -30.1,-29.76 -35.22,-34.88 -3.88,-3.88 -13.54,-14.94 -18.12,-16.59 -5.49,-1.97 -10.09,-0.34 -15.81,-1.54 -4,-0.84 -8.58,-5.07 -8.58,-9.46zm225.57 9.72l-63.85 0 0 -23.6 16.66 0c0,29.09 24.47,25.16 31.26,15.3 5.72,-8.3 -0.04,-15.3 4.83,-15.3 6.95,0 13.55,-1.01 18.25,3.26 7.72,7.01 3.08,20.33 -7.15,20.33zm-29.84 -12.49c-8.2,0 -4.07,-9.3 -6.91,-15.3 -4.19,-8.85 -13.29,-7.6 -22.93,-7.6 -17.57,0 -15.96,12.3 -15.96,21.52 0,6.25 -0,12.49 0,18.74 0.01,9.15 1.06,13.19 -6.94,13.19 -9.45,0 -0.34,-36.74 -5.4,-45.96 -3.57,-6.5 -8.4,-7.52 -18.2,-7.48l-102.72 0c-5.17,0.01 -8.18,0.69 -11.54,-1.65 -9.49,-6.62 -5.32,-21.95 6.68,-21.95l213.07 0c3.68,0 5.89,1.27 7.85,3.25 6.97,7.03 3.7,16.13 -3.16,19.48 -4.32,2.11 -13.39,0.46 -17.98,1.45 -12.85,2.79 -9.68,14.75 -10.57,17.88 -0.57,2.02 -3.08,4.43 -5.28,4.43zm-207.52 -35.4c0,10.29 3.61,12.73 7.63,18.74 -3,4.49 -7.63,6.91 -7.63,18.05 0,10.74 8.02,14.57 2.78,14.57 -3.99,0 -25.68,-15.84 -25.68,-37.48 0,-6.76 0.95,-10.73 3.68,-15.75 3.19,-5.86 7.08,-8.54 12.98,-8.54 2.87,0 6.48,0.5 8.33,1.39 -0.78,3.34 -2.08,4.35 -2.08,9.02zm-51.36 -34.01l58.3 0c0,6.37 -0.64,9.48 2.78,14.57 -13.53,-1.13 -18.3,-7.27 -31.24,2.77 -19.81,15.37 -17.9,53.79 11.93,74.14 3.33,2.27 7.93,5.57 13.06,5.68 -1.01,4.34 -2.54,7.79 -3.47,11.8l-55.52 0c7.94,-34.07 8.33,-36.36 8.33,-72.18 0,-7.76 -2.09,-32.46 -4.16,-36.78zm231.81 -54.83c0,6.25 10.3,10.51 13.88,-4.86 3.87,0.32 14.44,6.61 17.63,8.74 21.59,14.47 29.57,28.97 29.57,55.8 0,3.36 -1.97,6.25 -5.55,6.25l-213.07 0c-5.82,0 -4.16,-11.09 -4.16,-17.35 0,-11.79 6.46,-22.98 11.96,-29.69 19.53,-23.83 60.12,-35.56 90.07,-35.56 20.67,0 32.71,-0.34 52.89,4.72 2.88,0.72 8.11,1.88 10.27,2.92 -0.73,1.38 -3.47,7.33 -3.47,9.02zm-172.82 43.03l-61.08 0c0,-6.58 1.35,-10.6 3.26,-15.48 1.86,-4.75 3.78,-9.19 5.77,-13.66 4.59,-10.3 11.14,-21.15 17.76,-30.13 3.13,-4.25 3.68,-16.48 4.83,-24.32l3.46 -25.69c0.49,-3.34 1,-5.35 1,-8.72l58.3 0 6.9 49.32c1.33,9.82 1.34,6.79 5.59,13.15 -14.76,7.81 -17.44,9.51 -29.33,21.33 -6.73,6.69 -15.47,22.11 -16.47,34.19zm196.42 -95.08c0,2.77 7.07,11.61 12.49,-0.7 0.99,-2.24 2.93,-6.68 3.48,-9.02 5.33,1.42 12.49,11.14 12.49,20.13 0,8.72 -9.66,10.41 -16.66,10.41 -21.63,0 -37.48,-26.18 -26.11,-34.44 4.71,-3.42 14.52,-4.22 19.86,-1.65 -0.37,4.43 -5.55,11.96 -5.55,15.27zm-233.2 -40.95c0,-3.81 2.41,-6.94 6.25,-6.94l70.1 0c7.86,0 7.52,13.19 -0.69,13.19l-68.02 0c-4.98,0 -7.63,-3.15 -7.63,-6.25zm0.69 16.66l-6.8 49.42c-0.7,5.33 -5.65,10.85 -10,17.76 -6.15,9.76 -19.29,36.55 -19.29,47.34 0,15.41 2.35,16.38 4.22,32.56 3.26,28.2 2.52,44.69 -2.04,72.34 -1.04,6.31 -2.87,12.99 -4.7,18.9 -2.5,8.06 -3.89,8.11 -4.95,18.69 -0.79,7.86 6.94,41.17 19.65,50.77 4.09,3.09 10.9,6.63 17.66,6.63l239.45 0c20.74,0 39.18,-14.55 45.56,-33.56 2.81,-8.37 2.33,-14.07 2.33,-24.74 3.51,-1.86 5.26,-2.64 6.84,-6.35 2.66,-6.23 -0.36,-12.77 -3.17,-20.92 -1.69,-4.9 -2.69,-5.29 -5.06,-8.82 4.73,-7.07 8.33,-6.46 8.33,-20.13 0,-8.93 -5.54,-12.83 -7.63,-15.96 4.27,-6.37 12.64,-15.04 4.64,-29.63 -1.88,-3.43 -3.72,-5.14 -6.73,-7.16 0.81,-3.49 2.78,-4.56 2.78,-9.02 0,-16.99 -0.01,-30.85 -11.19,-45.72 -7.29,-9.7 -11.95,-14.35 -22.39,-21.33 -3.65,-2.44 -15.06,-9.04 -19.16,-9.99 0.46,-1.99 1.9,-5.28 2.78,-6.94 10.64,2.48 21.69,5.95 33.44,-3.35 10.96,-8.67 9.59,-23.35 1.69,-35.25 -3.07,-4.62 -8.12,-9.53 -12.92,-12.07 1.91,-3.97 7.63,-16.91 7.63,-20.82 0,-3.16 -6.58,-7.69 -10.42,-2.1l-6.93 17.36c-4.58,-0.1 -8.84,-2.08 -13.88,-2.08 -30.33,0 -37.59,33.62 -9.02,52.75 -0.59,2.55 -2.34,6.2 -3.47,8.33 -13.82,-6.63 -44.93,-9.02 -61.77,-9.02 -36.91,0 -59.37,10.79 -63.16,11.1 -0.95,-1.42 -2.55,-3.47 -3.35,-4.98 -1.44,-2.69 -5.15,-32.83 -5.73,-38 -0.52,-4.67 -2.02,-11.24 -2.02,-16.02 6.95,-3.68 11.8,-7.89 11.8,-17.35 0,-9.83 -8.22,-18.05 -18.05,-18.05l-68.71 0c-23.02,0 -23.01,31.49 -6.25,35.4z"/>
   <path class="fil0" d="M138.7 157.55c5.03,0 10.86,0.73 11.49,-5.75 0.68,-6.93 -8.35,-6.04 -12.88,-6.04 -7.47,0 -9.17,11.8 1.39,11.8z"/>
   <path class="fil0" d="M192.84 136.73c0,3.89 -0.01,7.63 9.02,7.63 14.86,0 9.23,-11.8 4.86,-11.8 -3.43,0 -13.88,-1.23 -13.88,4.16z"/>
   <path class="fil0" d="M192.84 113.82c0,9.64 14.77,6.26 16.52,4.72 4.62,-4.05 1.71,-10.27 -5.42,-10.27 -4.36,0 -11.1,-0.53 -11.1,5.55z"/>
   <path class="fil0" d="M221.99 121.46c0,8.74 18.74,8.55 18.74,0.69 0,-7.38 -6.59,-6.25 -12.49,-6.25 -3.09,0 -6.25,2.81 -6.25,5.55z"/>
   <path class="fil0" d="M161.61 121.46c0,8.74 18.74,8.55 18.74,0.69 0,-7.38 -6.59,-6.25 -12.49,-6.25 -3.09,0 -6.25,2.81 -6.25,5.55z"/>
   <path class="fil0" d="M221.99 138.12c0,8.52 18.74,8.62 18.74,0.69 0,-7.28 -5.64,-6.25 -12.49,-6.25 -3.09,0 -6.25,2.81 -6.25,5.55z"/>
   <path class="fil0" d="M161.61 138.12c0,9.07 18.74,7.7 18.74,1.39 0,-8.04 -5.41,-6.94 -12.49,-6.94 -3.09,0 -6.25,2.81 -6.25,5.55z"/>
   <path class="fil0" d="M131.07 127.7c0,7.16 10.2,5.55 14.57,5.55 5.8,0 5.8,-11.1 0,-11.1 -4.54,0 -14.57,-1.74 -14.57,5.55z"/>
   <path class="fil0" d="M161.61 154.77c0,6.87 7.16,5.55 13.19,5.55 7.87,0 6.57,-11.1 1.39,-11.1 -6.96,0 -14.57,-1.48 -14.57,5.55z"/>
   <path class="fil0" d="M221.99 154.77c0,6.97 8.8,5.55 13.19,5.55 8.17,0 6.38,-11.1 1.39,-11.1 -5.5,0 -14.57,-1.8 -14.57,5.55z"/>
   <path class="fil0" d="M251.83 151.3c0,9.35 18.74,7.87 18.74,0.69 0,-8.74 -18.74,-8.55 -18.74,-0.69z"/>
   <path class="fil0" d="M192.84 160.32c0,8.31 3.65,6.94 13.19,6.94 7.29,0 7.29,-11.1 0,-11.1 -3.34,0 -13.19,-1.39 -13.19,4.16z"/>
   <path class="fil0" d="M251.83 127.7c0,6.87 7.16,5.55 13.19,5.55 7.45,0 7.45,-11.1 0,-11.1 -6.03,0 -13.19,-1.32 -13.19,5.55z"/>
  </g>
 </g>
</svg>
