<?xml version="1.0" encoding="UTF-8"?>
<!DOCTYPE svg PUBLIC "-//W3C//DTD SVG 1.1//EN" "http://www.w3.org/Graphics/SVG/1.1/DTD/svg11.dtd">
<!-- Creator: CorelDRAW -->
<svg xmlns="http://www.w3.org/2000/svg" xml:space="preserve" width="135.45mm" height="103.14mm" version="1.1" style="shape-rendering:geometricPrecision; text-rendering:geometricPrecision; image-rendering:optimizeQuality; fill-rule:evenodd; clip-rule:evenodd"
viewBox="0 0 377.98 287.82"
 xmlns:xlink="http://www.w3.org/1999/xlink"
 xmlns:xodm="http://www.corel.com/coreldraw/odm/2003">
 <defs>
  <style type="text/css">
   <![CDATA[
    .fil0 {fill:#F5A001}
   ]]>
  </style>
 </defs>
 <g id="Camada_x0020_1">
  <metadata id="CorelCorpID_0Corel-Layer"/>
  <g id="_1823735315136">
   <path class="fil0" d="M13.29 247.21l351.4 0c6.62,0 -2.48,28.79 -25.84,28.79l-299.73 0c-12.59,0 -22.75,-8.37 -26.15,-18.14 -0.87,-2.49 -3.72,-10.65 0.32,-10.65zm-13.29 5.53l0 -5.99c0.58,-3.74 2.38,-6.98 5.89,-9.15 6.18,-3.81 33.31,-2.2 41.36,-2.2 -0.15,-0.1 -0.37,-0.21 -0.47,-0.27 -0.1,-0.05 -0.35,-0.2 -0.47,-0.27l-2.48 -1.21c-7.23,-3.3 -14.62,-6.41 -21.55,-10.94 -23.91,-15.62 -18.26,-21.14 -8.51,-41.46 1.15,-2.39 2.12,-4.22 3.21,-6.39l32.73 -65.46c1.49,-2.98 4.62,-11.32 7.87,-11.32 6.39,0 8.71,3.31 6.21,8.37 -4.6,9.29 -29.56,58.16 -30.57,62.5 1.87,2.8 11.28,8.54 14.76,10.35 28.89,15.01 63.99,19.21 96.67,12.49 3.76,-0.77 7.69,-1.88 11.22,-2.87 2.79,-0.78 8.02,0.25 8.02,4.4 0,5.9 -3.94,6.55 -9.15,7.83 -29.4,7.2 -62.01,7.24 -90.25,-2.18 -7.12,-2.38 -13.33,-5.19 -19.7,-8.35 -3.37,-1.67 -5.85,-3.1 -8.91,-5.11 -2.67,-1.75 -5.65,-4.7 -8.55,-5.47 -1.76,3.33 -10.34,19.1 -10.34,22.15 0,7.15 31.09,21.48 40.17,24.05 15.53,4.39 35.02,9.17 54.32,9.17 28.88,0 58.17,-6 81.44,-18.96 3.72,-2.07 6.51,-3.89 9.79,-6.45 2.15,-1.68 7.69,-4.66 7.69,-7.81 0,-2.62 -9.24,-17.43 -10.34,-22.15 -6.74,1.8 -14.54,11.81 -22.15,11.81 -2.91,0 -5.46,-4.3 -4.81,-6.94 0.83,-3.34 3.55,-4.23 6.14,-5.76l14.91 -9.45c-1,-4.31 -7.36,-16.2 -9.6,-20.67l-19.69 -39.37c-3.41,-6.82 -6.17,-13.09 -9.6,-19.93 -6.79,-13.58 -13.14,-26.28 -19.93,-39.87 -1.79,-3.58 -3.13,-6.26 -4.92,-9.84 -2.18,-4.35 -11.73,-28.3 -16,-28.3 -5.25,0 -8.82,11 -12.55,18.46l-20.67 41.34c-3.32,6.64 -6.87,17.72 -12.55,17.72 -4.94,0 -6.59,-4.49 -4.93,-8.56 4.57,-11.16 28.63,-57.1 34.95,-69.95 2.03,-4.13 3.08,-6.2 7.1,-8.4 3.31,-1.81 7.68,-2.89 11.63,-1.74 9.43,2.72 10.25,8.14 14.24,16.06l15.01 30.02c1.52,3.04 3.01,7.59 5.41,9.35 1.13,-4.87 5.15,-11.79 7.38,-16.24 2.65,-5.29 5.13,-10.25 7.87,-15.75 4.76,-9.52 8.68,-24.5 22.34,-24.01 6.67,0.24 11.66,4.7 14.1,9.47 2.65,5.19 20.66,44.38 23.6,46.53 0.83,-3.57 5.69,-12.13 7.63,-16 2.89,-5.78 12.58,-26.81 15.68,-31.57 7.27,-11.17 22.11,-11.23 28.38,1.04l38.38 77.53c2.53,5.07 14.76,26.8 14.76,31.01 0,5.64 -4.98,8.99 -9.4,4.97 -2.89,-2.63 -25.23,-50.59 -27.27,-54.67 -7.6,-15.2 -19.2,-36.4 -25.76,-51.76 -4.82,-11.28 -9.8,-1.41 -12.88,4.76l-22.47 45.52c-1.48,3.03 -1,2.99 0.53,5.91 4.85,9.23 9.92,18.45 14.03,28.09 8.17,19.13 23.27,47.1 33.49,68.39 3.68,7.67 7.46,15.32 11.33,22.63 11.17,-0.25 45.04,-14.07 50.94,-22.89 -0.81,-3.46 -5.28,-11.31 -7.14,-15.01 -1.09,-2.19 -6.89,-13.68 -6.89,-15.26 0,-3.04 2.87,-5.91 5.91,-5.91 4.92,0 9.13,11.61 11.07,15.5l17.73 35.42c1.49,3.02 2.53,5.88 4.17,9.12 1.44,2.85 3.2,5.49 3.2,9.35 0,14.22 -27.44,26.58 -39.26,31.61 -1.14,0.49 -0.65,0.24 -1.51,0.7 -0.98,0.53 -0.73,0.4 -1.31,0.91 9.85,0 19.7,0.03 29.55,-0.02 7.32,-0.03 17.7,2.28 17.7,11.09 0,26.13 -17.54,41.34 -43.56,41.34l-290.87 0c-13.85,0 -23.02,-3.56 -30.45,-10.15 -5.54,-4.91 -11.88,-15.49 -13.11,-24.92zm255.43 -17.34c0.58,-0.5 0.33,-0.37 1.31,-0.91 0.86,-0.47 0.37,-0.22 1.51,-0.7 12.75,-5.42 21.58,-9.7 32.06,-18.88 4.28,-3.75 5.74,-5.73 7.2,-11.99 12.93,-1.08 36.15,-11.82 47.26,-19.18 1.75,-1.16 3.88,-3.16 5.9,-3.7 1.76,3.33 10.34,19.1 10.34,22.15 0,4.09 -15.37,13.24 -19.44,15.26 -28.21,13.99 -54.02,17.96 -86.13,17.96zm-76.04 0l12.8 -5.65c12.03,-6.06 12.71,-6.97 22.75,-14.9 2.46,-1.94 4.85,-4.99 5.97,-8.06 1,-2.74 -0.24,-1.98 1.66,-3.51 0.55,-0.45 12.43,-3.51 14.31,-4.14 13.32,-4.48 21,-8.06 32.54,-15.45 2.06,-1.32 3.22,-2.93 5.94,-3.65 1.03,1.95 1.43,3.45 2.46,5.66 8.4,18.12 12.19,15.43 -0.55,25.04 -25.42,19.19 -66.25,24.67 -97.88,24.67zm10.34 -223.69c3.44,0 9.02,13.61 11.32,18.21l58.57 118.61c2.29,4.59 8.9,16.36 9.84,20.42 -5.09,7.61 -39.24,22.62 -50.94,22.89 -10.01,-18.93 -18.74,-38.27 -28.05,-56.85 -6.16,-12.28 -24.5,-47.71 -28.16,-56.74 -1.55,-3.83 -5.17,-7.8 -3.43,-11.67l22.72 -45.28c1.86,-3.71 3.19,-9.6 8.12,-9.6z"/>
   <path class="fil0" d="M71.61 155.67c0,3.79 -0.6,6.13 3.13,9.42 6.94,6.13 16.8,-0.45 16.8,-7.21 0,-13.66 -19.93,-12.93 -19.93,-2.21z"/>
   <path class="fil0" d="M284.22 105.47c16.61,0 13.61,-19.93 1.48,-19.93 -13.43,0 -12.48,19.93 -1.48,19.93z"/>
   <path class="fil0" d="M191.21 86.28c5.23,0 9.2,-4.2 9.92,-9.23 1.94,-13.51 -20.57,-14.96 -20.03,-0.44 0.18,4.8 4.78,9.67 10.11,9.67z"/>
   <path class="fil0" d="M101.14 81.11c0,13.65 19.93,13.28 19.93,0 0,-12.63 -19.93,-13.54 -19.93,0z"/>
   <path class="fil0" d="M249.53 71.51c0,16.23 19.93,12.77 19.93,1.48 0,-14.13 -19.93,-12.91 -19.93,-1.48z"/>
   <path class="fil0" d="M128.45 129.1c0,12.07 19.93,15.45 19.93,-1.48 0,-5.08 -5.77,-8.65 -10.24,-8.42 -5.33,0.27 -9.69,4.43 -9.69,9.9z"/>
   <path class="fil0" d="M210.4 137.22c0,5.99 3.62,9.96 9.16,10.59 9.4,1.08 14.23,-10.53 8.06,-16.74 -8.08,-8.14 -17.22,0.18 -17.22,6.15z"/>
   <path class="fil0" d="M293.08 149.77c0,12.2 19.93,15.62 19.93,-0.74 0,-12.44 -19.93,-10.95 -19.93,0.74z"/>
  </g>
 </g>
</svg>
