<?xml version="1.0" encoding="UTF-8"?>
<!DOCTYPE svg PUBLIC "-//W3C//DTD SVG 1.1//EN" "http://www.w3.org/Graphics/SVG/1.1/DTD/svg11.dtd">
<!-- Creator: CorelDRAW -->
<svg xmlns="http://www.w3.org/2000/svg" xml:space="preserve" width="120.077mm" height="121.581mm" version="1.1" style="shape-rendering:geometricPrecision; text-rendering:geometricPrecision; image-rendering:optimizeQuality; fill-rule:evenodd; clip-rule:evenodd"
viewBox="0 0 319.19 323.19"
 xmlns:xlink="http://www.w3.org/1999/xlink"
 xmlns:xodm="http://www.corel.com/coreldraw/odm/2003">
 <defs>
  <style type="text/css">
   <![CDATA[
    .fil0 {fill:#F5A001}
   ]]>
  </style>
 </defs>
 <g id="Camada_x0020_1">
  <metadata id="CorelCorpID_0Corel-Layer"/>
  <path class="fil0" d="M67.83 62.92c4.26,0 15.64,-4.22 24.81,-5.73 45.48,-7.49 100.04,2.93 126.28,36.64 16.01,20.56 18.06,44.84 2.64,66.19 -9.26,12.81 -16.59,15.32 -19.9,21.46 -3.18,5.88 -2.1,16.6 -2.1,25.26l-0.15 102.3c-0.33,1.26 -1.84,3.33 -3.67,3.33l-148.27 0c-7.07,0 -5.09,-12.48 -5.09,-21.64l0 -81.45c0,-6.57 1.05,-21.22 -0.68,-26.05l-2.88 -4.76c-0.84,-0.92 -0.36,-0.4 -0.95,-0.96 -8.49,-8.05 -13.54,-10.47 -21.15,-24.03 -8.31,-14.81 -8.15,-33.07 -0.64,-48.15 3.09,-6.21 8.05,-13.08 12.86,-17.69l1.26 -1.29c1.31,-1.27 2,-1.56 3.44,-2.93 11.07,-10.52 22.11,-11.37 22.11,-18.61 0,-2.1 -2.96,-4.45 -5.09,-4.45 -3.02,0 -12.45,6.45 -15.92,8.9l-5.08 3.82c0,-18.77 11.54,-28.51 26.26,-34.19 17.59,-6.78 31.32,-0.53 40.44,-3.46 12.44,-3.99 12.67,-13.97 29.1,-20.53 17.09,-6.83 37.75,-5.47 52.98,4.85l7.93 7.34c8.53,10.41 18.91,7.47 29.01,8.53 20.13,2.13 35.74,20.48 31.44,42.1 -5.62,28.23 17,27.3 17,56.46 0,8.28 -2.97,15.85 -6.53,20.83 -2.24,3.13 -4.08,4.43 -6,8 -10.81,20.19 15.88,32.18 -8.28,61.72 -13.92,17.02 4.28,30.13 -12.27,55.18 -4.7,7.11 -10.79,11.76 -20.37,13.99 0,-32.88 0.04,-65.76 0,-98.64 -0.02,-12.58 0.01,-7.89 8.12,-16.07 4.6,-4.64 7.77,-7.77 11.71,-13.1 5.99,-8.1 12.63,-23.1 12.63,-37.01 0,-21.77 -11.43,-38.4 -22.43,-49.48 -5,-5.04 -14.36,-11.71 -20.33,-15.31 -18.54,-11.19 -48.01,-20.03 -69.89,-19.83 -3.94,0.04 -4.9,-0.57 -8.26,-0.68 -4.03,-0.14 -5.16,0.66 -8.89,0.7 -11.21,0.11 -36.26,3.9 -45.76,8.33 -6.34,2.96 -2.97,10.1 0.55,10.1zm7.64 -38.18c-13.07,0 -26.57,4.63 -34.63,9.92 -9,5.91 -16.19,13.45 -19.87,24.68 -2.5,7.65 -0.95,12.02 -1.46,20.82 -0.18,3.22 -1.19,3.62 -4.01,6.81 -21.72,24.63 -20.01,60.86 1.26,84.93l11.71 11.2c1.28,1 2.94,2.36 3.47,4.16 0.72,2.44 0.25,84.74 0.25,91.39 0,9.36 -0.69,21.53 0.01,30.54 0.61,7.92 7.82,14.01 16.54,14.01l145.09 0c12.21,0 16.54,-8.44 16.54,-19.09 20.24,0 38.18,-24.12 38.18,-49 0,-17.19 -3.41,-16.4 5.93,-27.79 17.85,-21.77 4.89,-47.06 4.89,-51.75 0,-9.81 2.66,-8.22 9.05,-18.32 9.19,-14.52 6.53,-35.35 -1.83,-50.63 -7.49,-13.7 -12.33,-11.61 -9.3,-27.31 2.32,-12.03 0.11,-22.17 -5.99,-32.49 -1.53,-2.6 -2.66,-3.49 -4.02,-5.52 9.21,0.77 31.76,13.52 39.94,21.79 10.54,10.67 21.15,24.73 21.15,41.21 0,16.39 -2.14,26.12 -11.99,39.55 -1.06,1.45 -1.83,2.57 -3.11,3.89 -4.73,4.85 -0.81,1.62 -7.32,7.31 -4.43,3.88 -6.82,7.96 -6.87,14.76l0.03 101.85c0.05,12.06 -0.85,10.21 -19.09,10.18 -7.82,-0.01 -10.82,-1.01 -10.82,6.36 0,1.53 2.29,3.82 3.82,3.82l22.91 0c7.41,0 13.22,-7.36 13.93,-14.07 1.47,-13.85 -1.65,-108.51 0.78,-112.49 2.32,-3.8 28.56,-20.91 28.56,-57.99 0,-28.41 -19.81,-50.72 -40.6,-63.76 -7.4,-4.64 -15.26,-8.05 -23.76,-11.24 -10.66,-4 -31.62,-7.79 -43.8,-7.74 -7.51,0.03 -10.54,0.87 -14.81,-3 -6.54,-5.93 -9.72,-10.58 -19.77,-15.23 -3.52,-1.63 -9.05,-3.66 -12.67,-4.51 -12.84,-3.01 -25,-2.61 -37.16,1.35 -20.77,6.77 -25.45,17.56 -29.51,20.13 -6.97,4.4 -12.36,1.28 -21.63,1.28z"/>
 </g>
</svg>
