<?xml version="1.0" encoding="UTF-8"?>
<!DOCTYPE svg PUBLIC "-//W3C//DTD SVG 1.1//EN" "http://www.w3.org/Graphics/SVG/1.1/DTD/svg11.dtd">
<!-- Creator: CorelDRAW -->
<svg xmlns="http://www.w3.org/2000/svg" xml:space="preserve" width="115.684mm" height="115.512mm" version="1.1" style="shape-rendering:geometricPrecision; text-rendering:geometricPrecision; image-rendering:optimizeQuality; fill-rule:evenodd; clip-rule:evenodd"
viewBox="0 0 275.68 275.27"
 xmlns:xlink="http://www.w3.org/1999/xlink"
 xmlns:xodm="http://www.corel.com/coreldraw/odm/2003">
 <defs>
  <style type="text/css">
   <![CDATA[
    .fil0 {fill:#F5A001}
   ]]>
  </style>
 </defs>
 <g id="Camada_x0020_1">
  <metadata id="CorelCorpID_0Corel-Layer"/>
  <g id="_1822905564240">
   <path class="fil0" d="M40.06 223.1c0,-9.34 1.29,-14.13 7.88,-20.79 4.68,-4.72 10.06,-7.31 18.49,-7.31 8.71,0 23.89,9.75 32.69,14.33 1.48,0.77 2.06,1.28 3.62,2.11 3.84,2.06 7.23,3.28 10.39,7.39 2.17,2.81 2.99,3.44 4.43,7.04 4.26,10.68 2.04,20.5 -5.31,28.13 -2.22,2.3 -4.6,4.29 -7.63,5.56 -16.68,7 -26.97,-3.24 -43.14,-11.44 -4.66,-2.36 -10.54,-5.24 -14.12,-8.81 -3.36,-3.35 -7.29,-9.77 -7.29,-16.21zm-9.75 -2.29c0,14.5 8.45,26.25 19.3,31.72l13.38 7.26c1.9,0.94 5.07,3.01 6.88,3.44 -1.1,1.5 -1.84,1.26 -4.04,1.7 -13.02,2.58 -27.56,-1.04 -37.41,-8.41 -18.13,-13.56 -23.79,-38.08 -13.22,-58.85 1.31,-2.57 4.69,-8.75 7.66,-9.54 0.36,1.36 2.93,6.02 3.83,7.64 11.33,20.24 3.62,6.19 3.62,25.04zm-3.44 -51.02c0,-15.17 12.39,-26.37 23.5,-26.37 8.68,0 13.22,0.6 20.21,6.74 4.29,3.77 11.67,18.86 14.75,24.8 3.02,5.79 8.03,12.21 8.03,20.63 -13.39,-7.08 -24.94,-15.47 -43.21,-6.52 -2.04,1 -4.25,2.46 -5.92,3.82 -2.48,2.01 -4.13,2.65 -4.76,4.99l-1.15 0c-1.5,-6.46 -11.47,-16.68 -11.47,-28.09zm67.65 1.15c10.11,-2.35 14.93,-3.18 25.41,2.68 2.09,1.17 3.43,2 5.55,3.05l17.53 9.42c7.87,4.69 13.65,9.32 15.19,20.36 1.37,9.8 -2.59,18.7 -10.1,24.38 -6.79,5.14 -11.42,4.9 -19.18,4.9 0,-19.75 -11.81,-27.57 -25.8,-34.97 0,-21.02 -7.71,-22.87 -8.6,-29.81zm33.25 -22.36c7.52,-5.03 9.55,-5.16 18.34,-5.16 5.98,0 12.15,4 16.08,6.28 4.75,2.76 9.7,4.91 14.55,7.81 2.49,1.49 4.67,2.31 7.11,3.78 10.35,6.23 13.29,12.89 13.29,25.12 0,3.05 -1.35,7.4 -2.52,9.51 -6.18,11.11 -13.91,13.99 -26.71,13.99 0,-12.39 -6.22,-22.71 -13.75,-28.1 -4.07,-2.91 -8.21,-4.69 -12.81,-7.26 -2.5,-1.4 -11.5,-6.58 -13.57,-7.06 1.61,-3.35 1.61,-15.57 0,-18.92zm-75.1 -17.2c0,-7.61 2.92,-14.56 6.72,-18.5 13.48,-13.93 34.73,-9.77 42.2,5.12l12.22 22.76c3.49,6.89 7.55,12.18 5.36,21.58 -4.38,-0.36 -10.01,-4.76 -22.5,-1.86 -2.92,0.68 -4.9,1.87 -7.31,2.43 -0.52,-2.23 -1.5,-3.53 -2.62,-5.4 -4.05,-6.75 -2.08,-6.57 -10.12,-14.53 -5.14,-5.09 -13.85,-9.3 -23.95,-9.3l0 -2.29zm100.9 -21.79c8.15,-4.31 7.43,-5.16 18.34,-5.16 6.36,0 24.71,10.41 31.51,14.36 8.78,5.1 20.09,10.54 20.09,26.34 0,9.97 -6.75,20.06 -15.3,23.69 -1.56,0.66 -2.83,0.88 -4.2,1.54 -0.68,-1.43 -0.68,-2.07 -1.59,-3.57 -2.37,-3.91 -4.12,-5.99 -7.42,-9.2 -4.8,-4.67 -21.41,-12.19 -28.01,-16.14 -3.34,-2 -11.27,-6.54 -15.72,-6.64 2.92,-5.51 5.65,-18.23 2.29,-25.22zm-50.45 -44.14c18.61,0 21.74,9.92 27.98,20.18 2.93,4.81 5.1,10.11 8.03,14.91 6.31,10.36 9.25,20.29 3.02,31.47 -2.07,3.72 -3.52,1.11 -11.36,4.12 -2.47,0.95 -5.3,2.83 -7.03,3.29 -0.72,-2.71 -4.28,-8.08 -5.74,-10.88l-3.82 -7.08c-2.39,-4.45 -2.82,-6.04 -6.14,-11.06 -5.33,-8.04 -15.95,-15.7 -29.02,-15.7 -0.7,-8.4 0.51,-13.18 5.72,-20.08 3.17,-4.2 11.04,-9.16 18.36,-9.16zm81.98 1.72c4.31,-0.36 2.63,-1.72 11.47,-1.72 8.33,0 14.91,5.06 20.63,8.03 16.11,8.38 32.11,14.01 32.11,33.25 0,12.41 -9.46,22.31 -19.49,24.65 -2.78,-11.92 -20.57,-20.4 -30.95,-25.81 -1.89,-0.98 -3.86,-1.86 -5.74,-2.86 0,-7.34 2.53,-8.12 -0.68,-19.96l-7.35 -15.58zm-43.57 -27.52c22.04,0 23.84,13.02 33.01,28.33 5.07,8.47 9.99,16.94 9.99,27.85 0,1.88 -1.01,1.74 -2.4,1.39 -7.92,-1.98 -12.12,-4.37 -23.34,-0.76 -3.3,1.06 -6.32,3.28 -9.23,3.96 -0.48,-2.07 -10.54,-19.98 -12.41,-23.7 -4.66,-9.25 -9.63,-13.43 -18.54,-18.15 1.26,-5.4 4.23,-9.51 7.89,-12.75 3.29,-2.92 9.11,-6.17 15.05,-6.17zm81.98 26.37c-12.64,-6.69 -25.49,-15.28 -43,-6.88 -1.45,-2.74 -2.77,-4.95 -4.2,-7.84 -2.75,-5.56 -6.03,-10.17 -10.87,-13.78 -5.17,-3.86 -2.7,-2.02 -7.86,-4.75 4.78,-20.51 36.11,-29.53 49.49,-2.48 1.12,2.26 1.94,3.27 3.07,5.53l11.73 22.66c0.75,2.23 1.05,5.02 1.64,7.54zm-18.35 -54.46c2.3,-0.19 4.05,-0.95 6.62,-1.4 15.41,-2.71 30.05,2.23 40.53,12.72 4.54,4.55 6.61,7.25 9.61,13.32 5.75,11.65 5.77,26.16 0.74,38.02 -1.75,4.13 -6.14,11.43 -9.35,13.58 -1.61,-6.02 -15.52,-15.26 -20.64,-16.63 0,-8.63 -0.17,-12.33 -2.87,-18.34 -2.18,-4.86 -4.99,-9.62 -7.44,-14.34 -1.2,-2.32 -2.32,-4.05 -3.63,-6.69 -2.17,-4.35 -8.99,-17.88 -13.58,-19.1l0 -1.15zm-10.89 -5.73c-3.98,0 -17.16,-7.14 -34.74,6.54 -3.9,3.04 -10.63,12.18 -11.13,18.11 -7.95,-3.82 -33.86,3.8 -38.98,25.8 -2.36,-0.2 -1.28,-0.57 -3.44,-0.57 -16.01,0 -28.9,8.82 -34.58,23.32 -2.2,5.63 -2.11,9.83 -2.11,17.38 -4.01,0.33 -8.34,2.99 -11.14,4.92 -5.93,4.1 -11.5,11.64 -13.41,18.69 -1.47,5.42 -1.25,8.11 -1.25,14.8 -5.84,2.8 -12.14,3.93 -18.03,11.79 -6.03,8.05 -9.28,16.22 -7.57,28.2 0.82,5.76 -1.54,3.58 -8.11,13.44 -26.89,40.33 6.32,87.03 42.88,87.03 9.27,0 14.19,0.24 23.1,-3.27 12.07,-4.75 1.84,-0.75 21.04,-0.75 7.16,0 14.71,-4.28 19.83,-8.26 4.49,-3.5 9.66,-11.25 11.13,-17.54 12.83,0 18.24,-1.45 25.81,-6.87 5.59,-4 11.36,-11.7 13.18,-19.5 4.01,1.92 13.99,-0.6 17.13,-1.79 9.37,-3.58 16.8,-10.76 20.55,-20.15 2.45,-6.12 2.45,-9.96 2.45,-18.19 10.07,-0.84 21.24,-12.85 24.53,-23.62 1.45,-4.74 1.26,-8.78 1.26,-14.79 3.1,-1.49 6.22,-1.92 10.57,-4.91 6.34,-4.37 11.36,-10.82 13.83,-18.28 1.09,-3.31 2.31,-9.77 1.67,-13.75 -1.42,-8.87 -0.96,-5.32 3.42,-10.96 9.56,-12.3 13.51,-20.92 13.51,-38.66 0,-10.6 -4.38,-22.4 -9.98,-30.15 -5.59,-7.73 -13.26,-14.87 -22.2,-18.5 -12.56,-5.1 -24.9,-7.22 -38.67,-3.29 -1.68,0.48 -10.48,3.78 -10.55,3.78z"/>
   <path class="fil0" d="M225.23 23.02c0,3.05 6.12,9.17 9.17,9.17 2.77,0 4.59,-1.81 4.59,-4.59 0,-2.82 -2.03,-4.04 -3.58,-5.59 -1.55,-1.55 -2.78,-3.58 -5.59,-3.58 -2.77,0 -4.59,1.81 -4.59,4.59z"/>
   <path class="fil0" d="M96.81 78.06c0,2.82 2.03,4.04 3.58,5.59 1.55,1.55 2.78,3.58 5.59,3.58 2.77,0 4.59,-1.81 4.59,-4.59 0,-3.05 -6.12,-9.17 -9.17,-9.17 -2.77,0 -4.59,1.81 -4.59,4.59z"/>
   <path class="fil0" d="M220.65 100.99c0,3.05 6.12,9.17 9.17,9.17 2.77,0 4.59,-1.81 4.59,-4.59 0,-2.82 -2.03,-4.04 -3.58,-5.59 -1.55,-1.55 -2.78,-3.58 -5.59,-3.58 -2.77,0 -4.59,1.81 -4.59,4.59z"/>
   <path class="fil0" d="M46.36 151.44c0,2.82 2.03,4.04 3.58,5.59 1.55,1.55 2.78,3.58 5.59,3.58 2.77,0 4.59,-1.81 4.59,-4.59 0,-3.05 -6.12,-9.17 -9.17,-9.17 -2.77,0 -4.59,1.81 -4.59,4.59z"/>
   <path class="fil0" d="M18.85 238.58c0,3.05 6.12,9.17 9.17,9.17 2.77,0 4.59,-1.81 4.59,-4.59 0,-3.05 -6.12,-9.17 -9.17,-9.17 -2.77,0 -4.59,1.81 -4.59,4.59z"/>
   <path class="fil0" d="M151.85 78.06c0,3.05 6.12,9.17 9.17,9.17 2.77,0 4.59,-1.81 4.59,-4.59 0,-3.05 -6.12,-9.17 -9.17,-9.17 -2.77,0 -4.58,1.81 -4.58,4.59z"/>
   <path class="fil0" d="M92.23 151.44c0,2.77 1.81,4.59 4.58,4.59 3.05,0 9.17,-6.12 9.17,-9.17 0,-2.77 -1.81,-4.59 -4.59,-4.59 -3.05,0 -9.17,6.12 -9.17,9.17z"/>
   <path class="fil0" d="M202.3 82.64c0,3.77 -0.87,9.17 4.59,9.17 5.45,0 4.59,-5.4 4.59,-9.17 0,-6.15 -9.17,-6.15 -9.17,0z"/>
   <path class="fil0" d="M193.13 142.27c0,5.45 5.4,4.59 9.17,4.59 6.15,0 6.15,-9.17 0,-9.17 -3.77,0 -9.17,-0.87 -9.17,4.59z"/>
   <path class="fil0" d="M138.09 156.02c0,3.77 -0.87,9.17 4.59,9.17 5.45,0 4.59,-5.4 4.59,-9.17 0,-6.15 -9.17,-6.15 -9.17,0z"/>
   <path class="fil0" d="M161.02 169.78c0,5.45 5.4,4.59 9.17,4.59 6.15,0 6.15,-9.17 0,-9.17 -3.77,0 -9.17,-0.87 -9.17,4.59z"/>
   <path class="fil0" d="M128.92 197.3c0,3.77 -0.87,9.17 4.59,9.17 5.45,0 4.59,-5.4 4.59,-9.17 0,-6.15 -9.17,-6.15 -9.17,0z"/>
   <path class="fil0" d="M133.51 220.23c0,5.45 5.4,4.59 9.17,4.59 6.15,0 6.15,-9.17 0,-9.17 -3.77,0 -9.17,-0.86 -9.17,4.59z"/>
   <path class="fil0" d="M50.95 233.99c0,5.45 5.4,4.59 9.17,4.59 6.15,0 6.15,-9.17 0,-9.17 -3.77,0 -9.17,-0.87 -9.17,4.59z"/>
   <path class="fil0" d="M37.19 256.92c0,5.45 5.4,4.59 9.17,4.59 6.15,0 6.15,-9.17 0,-9.17 -3.77,0 -9.17,-0.87 -9.17,4.59z"/>
   <path class="fil0" d="M248.16 41.37c0,3.77 -0.87,9.17 4.59,9.17 5.45,0 4.59,-5.4 4.59,-9.17 0,-6.15 -9.17,-6.15 -9.17,0z"/>
   <path class="fil0" d="M138.09 55.13c0,5.45 5.4,4.59 9.17,4.59 6.15,0 6.15,-9.17 0,-9.17 -3.77,0 -9.17,-0.87 -9.17,4.59z"/>
   <path class="fil0" d="M87.64 224.82c0,5.45 5.4,4.59 9.17,4.59 6.16,0 6.16,-9.17 0,-9.17 -3.77,0 -9.17,-0.87 -9.17,4.59z"/>
   <path class="fil0" d="M183.95 32.19c0,3.77 -0.87,9.17 4.59,9.17 5.45,0 4.59,-5.4 4.59,-9.17 0,-6.16 -9.17,-6.16 -9.17,0z"/>
   <path class="fil0" d="M170.2 119.33c0,3.77 -0.87,9.17 4.59,9.17 5.45,0 4.59,-5.4 4.59,-9.17 0,-6.16 -9.17,-6.16 -9.17,0z"/>
   <path class="fil0" d="M14.26 211.06c0,3.77 -0.87,9.17 4.59,9.17 5.45,0 4.59,-5.4 4.59,-9.17 0,-6.16 -9.17,-6.16 -9.17,0z"/>
   <path class="fil0" d="M32.61 174.37c0,5.45 5.4,4.59 9.17,4.59 6.15,0 6.15,-9.17 0,-9.17 -3.77,0 -9.17,-0.87 -9.17,4.59z"/>
   <path class="fil0" d="M60.12 174.37c0,5.45 5.4,4.59 9.17,4.59 6.15,0 6.15,-9.17 0,-9.17 -3.77,0 -9.17,-0.87 -9.17,4.59z"/>
   <path class="fil0" d="M119.75 114.75c0,5.45 5.4,4.59 9.17,4.59 6.15,0 6.15,-9.17 0,-9.17 -3.77,0 -9.17,-0.87 -9.17,4.59z"/>
   <path class="fil0" d="M87.64 128.51c0,3.77 -0.87,9.17 4.59,9.17 5.45,0 4.58,-5.4 4.58,-9.17 0,-6.15 -9.17,-6.15 -9.17,0z"/>
   <path class="fil0" d="M105.99 183.54c0,5.45 5.4,4.59 9.17,4.59 6.15,0 6.15,-9.17 0,-9.17 -3.77,0 -9.17,-0.87 -9.17,4.59z"/>
   <path class="fil0" d="M174.78 192.72c0,3.77 -0.87,9.17 4.59,9.17 5.45,0 4.59,-5.4 4.59,-9.17 0,-6.15 -9.17,-6.15 -9.17,0z"/>
   <path class="fil0" d="M87.64 247.75c0,3.77 -0.87,9.17 4.59,9.17 5.45,0 4.58,-5.4 4.58,-9.17 0,-6.15 -9.17,-6.15 -9.17,0z"/>
   <path class="fil0" d="M238.99 64.3c0,5.45 5.4,4.58 9.17,4.58 6.15,0 6.15,-9.17 0,-9.17 -3.77,0 -9.17,-0.87 -9.17,4.59z"/>
   <path class="fil0" d="M64.71 119.33c0,5.45 5.4,4.58 9.17,4.58 6.15,0 6.15,-9.17 0,-9.17 -3.77,0 -9.17,-0.87 -9.17,4.59z"/>
   <path class="fil0" d="M60.12 206.48c0,3.77 -0.87,9.17 4.59,9.17 5.45,0 4.59,-5.4 4.59,-9.17 0,-6.15 -9.17,-6.15 -9.17,0z"/>
  </g>
 </g>
</svg>
