<?xml version="1.0" encoding="UTF-8"?>
<!DOCTYPE svg PUBLIC "-//W3C//DTD SVG 1.1//EN" "http://www.w3.org/Graphics/SVG/1.1/DTD/svg11.dtd">
<!-- Creator: CorelDRAW -->
<svg xmlns="http://www.w3.org/2000/svg" xml:space="preserve" width="112.239mm" height="109.037mm" version="1.1" style="shape-rendering:geometricPrecision; text-rendering:geometricPrecision; image-rendering:optimizeQuality; fill-rule:evenodd; clip-rule:evenodd"
viewBox="0 0 242.49 235.57"
 xmlns:xlink="http://www.w3.org/1999/xlink"
 xmlns:xodm="http://www.corel.com/coreldraw/odm/2003">
 <defs>
  <style type="text/css">
   <![CDATA[
    .fil0 {fill:#F5A001}
   ]]>
  </style>
 </defs>
 <g id="Camada_x0020_1">
  <metadata id="CorelCorpID_0Corel-Layer"/>
  <g id="_1823735308800">
   <path class="fil0" d="M61.22 197.84c2.27,1.52 3.79,3.25 6.05,4.81 5.24,3.61 16.42,10.69 22.53,11.2 -1.97,4.11 4.22,6.57 4.57,10.86 -5.54,0 -24.1,6.84 -29.51,-7.07 -2.4,-6.17 -1.66,-15.37 -3.64,-19.8zm-54.88 -54.31c0,-9.75 6.95,-18.57 14.68,-21.91 3.58,-1.55 6.33,-1.24 9.33,-3.25 0,17.42 0.9,27.11 6.77,42.96 7.26,19.61 17.67,28.68 18.38,31.36 -4.42,1.18 -0.94,5.04 -0.4,6.12 1.82,3.65 1.74,10.38 2.69,14.46 -4.67,0 -16.7,3.34 -21.18,-12.55 -3.65,-12.94 4.93,-24.61 -2.83,-24.61 -3.66,0 -4,13.7 -4,16.58 -17.26,-4.02 -14.17,-16.71 -9.8,-29.81 3.62,-10.85 5.9,-10.01 4.65,-15.36 -4.04,-0.94 -4.31,-1.61 -7.27,5.88 -1.14,2.89 -2.31,5.35 -3.02,8.41 -4.02,-2.69 -8,-11.38 -8,-18.29zm24.01 -28.59c-5.42,-2.87 -14.68,2.04 -18.73,5.85 -1.69,1.59 -2.85,3.2 -4.71,4.44 -0.18,-2.16 -1.14,-3.82 -1.14,-5.72 0,-10.9 9.22,-17.49 17.33,-21.54 5.02,-2.51 7.25,-2.55 7.25,-5.9 0,-6.27 -12.24,2.31 -14.29,2.86 -0.17,-2.1 -0.57,-1.63 -0.57,-4.57 0,-11.72 10.45,-19.44 22.3,-19.44 2.9,0 3.11,0.57 6.29,0.57 -0.51,1.9 -13.25,22.1 -13.72,43.45zm17.72 -48.59c-6.91,-1.61 -5.56,-1.14 -13.15,-1.14 0,-7.47 3.18,-12.19 9.78,-14.8 7.61,-3.01 11.18,-1.78 19.95,-1.78 -1.37,2.05 -13.11,11.16 -16.58,17.72zm77.18 19.44c-0.84,-10.09 -12.66,-22.84 1.05,-40.12 5.89,-7.43 14.35,-9.57 23.77,-6.42 1.51,0.5 2.6,0.82 3.77,1.37 1.57,0.74 1.76,1.27 3.43,1.72l0 1.14c-1.69,0.45 -3.92,2.52 -5.3,3.85 -9.18,8.84 -13.99,14.61 -20.46,25.85 -1.12,1.95 -2.13,3.59 -3.21,5.93 -0.58,1.26 -0.86,2.11 -1.34,3.23l-1.71 3.44zm-66.32 -43.45c0.21,-9.28 11.78,-12.97 22.1,-9.52 2.52,0.84 4.71,2.12 7.06,2.66l0 1.14c-3.59,0.84 -10.12,4 -13.03,5.84 -3.1,1.96 -3.27,1.56 -7.44,0.93 -1.99,-0.3 -6.57,-1 -8.68,-1.05zm103.48 -2.86c-1.81,-2.7 -8.16,-4.72 -11.43,-6.29 0.82,-1.71 0.66,-2.08 1.93,-3.79 0.65,-0.88 1.98,-2.26 2.79,-2.92 9.91,-8.08 26.86,1.64 29.01,2.14 -1.19,1.63 -7.34,2.88 -11.63,4.95 -3.92,1.89 -7.33,3.68 -10.66,5.92zm-68.6 -26.3c14.49,0 17.75,9.85 18.3,21.15 0.11,2.27 0.76,3.11 0.51,5.62 -3.13,31.25 15.62,69.53 27.67,97.7l6.69 14.46c3.18,6.29 6.42,12.41 10.05,18.54 1.87,3.15 3.15,5.56 5.06,8.66 1.93,3.13 3.68,5.75 5.5,8.79 3.47,5.8 7.98,12.87 7.98,20.61 0,7.01 -5.01,9.61 -11.08,7.66 -4.86,-1.56 -7.52,-5.64 -9.58,-5.8 -1.22,-0.1 -3.35,1.18 -3.35,2.14 0,3.81 2.74,3.55 4.57,6.29 -4.25,8.04 -15.94,10.24 -25.1,7.37 -5.43,-1.7 -6.71,-3.58 -8.9,-0.77 -1.22,1.57 0.44,0.98 -2.17,2.41 -5.85,3.2 -13.57,1.99 -17.35,-2.94 -1.36,-1.77 -5.48,-7.18 -5.94,-8.92 3.91,0.09 8.16,1.72 18.29,1.72 13.06,0 28.03,-3.61 39.62,-8.4 7.65,-3.16 1.66,-6.46 1.54,-6.46 -1.94,0 -7.36,2.32 -9.47,3.11 -3.12,1.18 -6.23,2.11 -9.62,2.96 -19.96,4.97 -38.26,4.1 -56,-4.73 -44.04,-21.93 -60.9,-91.01 -26.93,-136.51 5.01,-6.71 11.51,-12.36 18.43,-17.02 3.68,-2.48 7.15,-4.34 11.36,-6.36 2.12,-1.02 4.48,-1.92 6.56,-2.59 2.32,-0.75 5.07,-1.14 5.07,-4.07 0,-2.48 -1.66,-0.67 -2.8,-4.06 -1.1,-3.29 0.37,-2.12 -3.08,-3.78 -3.04,-1.47 -6.66,-2.78 -10.13,-3.59 1.28,-2.66 3.98,-13.15 14.29,-13.15zm97.76 1.71c8.63,0 16.65,5.56 20.58,11.43 -3.04,0 -6.14,-0.06 -9.17,-0.02 -3.01,0.04 -6.45,0.96 -8.71,1.02 -1.91,0.05 -1.36,-0.05 -3.05,-1.2 -1.33,-0.91 -1.41,-0.91 -2.88,-1.71l-6.49 -3.23c0.92,-3.44 5.38,-6.29 9.72,-6.29zm29.16 -9.15c7.93,0 16.01,7.12 16.01,16.58 0,10.09 -7.31,22.01 -9.97,31.19 -6.16,21.22 -4.89,42.29 -4.89,64.86 0,18.86 2.22,49.99 5.86,67.89 1.47,7.24 3.29,14.67 3.29,23.01 0,15.71 -10.88,20.93 -19.4,6.25 -1.53,-2.64 -0.77,-1.96 -3.47,-3.39 -5.81,3.07 -1.65,4.54 -0.57,8.58 -2.78,3.79 -8.04,3.43 -12.58,3.43 -6.57,0 -11.44,-4.18 -15.44,-6.86 1.25,-5.36 1.72,-2.26 1.72,-9.72 0,-11.36 -12.47,-28.82 -19.12,-39.77 -10.85,-17.87 -23.81,-49.1 -31.28,-67.63 -2.61,-6.48 -2.6,-5.83 0.89,-14.14 4.05,-9.64 8.61,-16.57 14.87,-24.58 3.84,-4.91 10.19,-10.51 15.35,-14.37 16.58,-12.4 32.34,-15.02 54.16,-15.02 3.22,-4.8 1.48,-2.43 0.51,-5.07 -0.73,-2 3.85,-4.17 -9.66,-13.22 2.94,-4.39 7.76,-8 13.72,-8zm-18.87 5.15c-9.14,-4.39 -23.02,-1.15 -25.16,8 -3.17,-0.74 -6.37,-1.72 -10.29,-1.72 -10.5,0 -19.18,6.41 -21.15,14.86 -12.72,0 -15.11,1.76 -22.16,8.71 -3.04,3 -3.11,4.41 -4.71,5.58 0,-13.17 0.96,-30.89 -14.1,-37.35 -6.85,-2.94 -14.77,-2.31 -20.21,1.32 -5.67,3.78 -8.49,7.79 -10.28,15.45 -11.19,0 -20.58,6.13 -20.58,16.58 -13.99,1.16 -24.58,9.02 -24.58,24.01 -10.21,2.38 -18.87,11.96 -18.87,25.16 0,3.28 0.91,4.09 1.14,6.86 -2.07,3.09 -4.99,4.52 -7.2,8.23 -5.04,8.44 -4.95,16.45 0.34,24.36 -6.67,7.67 -3.44,29.11 8.58,37.16 -0.93,1.94 -2.18,8.18 -2.27,10.9 -0.1,3.19 1.67,7.99 3.07,10.03 3.51,5.1 10.09,8.36 16.92,9.95 0.88,10.58 9.16,20.58 22.3,20.58 3.17,0 3.39,-0.57 6.29,-0.57 3.43,6.49 6.45,10.91 15.68,12.91 8.49,1.83 17.12,-0.93 24.34,-2.61 2.82,4.22 8.07,6.29 14.29,6.29 5.13,0 8.22,-1.98 11.81,-3.68 3,-1.42 4.64,1.39 15.63,1.39 8,0 18.99,-5.46 20.58,-11.43 2.77,0.23 3.58,1.14 6.86,1.14 3.85,0 4.68,-1.07 7.43,-1.72 4.75,3.18 9.25,7.57 16.66,8.49 9.99,1.24 13.52,-0.2 19.92,-4.49 3.38,5.04 15.7,7.97 21.2,-1.66 6.92,-12.11 1.93,-28.75 -0.38,-41.45 -2.93,-16.09 -3.43,-26.15 -4.24,-41.5 -0.14,-2.59 -0.59,-3.12 -0.59,-6.27 -0.05,-32.79 -4.15,-62.36 9.55,-92.83 5.11,-11.37 8.1,-24.97 -1.36,-34.85 -9.79,-10.22 -25.81,-8.76 -34.47,4.17z"/>
   <path class="fil0" d="M115.53 118.94c0,9.12 -1.72,7.7 -1.72,16.58 0,11.3 17.15,14.01 17.15,25.73 0,12.59 -2.82,5.96 -1.14,13.15 2.52,0.6 3.92,2.01 6.08,-3.64 7.94,-20.89 -16.37,-27.63 -16.37,-36.38 0,-8.35 5.86,-12.23 -1.38,-29.49 -4.43,-10.55 -14.09,-23.26 -14.6,-34 -0.19,-3.97 -0.14,-5.37 -4.03,-5.69 -2.37,2.25 -2.14,2.77 -1.79,6.32 0.34,3.49 0.56,4.7 1.45,7.75 1.32,4.55 3.82,8.97 5.86,13 3.65,7.19 10.49,16.64 10.49,26.67z"/>
   <path class="fil0" d="M205.86 71.49c0,16.59 5.99,33.98 -1.37,46.08 -5.22,8.57 -6.06,7.08 -6.06,15.67 0,7.25 14.41,19.07 3.26,31.84 -1.41,1.61 -2.11,1.35 -2.11,3.61 0,2.75 5.05,5.03 9.93,-4.94 7.92,-16.18 -5.35,-23.54 -5.35,-32.8 0,-8.73 12.9,-7.53 9.1,-41.12 -1.1,-9.7 -2.57,-13.3 -0.94,-23.33 0.99,-6.1 2.28,-3.19 0.99,-8.73 -1.53,-0.37 -1.08,-0.57 -2.29,-0.57 -3.62,0 -5.15,9.95 -5.15,14.29z"/>
   <path class="fil0" d="M46.93 145.81c0,8.57 4.21,13.79 10.09,16.78 7.16,3.65 12.89,2.98 16.15,10.72 2.55,6.06 3.95,13.11 9.06,17.81 12.22,11.25 29.31,8.09 29.31,3.85 0,-1.54 -0.27,-1.58 -0.57,-2.86 -4.02,-0.94 -4.1,0.57 -10.86,0.57 -18.37,0 -18.83,-19.95 -25.05,-27.55 -6.16,-7.53 -19.84,-3.94 -22.13,-17.36 -0.8,-4.66 1.8,-7.17 2.59,-10.54l-1.03 -1.26c-4.96,-4.39 -7.55,6.09 -7.55,9.83z"/>
   <path class="fil0" d="M51.5 99.51l0 18.87c0,4.82 6.29,6.44 6.29,-1.14 0,-14.07 -1.9,-25.29 3.09,-36.36 3.16,-7.01 9.02,-12.1 15.77,-15.1 3.06,-1.36 6.29,-1.15 6.29,-4.57 0,-7.74 -23.58,3.41 -29.17,21.72 -1.48,4.86 -2.28,10.22 -2.28,16.59z"/>
   <path class="fil0" d="M197.29 46.91c0,-4.18 -2.14,-3.43 -8.58,-3.43 -6.55,0 -13.79,3.09 -17.73,5.71 -13.88,9.23 -16.52,21.75 -22.69,37.34 -1.08,2.72 -3.1,6.31 0.72,7.44 3.83,1.14 6.11,-8.83 8.51,-14.79 2.51,-6.22 4.14,-11.23 7.67,-16.34 5.4,-7.82 13.02,-12.27 22.53,-13.49 3.32,-0.43 9.58,1.18 9.58,-2.43z"/>
   <path class="fil0" d="M121.25 198.41c0,4.06 3.14,4 9.15,4 5.38,0 10.7,-0.81 15.07,-2.08 5.69,-1.65 11.23,-2.83 11.23,-7.07 0,-4.86 -8.08,-0.12 -9.79,0.5 -13.78,4.93 -25.65,-0.37 -25.65,4.65z"/>
   <path class="fil0" d="M181.85 190.98c3.86,5.77 21,9.15 31.44,9.15 2.91,0 4.02,-1.61 4.57,-4 -4.61,-5.3 -9.81,0.82 -25.41,-5.46 -5.68,-2.29 -9.17,-5.87 -10.61,0.32z"/>
  </g>
 </g>
</svg>
