<?xml version="1.0" encoding="UTF-8"?>
<!DOCTYPE svg PUBLIC "-//W3C//DTD SVG 1.1//EN" "http://www.w3.org/Graphics/SVG/1.1/DTD/svg11.dtd">
<!-- Creator: CorelDRAW -->
<svg xmlns="http://www.w3.org/2000/svg" xml:space="preserve" width="107.258mm" height="101.626mm" version="1.1" style="shape-rendering:geometricPrecision; text-rendering:geometricPrecision; image-rendering:optimizeQuality; fill-rule:evenodd; clip-rule:evenodd"
viewBox="0 0 254.48 241.12"
 xmlns:xlink="http://www.w3.org/1999/xlink"
 xmlns:xodm="http://www.corel.com/coreldraw/odm/2003">
 <defs>
  <style type="text/css">
   <![CDATA[
    .fil0 {fill:#F5A001}
   ]]>
  </style>
 </defs>
 <g id="Camada_x0020_1">
  <metadata id="CorelCorpID_0Corel-Layer"/>
  <path class="fil0" d="M62.03 227.97l0 -12.72 14.32 0c0,4.93 0.84,13.39 -1.05,15.39 -1.58,1.68 -5.66,1.05 -9.56,1.05 -2.48,0 -3.71,-1.24 -3.71,-3.71zm124.59 -2.65l0 -10.07 11.13 0c0,7.76 1.67,16.96 -5.83,16.96 -1.13,0 -3.21,-1.26 -3.83,-2.01 -0.86,-1.04 -1.47,-3.07 -1.47,-4.89zm0 -65.21l11.13 0 0 46.12 -11.13 0 0 -46.12zm-124.59 -22.27l6.35 0.63c2.93,0.24 4.77,-0.63 7.97,-0.63l0 68.39 -14.32 0 0 -68.39zm127.77 13.25c-5.53,0 -11.2,-1.18 -15.69,-2.86 -3.22,-1.21 -9.72,-3.92 -11.35,-6.15 4.08,0 8.85,-2.55 11.85,-4.06 3.06,-1.54 7.13,-4.76 9.2,-7.23 4.08,-4.87 10.62,-15.1 10.76,-21.58 3.11,2.28 6.36,14.18 6.36,20.15 0,8.32 -7.43,21.74 -11.13,21.74zm-163.29 -39.76zm0 0zm0 0l-0.53 -0.53 0.53 0.53zm113.46 -2.65c9.19,4.86 11.41,6.36 22.8,6.36 8.53,0 18.19,-3.98 23.33,-7.42 -0.52,6.2 -6.36,14.86 -10.65,19.04l-3.96 2.94c-3.8,2.27 -15.82,6.86 -18.97,4.2 -0.75,-0.63 -2.06,-2.56 -2.85,-3.53 -3.76,-4.64 -9.19,-15.42 -9.7,-21.58zm62.03 -4.77c7.93,1.85 12.39,4.56 17.94,9.62 0.11,0.1 0.45,0.4 0.56,0.5 4.78,4.55 8.53,13.09 8.53,22.21 0,0.81 -4.03,3.88 -4.93,4.61 -1.93,1.57 -3.99,2.78 -6.2,3.87 -3.38,1.68 -10.2,5.19 -14.85,5.3 5.74,-10.85 6.36,-10.94 6.36,-23.86 0,-7.59 -4.34,-17.67 -7.42,-22.27zm-63.09 -8.48c0,-6 1.29,-10.51 2.85,-15.18 1.18,-3.56 3.75,-10.1 6.16,-11.86 0.11,5 4.09,12.67 7.3,16.56l10.75 9.39c3.29,2.02 10.81,5.76 14.82,5.85 -1.48,2.02 -7.09,4.03 -10.06,4.79 -3.8,0.97 -8.83,1.84 -12.82,1.14 -4.42,-0.78 -7.91,-1.73 -11.16,-3.69 -1.86,-1.13 -7.84,-4.79 -7.84,-7zm106.57 4.77c0,6.53 -0.95,10.16 -2.84,15.71 -1.08,3.17 -3.99,9.87 -6.17,11.32 0,-7.15 -7.08,-17.67 -11.36,-20.98 -5.53,-4.28 -14.2,-10.66 -21.51,-10.83 3.12,-4.26 21.11,-9.57 34.11,-2.3 1.89,1.06 7.77,4.94 7.77,7.07zm-47.19 -12.19c3.84,-16.49 15.15,-26.51 32.34,-26.51 3.34,0 13.61,17.7 13.78,25.45 -8.06,-4.27 -11.05,-6.36 -21.74,-6.36 -4.99,0 -9.67,0.99 -13.6,2.31 -4.66,1.56 -7.02,3.12 -10.79,5.12zm-126.18 -22.27c4.03,1.08 6.85,8.65 3.61,12.62 -3.1,3.79 -11.26,3.7 -9.44,-4.14 1.96,-0.94 10.07,-0.47 5.83,-8.48zm0 0zm117.7 20.68l-117.7 -20.68zm117.7 20.68c-3.83,-2.81 -6.6,-16.62 -5.83,-22.75 0.68,-5.39 5.65,-19.13 11.66,-19.13 7.29,0 23.13,4.75 25.98,9.01 -10.9,0.24 -22.55,11.13 -27.4,20.85 -1.59,3.19 -4.08,7.99 -4.41,12.02zm-14.84 -20.68c0,11.43 2.74,17.14 7.42,25.98 -6.92,-1.61 -13.54,-5.3 -17.9,-9.67 -6.55,-6.57 -8.61,-13.28 -8.61,-22.67 0,-3.14 13.28,-10 17.49,-11.67 1.68,-0.67 5.78,-2.06 7.96,-2.11 -3.02,5.71 -6.36,11.36 -6.36,20.15zm-148.98 45.06c-7.38,-4.95 -14.26,-20.73 -16.21,-30.44 -3.38,-16.84 1.39,-34.19 10.07,-46.21 4.8,-6.64 10.92,-12.81 18.17,-16.83 20.68,-11.46 44,-11.89 64.22,1.32 6.94,4.53 12.8,10.79 17.38,17.61 3.07,4.57 5.72,10.5 7.41,16.44 7.17,25.19 -2.96,51.87 -23.74,65.96 -18.87,12.8 -41.48,15.19 -59.42,-0.82 -6.56,-5.86 -11.38,-11.73 -14.46,-21.06 -13.57,-41.01 27.53,-66.1 52.89,-49.18 12.16,8.11 17.73,28.14 6.54,40.17 -6.19,6.65 -17.8,9.73 -25.96,4.71 -9.38,-5.77 -10.58,-17.61 -5.23,-23.7 1.76,-2 4.6,-4.01 8.1,-4.09l-2.48 1.23c-2.38,1.21 -4.2,3.26 -5.34,5.8 -5.23,11.71 11.05,24.76 22.54,14.06 17.69,-16.49 -9.66,-42.38 -28.12,-23.87 -16.54,16.59 -0.44,42.88 20.27,42.05 11.46,-0.46 19.16,-5.81 25.02,-13.2 1.19,-1.5 1.82,-2.8 2.75,-4.67 12.83,-25.64 -12.29,-59.65 -45.27,-51.63 -31.99,7.78 -45.4,39 -31.73,71 0.9,2.1 2.01,2.91 2.58,5.37zm-25.98 -45.06c0,20.95 4.14,32.54 16.66,48.55 3.86,4.93 10.43,9.93 15.79,13.37 6,3.85 12.71,6.75 20.57,8.58l-0 87.48c-0.01,5.98 0.13,8.18 2.64,11.68 4.54,6.33 10.36,5.29 17.51,5.29 3.69,0 7.65,-2.73 9.34,-4.97 2.37,-3.14 2.87,-6.57 2.85,-11.99l-0 -87.48c2.59,-1.24 7.75,-2 14.32,-5.3 4.38,-2.2 8.28,-4.54 12.03,-7.59 5.87,-4.78 12.45,-11.53 16.23,-18.23 0.78,-1.39 0.92,-2.25 2.49,-2.81 0,4.85 0.64,7.34 1.59,11.13 2.43,9.75 7,18.42 13.65,25.58l6.37 6.35c6.73,6.01 17.01,11.01 26.1,13.13 0,6.85 -0.52,68.06 0.28,71.82 2.99,13.96 23.81,14.6 27.5,0.49 1.67,-6.39 0.85,-63.08 0.85,-72.31 5.26,-2.53 13.19,-2.31 25.86,-13.37 2.83,-2.47 4.28,-3.44 6.71,-6.55 11.21,-14.35 15.15,-23.63 15.15,-43.7 0,-31.28 -29.4,-59.38 -59.91,-59.38 -17.73,0 -30.02,4.58 -41.96,14.23l-12.55 13.96c-1,1.57 -0.83,2.06 -2.22,3.08 0,-10.17 -2.96,-20.31 -6.36,-27.04 -2.54,-5.03 -5.76,-11.05 -9.68,-15.24l-8.22 -8.22c-9.38,-8.96 -28.28,-16.3 -42.55,-16.3 -15.93,0 -29.63,3.7 -41.66,12.42 -5.63,4.08 -12.58,10.42 -16.56,16.31 -2.38,3.52 -4.1,6.33 -6.11,10.33 -3.2,6.37 -6.71,17.4 -6.71,26.69z"/>
 </g>
</svg>
