<?xml version="1.0" encoding="UTF-8"?>
<!DOCTYPE svg PUBLIC "-//W3C//DTD SVG 1.1//EN" "http://www.w3.org/Graphics/SVG/1.1/DTD/svg11.dtd">
<!-- Creator: CorelDRAW -->
<svg xmlns="http://www.w3.org/2000/svg" xml:space="preserve" width="122.881mm" height="117.563mm" version="1.1" style="shape-rendering:geometricPrecision; text-rendering:geometricPrecision; image-rendering:optimizeQuality; fill-rule:evenodd; clip-rule:evenodd"
viewBox="0 0 290.06 277.5"
 xmlns:xlink="http://www.w3.org/1999/xlink"
 xmlns:xodm="http://www.corel.com/coreldraw/odm/2003">
 <defs>
  <style type="text/css">
   <![CDATA[
    .fil0 {fill:#F5A001}
   ]]>
  </style>
 </defs>
 <g id="Camada_x0020_1">
  <metadata id="CorelCorpID_0Corel-Layer"/>
  <path class="fil0" d="M10.14 155.08c10.41,6.97 7.76,7.48 24.88,13.84 9.14,3.39 19.89,5.91 30.97,7.75 35.94,5.98 61.98,5.96 97.82,5.91l26.48 -1.63c11.95,-1.77 17.95,-1.02 33.93,-4.17 17.05,-3.36 28.45,-5.78 43.48,-13.36 5.98,-3.02 9.31,-7.09 11.65,-7.71 0,43.87 -28.36,76.98 -67.09,84.69 -16.69,3.32 -29.72,-1.43 -32.32,5.22 -3.54,9.06 12.96,6.9 19.46,6.9l0 14.37 -109.31 0 0 -14.37 69.33 0c5.78,0 10.79,-10.74 -3.73,-10.63 -16.08,0.11 -64.94,0.73 -76.32,-1.14 -4.17,-0.68 -9.1,-1.92 -12.48,-3.14l-10.96 -4.65c-25.35,-13.66 -45.8,-39.09 -45.8,-77.88zm20.61 -20.61c0,9.68 2.38,13.59 6.25,19.36 -0.45,1.94 -0.8,1.81 -1.25,3.75 -3.25,-0.07 -5.18,-1.66 -7.71,-2.91l-7.28 -3.96c0,-7.19 6.06,-15.19 9.99,-16.24zm228.61 0.62c5.69,1.52 8.77,9.74 9.99,14.99l-5 3.12c-2.35,-4.44 -2.89,-6.31 -7.5,-8.74 0.73,-3.15 2.42,-5.93 2.5,-9.37zm-13.74 9.99c0,9.8 7.32,4.34 9.37,13.12 -9.83,2.29 -21.18,7.65 -34.35,8.74 1.4,-2.08 2.21,-2.48 3.41,-5.33 2.89,-6.84 1.63,-13.89 -1.52,-20.29 -3.04,-6.18 -4.94,-6.13 -5.64,-8.73 6.19,0 14.5,-3.31 18.39,-5.97l6.45 -6.05c3.48,-3.9 3.76,-5.75 5.15,-7.34 1.26,5.42 3.12,2.61 3.12,16.24 0,6.69 -4.37,12.57 -4.37,15.62zm-233.61 -4.37c-1.96,-8.39 -4.75,-14.31 6.72,-24.51 3.64,-3.24 12.55,-8.17 17.02,-9.22 0.66,2.45 3.11,4.36 5,5.62 -2.47,3.69 -2.04,5.18 -6.44,7.3 -8.56,4.13 -16.38,10.06 -20.83,18.52 -0.44,0.83 -0.25,0.53 -0.67,1.2 -0.76,1.19 -0.24,0.44 -0.8,1.08zm243.6 -33.11c5.92,1.38 13.27,6.76 17.65,11.08 7.28,7.18 6.78,13.05 4.84,21.4l-1.25 0c-2.44,-10.49 -15.78,-15.07 -16.96,-19.27 -0.73,-2.59 -0.28,-3.96 -2.21,-8.41 -0.88,-2.02 -1.56,-2.63 -2.06,-4.81zm0 0zm-215.5 -17.49l215.5 17.49zm-215.5 -17.49l0.62 -5c5.2,3.48 10.37,8.74 19.36,8.74 -1.66,7.13 -11.41,20.47 -1,37.85 2.35,3.92 4.31,5.69 7.37,8.24 1.67,1.4 1.11,1.41 3.62,2 -1.6,3.02 -2.46,3.94 -3.68,7.56 -2.57,7.62 -2.33,9.78 -0.69,16.8 -4.08,-0.95 -17.75,-3.62 -20.61,-5 2.55,-3.81 3.75,-3.98 3.75,-7.5 0,-3.25 -2.63,-4.47 -4.27,-6.97 -10.45,-15.96 8.64,-30.19 8.64,-34.88 0,-6.61 -13.12,-7.12 -13.12,-21.86zm16.24 -57.47c0,-4.91 -0.91,-9.37 4.37,-9.37 3.48,0 8.09,11.14 9.37,14.37 2.95,7.43 4.47,14.37 10.62,14.37 9.86,0 4.26,-19.36 14.37,-19.36 4.09,0 6.87,11.98 6.87,16.86 0,3.08 -2.93,11.24 4.37,11.24 6.99,0 6.04,-11.24 11.87,-11.24 5.1,0 5,13.89 5,18.11 0,4.8 -1.54,9.51 -2.88,13.36 -0.75,2.16 -12.07,20.99 3.5,20.99 7.46,0 15.32,-3.75 20.61,-3.75 11.11,0 12.49,11.61 12.49,19.99 0,7.6 -7.58,14.66 -13.36,18.5 -8.22,5.46 -17.87,6.3 -17.87,16.48 0,8.62 19.36,10.7 19.36,15.62 0,1.69 -0.3,1.72 -0.62,3.12l-22.51 0.02c-3.13,-0.04 -4.34,-0.65 -7.47,-0.65l-0.14 -37.57c0.95,-1.82 6.85,-6.39 9.16,-7.76 1.41,-0.83 1.58,-0.65 2.61,-1.77 2.55,-2.79 2.36,-8.5 -4.13,-8.5 -3.09,0 -7.74,4.11 -9.99,5.62l-3.04 -9.45c-1.17,-3.53 -2.49,-6.32 -3.74,-9.38 -2.57,-6.28 -5.82,-11.69 -8.83,-17.4 1.67,-2.5 2.59,-4.19 4.82,-6.42 5.11,-5.09 5.8,-2.55 5.8,-8.57 0,-2.21 -4.23,-7.16 -11.41,-0.17 -1.69,1.65 -3.54,4.48 -5.45,5.17 -2.49,-4.7 -3.6,-8.12 -8.12,-8.12 -2.67,0 -5,1.93 -5,4.37 0,3.2 9.73,18.01 11.99,21.74 1.24,2.04 3.07,5.23 3.63,7.62 -5.78,0 -11.24,-0.89 -11.24,5 0,10.06 14.64,0.66 17.46,8.15 3.86,10.24 5.65,25.49 5.65,38.07 -1.58,-0.76 -8.82,-3.75 -10.62,-3.75 -2.58,0 -10.61,6.51 0.89,10.98 3.16,1.23 5.93,2.64 9.11,3.38l0 8.12c-3.86,0 -24.01,-1.02 -26.29,-3.69 -5.23,-6.12 -1.36,-16.63 3.62,-22.72 7.66,-9.36 -6.36,-10.53 -9.58,-13.17 -8.58,-7.05 -7.44,-20.29 -3.54,-29.31 0.92,-2.13 3.93,-7.55 3.93,-10.44 0,-12.73 -27.48,-1.18 -27.48,-25.61 0,-10.19 5.92,-11.83 8.62,-14.49 5.39,-5.32 3.25,-10.06 3.25,-18.61zm152.41 5.62c0,17.47 15.71,4.86 20.07,4.75 11.65,-0.29 11.89,12.3 5.59,22.79 -2.7,4.49 -19.03,15.6 -4.67,20.81 5.05,1.83 9.84,2.72 11.07,8.33 1.8,8.2 -6.51,27.63 -27.69,27.64 -5.45,0 -13.12,1.17 -13.12,6.25 0,6.31 5.38,7.97 8.91,11.08 2.7,2.38 6.71,8.53 6.71,13.28 0,12.78 -23.57,18.22 -36.24,18.1 -3.61,-0.03 -4.73,0.57 -7.49,0.64 0,-4.54 1.69,-12.01 3.12,-14.99 3.97,-0.93 7.67,-1.29 11.33,-2.41 5.34,-1.64 8.66,-2.66 8.66,-6.96 0,-8.95 -10.87,-2.98 -15.62,-1.87l5.44 -13.29c4.45,-11.19 2.12,-10.35 20.43,-17.67 3.82,-1.53 11.6,-3.29 11.6,-7.76 0,-3.45 -2.59,-5 -6.25,-5 -3.59,0 -15.72,6.62 -18.74,6.87 0,-2.72 0.61,-4.47 1,-7.12 1.12,-7.66 1.5,-15.94 1.5,-23.49 3.58,-2.39 6.33,-4.95 10.11,-7.38 0.9,-0.58 13.61,-5.31 8.11,-11.46 -3.4,-3.81 -8.28,-0.49 -12.58,2 -3.69,2.14 -5.53,4.45 -7.52,4.98 -0.05,-2.32 -1.23,-15.62 -5.62,-15.62 -9.76,0 -5.92,7.85 -4.01,20.25 0.93,6.02 0.89,10.45 0.89,17.23 -4.31,-3.15 -8.89,-14.99 -14.37,-14.99 -4.24,0 -5,3 -5,6.25 0,1.53 2.97,4.58 4.02,5.97l13.47 17.76c0,19.13 -20.13,47.01 -20.61,68.71l-5.62 0c0,-6.19 -0.64,-10.06 -6.51,-14.1 -5.37,-3.71 -9.75,-3.98 -11.61,-6.51 5.57,-1.3 16.18,-8.89 19.85,-12.63l6.82 -9.42c5.44,-10.86 3.67,-24.44 -2.55,-32.67 -1.47,-1.94 -4.41,-4.77 -6.48,-6.02 -9.22,-5.58 -18.61,-1.47 -28.26,0.77 10.4,-19.65 5.28,-31.41 6.97,-37.36 8.31,-29.3 28.82,-10.11 31.13,-10.11 7.5,0 6.1,-10.81 11.01,-20.84 8.12,-16.59 34.58,-18.26 34.58,1.48 0,5.38 -1.87,8.36 -1.87,13.74zm-46.22 -7.5c-5.55,-2.94 -14.41,-5.06 -21.44,-2.08 -5.66,2.39 -12.29,9.3 -13.53,13.95 -2.73,-0.73 -4.04,-3.75 -9.37,-3.75 -3.45,0 -4.18,1.25 -6.87,1.87 -2.49,-5.2 -3.35,-18.74 -17.49,-18.74 -6.12,0 -12.46,5.73 -13.74,11.24 -3.23,-2.36 -9.45,-29.46 -28.26,-17.64 -8.53,5.36 -5.47,18.54 -5.47,27.01 0,2.08 -2.95,3.08 -4.48,4.26 -10.15,7.86 -5.54,20.54 -8.53,27.7 -3.33,7.96 -4.62,14.37 -2.6,23.01l-10.41 5.21c-9.07,4.91 -20.2,15.63 -20.2,27.27 0,31.3 -2.73,52.85 15.49,80.08 1.66,2.48 2.79,3.94 4.5,6.12 11.06,14.13 25.75,24.85 42.86,30.85 3.96,1.39 12.56,4.03 17.11,4.13l0 21.24c0,3.02 1.98,5 5,5l119.3 0c3.09,0 5.62,-2.53 5.62,-5.62l0 -20.61c8.32,-0.19 25.37,-7.11 32.37,-11.36 7.48,-4.54 15.91,-10.4 21.54,-17.19 0.94,-1.14 1.76,-1.79 2.79,-2.83 14.77,-14.82 23.26,-42.59 23.26,-64.82 0,-26.29 2.84,-40.81 -24.36,-54.34 -3.27,-1.63 -10.2,-5.27 -14.37,-5.62 -0.21,-9.5 -6.7,-13.14 -13.74,-16.86 2,-2.73 2.92,-1.47 7.29,-10.2 3.5,-6.99 3.95,-9.67 3.95,-17.28 0,-9.87 -8.8,-18.11 -19.99,-18.11 -3.81,0 -5.71,1.17 -8.74,1.87 0,-7.16 4.63,-21.66 -9.73,-30.88 -12.69,-8.14 -34.83,-2.5 -43.79,15.46 -1.51,3.02 -3.15,8.24 -3.95,11.67z"/>
 </g>
</svg>
