<?xml version="1.0" encoding="UTF-8"?>
<!DOCTYPE svg PUBLIC "-//W3C//DTD SVG 1.1//EN" "http://www.w3.org/Graphics/SVG/1.1/DTD/svg11.dtd">
<!-- Creator: CorelDRAW -->
<svg xmlns="http://www.w3.org/2000/svg" xml:space="preserve" width="135.45mm" height="135.45mm" version="1.1" style="shape-rendering:geometricPrecision; text-rendering:geometricPrecision; image-rendering:optimizeQuality; fill-rule:evenodd; clip-rule:evenodd"
viewBox="0 0 350.8 350.8"
 xmlns:xlink="http://www.w3.org/1999/xlink"
 xmlns:xodm="http://www.corel.com/coreldraw/odm/2003">
 <defs>
  <style type="text/css">
   <![CDATA[
    .fil0 {fill:#F5A001}
   ]]>
  </style>
 </defs>
 <g id="Camada_x0020_1">
  <metadata id="CorelCorpID_0Corel-Layer"/>
  <g id="_1827941446912">
   <path class="fil0" d="M14.39 94.55l63.03 0c-0.38,17.01 -20.97,23.2 -22.33,24.26 -3.99,3.1 -2.33,12.52 -2.33,19.59l0.03 188.44c0.05,12.59 -9.1,11.49 -12.21,7.36 -2.57,-3.4 -1.52,-18.4 -1.52,-24.52 0,-22.75 0.77,-184.78 -0.32,-188.1 -1.26,-3.84 -6.69,-4.72 -10.42,-6.71 -6.15,-3.28 -13.68,-11.66 -13.92,-20.33zm-8.36 -94.55l1.64 0c3.13,0.3 6.03,2.36 6.03,6.17l0 74.68 12.33 0 0 -74.68c0,-3.81 2.9,-5.86 6.03,-6.17l1.64 0c3.13,0.3 6.03,2.36 6.03,6.17l0 74.68 12.33 0 0 -74.68c0,-3.81 2.9,-5.86 6.03,-6.17l1.64 0c3.13,0.3 6.03,2.36 6.03,6.17l0 74.68 12.33 0 0 -74.68c0,-3.81 2.9,-5.86 6.03,-6.17l1.64 0c3.13,0.3 6.03,2.36 6.03,6.17l0 87.01c0,15.11 -13.92,32.96 -25.35,35.63l0 180.88c0,9.2 1.35,21.73 -1.44,28.7 -3.1,7.74 -10.2,11.89 -17.56,12.41l-3.15 0c-7.47,-0.53 -14.67,-4.81 -17.7,-12.9 -2.58,-6.87 -1.25,-19.74 -1.25,-28.89l0 -180.2c-11.45,-2.67 -25.35,-20.52 -25.35,-35.63l0 -87.01c0,-3.81 2.9,-5.86 6.03,-6.17z"/>
   <path class="fil0" d="M300.1 189.79l0 -83.59c0,-19.94 3.97,-36.8 10.73,-50.25 5.59,-11.12 16.22,-27.99 26.26,-34.71l0 302.16c0.01,3.74 1,13.7 -6.85,13.7 -8.18,0 -6.85,-10.79 -6.85,-15.07 0.01,-11.12 0.95,-95.18 -0.67,-98.68 -1.05,-2.26 -3.5,-4.52 -5.32,-6.33 -9.83,-9.77 -17.3,-14.45 -17.3,-27.23zm44.05 -189.79l1.08 0c3.59,0.27 5.57,3.28 5.57,6.17l0 326.13c0,10.04 -9.22,17.7 -19.21,18.5l-3.43 0c-5.82,-0.47 -11.57,-3.41 -15.63,-9.69 -3.85,-5.95 -2.84,-12.52 -2.84,-21.82l0.01 -87.71c-0.33,-4.05 -3.61,-5.66 -3.78,-5.81 -1.04,-0.96 -0.56,-0.57 -1.38,-1.36 -9.02,-8.79 -18.15,-17.37 -18.15,-31.18l0 -96.61c0,-19.97 8.33,-42.69 18.1,-58.64 8.65,-14.12 19.48,-24.91 32.4,-34.75 2.81,-2.14 5.24,-3.08 7.25,-3.23z"/>
   <path class="fil0" d="M91.81 175.4c0,-22.55 8.36,-40.48 22.09,-56.02l7.89 -7.87c1.77,-1.59 3.86,-2.96 5.83,-4.44 3.82,-2.88 9.09,-5.73 13.52,-7.72 22.15,-9.94 46.35,-9.94 68.5,0 12.61,5.66 20.87,12.66 29.64,22.44 4.41,4.92 9.43,13.28 12.16,19.36 9.94,22.15 9.94,46.35 0,68.5 -22.78,50.77 -88.23,64.74 -129.29,29.96l-7.94 -7.81c-0.99,-1.2 -1.69,-1.66 -2.7,-2.78 -4.41,-4.92 -9.43,-13.28 -12.16,-19.36 -3.89,-8.68 -7.54,-21.78 -7.54,-34.25zm-13.7 -4.11c0,21.52 2.87,35.95 13.23,53.23 4.61,7.68 6.1,10.06 12.3,16.48 1.37,1.42 1.62,2.21 2.79,3.38 16.08,16.08 41.35,28.32 64.86,28.32 27.58,0 46.23,-6.08 66.56,-22.51l6.24 -5.4c1.27,-1.16 1.46,-1.77 2.46,-3.02 3.25,-4.08 5.94,-6.08 10.35,-12.95 21.51,-33.57 21.48,-78 -1.92,-109.7 -1.57,-2.12 -3.3,-4.69 -5.07,-6.58 -1.01,-1.08 -1.77,-1.63 -2.74,-2.74 -1.34,-1.52 -1.29,-2 -2.73,-3.44l-12.76 -10.54c-4.64,-3.42 -9.26,-5.85 -14.72,-8.58 -33.06,-16.55 -75.92,-10.41 -104.41,13.69 -1.18,1 -1.65,1.71 -2.78,2.7 -1.6,1.41 -1.95,1.17 -3.4,2.77l-5.47 6.17c-12.93,15.35 -22.81,37.41 -22.81,58.72z"/>
   <path class="fil0" d="M175.4 292.56c-21.19,0 -42.44,-6.13 -59.57,-16.48 -1.72,-1.04 -4.96,-3.39 -7.58,-3.39 -5.63,0 -11.37,8.57 -1.86,14.19 2.61,1.54 4.82,3.02 7.33,4.32 5.58,2.9 10.32,4.84 16.65,7.33 39.24,15.41 87.36,7.59 121.07,-16.25 8.38,-5.92 13.01,-10.5 20.4,-17.97 3.76,-3.8 7.69,-8.02 7.69,-12.86 0,-4.93 -7.36,-9.47 -12.65,-3.05 -22.57,27.4 -54,44.16 -91.5,44.16z"/>
   <path class="fil0" d="M112.37 64.4c0,2.39 0.13,4.23 2.33,5.89 4.97,3.75 9.21,-0.38 16.65,-3.35 4.69,-1.87 8.41,-3.24 13.35,-4.46 32.66,-8.1 58.12,-4.46 86.43,9.9 3.84,1.95 7.17,4.21 10.6,6.53 1.93,1.31 3.22,2.37 5.12,3.78 5.6,4.16 11.74,10.95 14.06,12.67 4.18,3.11 9.45,1.65 11.1,-2.94 1.81,-5.04 -2.17,-7.94 -4.97,-10.73 -3.12,-3.11 -6.05,-5.77 -9.42,-8.4 -20.98,-16.35 -47.73,-28.77 -76.74,-28.77 -17.64,0 -27.24,0.05 -44.46,5.56 -5.01,1.6 -9.35,3.45 -13.88,5.3 -3.93,1.61 -10.18,3.87 -10.18,9.01z"/>
   <path class="fil0" d="M112.37 173.34c0,5.05 0.43,8.91 7.54,8.91 7.83,0 6.2,-10.55 7.58,-17.09 6.81,-32.42 32.85,-31.59 32.85,-41.15 0,-4.51 -3.61,-7.54 -6.85,-7.54 -7.19,0 -22.51,13.21 -28.19,20.45 -6.37,8.11 -12.92,22.08 -12.92,36.42z"/>
   <path class="fil0" d="M80.85 262.42c0,6.53 5.27,8.22 6.17,8.22 10.01,0 11.25,-14.39 0,-14.39 -3.39,0 -6.17,2.78 -6.17,6.17z"/>
   <path class="fil0" d="M167.86 119.22c0,7.68 14.39,10.91 14.39,-0.69 0,-8.95 -14.39,-7.66 -14.39,0.69z"/>
  </g>
 </g>
</svg>
