<?xml version="1.0" encoding="UTF-8"?>
<!DOCTYPE svg PUBLIC "-//W3C//DTD SVG 1.1//EN" "http://www.w3.org/Graphics/SVG/1.1/DTD/svg11.dtd">
<!-- Creator: CorelDRAW -->
<svg xmlns="http://www.w3.org/2000/svg" xml:space="preserve" width="105.82mm" height="131.217mm" version="1.1" style="shape-rendering:geometricPrecision; text-rendering:geometricPrecision; image-rendering:optimizeQuality; fill-rule:evenodd; clip-rule:evenodd"
viewBox="0 0 272.56 337.98"
 xmlns:xlink="http://www.w3.org/1999/xlink"
 xmlns:xodm="http://www.corel.com/coreldraw/odm/2003">
 <defs>
  <style type="text/css">
   <![CDATA[
    .fil0 {fill:#F5A001}
   ]]>
  </style>
 </defs>
 <g id="Camada_x0020_1">
  <metadata id="CorelCorpID_0Corel-Layer"/>
  <g id="_1828094047552">
   <path class="fil0" d="M158.77 316.17l96.76 0c-0.53,2 -2.48,3.98 -3.8,5.74 -1.99,2.65 -2.98,5.16 -5.06,5.16l-79.04 0c-2.48,0 -7.59,-8.49 -8.86,-10.9zm27.94 -10.9l-34.07 0 0 -185.34 28.62 0 6.13 20.44c1.79,7.22 3.43,13.78 4.95,21.63 8.18,42.39 7.3,92.29 -3.57,134.43 -0.74,2.88 -1.98,5.4 -2.06,8.85zm6.81 -185.34l10.22 0c0.83,3.56 2.12,5.35 3.31,8.27 1.26,3.08 2.34,5.52 3.6,8.67 1.04,2.6 2.23,5.54 3.32,8.27l9.11 27.01c6.02,18.5 9.81,38.84 12.99,58.56 4.09,25.36 3.79,48.77 3.79,74.57l-41.57 0c0.23,-2.76 1.41,-6.21 2.05,-8.85 0.75,-3.09 1.45,-6.27 2.1,-9.48 7.64,-37.84 9.69,-83.26 2.04,-121.42 -1.61,-8.06 -2.87,-15.56 -4.82,-23.12l-6.15 -22.47zm22.49 0l45.65 0 0 185.34 -10.22 0c0,-44.04 -0.88,-69.3 -10.76,-111.21 -4.86,-20.62 -15.55,-53.72 -24.67,-74.13zm-48.38 -21.8l79.04 0c2.5,0 8.71,10.35 8.86,10.9l-96.76 0c0.16,-0.6 6.43,-10.9 8.86,-10.9zm1.36 -15.67c0,-3.37 2.76,-6.13 6.13,-6.13l64.05 0c6.92,0 6.13,7.29 6.13,10.9l-76.32 0 0 -4.77zm-27.26 32.03l0 196.24c0,2.91 2.82,5.82 4.38,7.89 1.93,2.56 3.41,4.54 5.26,7.01 3.93,5.24 7.77,12.36 12.17,12.36l87.22 0c3.85,0 5.14,-2.97 6.91,-5.35 2.81,-3.78 14.89,-18.25 14.89,-21.9l0 -196.24c0,-4.77 -15.12,-20.14 -16.18,-24.03 -1.89,-6.92 2.07,-9.67 -2.48,-17.28 -2.27,-3.78 -7.04,-7.76 -12.69,-7.76l-68.14 0c-5.41,0 -10.23,3.82 -12.42,7.34 -5.01,8.03 -0.74,10.33 -2.75,17.7l-8.29 11.47c-2.49,3.32 -7.89,9.42 -7.89,12.56z"/>
   <path class="fil0" d="M12.95 168.99l94.03 0c-3.59,15.41 -8.86,11.53 -8.86,36.11 0,16.46 10.9,21.41 10.9,46.34l0 69.5c0,3.39 -2.27,6.06 -5.37,5.96 -7.72,-0.24 -5.34,-16.18 -23.24,-16.18 -11.86,0 -15,15.67 -19.08,15.67l-2.73 0c-5.1,0 -4.79,-15.67 -21.8,-15.67 -12.47,0 -13.79,15.25 -20,16.13 -3.46,0.49 -5.9,-2.43 -5.9,-5.91l0 -69.5c0,-9.62 1.46,-17.25 4.53,-24.08 8.81,-19.57 8.64,-32.12 0,-51.32 -1.15,-2.56 -1.54,-4.93 -2.49,-7.05zm94.03 -10.9l-96.08 0 0 -32.71 98.12 0 0 30.66c0,1.57 -0.47,2.04 -2.04,2.04zm-63.37 -112.43l0 -2.04 32.71 0c0,16.19 6.35,28.54 14.2,38.27 4.12,5.11 5.74,4.68 11.31,13.9 2.73,4.51 5.99,12.42 6.52,18.7l-96.76 0c0.82,-9.87 6.15,-18.88 11.58,-25.9 2.02,-2.61 4.22,-4.19 6.25,-6.7 6.64,-8.23 14.2,-21.65 14.2,-36.22zm0 -12.95l-5.45 0 0 -21.8 43.61 0 0 21.8 -5.45 0 0 -10.9 -10.9 0 0 10.9 -10.9 0 0 -10.9 -10.9 0 0 10.9zm-16.35 -23.17l0 24.53c0,9.12 9.18,0.68 3.29,22.37 -4.88,17.98 -16.46,21.8 -24.19,37.13 -3.16,6.27 -6.35,15.26 -6.35,24.31l0 40.88c0,27.17 20.43,30.01 5.22,63.82 -2.57,5.71 -5.22,14.14 -5.22,22.04l0 78.36c0,8 6.81,14.99 16.35,14.99 14.16,0 16.01,-15.67 20.44,-15.67l2.73 0c5.1,0 4.79,15.67 21.8,15.67 11.86,0 15,-15.67 19.08,-15.67l2.73 0c4.92,0 5.11,15.67 21.8,15.67 7.79,0 14.99,-7.2 14.99,-14.99l0 -78.36c0,-26.99 -20.44,-29.98 -5.22,-63.82 2.57,-5.71 5.22,-14.14 5.22,-22.04l0 -40.88c0,-8.45 -3.33,-18.16 -6.12,-23.86 -1.69,-3.46 -3.42,-6.13 -5.76,-9.23 -7.04,-9.35 -14.27,-13.25 -18.52,-27.81 -6.21,-21.29 3.14,-14.52 3.14,-22.9l0 -24.53c0,-4.26 -5.28,-9.54 -9.54,-9.54l-46.34 0c-4.26,0 -9.54,5.28 -9.54,9.54z"/>
   <path class="fil0" d="M239.85 22.49c-0.53,-3.45 2.69,-10.88 10.35,-11.42 13.31,-0.93 16,20.43 1.1,21.47 -2.77,0.19 -6.06,-1.31 -7.76,-2.84 -1.84,-1.66 -3.38,-5.23 -3.69,-7.21zm-10.9 -2.04c0,30.98 43.61,31.01 43.61,0 0,-11.22 -9.45,-20.44 -23.17,-20.44 -10.52,0 -20.44,9.93 -20.44,20.44z"/>
   <polygon class="fil0" points="21.8,147.18 98.12,147.18 98.12,136.28 21.8,136.28 "/>
   <path class="fil0" d="M196.24 38.16c0,-6.88 10.9,-6.88 10.9,0 0,6.88 -10.9,6.88 -10.9,0zm-10.9 -1.36c0,23.75 32.71,23.75 32.71,0 0,-8.34 -7.16,-14.99 -17.72,-14.99 -7.5,0 -14.99,7.49 -14.99,14.99z"/>
   <path class="fil0" d="M136.28 54.51c0,-6.88 10.9,-6.88 10.9,0 0,6.88 -10.9,6.88 -10.9,0zm-10.9 -1.36c0,23.75 32.71,23.75 32.71,0 0,-8.34 -7.16,-14.99 -17.72,-14.99 -7.5,0 -14.99,7.49 -14.99,14.99z"/>
  </g>
 </g>
</svg>
