<?xml version="1.0" encoding="UTF-8"?>
<!DOCTYPE svg PUBLIC "-//W3C//DTD SVG 1.1//EN" "http://www.w3.org/Graphics/SVG/1.1/DTD/svg11.dtd">
<!-- Creator: CorelDRAW -->
<svg xmlns="http://www.w3.org/2000/svg" xml:space="preserve" width="135.485mm" height="135.485mm" version="1.1" style="shape-rendering:geometricPrecision; text-rendering:geometricPrecision; image-rendering:optimizeQuality; fill-rule:evenodd; clip-rule:evenodd"
viewBox="0 0 405.63 405.63"
 xmlns:xlink="http://www.w3.org/1999/xlink"
 xmlns:xodm="http://www.corel.com/coreldraw/odm/2003">
 <defs>
  <style type="text/css">
   <![CDATA[
    .fil0 {fill:#F5A001}
   ]]>
  </style>
 </defs>
 <g id="Camada_x0020_1">
  <metadata id="CorelCorpID_0Corel-Layer"/>
  <g id="_1784818509440">
   <path class="fil0" d="M124.38 369.98l156.87 0 0 19.81 -156.87 0 0 -19.81zm220.12 -369.98l1.74 0c4.9,0.61 11.72,6.03 25.84,13.74 11.77,6.43 20.43,9.68 14.8,19.8 -14.44,25.97 -34.53,57.83 -47.81,82.92 9.76,6.53 18.46,17.93 24.3,28.78 8.43,15.68 10.56,29.05 10.56,48.86l24.56 0c3.92,0 7.13,3.21 7.13,7.13l0 22.2c-0.34,19.95 -2.7,35.07 -16.09,57.57 -17.13,28.77 -48.95,49.36 -82.87,52.61 -20.52,1.97 -44.75,0.72 -66.62,0.72 0.63,7.61 8.77,16.05 14.47,18.8 4.02,1.94 26.16,1.03 31.5,0.98 4.66,-0.04 6.33,-0.32 8.96,2.13 2.03,1.88 2.9,3.81 2.9,7.4l0 32.48c0,5.11 -2.97,9.51 -7.92,9.51l-174.3 0c-4.96,0 -7.92,-4.39 -7.92,-9.51l0 -32.48c0,-3.84 1.11,-5.96 3.32,-7.77 3.84,-3.16 25.08,-1.76 30.76,-1.73 7.53,0.05 9.59,0.31 16.05,-6.13 3.43,-3.42 7.21,-7.69 7.71,-13.68 -22.2,0 -46.48,0.96 -67.37,-0.77 -33.9,-2.81 -65.86,-25.42 -82.42,-53.06 -7.28,-12.16 -15.8,-32.17 -15.8,-51.54l0 -26.69c0.81,-9.43 4.64,-8.17 19.81,-8.17 -6.69,-28.73 -2.06,-57.39 13.13,-81.94 3.9,-6.31 2.74,-6.01 2.7,-15.53 -0.06,-12.26 5.64,-34.05 20.62,-34.05 8.72,0 13.68,5.93 19.01,9.51 2.7,-0.63 3.58,-1.5 6.11,-2.61 17.62,-7.72 31.24,-9.28 51.73,-9.28 1.51,-6.5 9.03,-18.75 12.91,-23.53 5.47,-6.75 10.96,-12.62 17.87,-17.78 20.08,-14.99 35.84,-18.9 62.7,-18.9 25.55,0 52.34,16.08 68.25,35.53 3.34,4.08 11.3,16.09 12.56,21.51 1.89,-1.38 3.43,-5.05 4.71,-7.18 21.37,-35.48 25.37,-48.91 32.4,-49.87zm-159.91 334.33l36.44 0c3.4,0 1.71,2.53 4.85,10.2 1.62,3.98 3.19,6.22 5.45,9.6l-57.04 0c8.81,-13.15 6.76,-19.81 10.3,-19.81zm-148.15 -53.08l92.69 0c3.12,13.41 22.91,26.85 41.11,13.38 3.43,-2.54 8.37,-8.16 8.81,-13.38l190.14 0c-4.5,8.51 -19.28,19.63 -27.76,24.53 -8.82,5.09 -26.68,11.92 -40.37,11.92l-196.48 0c-18.07,0 -43.73,-11.23 -55.67,-22.76 -4.28,-4.13 -9.72,-8.5 -12.46,-13.68zm341.46 -15.85l-197.27 0 0 -55.46 209.15 0c0,15.98 -0.31,31.47 -6.1,46.19 -1.03,2.63 -2.87,9.27 -5.78,9.27zm-362.06 -45.95l0 -9.51 38.82 0c0,10.59 -0.86,19.14 6.93,27.93 11.69,13.2 34.53,11.48 43.28,-6.24 4.22,-8.54 0.17,-22.48 13.17,-22.48 4.76,0 9.51,4.75 9.51,9.51l0 46.74 -99.82 0c-3.9,0 -8.02,-16 -8.88,-19.64 -1.76,-7.43 -3,-16.84 -3,-26.31zm267.78 -26.14c-5.63,0 -7.26,0.4 -10.94,-3.32 -5.74,-5.78 -5.18,-10.76 -0.62,-16.96 5.13,-6.97 13.8,-14.11 22.65,-16.17 2.36,10.15 0.49,24.37 -5.5,32.53 -0.94,1.28 -3.68,3.92 -5.59,3.92zm-54.67 -59.42c1.28,-1.75 7.46,-6.47 9.51,-7.92 29.27,-20.72 71.37,-17.26 96.06,7.72 3.42,3.46 5.22,5.14 8.18,9.25 2.78,3.85 4.75,6.89 6.94,11.28 7.7,15.43 7.65,23.54 7.65,39.89l-51.5 0c2.05,-8.81 6.34,-12.25 6.34,-30.11 0,-36.49 -36.02,-22.44 -49.46,-5.09 -4.64,5.99 -12.01,14.11 -10.36,25.24 0.79,5.3 1.91,6.22 2.78,9.96l-22.98 0c0,-10.69 5.13,-19.96 0.7,-45.07 -0.57,-3.25 -2.69,-12.5 -3.87,-15.14zm-177.46 -34.07c0,-4.85 1.66,-17.75 5.55,-20.6 2.32,0.62 5.3,3.26 6.96,4.92 4.79,4.79 12.05,16 12.05,23.6 0,11.83 -24.56,18.68 -24.56,-7.92zm34.07 -14.26c21.81,-11.54 55.41,-12.43 80.02,-0 15.57,7.86 25,15.33 35.77,29.98 7.47,10.16 12.22,22.14 15.11,34.8 1.11,4.84 0.89,9.24 1.65,15.04 0.77,5.89 -1.09,23.86 -3.41,28.71 -12.41,0 -24.84,0.08 -37.24,-0.01 -15.63,-0.1 -12.67,3.62 -12.67,24.57 0,7.53 0.55,49.57 -0.41,55.05 -2.46,14.01 -16.29,11.42 -19.46,3.64 -1.53,-3.76 -0.73,-40.2 -0.73,-46.01 0,-13 0.74,-17.82 -4.58,-26.32 -9.93,-15.88 -35.56,-16.49 -45.36,2.53 -4.75,9.22 -1.07,15.11 -6.07,20.07 -5.74,5.69 -16.11,2.55 -16.88,-6.57 -1.56,-18.5 5.83,-27.03 -14.25,-26.94 -6.86,0.03 -13.74,0 -20.6,0 -0.27,-3.23 -1.71,-7.97 -2.15,-11.32 -2.68,-20.31 0.17,-39.6 9.28,-56.82 6.61,4.43 9.07,7.62 20.08,8.36 7.65,0.51 16,-3.63 20.14,-7.74 2.58,-2.56 4.52,-4.53 6.27,-7.99 4.7,-9.24 1.6,-19.31 -2.24,-28.17l-1.81 -3.74c-0.09,-0.19 -0.34,-0.89 -0.46,-1.13zm164 -20.6c-7.55,0 -13.47,-4.72 -13.47,-12.68 0,-8.48 17.55,-23.05 26.14,-23.77 3.04,13.07 -2.28,36.44 -12.68,36.44zm76.06 41.99c-3.34,-1.77 -7.05,-3.04 -10.3,-4.75l-0.98 -20.49c-0.24,-2.99 -0.49,-2.37 1.19,-5.39l27.67 -47.64c1.97,-3.29 3.65,-6.38 5.39,-9.66l20.6 11.88c-0.79,2.96 -33.64,58.43 -38.03,66.55 -1.78,3.3 -3.8,6.21 -5.55,9.51zm-106.16 -53.87c0,25.09 35.75,40.87 51.48,15.83 3.74,-5.95 7.94,-16.47 7.94,-26.13 9.61,6.44 19.81,31.77 19.81,46.74l0 7.92c-5.35,-0.12 -10.38,-1.58 -16.64,-1.58 -20.21,0 -39.05,6.7 -54.33,17.76 -2.15,1.55 -3.92,3.11 -5.88,4.42 -12.68,-23.97 -33.9,-42.44 -59.32,-51.6l-12.78 -3.86c2.85,-12.22 21.38,-30.69 34.05,-37.25 17.87,-9.25 35.42,-11.74 58.64,-6.33 -1.5,2.25 -5.31,4.57 -7.69,6.57 -6.55,5.5 -15.29,17.3 -15.29,27.5z"/>
   <path class="fil0" d="M138.64 161.62c-7.2,0 -12.68,-5.06 -12.68,-13.47 0,-7.89 17.84,-22.79 26.14,-22.98 0.32,3.84 0.79,2.09 0.79,8.71 0,10.62 -4.5,27.73 -14.26,27.73zm-29.31 -11.88c0,26.95 39.73,41.59 53.88,11.09 5.89,-12.7 11.4,-38.95 -2.23,-49.27 -15.37,-11.64 -51.65,16.27 -51.65,38.18z"/>
  </g>
 </g>
</svg>
