<?xml version="1.0" encoding="UTF-8"?>
<!DOCTYPE svg PUBLIC "-//W3C//DTD SVG 1.1//EN" "http://www.w3.org/Graphics/SVG/1.1/DTD/svg11.dtd">
<!-- Creator: CorelDRAW -->
<svg xmlns="http://www.w3.org/2000/svg" xml:space="preserve" width="99.5181mm" height="133.419mm" version="1.1" style="shape-rendering:geometricPrecision; text-rendering:geometricPrecision; image-rendering:optimizeQuality; fill-rule:evenodd; clip-rule:evenodd"
viewBox="0 0 222.58 298.4"
 xmlns:xlink="http://www.w3.org/1999/xlink"
 xmlns:xodm="http://www.corel.com/coreldraw/odm/2003">
 <defs>
  <style type="text/css">
   <![CDATA[
    .fil0 {fill:#F5A001}
   ]]>
  </style>
 </defs>
 <g id="Camada_x0020_1">
  <metadata id="CorelCorpID_0Corel-Layer"/>
  <g id="_1823735323392">
   <path class="fil0" d="M111.24 269.81c3.04,0 38.21,1.76 40.83,5.33 -4.03,0.94 -8.99,4.15 -18.58,6.27 -3.66,0.81 -6.78,1.22 -10.64,1.78l-11.6 0.87 -22.24 -2.66c-9.85,-2.17 -14.15,-5.23 -18.58,-6.27 1.3,-1.78 4.47,-1.74 8.79,-2.45 10.87,-1.79 20.78,-2.87 32.04,-2.87zm58.58 -65.09c5.1,0.42 24.36,10.84 29.58,13.61 -1.09,4.67 -6.29,14.94 -8.9,19.5 -3.58,6.24 -11.44,16.76 -16.38,21.49 -2.01,1.92 -3.33,2.24 -4.89,4.57 -2.75,-1.32 -9.54,-2.72 -13,-3.56 -4.29,-1.04 -9.24,-1.85 -14.04,-2.53 -20.75,-2.96 -41.14,-2.96 -61.89,0 -6.04,0.86 -22.28,3.81 -27.04,6.09 -1.56,-2.33 -2.88,-2.65 -4.89,-4.57 -2,-1.92 -2.7,-3.09 -4.43,-5.03 -3.25,-3.65 -5.54,-6.48 -8.31,-10.63 -3.82,-5.71 -7.27,-12.12 -9.93,-18.47 -0.88,-2.11 -2.16,-4.89 -2.61,-6.85 5.29,-2.8 24.48,-13.18 29.58,-13.61 -2.83,4.22 -8.96,10.35 -12.53,14.69 -4.14,5.03 -4.86,13.18 10.16,13.12 6.31,-0.03 12.63,-0 18.94,-0 0.43,1.84 6.66,16.32 10.86,18.16 8.7,3.81 11.23,-8.52 13.31,-14.1l16.07 -42.51 3.55 0c1.53,2.89 2.64,6.84 3.97,10.23l13.87 37.01c0.55,1.47 1.17,3.44 1.91,5.19 1.39,3.29 5.16,5.87 9.19,4.36 3.86,-1.45 4.8,-4.76 6.56,-8.28 1.23,-2.46 4.14,-7.52 4.73,-10.06 6.11,0 12.23,-0.01 18.34,0 6.56,0.02 11.81,-0.3 12.92,-5.46 1.26,-5.88 -4.24,-9.57 -8.27,-14.57l-6.42 -7.78zm0 0zm-117.15 0l117.15 0zm-117.15 0zm94.67 -26.03l-94.67 26.03zm94.67 -26.03c14.71,3.43 24.91,10.24 36.46,3.32 12.44,-7.46 -3.84,-6.87 23.9,-6.87 0,14.27 -3.55,25.29 -3.55,28.99 -1.53,-0.41 -4.87,-2.43 -6.71,-3.35 -2.48,-1.24 -4.23,-2.11 -6.7,-3.36 -7.96,-4.01 -21.37,-8.89 -30.25,-11.17 -6.64,-1.7 -8.52,-0.67 -13.14,-7.57zm-128.99 25.44c0,-3.71 -3.55,-14.72 -3.55,-28.99l15.98 0c1.77,0 1.14,0.47 2.05,1.5 13.22,14.94 24.08,6.31 42.32,2.05 -0.49,0.72 -4.19,4.98 -4.75,5.31 -1.07,0.65 -6.02,1.66 -7.92,2.13 -21.31,5.36 -42.47,17.55 -44.13,17.99zm104.14 -26.63l3.54 -1.8 35.51 42.03c-3.24,0 -11.36,-0.38 -14,0.2 -4.9,1.09 -4.74,5.61 -7.3,7.49l-8.7 -23.84c-1.63,-4.16 -3.02,-7.79 -4.54,-12.03l-4.51 -12.05zm-40.23 47.93c-2.47,-1.81 -2.38,-6.06 -6.83,-7.37 -3.48,-1.02 -10.46,-0.32 -14.47,-0.32l35.5 -42.01 3.54 1.8 -13.38 35.7c-1.46,4.1 -3.4,8.09 -4.36,12.2zm111.83 -78.69l12.43 0c0.41,4.92 1.18,8.27 1.18,14.2l-13.61 0 0 -14.2zm-178.1 0l12.43 0 0 14.2 -13.61 0c0,-5.93 0.77,-9.28 1.18,-14.2zm83.43 7.69c0,-15.88 24.1,-15.77 23.58,-0.04 -0.32,9.74 -12.1,14.94 -19.78,8.07 -1.5,-1.34 -3.8,-5.62 -3.8,-8.04zm37.28 -7.1c3.19,-0.27 33.58,-9.95 36.1,-9.94 9.41,0.04 7.09,13.83 7.09,24.14 0,14.54 -13.83,7.24 -25.31,4.01 -2.75,-0.77 -5.57,-1.59 -8.75,-2.49 -2.51,-0.71 -7.29,-1.82 -9.13,-2.7 1.19,-5.12 0.61,-8.24 0,-13.02zm-51.48 4.14c0,4.94 -0.37,4.75 0.59,8.88 -2.99,1.44 -34.03,10.06 -36.68,10.06 -4.2,0 -6.51,-4.11 -6.51,-8.88 0,-10.31 -2.32,-24.1 7.09,-24.14l36.1 9.94c-0.15,1.85 -0.59,2.1 -0.59,4.14zm80.47 -97.04c0,-2.42 1.31,-4.53 1.78,-6.51 1.94,1.3 11.17,15.29 11.49,16.44 1.27,4.6 -13.26,0.49 -13.26,-9.94zm-110.64 -7.1c1.73,-2.58 8.48,-10.58 11.24,-12.43 -0.17,7.59 -4.84,10.93 -11.24,12.43zm23.67 -23.08c2.04,-0.54 8.46,-4.71 14.57,-6.73 16.2,-5.36 30.5,-3.99 45.07,3.9 4.65,2.52 16.65,10.79 19.65,15.26 -5.09,7.6 -6.51,9.45 -6.51,19.53 0,12.22 12.04,24.26 24.26,24.26 7.84,0 8.06,-1.11 11.24,-1.18l9.69 25.22c1.57,4.71 2.71,8.73 4.13,13.62l3.34 14.41 -13.61 0c-10.11,-15.1 -24.61,-8.45 -37.4,-4.86 -3.13,0.88 -5.77,1.66 -8.75,2.49 -5.66,1.58 -14.63,4.25 -20.11,1.17 -15.81,-8.9 -25.84,1.19 -29.6,1.19 -10.16,0 -6.36,0.5 -16.1,-2.24 -3.33,-0.93 -5.88,-1.69 -9.21,-2.62 -12.79,-3.59 -27.29,-10.24 -37.4,4.86l-13.61 0c1.15,-13.82 14.94,-49.89 22.89,-64.09 1.22,-2.18 3.82,-5.89 4.33,-8.09 4.12,0.34 2.17,1.18 10.65,1.18 12.15,0 24.26,-12.11 24.26,-24.26 0,-9.84 -1.65,-8.6 -1.77,-13.02zm-78.69 142.6c0,24 1.43,35.43 9.38,56.89 9.87,26.65 26.66,47.47 50.49,61.93 23,13.95 55.92,15.85 82.27,8.52 33.57,-9.34 60.72,-38.93 71.54,-71.64 13.59,-41.06 10.48,-76.45 -1.64,-117.45 -2.53,-8.57 -5.74,-17.66 -9.07,-25.25 -10.61,-24.16 -18.53,-37.52 -37.14,-56.34 -13.13,-13.28 -34.97,-23.52 -55.18,-23.52 -25.44,0 -51.28,17.41 -66.62,36.93l-10.71 15.33c-7.4,12.52 -8.45,14.5 -14.56,28.64 -3.39,7.85 -6.49,17.24 -8.97,25.94 -2.65,9.33 -4.67,18.27 -6.51,28.4 -1.69,9.27 -3.29,21.32 -3.29,31.62z"/>
   <path class="fil0" d="M89.94 92.3c0,-12.56 17.75,-16.16 22.51,-4.76 4.11,9.85 -5.59,19.54 -15.43,15.43 -3.34,-1.39 -7.08,-5.97 -7.08,-10.68zm-14.2 -1.77l0 3.55c0,12.15 12.11,24.26 24.26,24.26l3.55 0c12.22,0 24.26,-12.04 24.26,-24.26l0 -3.55c0,-12.22 -12.04,-24.26 -24.26,-24.26l-3.55 0c-12.21,0 -24.26,12.1 -24.26,24.26z"/>
  </g>
 </g>
</svg>
