<?xml version="1.0" encoding="UTF-8"?>
<!DOCTYPE svg PUBLIC "-//W3C//DTD SVG 1.1//EN" "http://www.w3.org/Graphics/SVG/1.1/DTD/svg11.dtd">
<!-- Creator: CorelDRAW -->
<svg xmlns="http://www.w3.org/2000/svg" xml:space="preserve" width="123.293mm" height="81.3134mm" version="1.1" style="shape-rendering:geometricPrecision; text-rendering:geometricPrecision; image-rendering:optimizeQuality; fill-rule:evenodd; clip-rule:evenodd"
viewBox="0 0 292.73 193.06"
 xmlns:xlink="http://www.w3.org/1999/xlink"
 xmlns:xodm="http://www.corel.com/coreldraw/odm/2003">
 <defs>
  <style type="text/css">
   <![CDATA[
    .fil0 {fill:#F5A001}
   ]]>
  </style>
 </defs>
 <g id="Camada_x0020_1">
  <metadata id="CorelCorpID_0Corel-Layer"/>
  <path class="fil0" d="M115.49 150.69c-3.42,0 -4.53,0.34 -6.29,-2.29 1.74,-2.6 3.38,-3.25 5.58,-5.28 2.09,-1.93 3.57,-4.05 5.85,-5.58 0,3.81 0.48,9.2 -2.16,11.57 -0.51,0.46 -2.21,1.58 -2.99,1.58zm100.65 -44.33c0.65,1.53 1.56,3.56 2.35,5.57 0.79,2.01 1.47,3.98 2.02,5.94 0.56,1.95 0.99,3.89 1.36,6.17 0.37,2.28 0.67,4.91 0.81,7.68 0.14,2.77 0.11,5.68 0.03,8.03 -0.07,2.35 -0.2,4.15 -0.22,5.65 -0.03,1.5 0.04,2.7 0.78,3.97 5.87,10.11 14.18,0.84 12.97,-11.07 -0.27,-2.66 -0.42,-5.63 -0.63,-8.33 -0.22,-2.69 -0.5,-5.1 -0.87,-7.5 -0.36,-2.4 -0.8,-4.79 -1.26,-6.83 -0.47,-2.04 -0.96,-3.74 -1.51,-5.41 -3.5,-10.69 -8.29,-11.22 -11.73,-10.65 -3.66,0.6 -5.8,2.78 -4.1,6.79zm76.59 39.45l0 4.55c-0.34,4.69 -1.75,9.32 -4.45,13.6 -6.63,10.52 -19.78,16.5 -31.94,20.09 -11.3,3.34 -40.19,7.91 -53.39,7.79 -3.67,-0.03 -4.65,0.56 -7.97,0.6 -5.15,0.06 -12.8,-0.52 -17.59,0.13 -8.5,1.17 -10.54,-0.17 -16.15,-0.18 -10.46,-0.01 -23.3,-0.1 -33.67,-1.21 -10.63,-1.14 -20.53,-2.24 -30.63,-4.25 -6.7,-1.33 -14.45,-3.41 -20.51,-5.79 -2.05,-0.8 -4.26,-2.03 -6.12,-2.46 -5.79,3.88 -13.4,7.82 -20.08,10.23 -15.87,5.73 -31.79,6.39 -42.99,-8.91 -6.71,-9.17 -7.26,-17.35 -7.26,-28.76 0,-11.76 4.55,-24.13 8.65,-34.23 1.33,-3.29 3.01,-6.24 4.69,-9.6 10.14,-20.28 19.09,-30.53 32.54,-45.79 8.11,-9.2 16,-16.56 25.46,-24.28l12.3 -9.43c23.17,-17.38 72.09,-40.5 97.7,-19.69 17.1,13.89 13.02,32.73 3.72,51.36 -1.62,3.24 -3.19,6.33 -5.06,9.23 -1.92,2.98 -3.72,5.63 -5.72,8.57 -1.55,2.28 -5.14,6.35 -5.61,8.11 17.25,0 38.63,2.37 55.23,6.52 7.62,1.9 27.82,8.04 33.97,12.34 3.09,2.17 2.57,8.01 -2.3,8.01 -4.09,0 -9.05,-4.76 -13.72,-5.15 1.62,6.94 4,13.71 4,22.3 0,7.82 0.74,18.54 -3.17,24.27 -6.22,9.11 -21.15,9.49 -26.85,-2.25 -2.5,-5.14 -0.85,-11.88 -0.85,-18.59 0,-12.38 -6.87,-29.4 -12.81,-35.21 -1.84,-1.81 -13.01,-2.52 -15.75,-2.54 -1.48,-0.01 -3.1,0.11 -4.57,-0.01 -1.8,-0.14 -2.06,-0.5 -4.03,-0.54 4.23,8 10.13,23.58 10.29,35.45 0.08,5.83 1.25,14.8 -1.31,20.41 -5.56,12.21 -21.23,11.93 -27.05,2.23 -3.15,-5.25 -2.52,-8.01 -2.51,-15.78 0.01,-18.79 -6.12,-24.23 -7.43,-29.16l-11.86 12.15c-10.84,10.84 -8.15,7.54 -8.15,14.15 0,6.99 0.25,13.67 -3.3,19 -4.33,6.51 -12.51,8.64 -19.98,4.85 -2.62,-1.33 -2.27,-2.6 -4.74,-3.26l-16.99 13.88c-1.72,1.29 -4.27,2.86 -5.31,4.41 3.35,0.78 6.04,2.08 9.6,2.98 13.01,3.31 30.08,6.05 43.57,6.74l36.02 1.14c29.8,0 76.39,-1.14 100.81,-14.68 5.71,-3.17 11.3,-7.83 13.35,-14.09 6.54,-19.96 -14.68,-31.06 -14.68,-35.84 0,-1.99 2.58,-4.57 4.57,-4.57 3.55,0 11.32,9.72 13.24,12.49 3.85,5.56 6.3,12.06 6.77,18.65zm-268.51 -40.18c8.81,4.22 10.09,2.79 21.61,11.24 3.65,2.68 15.92,12.85 15.92,17.81 0,3.83 -2.68,6.29 -7.43,6.29 -3.76,0 -9.8,-8.63 -16.25,-13.49 -4.55,-3.43 -13.66,-8.53 -19.77,-9.96l5.93 -11.9zm131.86 -4.68c0,-0.91 4.22,-6.29 5.72,-6.29 6.16,0 5.48,-1.47 9.92,7.81 1.59,3.33 2.68,6.26 3.88,9.84 1.35,4.02 7.6,31.55 1.42,37.03 -2.52,2.23 -8.71,2.34 -10.29,-2.43 -1.49,-4.49 2.1,-16.7 -5.16,-34.86 -0.76,-1.91 -5.49,-10.39 -5.49,-11.09zm-47.46 -77.76c3.29,0 17.08,9.01 20.67,11.92 3.91,3.17 14.78,13.39 14.78,17.81 0,7.13 -7.81,9.48 -12.27,3.69 -7.22,-9.37 -14.17,-14.58 -24.7,-19.9 -2.83,-1.43 -9.68,-4.3 -13.35,-4.38 1.5,-2.25 13.58,-9.15 14.87,-9.15zm10.29 -5.72l8 -2.86c13.87,-5.5 35.06,-9.31 48.04,-0.01 26.85,19.24 -12.4,63.33 -24.26,78.67 -1.48,1.91 -2.81,3.02 -4.48,4.67 -1.94,1.92 -2.75,3.33 -4.56,5.16 -3.25,3.29 -6.16,6.16 -9.45,9.42l-9.43 10.01c-15,15 -83.27,85.57 -108.26,52.52 -1.78,-2.36 -3.43,-5.81 -4.24,-8.91 -3.43,-13.11 -0.29,-30.82 4.59,-40.03 6.07,0.51 17.35,7.59 21.02,11 7.04,6.55 10.45,13.02 19,13.02 8.6,0 15.44,-7.02 15.44,-13.72 0,-9.11 -1.19,-8.53 -6.78,-15.52 -1.08,-1.35 -3.17,-3.44 -4.52,-4.63 -7.41,-6.53 -20.83,-16.05 -29.87,-18.16 0.52,-1.93 3.77,-6.36 5.06,-8.09 1.13,-1.53 4.79,-7.03 5.93,-7.81 3.29,-2.26 19.05,2.77 21.99,4.09 22.02,9.89 22.6,22.11 32.78,22.11l3.43 0c9.85,0 17.65,-12.85 11.64,-23.08 -0.95,-1.63 -0.93,-1.26 -2.05,-2.53 -1.06,-1.2 -1.18,-1.64 -2.3,-2.85 -1.99,-2.15 -7.87,-8.68 -10.89,-9.04 -2.54,-0.3 -4.77,1.99 -4.77,4.32 0.02,5.11 12.93,9.85 12.93,18.87 0,3.26 -3.01,5.72 -6.29,5.72 -5.43,0 -8.79,-9.21 -21.11,-16.62 -5.92,-3.56 -18.79,-9.68 -28.06,-9.68 1.4,-2.09 9.31,-11.43 10.29,-11.43 5.83,0 18.03,6.62 20.03,6.63 2,0.01 4.56,-2.05 4.56,-4.34 0,-4.9 -13.09,-8.77 -17.15,-9.72 0.63,-0.86 3.52,-3.27 4.71,-4.44 1.13,-1.13 1.22,-1.1 2.48,-2.09 6.04,-4.72 8.76,-9.26 14.04,-8.47 13.63,2.06 28.15,9.64 36.03,19.49 2.84,3.54 5.28,7.22 10.12,8.75 10.78,3.42 20.67,-4.7 20.67,-14.38 0,-7.67 -5.65,-12.01 -9.23,-16.5 -2.71,-3.39 -7.96,-7.99 -11.59,-10.71l-13.48 -8.81z"/>
 </g>
</svg>
