<?xml version="1.0" encoding="UTF-8"?>
<!DOCTYPE svg PUBLIC "-//W3C//DTD SVG 1.1//EN" "http://www.w3.org/Graphics/SVG/1.1/DTD/svg11.dtd">
<!-- Creator: CorelDRAW -->
<svg xmlns="http://www.w3.org/2000/svg" xml:space="preserve" width="129.512mm" height="135.45mm" version="1.1" style="shape-rendering:geometricPrecision; text-rendering:geometricPrecision; image-rendering:optimizeQuality; fill-rule:evenodd; clip-rule:evenodd"
viewBox="0 0 407.97 426.67"
 xmlns:xlink="http://www.w3.org/1999/xlink"
 xmlns:xodm="http://www.corel.com/coreldraw/odm/2003">
 <defs>
  <style type="text/css">
   <![CDATA[
    .fil0 {fill:#F5A001}
   ]]>
  </style>
 </defs>
 <g id="Camada_x0020_1">
  <metadata id="CorelCorpID_0Corel-Layer"/>
  <g id="_1823742603968">
   <path class="fil0" d="M46.67 121.67l57.5 15c0,4.59 -0.71,6.49 -0.82,11.68 -0.4,18.77 -14.23,36.93 -29.74,46.09 -3.01,1.78 -5.34,3.97 -8.6,4.73 -0.08,-3.74 -1.21,-6.22 -2.15,-9.52l-15.83 -59.17c-0.72,-2.49 -3.15,-8.81 -0.35,-8.81zm153.82 -121.67l8.47 0c5.81,0.84 11.48,3.45 16.28,8.09 11.3,10.93 7.82,18.06 11.08,30.59 0.98,3.76 2.89,6.12 4.47,8.86 18.89,32.75 27.37,24.1 42.36,40.14l6.37 7.8c5.35,7.74 12.16,17.96 12.98,27.85 9.48,-0.21 49.63,-15 59.17,-15 7.23,0 14.17,6.61 14.17,14.17 0,6.59 -3.57,16.67 -5.17,23.17 -1,4.06 -2.89,18.5 -9,18.5 -13.45,0 -4.29,-18.53 -2.5,-25.83 0.95,-3.86 6.41,-16.67 1.67,-16.67 -3.46,0 -51.18,13.72 -56.67,15 0,15.05 3.21,27.81 11.16,39.68 4.06,6.06 6.63,9.12 12.4,13.43 3.55,2.65 11.53,8.44 15.61,9.39 0.1,-4.28 2.25,-9.77 3.15,-13.52 1.08,-4.48 2.37,-8.15 7.69,-8.15 9.63,0 4.37,13.91 2.98,18.82 -3.7,13.02 -5.2,9.34 2.02,19.52 20.06,28.3 10.25,40.62 16.17,61.33 3.13,10.95 8.8,19.84 16.54,27.63 4.18,4.22 7.95,5.99 11.33,11.17 10.31,15.81 3.12,40.04 -14.03,44.03 0.33,3.95 5.49,13.91 -3.11,23.56 -7.79,8.75 -47.25,20.94 -60.53,25.3 -3.85,1.26 -6.99,2.13 -11.03,3.14 -35.21,8.8 -67.42,13.72 -99.37,14.66l-22.57 0c-31.85,-0.94 -64.09,-5.84 -99.4,-14.83 -21.74,-5.53 -43.33,-13.25 -63.45,-23.22 -4.15,-2.06 -5.44,-2.51 -8.2,-5.97 -7.56,-9.5 -2.69,-18.59 -2.35,-22.65 -11.93,-2.78 -19.17,-16.29 -19.17,-28.33 0,-17.7 13.53,-20.99 21.68,-32.49 1.43,-2.02 2.72,-4.31 4.46,-6.38 4.12,-4.91 23.68,-3.29 -0.92,21.58 -4.87,4.92 -11.88,7.92 -11.88,17.29 0,9.28 5.04,15.57 13.33,17.5 1.32,-5.68 22.52,-39.93 26.41,-46.92 1.83,-3.28 3.56,-5.77 5.26,-8.91l117.46 -203.38c3.65,-6.33 6.89,-12.05 10.61,-18.56 5.09,-8.92 17.9,-14.04 27.77,-8.07l4.1 3.4c5.84,6.1 25.19,41.79 28.66,48.01 17.18,30.75 35.92,60.49 52.79,91.38 3.02,5.53 5.88,9.9 8.88,15.29 3.01,5.41 5.61,10.2 8.74,15.42 2.89,4.81 34.33,56.75 34.33,61.5 0,6.74 -9.02,8.58 -13.31,0.81l-12.78 -22.22c-2.95,-5.29 -5.46,-9.55 -8.55,-14.78 -34.5,-58.33 -67.04,-117.62 -101.54,-175.96 -1.61,-2.72 -2.67,-4.66 -4.26,-7.41 -4.14,-7.16 -10.89,-4.93 -12.9,-2.12l-147.97 256.2c-3.81,6.49 -6.77,12.16 -10.61,18.55 -9.42,15.69 -14.82,20.78 -2.53,26.39l28.98 11.85c38.71,14.96 71.81,19.03 112.27,23.56 4.31,0.48 8.78,-0.24 13.09,0.24 7.35,0.83 18.72,0.52 26,-0.08 4.33,-0.36 8.79,0.31 13.06,-0.27 7.7,-1.05 16.7,-1.43 24.98,-2.52 29.99,-3.96 60.15,-11.35 87.86,-21.31 43.39,-15.6 37.19,-16.17 28.51,-32.06 -2.37,-4.33 -4.28,-7.32 -6.7,-11.64 -2.47,-4.42 -12.76,-19.93 -12.76,-23.91 0,-4.03 2.64,-6.67 6.67,-6.67 5.22,0 10.33,11.82 12.5,15.83 1.59,2.94 3.34,6.02 5.15,9.02 1.77,2.92 4.05,5.89 4.85,9.32 12.73,-2.97 18.18,-19.78 8.16,-28.99 -1.89,-1.73 -2.71,-1.94 -4.62,-3.71 -12.26,-11.34 -23.46,-28.65 -24.35,-46.49 -0.46,-9.19 -0.64,-21.02 -3.04,-28.63 -5.05,-16.07 -15.26,-26.67 -28.81,-35.36 -6.35,-4.07 -13.02,-7.88 -17.93,-13.74 -28.34,-33.81 -13.8,-48.64 -23.09,-72.74 -11.69,-30.33 -29.44,-28.32 -47.36,-48.48 -5.25,-5.91 -15.19,-21.86 -17.26,-30.24 -1.1,-4.47 -0.77,-9.21 -1.89,-13.95 -3.87,-16.36 -27.16,-19.94 -33.67,-3.2 -5.45,14.01 1.33,15.6 -14.13,39.2 -14.78,22.57 -32.08,23.82 -42.39,37.61 -25.14,33.65 -5.42,50.01 -26.29,81.21 -15.59,23.31 -26.52,20.81 -42.32,37.68 -3.55,3.79 -8.06,11.62 -10.09,16.58 -8.01,19.6 -0.01,41.56 -11.77,41.56 -8.93,0 -5.76,-9.11 -5.82,-16.66 -0.08,-8.29 0.78,-14.41 2.48,-20.85 1.52,-5.77 4.24,-12.25 7.14,-17.02 8.94,-14.68 11.57,-9.81 7.13,-24.73l-16.94 -63.06c-1.15,-4.53 -2.33,-9.49 -2.33,-14.34 0,-6.11 8,-12.5 14.17,-12.5 8.67,0 50.68,14.81 59.17,15 0.78,-9.32 7.85,-21.27 13.32,-28.35l6.03 -7.3c4.34,-4.64 10.42,-8.34 15.92,-11.58 11.9,-7.02 19.33,-15.83 26.14,-28.02 1.81,-3.23 3.74,-5.43 4.77,-9.4 0.79,-3.06 0.95,-8.31 1.54,-11.79 2.61,-15.23 14.23,-25.08 26.93,-26.89z"/>
   <path class="fil0" d="M163.33 311.67c0,2.9 3.76,6.67 6.67,6.67 3.98,0 9.01,-6.09 11.46,-8.54 18.44,-18.44 42.91,-41.94 60.03,-59.98 1.49,-1.57 3.35,-3.99 3.29,-6.39 -0.17,-6.32 -5.41,-5.92 -8.11,-5.92 -2.57,0 -7.89,6.64 -9.79,8.54l-55 55c-2.22,2.22 -8.54,7.27 -8.54,10.63z"/>
   <path class="fil0" d="M146.67 275.84c0,3.74 0.58,8.33 5.83,8.33 4.74,0 14.86,-11.94 19.79,-16.88l46.67 -46.67c2.22,-2.22 8.54,-7.27 8.54,-10.63 0,-4.68 -2.87,-6.67 -6.67,-6.67 -4.74,0 -14.86,11.94 -19.79,16.88l-45.83 45.83c-1.9,1.9 -8.54,7.22 -8.54,9.79z"/>
   <path class="fil0" d="M180.83 345.84c0,3.43 3.23,6.67 6.67,6.67 3.33,0 8.04,-5.95 10.21,-8.13l55 -55c4.78,-4.78 8.96,-6.74 8.96,-11.87 0,-6.81 -6.38,-7.91 -10.99,-4.33l-50.89 50.79c-3.79,3.79 -18.96,17.23 -18.96,21.88z"/>
   <path class="fil0" d="M188.33 164.17c0,-12.13 15.83,-12.58 15.83,0 0,9.98 -15.83,9.98 -15.83,0zm-13.33 -1.67c0,29.93 42.5,28.77 42.5,0.83 0,-10.79 -8.84,-20.83 -19.17,-20.83l-4.17 0c-9.93,0 -19.17,10.06 -19.17,20z"/>
   <path class="fil0" d="M239.17 362.5c0,-11.01 16.67,-11.01 16.67,0 0,11.24 -16.67,10.49 -16.67,0zm-12.5 -2.5l0 5c0,8.8 9.54,18.33 18.33,18.33 10.16,0 18.71,-2.82 22.42,-13.41 6.12,-17.47 -9.9,-33.48 -27.34,-27.34 -6.1,2.15 -13.41,9.12 -13.41,17.42z"/>
   <path class="fil0" d="M295.84 352.5c6.16,0 8.78,-7.86 4.8,-11.47 -9.29,-8.45 -16.69,11.47 -4.8,11.47z"/>
   <path class="fil0" d="M100.83 317.5c0,10.43 12.5,7.45 12.5,0.83 0,-8.66 -12.5,-9.21 -12.5,-0.83z"/>
   <path class="fil0" d="M146.67 217.5c0,9.17 12.5,9.08 12.5,-0.83 0,-5.77 -12.5,-8.05 -12.5,0.83z"/>
  </g>
 </g>
</svg>
