<?xml version="1.0" encoding="UTF-8"?>
<!DOCTYPE svg PUBLIC "-//W3C//DTD SVG 1.1//EN" "http://www.w3.org/Graphics/SVG/1.1/DTD/svg11.dtd">
<!-- Creator: CorelDRAW -->
<svg xmlns="http://www.w3.org/2000/svg" xml:space="preserve" width="135.45mm" height="135.45mm" version="1.1" style="shape-rendering:geometricPrecision; text-rendering:geometricPrecision; image-rendering:optimizeQuality; fill-rule:evenodd; clip-rule:evenodd"
viewBox="0 0 347.43 347.43"
 xmlns:xlink="http://www.w3.org/1999/xlink"
 xmlns:xodm="http://www.corel.com/coreldraw/odm/2003">
 <defs>
  <style type="text/css">
   <![CDATA[
    .fil0 {fill:#F5A001}
   ]]>
  </style>
 </defs>
 <g id="Camada_x0020_1">
  <metadata id="CorelCorpID_0Corel-Layer"/>
  <g id="_1821479015728">
   <path class="fil0" d="M57 247.68c-16.25,-3.79 -14.18,-4.82 -9.11,-22.68l7.67 -28.97c1.76,-5.95 1.6,-11.45 8.22,-11.45 3.58,0 5.75,1.72 9.5,2.04 -0.15,1.84 -14.63,57.62 -16.29,61.07zm290.43 -30.29l0 3.15c0,11.64 -7.86,25.05 -14.53,30.25 -10.73,8.37 -18.68,10.16 -31.61,13.18 0.84,1.74 1.36,4.14 1.36,6.79 0,19.47 -11.78,21.84 -28.36,25.92 -22.58,5.55 -47.35,12.87 -70.17,18.72 -4.89,1.25 -7.48,1.39 -8.55,3.67 -2.02,4.3 -2.09,14.27 -7.68,20.81 -4.61,5.39 -9.64,7.37 -15.02,7.56l-1.73 0c-7.33,-0.24 -15.29,-3.41 -23.73,-5.57 -3.46,-0.89 -13.98,-2.78 -16.28,-5.43 -4.99,-5.74 0.08,-12.03 5.18,-11.85l23.61 6.13c15.4,4.5 16.72,3.58 19.84,-7.1 6.02,-20.62 11.49,-44.78 17.48,-65.3l7.03 -25.55c-2.12,0.18 -2.41,0.68 -4.75,0.68 -20.41,0 -30.47,-17.82 -27.82,-29.18 -8.34,0 -12.29,-1.83 -16.99,-5.4 -13.03,-9.9 -5.13,-26.35 -4.72,-31.24l-46.38 -11.97c-2.28,-0.67 -4.12,-1.4 -6.55,-1.6l-12.22 44.78c-3.89,14.81 -7.69,29.5 -11.92,44.4 -1.14,4 -2.03,7.56 -3.01,11.24l-8.81 33.26c-4.51,17.05 -4.66,14.91 16.44,20.87 11.17,3.15 6.72,14.41 -0.84,14.41 -0.27,0 -9.32,-2.47 -10.72,-2.85 -9.13,-2.5 -21.17,-7.48 -21.17,-19.54 0,-9.14 -0.33,-4.29 1.36,-11.54 -3.86,-0.32 -14.4,-3.44 -17.74,-4.65 -4.86,-1.75 -10.52,-5.18 -13.99,-8.4 -16.44,-15.28 -16.85,-32.08 -10.94,-52.01l12.82 -47.58c1.6,-6.09 2.56,-9.87 5.54,-14.81 2.61,-4.32 5.1,-7.57 8.9,-10.78 20.69,-17.51 36.28,-9.77 54.09,-5.63 1.11,-13.29 14.85,-28.61 30.69,-32.41 3.02,-0.73 5.63,-0.88 9.34,-0.83 5.28,0.07 5.19,0.74 8.46,-1.72 12.07,-9.06 3.08,0.57 9.88,-11.15 7.11,-12.25 22.02,-23.77 37.98,-23.77 12.44,0 19.36,0.39 30.27,7.73 5.38,3.61 3.05,3.91 10.55,3.22 6.7,-0.62 17.09,2.91 22.93,6.72 8.5,5.55 16.93,18.23 17.67,27.12 3.03,-1.45 8.19,-2.29 11.62,-3.31 20.79,-6.23 40.94,2.19 51.21,19.2 11.42,18.91 -0.96,21.65 -5.84,18.75 -2.1,-1.25 -2.73,-3.19 -3.64,-5.88 -1.08,-3.18 -1.58,-4.05 -3.12,-6.38 -15.48,-23.31 -37.92,-9.67 -46.15,-9.49 0.11,5.09 2.96,9.74 3.39,14.93 8.67,-2.02 19.72,-6.44 28.6,3.29 3.11,3.4 4.61,7.51 5.86,12.46 2.47,9.77 5.08,19.12 7.75,28.9 2.99,10.95 7.21,20.13 3.38,29.45 -2.98,7.24 -8.09,10.19 -15.06,12.09 -1.79,0.49 -5.34,1.34 -6.79,2.03 1.69,3.52 2.38,10.73 4.07,14.25 6.33,-1.48 18.39,-4.55 23.48,-8.41 10.44,-7.9 11.8,-15.68 11.8,-26.88 0,-3.98 -1.8,-6.19 -1.01,-9.1 1.21,-4.49 4.16,-5.15 7.8,-5.15 6.72,0 7.41,9.87 7.46,16.53zm-73.29 -55.89c1.13,-0.54 6.77,-2.05 8.55,-2.36 3.1,-0.54 5.49,0.96 6.75,3.34l13.88 51.94c0,5.84 -9.46,7.46 -13.57,7.46 -0.07,-3.05 -0.98,-5.07 -1.75,-7.75l-5.99 -22.51c-1.36,-5.41 -2.5,-9.73 -4.03,-14.97 -0.81,-2.77 -1.18,-4.81 -1.93,-7.57 -0.66,-2.41 -1.51,-4.57 -1.9,-7.6zm-196.78 11.54c-5.28,-0.44 -26.27,-11.02 -34.02,14.16 -1.32,4.28 -2.79,10.18 -3.85,14.47l-7.87 29.45c-5.01,19.9 5.31,26.25 21.99,30.13 -1.7,3.55 -2.27,10.5 -4.07,14.25 -4.69,-0.39 -18.47,-4.78 -23.63,-8.26 -9.47,-6.4 -11.66,-15.43 -11.66,-26.34 0,-4.27 4.81,-20.98 6.35,-26.22 3.7,-12.65 8.8,-40.2 15.74,-49.4 4.6,-6.1 13.43,-11.23 23.38,-11.23 5.89,0 15.02,3.35 21.04,4.75 -0.41,4.98 -2.99,9.45 -3.39,14.25zm44.79 -46.82c17.68,0 9.14,3.21 20.05,-5.06 16.15,-12.23 40.98,-6.61 49.86,10.47 4.89,9.41 2.42,11.27 8.58,13.81 5.28,2.18 9.89,3.77 13.81,9.26 8.24,11.52 4.76,22.17 0.94,35.59 -4.31,15.19 -3.9,28.89 -17.93,28.89 -7.92,0 -12.21,-7.99 -12.21,-11.54 0,-4.22 3.36,-14.06 4.48,-18.59 1.26,-5.09 4.34,-13.72 4.34,-18.73 0,-6.27 -9.34,-10.17 -13.12,-2.26 -3.88,8.1 -2.25,21.94 -11.99,21.94 -5.98,0 -8.75,-5.42 -7.37,-10.71 6.19,-23.69 9.83,-20.69 -26.16,-29.72l-34.33 -9.1c2.39,-3.57 4.52,-6.97 8.03,-9.61 2.88,-2.17 8.11,-4.64 13.01,-4.64zm95 10.86c2.77,-0.06 13.48,-3.36 16.82,-4.22 2.54,-0.65 5.19,-1.3 8.05,-2.13 3.09,-0.9 5.87,-1.27 8.38,-2.47l35.72 133.24c5.93,20.31 2.69,16.15 -26.62,24.47l-59.32 16c2.48,-10.65 5.72,-20.82 8.42,-31.62l17.08 -63.67c1.58,-5.59 2.74,-10.89 4.28,-16.08 3.9,-13.13 6.04,-27.87 -1.55,-40.36 -1.99,-3.28 -7.77,-10.88 -11.26,-11.81l0 -1.36zm-32.57 -48.18c7.06,0 15.88,3.19 20.08,6.38 14.49,11.02 5.08,5.15 18.6,5.15 11.54,0 19.03,7.29 23.07,14.93l-41.39 10.86c-3.95,-7.47 -9.55,-13.89 -16.82,-18.47 -7.55,-4.75 -15.79,-7.32 -27.97,-7.32 4.62,-6.9 16.25,-11.54 24.43,-11.54z"/>
   <path class="fil0" d="M25.11 25.11c0,-15.16 21.04,-13.33 21.04,-2.04 0,3.5 0.23,6.68 -3.26,9.63 -6.68,5.63 -17.77,1.02 -17.77,-7.59zm35.29 2.04l0 -4.07c0,-11.84 -11.23,-23.07 -23.07,-23.07 -6.55,0 -10.83,0.59 -16.7,5.02 -21.81,16.45 -3.04,52.75 24.28,42.6 3.56,-1.32 8.01,-4.73 10.18,-7.46 2.02,-2.53 5.31,-8.74 5.31,-13.01z"/>
   <path class="fil0" d="M266.68 65.14c0,-15.04 21.04,-13.29 21.04,-2.04 0,6.61 -2.49,12.21 -10.18,12.21 -5.76,0 -10.86,-4.67 -10.86,-10.18zm-14.25 -0.68c0,20.89 26.07,33.42 41.58,18.51 16.08,-15.46 6.97,-42.94 -17.83,-42.94 -9.26,0 -18.09,6.8 -21.45,14.52 -0.84,1.92 -2.3,7.64 -2.3,9.91z"/>
   <path class="fil0" d="M205.61 23.07c0,-9.99 13.57,-9.99 13.57,0 0,8.2 -13.57,8.2 -13.57,0zm-14.25 -0.68c0,11.39 8.93,21.04 21.71,21.04 18.16,0 27.15,-23.55 14.11,-35.82 -14.83,-13.95 -35.82,-2.14 -35.82,14.78z"/>
   <path class="fil0" d="M20.36 114.68c0,-9.76 13.57,-9.76 13.57,0 0,8.53 -13.57,8.37 -13.57,0zm-14.25 0c0,5.69 2.88,10.65 5.84,13.84l2.48 2.27c18.79,14.66 45.5,-9.85 28.46,-30.5 -10.52,-12.75 -36.77,-7.09 -36.77,14.38z"/>
   <path class="fil0" d="M58.36 86.86c0,5.84 3.46,6.86 8.82,8.15 4.37,1.05 8.46,2.29 12.9,3.39 7.3,1.81 22.39,8.53 22.39,-3.39 0,-7.09 -10.67,-7.95 -16.82,-9.64 -9.01,-2.47 -27.28,-10.79 -27.28,1.5z"/>
   <path class="fil0" d="M139.11 66.5c0,2.82 3.52,7.62 8.85,6.16 4.9,-1.35 5.07,-5.48 6.52,-10.47l7.03 -26.9c0,-6.01 -10.74,-10.97 -14.04,-1.14 -1.33,3.96 -8.36,29.66 -8.36,32.36z"/>
   <path class="fil0" d="M97.71 52.93c0,1.38 16.67,33.93 21.04,33.93 17.85,0 3.74,-16.92 -0.68,-25.11 -1.7,-3.14 -3.37,-5.67 -5.21,-9.04 -6.85,-12.49 -15.14,-4.34 -15.14,0.22z"/>
   <path class="fil0" d="M99.75 323.68c0,9.61 14.25,8.67 14.25,0 0,-8.2 -14.25,-9.89 -14.25,0z"/>
   <path class="fil0" d="M324.35 176.43c0,3.82 0.66,8.82 6.79,8.82 9.24,0 9.17,-14.25 -0.68,-14.25 -2.27,0 -6.11,3.19 -6.11,5.43z"/>
  </g>
 </g>
</svg>
