<?xml version="1.0" encoding="UTF-8"?>
<!DOCTYPE svg PUBLIC "-//W3C//DTD SVG 1.1//EN" "http://www.w3.org/Graphics/SVG/1.1/DTD/svg11.dtd">
<!-- Creator: CorelDRAW -->
<svg xmlns="http://www.w3.org/2000/svg" xml:space="preserve" width="151.47mm" height="81.7977mm" version="1.1" style="shape-rendering:geometricPrecision; text-rendering:geometricPrecision; image-rendering:optimizeQuality; fill-rule:evenodd; clip-rule:evenodd"
viewBox="0 0 15259.47 8240.53"
 xmlns:xlink="http://www.w3.org/1999/xlink"
 xmlns:xodm="http://www.corel.com/coreldraw/odm/2003">
 <defs>
  <style type="text/css">
   <![CDATA[
    .fil0 {fill:#002B00;fill-rule:nonzero}
    .fil1 {fill:#F5A001;fill-rule:nonzero}
   ]]>
  </style>
 </defs>
 <g id="Camada_x0020_1">
  <metadata id="CorelCorpID_0Corel-Layer"/>
  <path id="path3" class="fil0" d="M988.08 8148.87c-602.88,-195.34 -937.32,-685.32 -983.08,-1440.19 -48.31,-797.65 255.4,-1399.81 842.41,-1670.08 181.03,-83.29 313.34,-110.21 609.68,-123.53 396.2,-17.84 621.71,19.41 982.36,162.48l214.88 85.28 0 238.12 0 238.13 -207.8 -139.82c-579.93,-390.25 -1387.77,-349.32 -1750.97,88.97 -325.8,393.09 -389.54,1190.17 -136.42,1704.37 205.11,416.6 517.03,603.16 1008.29,603.16 324.95,0 617.46,-87.83 879.09,-263.9l207.8 -139.81 0 221.54c0,216.87 -3.4,223.25 -162.47,304.41 -405.56,206.95 -1086.76,266.3 -1503.79,131.17l0 -0.28z" sodipodi:role="line"/>
  <path id="path4" class="fil0" d="M116.76 2127.49l0 -2015.58 869.75 16.43c1000.5,18.98 1234.36,70.26 1638.36,359.51 1096.25,785.05 976.98,2722.71 -207.1,3367.24 -317.59,172.81 -654.72,230.89 -1513.14,260.64l-787.88 27.2 0 -2015.44zm1874.92 1438.63c612.22,-239.11 876.26,-685.89 874.42,-1478.57 -1.69,-691.55 -223.95,-1112.54 -714.21,-1352.36 -322.97,-157.94 -587.58,-206.96 -1119.77,-206.96l-424.26 0.14 0 1580.99 0 1580.99 583.19 -19.54c459.38,-15.44 629.36,-37.54 800.48,-104.4l0.14 -0.28z"/>
  <g>
   <path id="path5" class="fil1" d="M5560.35 4168.28c-375.24,-56.81 -687.44,-204.69 -929.52,-433.47 17,16.86 32.58,31.73 43.48,40.52 164.32,142.92 348.89,247.18 562.08,317.3l36.97 12.04 0 0.14 21.53 6.38c53.26,16.01 132.31,34.56 196.9,46.46 103.26,18.98 206.38,29.75 308.51,32.3l3.83 0.14 3.68 0 0.28 0 3.55 0 3.83 0.14 3.82 0 30.89 0.28 2.69 0 1.13 0 3.83 0 3.82 0 3.83 0 3.69 0 3.68 0c350.17,-4.39 685.46,-104.4 967.78,-292.8 94.91,-63.46 173.24,-128.2 253.98,-210.07 106.67,-108.22 192.23,-223.39 264.89,-356.68 40.65,-74.51 95.9,-198.03 132.16,-295.35l3.54 -9.49 13.46 -0.42 13.46 -0.42 -8.64 24.64c-57.08,163.32 -126.77,306.26 -212.19,435.86 -106.53,161.49 -246.76,307.54 -402.72,419.58 -158.79,114.03 -345.21,199.58 -542.25,249.03 -134.57,33.71 -269.14,52.12 -426.94,58.5 -40.66,1.55 -137.84,1.55 -179.34,-0.14l-0.14 -0.28c-159.78,-6.38 -312.2,-29.47 -454.98,-68.99l-21.53 -5.95 0 -9.91 -0.42 9.91c-0.15,0 -1.98,-0.71 -3.97,-1.41l0 0.28c-1.98,-0.71 -16.85,-5.38 -33,-10.35 -153.69,-47.59 -307.68,-122.1 -436.01,-211.06 -297.76,-206.11 -512.78,-506.13 -644.52,-899.36l-13.74 -40.93 13.46 -0.42c7.36,-0.28 13.88,0.14 14.45,0.71 0.57,0.56 4.83,12.74 9.5,26.77 81.16,246.91 203.27,463.21 362.76,642.69 10.35,11.62 28.2,30.02 47.88,49.86 -352.29,-359.8 -542.39,-902.62 -542.39,-1590.19 0,-873.58 332.18,-1543.73 922.58,-1870.11 -26.34,14.6 -51,28.76 -71.39,41.36 -173.39,107.79 -327.22,251.72 -451.73,422.41 -57.09,78.19 -108.65,163.47 -155.54,257.24l-22.81 45.48 0.56 0 -3.54 6.94c-6.8,13.59 -30.03,67.43 -43.07,99.87 -68.13,169.98 -117.43,358.66 -145.91,559.24 -2.83,19.69 -5.94,42.63 -6.79,50.85l-1.7 15.01 -0.14 0.14 -1.84 16.43c-18.42,160.07 -23.94,353.14 -15.16,528.93 10.91,217.44 41.79,420.57 91.66,603.87 5.94,21.67 24.5,85.42 26.49,90.24 0.56,1.55 -2.27,1.98 -13.17,1.98l-14.02 0 -2.27 -6.94c-11.05,-34 -33.44,-119.14 -45.48,-173.11 -49.43,-222.11 -71.82,-455.41 -69.27,-721.02 1.14,-124.23 5.81,-211.06 17.29,-323.24l1.69 -17.15 0.29 0 2.69 -23.09c28.33,-243.78 86.83,-470.29 175.79,-680.78l11.9 -28.19 17.29 0c-9.07,0 -16.43,-0.43 -16.43,-0.86 0,-2.27 29.74,-64.74 45.47,-95.33 112.62,-219.98 255.4,-399.88 427.37,-538.42 117.14,-94.35 257.24,-175.22 406.11,-234.16 172.25,-68.27 359.38,-110.63 555.85,-125.93 62.61,-4.82 91.94,-5.8 171.97,-5.8 80.6,0 112.05,1.13 175.36,5.94l31.88 2.41 0 25.07 0 25.07 -62.47 0c344.22,2.83 414.9,19.83 605.71,109.22 678.66,317.16 1028.26,965.93 1032.51,1915.86l0.14 24.22 0.42 -1.83 0 -30.45 -0.85 -77.91 0.14 -0.14 0 -2.69 -0.85 -14.45c-0.43,-9.49 -1.28,-27.06 -1.7,-39.1 -3.97,-105.82 -16.01,-232.45 -32.16,-339.4 -29.89,-197.61 -80.75,-385.01 -148.74,-547.35l-11.47 -27.48 0 -11.9 0 -10.35 0 -2.55 0 -9.91c0,-21.67 0.56,-34.14 1.42,-33.29 3.83,3.82 38.67,85.42 57.94,135.28 100.71,261.91 156.95,554 168.56,875.13l1 28.19 -1 0 1 13.88c1.41,19.4 -0.14,221.83 -2.13,257.53 -6.8,126.21 -15.16,215.03 -30.31,317.72 -8.5,57.8 -17.71,107.79 -34.42,187.69l-1.56 7.65 -5.8 0.14c3.96,0.14 4.82,0.85 4.82,2.41 0,5.24 -22.39,92.64 -34.28,134.01 -13.46,46.74 -31.02,101.7 -33.29,104.54 -1,1.13 -5.67,1.83 -13.74,1.83 -6.8,0 -12.32,-0.28 -12.32,-0.42l-0.15 0.14c0,-0.28 4.25,-12.32 9.36,-26.77 19.26,-54.25 39.09,-120.69 53.25,-178.49 4.53,-18.56 8.78,-34.56 9.64,-35.55 0.71,-0.86 3.25,-1.56 7.08,-1.7l-3.69 0 -3.69 0.14 0 -0.14 -0.56 0 1 -3.68c11.76,-46.6 29.88,-158.52 38.1,-233.45 11.62,-106.95 18.27,-238.4 19.54,-376.22l0 -5.67 -0.14 -32.02 -0.42 -5.66c-0.71,494.8 -55.39,763.09 -225.65,1124.58 -314.61,667.33 -1052.48,1035.77 -1839.22,918.2zm1398.96 -1148.53c29.89,-69.98 53.54,-136.55 72.52,-204.41l9.35 -33 7.65 0c-3.96,0 -7.08,-0.56 -7.08,-1.13l0.14 -0.14c0,-0.57 2.27,-10.06 5.11,-20.82 37.25,-144.2 59.35,-303.57 69.83,-502.87 2.55,-47.32 2.55,-251.15 0,-298.61 -7.08,-134.14 -17.29,-232.16 -35.42,-338.41 -9.2,-54.25 -25.78,-133.01 -33.14,-157.52 -0.71,-2.27 0,-2.55 4.11,-2.27l4.82 0.43 4.82 19.83c32.86,134.85 52.7,279.48 62.19,452.44 2.97,54.82 2.41,269 -0.86,329.35 -10.34,192.37 -30.6,355.55 -61.19,494.79 -4.82,22.1 -4.96,24.79 -9.35,24.93 3.55,0.14 3.55,0.86 2.83,3.97 -2.97,13.46 -17.56,68.84 -21.95,83.29 -13.88,46.46 -26.06,79.89 -45.62,125.79l-12.74 29.89 -9.07 0 -9.35 0 2.41 -5.53zm461.22 -2013.88c-14.16,-31.59 -47.87,-99.3 -64.16,-129.04 -156.82,-285.15 -379.35,-505.71 -667.19,-661.25 -84.85,-45.89 -187.83,-91.93 -250.31,-112.05 -89.1,-28.75 -179.47,-40.23 -342.23,-43.76l-47.17 -1 0 -25.07 0 -25.06 25.92 2.69c144.2,14.87 289.83,47.03 417.6,92.21 175.79,62.33 336,149.02 471.84,255.54 184.58,144.77 333.18,330.34 446.21,557.41l18.98 38.1 -0.42 35.41 -0.42 35.41 -8.64 -19.54zm-374.25 448.04c-71.1,-276.08 -188.68,-492.8 -360.79,-665.05 -85.98,-86.13 -175.5,-151 -281.17,-203.84 -119.28,-59.63 -244.64,-95.76 -395.21,-113.75l-17.57 -2.13 33 0.86c47.74,1.13 64.6,2.69 96.89,9.35 264.89,53.69 483.89,184.29 651.89,388.7 45.76,55.53 94.49,128.2 131.74,196.19 42.63,77.62 76.2,156.95 112.05,264.33 13.32,39.94 39.52,126.35 39.52,130.6 0,0.71 -1.98,1.27 -4.39,1.27 -3.83,0 -4.53,-0.71 -5.95,-6.23l0 -0.29zm-2205.81 -501.73l0.71 -0.14 0.71 0 1 0 0.71 -0.14c-4.96,-0.14 -6.38,-0.56 -5.66,-1.7l0.14 0.14c3.68,-6.24 34.71,-48.73 46.03,-63.46 165.6,-212.77 383.32,-347.47 653.59,-404.56 24.37,-5.1 107.23,-12.32 134.71,-11.76 6.94,0.14 6.94,0.28 -2.97,1.56 -95.9,12.32 -167.15,27.76 -243.51,52.69 -216.59,70.55 -399.46,203.7 -543.66,395.78 -8.5,11.33 -17.01,22.95 -18.98,25.92l-3.55 5.53 -0.71 0 -0.14 0.14 -1.84 2.69 -14.02 21.11c-19.12,28.75 -37.4,58.5 -54.68,89.53l-0.42 0.56 -19.69 36.97 -4.96 9.63 -0.43 0.71 -4.39 8.93 -9.49 19.4 -3.96 8.08 -0.72 1.7c-22.8,48.72 -43.62,99.57 -62.18,153.12l-0.57 1.98c-32.29,93.63 -58.22,194.64 -77.06,302.57l0 0.42 -2.13 12.47 -0.56 2.55 -1.56 10.05 -0.99 5.67 -0.99 6.94 -6.8 45.47 -0.42 3.69 -0.57 3.82 -0.42 3.69 -0.14 0 -0.42 3.68 -0.42 3.83 -0.57 3.83 -0.42 3.68 -0.28 1.14 -0.28 1.84 0 0.85 -0.14 1.13 -0.28 1.98 0 0.72 -0.28 1.27 -1.14 10.21 -0.14 0.14 -0.14 2.13 -0.14 1.55 -0.14 0.56 -0.28 2.13 -0.42 4.39 0 0.72 -0.28 1.41 -0.29 2.27 0 0.14 -0.28 2.13 -0.14 1.7 -0.14 0.42 -0.14 2.27 -0.14 1.28 -0.14 0.99 -0.28 2.27 0 0.56 -0.28 1.7 -0.14 2.13 0 0.14 -0.28 2.13 -0.14 1.7 -0.15 0.56 -0.28 2.27 0 1.13 -0.14 1.14 -0.28 2.27 0 0.42 -0.28 1.84 -0.14 2.13 -1.14 11.04 0 0.72 -0.28 1.41 -0.85 10.35 -0.14 0.14 -0.28 3.82 -0.14 0.28 -7.08 93.5c-7.94,132.31 -7.66,292.37 0.85,416.88 0.85,12.18 0.56,14.31 -1.27,14.31 1.97,0.42 2.69,4.96 4.24,24.22 22.1,300.3 93.92,567.18 209.36,777.39 110.49,201.44 275.24,369.01 461.08,469.72 11.33,6.09 22.24,12.04 24.51,13.32 3.4,1.84 3.97,3.11 3.97,8.07 0,3.26 -0.43,5.95 -1.14,5.95 -0.56,0 -9.35,-4.39 -19.4,-9.63l0.14 -0.14c-296.63,-156.53 -506.13,-425.67 -617.9,-793.68 -31.3,-103.27 -51.84,-242.94 -64.3,-439.55 -3.55,-55.67 -3.55,-55.67 -0.86,-55.67l0.29 0c-1.7,0 -2.42,-2.55 -3.12,-10.63l0.14 0c-4.67,-55.38 -6.37,-319.99 -2.69,-405.83 9.21,-211.77 25.22,-349.88 53.12,-459.81 47.45,-186.27 115.45,-347.47 206.81,-489.97l11.9 -18.7 4.25 0zm196.19 -752.89l23.37 -11.32c235.57,-111.62 286.84,-127.63 644.66,-129.9 -136.56,0.99 -200.72,3.11 -264.47,8.63 -99.29,8.93 -168.42,26.5 -263.47,67.29 -46.46,19.84 -94.62,42.5 -140.09,65.3zm735.18 3556.48c-134.71,-6.37 -249.17,-22.94 -327.22,-47.73 -40.09,-12.75 -100.43,-37.11 -146.75,-59.5l-24.5 -11.76 0 -6.23 0 -6.24 20.11 9.63c143.36,68.27 290.25,104.4 467.46,114.74 53.54,3.12 151.99,1.7 209.36,-2.97 250.16,-20.82 467.03,-106.67 644.24,-255.26 36.12,-30.31 87.39,-80.03 120.27,-116.44 85.13,-94.76 159.92,-210.21 215.03,-332.31l6.94 -15.44 8.93 -0.42c4.96,-0.28 8.93,0 8.93,0.56 0,2.27 -29.89,62.05 -42.36,84.86 -81.59,148.73 -186.41,279.34 -309.08,385.15 -135.29,116.72 -292.23,199.45 -441.11,232.59 -50.71,11.33 -122.67,20.4 -202.85,25.78 -30.88,1.98 -172.67,2.97 -207.1,1.42l-0.28 -0.43zm-498.48 371.84l0 -6.38 0 -0.14 0 -16.29 0 -0.14 0 22.95zm1785.96 -2661.94c-28.47,-106.53 -63.32,-208.09 -103.55,-301.72l-4.1 -9.35c-174.52,-378.36 -471.85,-614.63 -863.94,-682.48l-2.27 -0.28 -1.42 -0.29 -0.71 0 -0.43 0c-65.72,-3.82 -147.46,-4.67 -256.53,-4.67l-55.81 0.29 -3.25 0c-76.92,0.99 -145.19,3.96 -206.96,9.91l-0.56 0.14 -0.42 0c-479.35,91.5 -804.03,431.19 -944.83,992.56 -34.56,137.69 -52.13,361.79 -53.54,593.67l0 7.66 0 7.65 0 1.84 0 5.94 0 7.8 0 6.23 0 1.56 0 3.11 0 4.53 0 0.14 0.14 7.8 0 7.79 0 4.39 0 3.4 0 3.83 0.14 3.97 0 7.65 0 5.8 0 0.86 0.14 1.13 0 7.66 0.14 7.65 0.14 15.01 0.14 7.37c4.67,249.17 28.47,490.54 68.71,626.25 132.73,445.49 399.03,741.12 794.95,882.36 88.11,31.44 225.51,49.86 367.59,54.53l3.4 0.14 6.8 0.14 3.41 0.14 3.4 0 3.55 0.14 0.99 0 2.55 0 3.69 0.14 3.54 0 3.69 0 0.56 0 3.12 0.14 3.82 0 7.08 0.15 0.28 0 7.52 0 6.37 0 1 0 7.22 0 5.8 0 1.56 0 7.22 0 5.1 0 2.13 0 7.22 -0.15 32.44 -0.71 2.98 0c109.78,-3.4 213.89,-15.87 290.52,-37.11l-0.14 -0.14c170.42,-47.31 335.01,-149.58 474.26,-288.55l2.13 -2.27 0.28 -0.14c131.46,-131.59 239.82,-295.49 310.08,-476.09 71.68,-184.3 116.02,-496.92 121.25,-804.31l0 -4.25 0 -4.25 0.15 -2.55 0 -1.69 0 -4.39 0 -4.39 0 -4.39 0 -4.39 0.14 -8.93 0 -4.53 0 -4.53 0 -27.19 0 -4.53 0 -4.53 -0.14 -13.32 0 -4.25 0 -4.39 0 -4.25 0 -3.4 -0.15 -0.85 0 -4.25 0 -4.11 0 -3.97 -0.14 -4.1c-1.69,-89.95 -7.22,-177.22 -16.57,-259.09 -11.62,-102.27 -28.75,-199.3 -51.28,-290.53l-0.56 -2.12z"/>
  </g>
  <path id="path6" class="fil0" d="M9581.6 4107.8c-627.24,-168.85 -1037.47,-609.53 -1216.38,-1306.33 -73.52,-286.28 -83.01,-983.77 -17.71,-1299.1 187.13,-903.88 885.9,-1465.25 1823.93,-1465.25 372.55,0 649.34,57.36 1026.84,212.9l296.77 122.25 0 299.45 0 299.46 -262.63 -176.08c-368.58,-247.18 -622.71,-324.95 -1067.5,-326.65 -300.02,-1.13 -406.4,16.01 -572.98,92.64 -531.62,244.63 -799.34,764.78 -797.08,1548.83 1.55,581.77 136.83,981.09 437.43,1291.03 475.81,490.97 1507.61,456.83 2134.28,-70.4l128.63 -108.23 0 304.84 0 304.84 -321.41 127.07c-176.78,69.83 -402.44,145.61 -501.46,168.56 -255.54,58.92 -837.6,48.31 -1090.58,-19.69l-0.14 -0.14z"/>
  <polygon id="path7" class="fil0" points="12272.72,2124.51 12272.72,118.99 13541.5,118.99 14810.29,118.99 14810.29,323.68 14810.29,528.37 13787.12,528.37 12763.83,528.37 12763.83,1101.35 12763.83,1674.34 13787.12,1674.34 14810.29,1674.34 14810.29,1899.42 14810.29,2124.51 13787.12,2124.51 12763.83,2124.51 12763.83,2902.19 12763.83,3679.86 13787.12,3679.86 14810.29,3679.86 14810.29,3904.94 14810.29,4130.03 13541.5,4130.03 12272.72,4130.03 "/>
  <path id="path8" class="fil0" d="M12500.22 7782.98c78.89,-219.43 342.37,-942.42 585.45,-1606.49l441.96 -1207.44 278.2 0.14 278.35 0 505.7 1391.6c278.07,765.34 542.53,1489.19 587.58,1608.61l82.01 217.01 -212.9 -12.32 -212.91 -12.33 -150.01 -429.77 -150.02 -429.78 -736.73 -11.19 -736.74 -11.19 -154.4 451.17 -154.41 451.17 -197.31 -0.14 -197.32 0 143.5 -399.03zm1802.25 -1125.58c-52.28,-140.66 -184.57,-508.39 -294.22,-817.2 -109.64,-308.81 -211.06,-548.2 -225.36,-532.05 -27.2,30.45 -568.74,1534.68 -568.74,1579.58 0,14.02 266.31,25.5 591.68,25.5l591.55 0 -94.91 -255.83z"/>
  <polygon id="path9" class="fil0" points="10962.99,6729.08 10962.99,5276.15 10369.47,5276.15 9776.08,5276.15 9776.08,5112.39 9776.08,4948.65 11147.14,4948.65 12518.34,4948.65 12518.34,5112.39 12518.34,5276.15 11924.81,5276.15 11331.29,5276.15 11331.29,6729.08 11331.29,8182.02 11147.14,8182.02 10962.99,8182.02 "/>
  <path id="path10" class="fil0" d="M6870.07 6563.63l0 -1618.39 317.16 11.91 317.16 11.9 695.8 1319.35c382.75,725.55 709.54,1319.64 726.54,1319.93 16.86,0.42 30.74,-597.92 30.74,-1329.56l0 -1330.12 184.16 0 184.15 0 0 1616.68 0 1616.69 -258.52 0 -258.52 0 -774.84 -1463.28 -774.84 -1463.27 -10.77 1463.27 -10.76 1463.28 -183.72 0 -183.72 0 0 -1618.38z"/>
  <path id="path11" class="fil0" d="M4343.12 8218.14c-482.33,-79.33 -831.5,-348.05 -1044.97,-804.03 -108.36,-231.6 -128.34,-327.93 -144.77,-696.08 -29.47,-662.51 104.96,-1104.6 436.72,-1436.22 513.49,-513.5 1468.51,-533.75 2025.92,-43.06 671.57,591.11 671.86,2061.89 0.71,2652.73 -315.46,277.79 -806.43,403.72 -1273.74,326.8l0.14 -0.14zm754.02 -407.97c403.28,-195.2 603.3,-607.97 603.3,-1244.7 0,-462.5 -86.97,-762.24 -289.68,-999.23 -210.08,-245.48 -411.5,-329.06 -795.53,-330.05 -377.36,-1.13 -603.86,101 -803.45,362.21 -181.46,237.41 -256.82,521.14 -256.82,967.21 0,650.32 187.98,1045.4 585.74,1230.53 282.74,131.6 701.18,137.83 956.58,14.31l-0.14 -0.28z"/>
 </g>
</svg>
