<?xml version="1.0" encoding="UTF-8"?>
<!DOCTYPE svg PUBLIC "-//W3C//DTD SVG 1.1//EN" "http://www.w3.org/Graphics/SVG/1.1/DTD/svg11.dtd">
<!-- Creator: CorelDRAW -->
<svg xmlns="http://www.w3.org/2000/svg" xml:space="preserve" width="102.907mm" height="107.247mm" version="1.1" style="shape-rendering:geometricPrecision; text-rendering:geometricPrecision; image-rendering:optimizeQuality; fill-rule:evenodd; clip-rule:evenodd"
viewBox="0 0 260.24 271.22"
 xmlns:xlink="http://www.w3.org/1999/xlink"
 xmlns:xodm="http://www.corel.com/coreldraw/odm/2003">
 <defs>
  <style type="text/css">
   <![CDATA[
    .fil0 {fill:#F5A001}
   ]]>
  </style>
 </defs>
 <g id="Camada_x0020_1">
  <metadata id="CorelCorpID_0Corel-Layer"/>
  <g id="_1786024464416">
   <path class="fil0" d="M199.04 259.56l-38.67 0 12.18 -49.26c10.19,-40.74 3.44,-25.94 20.13,-33.37 7.32,-3.26 2.81,-3.88 10.23,-0.16 13.84,6.94 16.95,0.83 15.13,7.46 -1.94,7.06 -17.91,73.06 -19.01,75.35zm38.02 -259.56l1.4 0c2.21,0.25 4.17,1.7 4.79,4.55 0.86,3.9 -5.86,8.81 -10.35,16.6 -4.88,8.47 -6.32,16.84 -6.32,30.23 15.69,1.3 35.63,21.69 24.68,47.99 -1.95,4.68 -5.29,7.41 -7.2,10.28 5.32,2.81 10.8,10.68 13.18,16.48 3.05,7.43 3.95,15.54 1.87,24.52 -0.98,4.24 -2.32,7.27 -4.28,10.55 -10.09,16.93 -22.48,16.04 -23.93,19.51l-17.57 70.36c-1,3.99 -1.92,7.68 -2.97,11.87 -0.97,3.91 -1.48,8.26 -6.04,8.26l-148.32 0c-4.7,0 -5.14,-4.68 -6.14,-8.69 -2.31,-9.25 -20.34,-79.03 -20.34,-82.96 -10.93,-2.55 -20.41,-11.09 -25.4,-20.69 -6.28,-12.07 -4.92,-25.27 0.85,-36.71 2.16,-4.28 3.72,-5.52 6.38,-8.45 0.16,-0.17 0.72,-0.81 0.75,-0.84 0.07,-0.08 0.18,-0.19 0.26,-0.27 3.38,-3.4 4.85,-2.69 5,-7.19 0.83,-26.06 13.28,-44.44 14.29,-48.22 -5.05,-7.54 -9.01,-11.9 -9.01,-23.31 0,-7.05 2.58,-14.1 6.13,-19.3 9.21,-13.48 27.83,-18.56 42.79,-11.08 8,4 7.16,5.42 10.41,7.6 29.98,-15.86 69.6,-13.87 99.24,0.88 13.05,6.5 25.26,16.32 34.25,26.67 0,-7.19 4.51,-18.03 7.25,-22.95 2.02,-3.62 3.73,-5.99 6.22,-9.14l3.34 -4.07c1.3,-1.45 3.06,-2.32 4.8,-2.5zm-174.69 174.28c1.14,0 3.52,1.82 4.93,2.48 17.11,7.99 10.13,-7.9 20.49,33.54l12.18 49.26 -38.67 0 -18.88 -74.91c-2.01,-7.27 0.65,-0.85 14.66,-7.71 1.16,-0.57 4.29,-2.66 5.29,-2.66zm29.66 5.83c2.33,-0.19 6.15,-1.49 8.26,-2.33 1.38,-0.56 2.26,-1.05 3.58,-1.72l3.52 -2.3c13.88,9.3 31.67,9.3 45.56,0l3.17 2.13c1.14,0.58 2.23,1.18 3.56,1.74 2.04,0.86 6.3,2.29 8.64,2.49 -0.86,1.78 -2,7.49 -2.54,9.64 -0.89,3.58 -1.63,6.52 -2.54,10.17l-13.87 55.52c-0.45,1.94 -0.32,4.13 -2.23,4.13l-33.9 0c-2.04,0 -2.32,-4.52 -3.39,-8.79 -0.91,-3.65 -1.65,-6.59 -2.54,-10.17l-15.26 -60.5zm105.95 -95.35c0,-5.45 2.7,-11.31 5.98,-15.21 11.13,-13.28 39.05,-8.03 39.05,16.27 0,10.63 -10.12,21.19 -20.66,21.19 -7.2,0 -13.39,-1.36 -18.15,-6.75 -2.9,-3.29 -6.22,-9.57 -6.22,-15.5zm-11.66 -1.59c0,11.41 2.85,19.16 10.19,26.37 8.51,8.36 22.65,12.38 35.01,7.64 2.35,-0.9 2.92,-0.35 4.62,0.93 0.8,0.6 0.93,0.79 1.74,1.44 1.06,0.86 1.13,0.69 2.07,1.63l3.06 3.82c0.97,1.34 1.62,2.72 2.47,4.42 7.38,14.75 -0.45,32.11 -14.8,37.83 -9.12,3.64 -17.52,2.53 -25.5,-2.83 -10.39,-6.97 -7.25,-3.48 -16.66,1.46 -9.7,5.1 -21.98,3.93 -30.73,-2.81 -6.9,-5.32 -6.7,-1.27 -14.37,2.74 -18.96,9.9 -32.51,-5.31 -36.03,-5.31 -1.82,0 -3.66,1.66 -4.85,2.57 -1.54,1.19 -2.57,1.98 -4.5,2.92 -10.09,4.91 -21.81,3.89 -30.77,-2.99 -3.84,-2.95 -5.73,-3.72 -10.08,0.28 -12.39,11.42 -34.86,8.38 -43.23,-8.42 -6.32,-12.7 -2.88,-26.47 8,-35.28 4.94,-4 6.17,-1.59 6.51,-8.85 1.02,-22.05 7.48,-41.44 19.42,-57.39 32.94,-43.97 97.17,-55.68 141.14,-23.23 5.66,4.17 18.52,15.44 22.17,22.33 -10.26,0.85 -24.9,15.85 -24.9,30.72zm-148.32 -36.55c-0.64,-2.77 -3.18,-6.04 -3.18,-11.65 0,-17.98 18.31,-26.5 30.37,-21.36 3.7,1.58 5.15,1.97 5.65,3.88 -5.35,1.43 -20.49,15.59 -25.3,20.79 -1.55,1.68 -5.88,7.91 -7.54,8.35z"/>
   <path class="fil0" d="M158.25 67.81c0,7.62 11.65,7.62 11.65,0 0,-7.62 -11.65,-7.62 -11.65,0z"/>
   <path class="fil0" d="M106.87 141.44c8.83,0 8.08,-11.66 0.53,-11.66 -7.59,0 -6.73,11.66 -0.53,11.66z"/>
   <path class="fil0" d="M141.3 107.53c0,7.59 11.65,6.73 11.65,0.53 0,-8.83 -11.65,-8.08 -11.65,-0.53z"/>
   <path class="fil0" d="M73.5 107.53c0,7.59 11.65,6.73 11.65,0.53 0,-8.83 -11.65,-8.08 -11.65,-0.53z"/>
   <path class="fil0" d="M90.45 44.5c0,8.83 11.65,8.08 11.65,0.53 0,-7.59 -11.65,-6.73 -11.65,-0.53z"/>
   <path class="fil0" d="M107.4 73.63c0,2.86 2.58,5.37 5.43,5.59 7.4,0.57 9.13,-11.42 -0.13,-11.42 -3.02,0 -5.3,2.79 -5.3,5.83z"/>
   <path class="fil0" d="M197.98 141.97c0,-4.48 -1.88,-6.36 -6.36,-6.36 -4.71,0 -6.77,6.28 -3.34,9.7 3.42,3.42 9.7,1.36 9.7,-3.34z"/>
   <path class="fil0" d="M56.02 84.76c4.48,0 6.36,-1.88 6.36,-6.36 0,-4.71 -6.28,-6.77 -9.7,-3.34 -3.42,3.42 -1.37,9.7 3.34,9.7z"/>
   <path class="fil0" d="M45.42 141.97c0,-4.48 -1.88,-6.36 -6.36,-6.36 -4.71,0 -6.77,6.28 -3.34,9.7 3.42,3.42 9.7,1.36 9.7,-3.34z"/>
   <path class="fil0" d="M141.3 27.55c0,8.83 11.65,8.08 11.65,0.53 0,-2.86 -2.58,-5.37 -5.43,-5.59 -2.79,-0.22 -6.23,2.41 -6.23,5.06z"/>
  </g>
 </g>
</svg>
