<?xml version="1.0" encoding="UTF-8"?>
<!DOCTYPE svg PUBLIC "-//W3C//DTD SVG 1.1//EN" "http://www.w3.org/Graphics/SVG/1.1/DTD/svg11.dtd">
<!-- Creator: CorelDRAW -->
<svg xmlns="http://www.w3.org/2000/svg" xml:space="preserve" width="135.485mm" height="135.485mm" version="1.1" style="shape-rendering:geometricPrecision; text-rendering:geometricPrecision; image-rendering:optimizeQuality; fill-rule:evenodd; clip-rule:evenodd"
viewBox="0 0 375.95 375.95"
 xmlns:xlink="http://www.w3.org/1999/xlink"
 xmlns:xodm="http://www.corel.com/coreldraw/odm/2003">
 <defs>
  <style type="text/css">
   <![CDATA[
    .fil0 {fill:#F5A001}
   ]]>
  </style>
 </defs>
 <g id="Camada_x0020_1">
  <metadata id="CorelCorpID_0Corel-Layer"/>
  <g id="_1821013788096">
   <path class="fil0" d="M133.64 351.72c4.03,-6.02 28.69,-11.01 35.98,-11.01 1.11,13.29 15.5,11.01 24.97,11.01 6.37,0 11.27,-5.25 11.75,-11.01 5.93,0 15.22,2.3 19.98,3.51 5.27,1.34 13.53,3.82 16,7.5 -11.43,15.6 -97.25,15.6 -108.67,0zm179.02 -351.72l3.7 0c7.05,0.69 13.59,5.38 15.66,14.59 2.03,9.02 -3.51,16.06 -8.92,19.94 -2.31,1.66 -7.03,4.12 -10.6,4.82 -7.94,1.55 -5.34,-1.17 -9.78,4.9 -2.33,3.19 -4.19,5.71 -6.5,8.92l-6.18 8.5c1.6,3.02 2.12,2.85 3.99,5.56 8.86,12.78 7.55,30.6 -1.46,42.5 -2.56,3.39 -6.13,4.5 -5.64,8.54 1.25,10.49 4.89,27.28 6.97,37.93 4.82,24.7 4.91,43.11 -4.9,66.7 -12.95,31.14 -48.77,56.11 -82.67,56.11l0.18 48.64 136.4 -136.02c8.4,5.62 17.93,19.73 22.53,28.87 6.62,13.14 10.07,27.21 10.51,41.36l0 6.19c-0.43,13.91 -3.73,27.78 -9.78,40.83l-9.2 15.03c-3.62,4.61 -7.12,8.81 -11.29,12.94l-6.74 5.74c-2.33,1.83 -4.3,3.36 -6.73,5.02 -16.21,11 -33.53,16.58 -55.38,16.58 -7.79,0 -15.06,-1.64 -22.74,-3.08 -3.79,-0.71 -4.73,1.56 -7.68,3.5 -10.09,6.65 -28,10.42 -47.37,11.33l-18.66 0c-19.39,-0.89 -38.23,-4.57 -50.41,-11.01 -11.23,7.52 -12.26,11.01 -28.64,11.01 -7.1,0 -24.35,-6.15 -26.43,-13.95 -1.68,1.12 -4.18,3.44 -6.04,4.97 -2.45,2.03 -3.62,2.83 -6.67,4.34 -6.06,3.02 -14.05,4.63 -21.8,4.63 -23.47,0 -39.69,-20.17 -40.39,-41.4l0 -2.86c0.31,-9.32 3.67,-18.68 10.78,-26.47l4.82 -4.73c4.8,-4.48 11.8,-7.61 18.37,-8.8 11.21,-2.04 7.45,1.63 10.72,-7.64 1.53,-4.34 4.17,-8.15 6.93,-11.43 13.49,-16.09 38.06,-15.19 52.76,-1.79 8.85,8.07 12.91,22.12 10.17,33.88 3.82,1.83 5.61,2.06 9.24,4.71 14.52,10.56 12.71,18.38 15.72,24.66 9.5,-2.21 19.37,-5.87 30.11,-5.87l0 -49.2c-20,0 -44.97,-10.18 -58.57,-23.67 -2.13,-2.11 -3.72,-3.76 -5.86,-5.89 -14.62,-14.58 -26.62,-37.62 -26.62,-66.64 0,-11.74 9.78,-63.3 12.66,-77.65 1.16,-5.77 8.27,-14.87 13.77,-16.34 -0.13,-5.8 -4.59,-10.65 -5.87,-16.15 -9.82,5.2 -22.55,9.77 -32.94,14.06 -4.59,1.89 -17.73,9.23 -17.73,-1.57 0,-3.05 2.13,-8.86 2.94,-11.75 1.03,-3.7 2,-6.97 3.09,-10.86l12.9 -44.37c3,-10.69 3.32,-18.2 10.44,-18.2 4.2,0 43.72,23.01 50.66,26.44 3.65,1.8 6.25,3.51 10.04,5.38 9.68,4.79 28.92,12.66 8.12,20.84 -8.97,3.53 -27.93,13.07 -35.77,14.89 0.24,2.89 4.57,12.23 5.87,14.69 2.75,-0.23 5.2,-1.4 7.43,-2.12 27.83,-8.97 59.57,-8.07 88.76,-6.69 5.27,0.25 10.29,1.46 16.16,1.46 2.43,-4.59 4.19,-8.36 7.54,-12.28 6.01,-7.03 18.18,-12.36 27.6,-11.85 1.83,0.1 6.82,0.96 8.79,1.5 2.35,0.65 4.63,1.84 7.47,2.07 0.64,-2.4 0.81,-1.78 2.18,-3.69 0.86,-1.21 1.45,-2.14 2.43,-3.45 14.83,-19.87 9.34,-9.32 9.34,-25.9 0,-12.92 8.96,-20.41 18.21,-21.29zm-191.51 356.13c-7.06,4.73 -8.78,7.34 -19.09,7.34 -12.18,0 -22.76,-11.19 -22.76,-21.29 0,-7.77 0.37,-13.28 6.76,-19.67 14.13,-14.13 40.97,-5.29 40.97,16.74 0,4.1 -5.87,1.56 -5.87,16.89zm-54.34 -19.83c0,14.63 2.95,12.8 -4.12,19.38 -22.6,21.02 -61.23,-3.14 -47.52,-35.04 1.61,-3.74 3.65,-5.75 6.29,-8.39 12.41,-12.42 30.85,-11.61 42.98,0.72 11.03,11.21 2.36,11.71 2.36,23.33zm203.95 -55.25l8.92 38.43c0.56,2.63 1,3.49 1.54,5.81 -7.87,4.17 -20.45,-0.42 -28.34,-3.97 -4.29,-1.93 -9.76,-6 -13.52,-8.51l31.39 -31.76zm-192.94 -7.9c8.62,0 13.75,2.54 18.65,7.79 5.84,6.26 7.52,14 5.58,22.32 -5.66,0 -8.69,0.81 -12.92,2.5 -4.18,1.67 -7.1,4.77 -10.57,5.58 -4.16,-7.86 -13.8,-16.1 -23.5,-18.36 2.62,-11.26 11.32,-19.83 22.76,-19.83zm257.73 12.48c0,7.36 -8.98,18.89 -13.77,23.68 -2.95,2.95 -6.34,6.08 -10.03,8.32 -19.66,11.93 -18.41,6.79 -23.74,-18.24 -0.83,-3.89 -6.7,-28.14 -6.25,-29.05 0.93,-1.86 9.85,1.09 13.59,1.88l28.77 6.48c5.24,1.15 11.44,1.15 11.44,6.92zm-11.2 -58.19c5.68,3.87 19.17,30.4 13.4,41.3 -4.98,-0.11 -39.25,-9.55 -44.79,-9.55l31.39 -31.76zm-167.24 -18.18c13.57,0 24.23,10.19 24.23,22.03 0,12.29 -0.32,11.01 -8.08,11.01 -12.17,0 -21.84,-3.59 -31.08,-9.3 -3.32,-2.05 -5.16,-4.32 -7.83,-6.12 4.11,-8.57 9.03,-17.62 22.76,-17.62zm176.23 8.81l9.38 -8.98c1.26,1.81 2.63,3.19 4.05,5.09 1.44,1.92 2.62,3.54 3.89,5.66 2.5,4.18 4.37,7.62 6.18,12.18 9.71,24.45 8.68,46.41 -1.56,70.4 -0.89,2.08 -2.39,4.52 -3.62,6.66 -2.78,4.86 -9.86,14.2 -13.71,17.86l-11.35 9.21c-9.98,6.81 -17.57,10.04 -29.52,13.07 -13.18,3.34 -26.6,3.02 -39.72,-0.09 -3.67,-0.87 -1.59,0.4 -3.33,-1.81 -2.66,-3.38 -2.14,-7.64 -16.6,-12.77 -4,-1.42 -11.06,-4.02 -15.7,-4.12l8.64 -8.99c11.17,7.62 14.65,12.08 30.57,16.05 7.22,1.8 17.53,3.99 24.4,-0 4.97,-2.89 2.55,-3.81 7.11,-2.24 14.15,4.87 32.01,-10.87 40.73,-19.67 5.45,-5.5 16.68,-22.3 15.02,-32.25 -0.6,-3.59 -0.99,-3.01 -1.63,-5.77 4.26,-6.36 5.14,-6.26 5.14,-14.69 0,-14.03 -6.8,-29.69 -14.78,-40.29 -1.3,-1.73 -2.52,-2.93 -3.57,-4.5zm-140.25 24.23c0.93,-4.01 1.47,-8.35 0.99,-11.95 -1.24,-9.22 -0.88,-4.8 -2.45,-11.55 6.25,-1.46 24.86,-0.44 49.35,-6.46 6.23,-1.53 9.5,-3.38 14.54,-4.56 -13.83,26.13 -29.86,34.51 -62.41,34.51zm-72.69 -34.51c3.58,0.3 4.06,1.87 8.08,2.2 -0.23,2.71 -1.52,4.3 -3.67,5.87 -1.51,-2.85 -2.9,-5.23 -4.41,-8.08zm83.71 -2.2c-16.01,0 -23.63,2.6 -30.97,-7.21 -10.66,-14.24 -0.08,-37.58 18.49,-37.58 7.01,0 12.07,1.04 17.46,6.04 17.76,16.46 1,38.75 -4.98,38.75zm-47.73 -22.03c0,5 0.29,9.23 2.2,13.22 -6.25,0 -7.92,0.19 -12.78,1.91 -6.33,2.24 -3.69,3.05 -11,0.58 -6.83,-2.31 -15.96,-4.53 -19.54,-11.3 4.41,-8.33 21.14,-12.26 30.03,-14.03 3.18,-0.63 9.96,-2.05 13.29,-2.13 -0.95,4.09 -2.2,6.41 -2.2,11.75zm-38.92 -13.95zm111.61 -9.55l-111.61 9.55zm111.61 -9.55c-7.21,0 -9.57,-1.08 -14.37,-4.72 -3.64,-2.76 -7.24,-5.02 -8.39,-9.97l23.92 -2.51c5.42,-0.83 17.96,-3.08 21.6,-4.83 0,11.79 -10.89,22.03 -22.76,22.03zm-111.61 9.55c0,-7.95 3.5,-15.96 3.67,-23.5 -4.88,0 -6.81,-1.47 -12.48,-1.47 -0.38,16.91 -16.43,45.37 6.3,78.88 1.82,2.68 3.22,4.15 5.22,6.53 15.61,18.57 34.04,24.74 60.44,24.74 25.62,0 40.57,1.62 60.8,-11.89 14.73,-9.84 25.58,-24.57 29.82,-42.88 1.82,-7.88 3.07,-13.31 -0.52,-19.91 -2.15,-3.96 -9.1,-9.41 -13.74,-10.49l-5.13 11.02c4.41,2.34 6.4,2.8 8.8,7.34 -4.83,9.12 -29.06,14.69 -35.98,14.69 2.61,-3.89 3.68,-7.95 4.55,-13.82 0.97,-6.61 -0.2,-10.25 -1.61,-16.29 14.14,0 23.5,-6.15 29.7,-14.35 8.89,-11.75 8.41,-21.81 5.54,-34.11 9.34,0 8.09,-1.37 12.48,-1.47l8.83 52.11c1.47,17.43 -1.07,34.88 -9.98,49.54 -4.68,7.7 -6.56,10.69 -12.99,17.12 -5.87,5.86 -9.69,9.24 -17.12,13.72 -6.58,3.97 -13.47,6.84 -21.9,8.94 -9.74,2.43 -16.48,2.49 -28.35,2.49l0 72.69 -11.75 0 0 -72.69c-26.53,0 -46.92,-4.68 -65.9,-23.68 -6.39,-6.39 -8.48,-8.63 -13.37,-16.74 -7.1,-11.79 -13.62,-32.61 -11.48,-47.39l8.51 -51.71 8.96 4.99c11.42,6.19 31.41,10.76 44.66,11.88 12.17,1.03 13.67,1.55 26.42,1.48 2.99,-0.02 4.29,0.09 6.94,0.46 4,0.56 3,-0.18 6.27,-0.45 0.19,2.27 -0.01,1.39 0.73,2.94 -8.2,0 -14.3,1.47 -19.41,4.82l-6.77 4.97c-1.14,0.45 -9.33,1.06 -11.21,1.27 -23.83,2.65 -29.84,8.09 -38.97,10.22zm87.38 -36.71c0,-9.9 10.86,-20.56 20.56,-20.56 10.12,0 13.92,0.83 20.77,7.87 2.27,2.33 2.02,2.62 3.47,5.35 -7.1,3.41 -23.75,5.04 -32.61,6.3l-12.18 1.04zm-101.33 -23.5c0,-4.69 4.48,-8.78 7.34,-9.55 0.23,2.77 3.35,8.83 4.51,11.64 1.47,3.57 3.32,8.27 5.04,11.85 -5.55,-1.29 -16.89,-7.55 -16.89,-13.95zm18.36 -15.42c4.65,-1.08 8.48,-2.72 13.76,-3.86 20.17,-4.35 36.29,-4.95 57.47,-4.95 11.26,0 27.92,2.2 33.78,2.2 0,5.35 1.24,8.37 2.2,12.48 -7.09,0 -9.87,0.37 -15.13,2.49 -14.37,5.79 -19.22,17.27 -22.32,30.55 -17.09,0 -25.63,0.11 -42.55,-2.24 -3.98,-0.55 -9.56,-2.08 -13.25,-2.17 -0.79,-3.39 -1.97,-5.25 -3.26,-8.49l-10.7 -26.02zm140.98 17.62c-7.58,0 -9.6,-2.41 -12.79,-4.83 -5.03,-3.81 -10.71,-8.12 -10.71,-19.4 0,-6.48 3.12,-12.02 6.16,-15.87 5.63,-7.14 13.46,-7.63 21.01,-7.63 15.7,0 30.58,24.75 13.43,41.34 -3.73,3.61 -9.96,6.39 -17.1,6.39zm-198.26 -38.18c1.8,-7.73 4.36,-15.87 6.7,-23.41 1.24,-4.02 6.45,-21.39 6.52,-24.32l1.47 0c0.97,4.15 5.43,13.28 7.25,17.72l7.44 18.26c-3.01,0.7 -5.01,1.82 -7.45,2.83 -5.83,2.41 -17.19,7.81 -21.92,8.92zm25.7 -52.87c4.81,1.12 39.14,21.62 44.06,22.76 -2.27,3.1 -24.63,11.1 -28.64,13.22 -3.6,-6.81 -11.56,-28.68 -15.42,-35.98zm218.08 6.61c-3.31,0 -1.14,-14.69 4.41,-14.69 7.37,0 8.01,5.56 6.01,8.9 -1.54,2.59 -6.5,5.79 -10.42,5.79z"/>
   <path class="fil0" d="M24.23 331.9c0,3.2 3.11,2.2 10.28,2.2 3.96,0 -0.04,-4.72 8.08,-6.61l0 -12.48c-10.08,0.22 -18.36,8.3 -18.36,16.89z"/>
  </g>
 </g>
</svg>
