<?xml version="1.0" encoding="UTF-8"?>
<!DOCTYPE svg PUBLIC "-//W3C//DTD SVG 1.1//EN" "http://www.w3.org/Graphics/SVG/1.1/DTD/svg11.dtd">
<!-- Creator: CorelDRAW -->
<svg xmlns="http://www.w3.org/2000/svg" xml:space="preserve" width="128.323mm" height="138.624mm" version="1.1" style="shape-rendering:geometricPrecision; text-rendering:geometricPrecision; image-rendering:optimizeQuality; fill-rule:evenodd; clip-rule:evenodd"
viewBox="0 0 339.19 366.42"
 xmlns:xlink="http://www.w3.org/1999/xlink"
 xmlns:xodm="http://www.corel.com/coreldraw/odm/2003">
 <defs>
  <style type="text/css">
   <![CDATA[
    .fil0 {fill:#F5A001}
   ]]>
  </style>
 </defs>
 <g id="Camada_x0020_1">
  <metadata id="CorelCorpID_0Corel-Layer"/>
  <g id="_1823736308320">
   <path class="fil0" d="M33.64 185.36l243.33 0 0 7.87 -243.33 0 0 -7.87zm0 -20.04l241.18 0c1.65,0 2.15,0.5 2.15,2.15l0 6.44 -243.33 0 0 -8.59zm7.16 -18.61l228.3 0c6.89,0 7.35,6.79 7.87,7.87l-243.33 0c0.09,-4.27 2.98,-7.87 7.16,-7.87zm-18.61 8.59l0 37.93c-6.96,0 -11.55,0.55 -15.95,4.81 -3.02,2.93 -6.24,6.72 -6.24,12.37l0 74.43c0,5.05 0.87,11.45 5.73,11.45 5.47,0 5.99,-3.69 5.76,-9.32 -1.04,-25.43 -0.75,-48.02 -0.75,-73.7 0,-4.62 2.68,-8.59 7.16,-8.59l274.82 0c3.86,0 6.44,3.54 6.44,7.16l0 69.42c0,15.14 -6.41,31.74 -14.62,42.64 -15.51,20.58 -36.7,31.79 -64.11,31.79l-128.1 0c-18.13,0 -27.1,-2.45 -41.28,-9.53 -10.24,-5.12 -20.79,-14.93 -27.11,-24.42l-6.34 -10.84c-3.03,-3.59 -20.61,-5.03 1.83,23.23 13.82,17.41 39.06,32.3 63.6,32.3l143.85 0c13.76,0 29.94,-5.44 41.66,-12.73 4.3,-2.68 8.63,-5.74 12.19,-9.28 5.51,-5.48 10.75,-9.93 15.35,-17.57 9.64,-15.98 14.53,-29.8 14.53,-51.31l0 -61.55c0,-14.47 -9.07,-20.75 -22.9,-20.75l0 -40.08c0,-9.07 -8.82,-17.89 -19.32,-17.89l-226.15 0c-11.36,0 -20.04,8.68 -20.04,20.04z"/>
   <path class="fil0" d="M201.82 10.74l105.94 -0.02c28.65,-0.14 23.21,32.94 4.99,32.94l-104.49 0c0,-14.79 1.43,-21.17 -6.44,-32.92zm-123.1 23.62l0 53.68c0,13.52 3.29,23.71 13.73,29.93 16.13,9.61 38.16,-0.06 41.22,-18.64 2.25,-13.69 -5.58,-38.48 10.18,-38.48 4.92,0 8.73,4.79 9.24,9.37 0.96,8.66 -0.57,9.21 3.15,16.17 7.93,14.83 26.83,19.42 41.2,8.73 10.47,-7.79 10.75,-18.52 3.66,-18.52 -9.16,0 -3.11,12.88 -22.19,12.88 -5.27,0 -9.22,-3.18 -11.58,-6.31 -2.9,-3.86 -3.33,-8.07 -3.43,-14.46 -0.15,-9.03 -9.01,-18.59 -17.91,-18.59l-5.01 0c-8.41,0 -15.33,8.02 -17.31,14.9 -3.77,13.1 5.06,31.81 -6.41,41.54 -11.51,9.77 -27.1,1.52 -27.1,-12.79l0 -64.41c0,-11.58 8.35,-18.61 20.04,-18.61l66.56 0c36.57,0 9.17,52.24 25.76,52.24 3.79,0 5.73,-3.71 5.73,-7.87l103.77 0c19.49,0 37.78,-24.9 19.84,-46.32 -3.4,-4.06 -11.13,-8.79 -18.41,-8.79l-207.54 0c-9,0 -16.05,5.27 -20.28,10.5 -5.16,6.37 -6.92,12.73 -6.92,23.86z"/>
   <path class="fil0" d="M184.64 286.27c0,2.8 10.29,16.62 -2.42,26.21 -13.84,10.45 -22.53,-4.02 -26.92,-4.02 -5.67,0 -7.33,9.25 -20.04,7.22 -11.02,-1.76 -16.44,-13.4 -12.26,-23.06 1,-2.31 5.41,-7.64 -1.37,-11.32 -6.47,-3.52 -10.7,-5.66 -10.7,-17.21 0,-7.5 6.91,-15.03 16.46,-15.03 4,0 7.01,1.68 9.49,-1.24 1.31,-1.54 1.71,-7.85 2.56,-10.33 4.35,-12.7 24.44,-15.75 31.13,-0.12 1.62,3.78 0.48,7.47 2.27,9.89 4.01,5.41 12.79,-2.56 22,6.62 1,1 2.51,3.28 3.12,4.75 4.3,10.26 -0.4,18.17 -9.05,22.61 -1.92,0.99 -4.28,2.12 -4.28,5.03zm-56.54 -48.67c-27.6,0 -39.86,35.38 -15.74,51.53 -9.88,20.59 15.11,50.84 42.94,32.2 14.17,12.31 44.37,5.18 44.37,-23.62 0,-11.42 -5.26,-4.46 2.71,-12.32 13.56,-13.37 9.57,-36.94 -7.71,-44.95 -3.74,-1.73 -6.13,-1.72 -10.17,-2.71 -3.07,-0.75 -2.25,-0.4 -3.22,-3.22 -6.31,-18.28 -27.24,-25.3 -43.89,-12.69 -3.7,2.8 -8.79,9.85 -9.28,15.77z"/>
   <path class="fil0" d="M138.12 272.67c0,-22.48 33.64,-21.42 33.64,-1.43 0,5.75 -0.42,10.07 -5.19,14.13 -12,10.21 -28.44,1.64 -28.44,-12.7zm13.6 27.91c9.27,0 17.07,-0.77 23.8,-8.4 18.14,-20.55 1.13,-47.42 -18.79,-47.42 -6.53,0 -7.67,-0.06 -13.82,2.64 -16.04,7.04 -21.72,30.93 -8.92,43.72 4.49,4.48 10.52,9.47 17.73,9.47z"/>
  </g>
 </g>
</svg>
