<?xml version="1.0" encoding="UTF-8"?>
<!DOCTYPE svg PUBLIC "-//W3C//DTD SVG 1.1//EN" "http://www.w3.org/Graphics/SVG/1.1/DTD/svg11.dtd">
<!-- Creator: CorelDRAW -->
<svg xmlns="http://www.w3.org/2000/svg" xml:space="preserve" width="135.45mm" height="111.178mm" version="1.1" style="shape-rendering:geometricPrecision; text-rendering:geometricPrecision; image-rendering:optimizeQuality; fill-rule:evenodd; clip-rule:evenodd"
viewBox="0 0 447.71 367.48"
 xmlns:xlink="http://www.w3.org/1999/xlink"
 xmlns:xodm="http://www.corel.com/coreldraw/odm/2003">
 <defs>
  <style type="text/css">
   <![CDATA[
    .fil0 {fill:#F5A001}
   ]]>
  </style>
 </defs>
 <g id="Camada_x0020_1">
  <metadata id="CorelCorpID_0Corel-Layer"/>
  <path class="fil0" d="M278.07 291.19l0 -53.34 13.99 0 0 53.34c0,7.04 -13.99,7.04 -13.99,0zm61.21 -4.37l0 -48.97 14.87 0 0 51.59c0,9.11 -14.87,10.74 -14.87,-2.62zm-114.55 9.62c-4.55,0 -8.74,-1.06 -8.74,-7l0 -51.59 14.87 0 0 47.22c0,4.89 -1.71,11.37 -6.12,11.37zm-140.78 -257.96l130.29 0c37.47,0 63.69,51.46 32.59,82.43 -32.31,32.17 -26.46,-21.13 -26.46,102.95 -56.88,0 -68,26.23 -73.45,26.23l-69.08 0 0 -108.43c0,-7.55 -8.03,-7.85 -13.14,-10.47 -10.18,-5.22 -18.03,-14.09 -22.71,-24.51 -5.8,-12.93 -5.38,-25.52 -0.14,-38.62 3.6,-8.99 8.53,-13.97 15.26,-19.71 6.02,-5.13 18.11,-9.87 26.85,-9.87zm174.89 -24.48c32.33,0 76.72,-0.85 108.46,-0.03 25.58,0.66 52.57,21.71 61.94,46.49 12.48,33 0.84,68.36 -25.76,86.82 -11.91,8.27 -9.11,5.26 -9.11,37.23 0,15.45 0,30.9 0,46.34 -6.28,-0.52 -12.89,-7 -41.97,-7l-93.56 0 0 -62.08c0,-2.5 1.05,-2.18 2.75,-3.38 1.94,-1.37 2.13,-1.36 4.05,-2.94 3.15,-2.58 4.51,-3.68 7.42,-6.57 13.04,-12.96 25.14,-35.91 25.14,-56.19 0,-19.64 -2.09,-34.94 -12.75,-51.08 -4.24,-6.41 -6.65,-9.87 -11.95,-15.16l-12.7 -10.91c-1.1,-0.81 -1.12,-0.84 -1.94,-1.55zm-214.24 0c0,17.13 18.2,0 36.73,0l135.54 0c18.61,0 36.04,11.24 47.88,22.95 10.28,10.16 20.32,30.33 20.32,50.51 0,26.39 -14.06,48.75 -34.29,61.9 -2.94,1.91 -5.93,3.48 -5.93,8.06l0 66.46 -10.49 0 0 -78.7c14.16,-1.18 39.35,-29.13 39.35,-53.34 0,-16.37 -1.73,-28.2 -11.85,-41.49 -11.69,-15.35 -28.91,-25.84 -49.36,-25.84l-126.79 0c-31.78,0 -61.21,28.53 -61.21,58.59 0,17.61 2.55,28.69 12.35,41.87 4.31,5.79 18.7,19.53 27,20.22 0,31.77 0,63.54 0,95.31 -0,26.51 -0.72,22.74 25.36,22.74 16.03,0 32.06,0 48.09,0 -2.16,3.23 -5.12,7.09 -6.12,11.37 -12.03,0 -69.03,1.95 -74.62,-1.45 -4.23,-2.57 -3.21,-8.79 -3.2,-15.16l0.01 -95.33c0.14,-15.7 -4.16,-8.86 -16.86,-21.62 -21.19,-21.28 -30.63,-54.89 -16.69,-83.61 2.25,-4.63 3.86,-7.77 6.59,-11.77 2.93,-4.28 7.71,-8.87 7.71,-11.53 0,-5.2 -6.2,-11.55 -12.94,-4.2 -11.1,12.11 -21.16,34.96 -21.16,52.29 0,21.72 2.04,32.78 12.51,50.45 5.99,10.11 16.62,21.97 26.84,27.38 0,17.7 -0.95,96.16 0.12,106.57 2.34,22.93 18.5,21.1 32.24,21.1 18.07,0 36.14,0 54.21,0 -3.19,6.65 -3.5,19.74 -3.5,27.98 0,26.16 24.78,51.59 54.21,51.59l170.51 0c4.91,0 7,-3.02 7,-7 0,-8.29 -10.05,-7 -18.36,-7l-126.79 0c-27.18,0 -60.38,6.39 -71.63,-29.81 -7.23,-23.26 7.79,-55.35 27.65,-70.14 8.04,-5.99 23.57,-14.61 36.99,-14.61l0 49.84c0,29.67 41.97,27.07 41.97,1.75l0 -52.47 20.11 0 0 52.47c0,10.44 10.28,20.11 20.99,20.11 10.71,0 20.99,-9.68 20.99,-20.11l0 -52.47 20.11 0 0 53.34c0,10.15 10.74,19.24 20.99,19.24 11.46,0 20.99,-10.09 20.99,-21.86l0 -49.84c21.49,0 46.89,18.87 56.55,37.01 3.9,7.32 6.6,13.67 8.41,23.07 5.9,30.73 -13.19,54.31 -36.94,54.5 -13.47,0.11 -24.52,-3.02 -24.52,8.71 0,7.11 15.17,5.25 21.86,5.25 29.43,0 54.21,-25.41 54.21,-51.59 0,-20.8 -2.88,-32.52 -12.51,-48.7 -3.5,-5.88 -7.06,-10.73 -11.75,-15.36 -3.3,-3.26 -10.7,-10.85 -15.09,-12.02l0 -79.57c21.09,-11.16 39.35,-42.38 39.35,-69.08 0,-22.85 -3.73,-36.43 -16.26,-54.57 -13.19,-19.09 -40.07,-36.37 -68.56,-36.37l-278.07 0c-8.16,0 -16.82,1.7 -23.29,3.81 -3.43,1.12 -16.93,5.05 -16.93,10.18z"/>
 </g>
</svg>
