<?xml version="1.0" encoding="UTF-8"?>
<!DOCTYPE svg PUBLIC "-//W3C//DTD SVG 1.1//EN" "http://www.w3.org/Graphics/SVG/1.1/DTD/svg11.dtd">
<!-- Creator: CorelDRAW -->
<svg xmlns="http://www.w3.org/2000/svg" xml:space="preserve" width="116.099mm" height="115.376mm" version="1.1" style="shape-rendering:geometricPrecision; text-rendering:geometricPrecision; image-rendering:optimizeQuality; fill-rule:evenodd; clip-rule:evenodd"
viewBox="0 0 301.95 300.07"
 xmlns:xlink="http://www.w3.org/1999/xlink"
 xmlns:xodm="http://www.corel.com/coreldraw/odm/2003">
 <defs>
  <style type="text/css">
   <![CDATA[
    .fil0 {fill:#F5A001}
   ]]>
  </style>
 </defs>
 <g id="Camada_x0020_1">
  <metadata id="CorelCorpID_0Corel-Layer"/>
  <g id="_1828093769360">
   <path class="fil0" d="M29.44 270l243.06 0c-0.66,0.57 -0.17,0.33 -1.46,1.04 -10.54,5.84 -52.37,15.25 -64.31,15.25l-110.25 0c-15.45,0 -48,-8.24 -63.38,-14.3l-3.65 -1.98zm15.03 -97.73l0 -65.78 191.07 0 0 68.28c0,17.41 -7.72,34.81 -16.91,47.61 -8.42,11.73 -22.93,22.64 -36.95,28.2 -21.73,8.61 -61.51,8.62 -83.24,-0.1 -5.56,-2.23 -9.75,-4.26 -14.5,-7.42 -23.32,-15.48 -39.46,-40.84 -39.46,-70.79zm199.84 28.82c1.88,-8.06 4.38,-14.82 4.38,-25.06l0 -69.53c18.07,0 33.2,15.08 33.2,34.45 0,23.41 4.02,47.76 -21.64,57.92 -5.15,2.04 -9.08,2.22 -15.94,2.22zm-212.99 -100.23l0 70.16c0,18.1 5.51,37.52 15.15,52.51 2.41,3.75 4.41,6.28 7.13,9.79l8.04 8.87c5.56,4.34 6.63,6.23 13.89,11.16 1.25,0.85 1.62,0.96 2.75,1.64l2.53 1.86c-4.4,0 -73.65,-0.49 -76.18,0.24 -2.61,0.76 -4.63,3.52 -4.63,6.65 0,7.07 22.07,18.07 29.26,20.86 15.74,6.11 22.72,7.37 39.52,11.22 4.32,0.99 9.48,1.79 14.43,2.48 4.7,0.66 9.73,1.77 15.14,1.77l105.24 0c13.06,0 45.63,-7.35 56.62,-11.04 4.6,-1.54 8.14,-2.72 12.47,-4.44l8.68 -3.85c1.01,-0.53 1.6,-0.94 2.82,-1.56 4.96,-2.52 17.75,-9.91 17.75,-16.07 0,-8.48 -12.83,-6.26 -20.67,-6.26l-81.44 0 11.64 -8.4c8.23,-6.47 18.56,-17.86 23.64,-27.1 1.04,-1.89 3.15,-5.36 3.55,-7.1 9.89,0 15.79,0.44 23.58,-2.11 19.31,-6.31 32.8,-23.81 32.8,-44.88 0,-19.88 2.8,-41.44 -10.5,-56.53 -9.06,-10.27 -20.22,-17.4 -35.23,-17.4l-210.48 0c-4.84,0 -7.52,2.67 -7.52,7.52z"/>
   <path class="fil0" d="M138.44 212.99c-6.28,0 -20.06,-10.68 -24.7,-16.64 -7.45,-9.57 -12.26,-18.59 -12.26,-31.6 0,-13.79 12.63,-16.68 18.81,-15.1 12.73,3.27 9.09,17.01 18.06,16.62 8.65,-0.38 5.08,-14.52 18.24,-16.62 10.14,-1.61 18.17,4.2 18.17,16.34 0,11.59 -6.24,23.31 -11.76,29.58 -6.49,7.38 -8.61,8.92 -17.17,14.16 -1.14,0.7 -6.1,3.24 -7.41,3.24zm-50.12 -47.61c0,16.63 7.89,30.03 15.57,39.56 5.99,7.44 14.63,13.85 23.26,18.08 9.92,4.87 11.59,4.95 21.53,0.21 8.18,-3.9 17.75,-11.22 23.4,-17.94 11.58,-13.78 22.59,-38.31 10.97,-56.96 -6.09,-9.78 -19.78,-14.08 -31.49,-11.16 -3.49,0.87 -4.96,1.86 -7.63,3.65 -2.8,1.87 -3.8,3.59 -6.13,5.15 -7.99,-11.93 -29.1,-13.54 -41.29,-1.82 -2.53,2.43 -4.59,5.26 -5.78,8.62 -1.34,3.76 -2.42,7.32 -2.42,12.62z"/>
   <path class="fil0" d="M202.97 24.43c0,13.36 23.85,32.61 3.57,49.3 -3.14,2.59 -4.2,2.2 -4.2,7.08 0,3.45 4.75,9.51 11.15,4.26 4.69,-3.84 7.91,-7.11 10.99,-12.82 10.97,-20.35 -7.84,-41.91 -8.21,-47.32 -0.71,-10.36 13.63,-10.47 13.63,-18.67 0,-3.82 -2.79,-6.26 -6.89,-6.26 -5.36,0 -20.05,11.2 -20.05,24.43z"/>
   <path class="fil0" d="M73.29 23.18c0,9.46 1.84,10.16 5.84,17.34 5.68,10.19 8.84,21.09 0.04,30.52 -3.03,3.25 -7.14,5.28 -7.14,9.78 0,1.77 4.35,11.78 13.94,2.04 8.87,-9.01 11.74,-13.09 11.74,-27.1 0,-21.25 -21.17,-29.12 -5.56,-40.64 3.71,-2.74 7.44,-3.14 7.44,-8.85 0,-3.23 -3.61,-6.26 -6.26,-6.26 -5.22,0 -20.05,10.55 -20.05,23.18z"/>
   <path class="fil0" d="M138.44 22.55c0,8.87 0.89,10.29 6.15,18.91 15.09,24.75 -7.4,31.58 -7.4,39.35 0,5.8 8.79,11.89 19.56,-4.25 10.28,-15.41 6.38,-28.61 -1.8,-43.58 -3.28,-6 -6.85,-12.32 2.94,-18.56 3.05,-1.94 6.87,-3.24 6.87,-8.16 0,-2.75 -3.51,-6.26 -6.26,-6.26 -5.63,0 -20.05,10.75 -20.05,22.55z"/>
  </g>
 </g>
</svg>
